<?xml version="1.0" encoding="utf-8"?>
<!-- Generator: Adobe Illustrator 22.1.0, SVG Export Plug-In . SVG Version: 6.00 Build 0)  -->
<svg version="1.1" id="Layer_1" xmlns="http://www.w3.org/2000/svg" xmlns:xlink="http://www.w3.org/1999/xlink" x="0px" y="0px"
	 viewBox="0 0 186.6 187.9" style="enable-background:new 0 0 186.6 187.9;" xml:space="preserve">
<style type="text/css">
	.st0{fill:none;stroke:#FFFFFF;stroke-width:3;stroke-linecap:round;stroke-linejoin:round;stroke-miterlimit:10;}
</style>
<g>
	<path class="st0" d="M91,100.1"/>
	<path class="st0" d="M145.1,129.6"/>
	<path class="st0" d="M56.4,100.1L2.2,129.6v9.9c0,2.7,2.2,4.9,4.8,4.9h57.7"/>
	<path class="st0" d="M110.6,29.6c-2.7-16-20.7-28.1-36.9-28.1v0c-16.2,0-34.3,12.2-36.9,28.1l0,28.1c0,0,0,29.7,19.7,42.3"/>
</g>
<g>
	<path class="st0" d="M96.4,140.1l-54.2,29.6v9.9c0,2.7,2.2,4.9,4.8,4.9h133.4c2.6,0,4.8-2.2,4.8-4.9v-9.9v0L131,140.1"/>
	<path class="st0" d="M131,140.1c19.6-11.7,19.6-42.3,19.6-42.3l0-28.1c-2.7-16-20.7-28.1-36.9-28.1v0c-16.2,0-34.3,12.2-36.9,28.1
		l0,28.1c0,0,0,29.7,19.7,42.3"/>
</g>
</svg>
