<?xml version="1.0" encoding="utf-8"?>
<!-- Generator: Adobe Illustrator 24.2.1, SVG Export Plug-In . SVG Version: 6.00 Build 0)  -->
<svg version="1.1" id="Layer_1" xmlns="http://www.w3.org/2000/svg" xmlns:xlink="http://www.w3.org/1999/xlink" x="0px" y="0px"
	 viewBox="0 0 176.5 160.5" style="enable-background:new 0 0 176.5 160.5;" xml:space="preserve">
<style type="text/css">
	.st0{fill:none;stroke:#333333;stroke-width:3;stroke-linecap:round;stroke-linejoin:round;stroke-miterlimit:10;}
	.st1{fill:#333333;}
</style>
<g>
	<path class="st0" d="M120.3,133c-12.1,9.3-27.2,14.9-43.7,14.9C37,147.9,5,115.8,5,76.3S37,4.7,76.6,4.7
		c39.5,0,71.6,32.1,71.6,71.6c0,5.4-0.6,10.7-1.7,15.8"/>
	<polyline class="st0" points="73.5,42 73.5,76.3 127.2,76.8 	"/>
</g>
<path class="st1" d="M171.7,96.8h-47.9c-0.7,0-1.3,0.6-1.3,1.3v18.3c0,17.2,9.4,32.8,24.6,40.8c0.2,0.1,0.4,0.1,0.6,0.1
	c0.2,0,0.4,0,0.6-0.1c15.2-8,24.6-23.6,24.6-40.8V98.1C173,97.4,172.4,96.8,171.7,96.8z M162.5,115.4L143.6,133
	c-0.5,0.5-1.3,0.5-1.8,0l-6.3-6.3c-0.5-0.5-0.5-1.3,0-1.8c0.5-0.5,1.3-0.5,1.8,0l5.4,5.4l18-16.8c0.5-0.5,1.3-0.4,1.8,0.1
	C163.1,114.1,163,114.9,162.5,115.4z"/>
</svg>
