<?xml version="1.0" encoding="utf-8"?>
<!-- Generator: Adobe Illustrator 24.2.1, SVG Export Plug-In . SVG Version: 6.00 Build 0)  -->
<svg version="1.1" id="Layer_1" xmlns="http://www.w3.org/2000/svg" xmlns:xlink="http://www.w3.org/1999/xlink" x="0px" y="0px"
	 viewBox="0 0 176.3 159.5" style="enable-background:new 0 0 176.3 159.5;" xml:space="preserve">
<style type="text/css">
	.st0{fill:none;stroke:#333333;stroke-width:3;stroke-linecap:round;stroke-linejoin:round;stroke-miterlimit:10;}
	.st1{fill:#333333;}
</style>
<g>
	<path class="st0" d="M148.4,87.6V10.3c0-3.5-2.8-6.3-6.3-6.3H10.6c-3.5,0-6.3,2.8-6.3,6.3v131.8c0,3.5,2.8,6.3,6.3,6.3H127"/>
	<circle class="st0" cx="37.7" cy="76.2" r="12.6"/>
	<line class="st0" x1="37.7" y1="88.8" x2="37.7" y2="129.7"/>
	<line class="st0" x1="37.7" y1="23" x2="37.7" y2="63.6"/>
	<circle class="st0" cx="75.4" cy="51.1" r="12.6"/>
	<line class="st0" x1="75.4" y1="63.6" x2="75.4" y2="129.7"/>
	<line class="st0" x1="75.4" y1="23" x2="75.4" y2="38.5"/>
	<circle class="st0" cx="113" cy="97.1" r="12.6"/>
	<line class="st0" x1="113" y1="84.6" x2="113" y2="23"/>
	<line class="st0" x1="113" y1="129.7" x2="113" y2="109.7"/>
</g>
<g>
	<path class="st1" d="M151.2,113.8v8.4c0,0.8-0.6,1.4-1.4,1.4c-0.8,0-1.4-0.6-1.4-1.4v-9.8l0-11c0-2.4-1.5-4.7-3.8-5.5
		c-3.8-1.2-7.4,1.6-7.4,5.3v29l-5.1-4.4c-1.8-1.6-4.7-1.5-6.4,0.2c-1.6,1.6-1.9,4.2-0.6,6c0.4,0.8,11,18.8,15.2,24.3
		c0.3,0.3,0.7,0.5,1.1,0.5l25.1,0c0.6,0,1.2-0.4,1.3-1l4.5-15.8c0.7-2.6,1.1-5.3,1.1-8v-8.6c0-2.8-2-5.1-4.7-5.5
		c-0.5-0.1-0.9,0.3-0.9,0.8l0,8.9c0,0.8-0.6,1.4-1.4,1.4s-1.4-0.6-1.4-1.4l0-8.5c0-1.3-0.5-2.5-1.6-3.2c-0.8-0.5-1.7-0.8-2.6-0.8
		l-0.3,0l-0.3,0.1l-0.8,1.2l0,0v0.1v0.3v5.3c0,0.8-0.6,1.4-1.4,1.4s-1.4-0.6-1.4-1.4l0-5.7c0-1.3-0.5-2.5-1.6-3.2
		c-0.8-0.5-1.7-0.7-2.6-0.8l-0.4,0"/>
	<path class="st1" d="M153.2,114.4h-2v-1c0-0.6,0.5-1,1-1l1,0.1L153.2,114.4z"/>
	<path class="st1" d="M161.6,117.2h-2v-1c0-0.6,0.5-1,1-1h1V117.2z"/>
</g>
</svg>
