<?xml version="1.0" encoding="utf-8"?>
<!-- Generator: Adobe Illustrator 23.1.0, SVG Export Plug-In . SVG Version: 6.00 Build 0)  -->
<svg version="1.1" id="Layer_1" xmlns="http://www.w3.org/2000/svg" xmlns:xlink="http://www.w3.org/1999/xlink" x="0px" y="0px"
	 viewBox="0 0 100 100" style="enable-background:new 0 0 100 100;" xml:space="preserve">
<style type="text/css">
	.st0{fill:#0678BE;}
</style>
<g>
	<g>
		<path class="st0" d="M63.2,2.9h-50c-4.7,0-8.8,3.8-8.8,8.8v76.5c0,4.7,4.1,8.8,8.8,8.8h50c5,0,8.8-4.1,8.8-8.8V11.8
			C72.1,6.8,68.2,2.9,63.2,2.9z M36.8,82.4H19.1c-1.8,0-2.9-1.2-2.9-2.9c0-1.8,1.2-2.9,2.9-2.9h17.6c1.8,0,2.9,1.2,2.9,2.9
			C39.7,81.2,38.5,82.4,36.8,82.4z M56.2,70.6H19.1c-1.8,0-2.9-1.2-2.9-2.9s1.2-2.9,2.9-2.9h37.1c1.8,0,2.9,1.2,2.9,2.9
			S57.6,70.6,56.2,70.6z M57.4,58.8H19.1c-1.8,0-2.9-1.2-2.9-2.9c0-1.8,1.2-2.9,2.9-2.9h38.2c1.8,0,2.9,1.2,2.9,2.9
			C60.3,57.6,59.1,58.8,57.4,58.8z M57.4,47.1H19.1c-1.8,0-2.9-1.2-2.9-2.9c0-1.8,1.2-2.9,2.9-2.9h38.2c1.8,0,2.9,1.2,2.9,2.9
			C60.3,45.9,59.1,47.1,57.4,47.1z M57.4,35.3H19.1c-1.8,0-2.9-1.2-2.9-2.9c0-1.8,1.2-2.9,2.9-2.9h38.2c1.8,0,2.9,1.2,2.9,2.9
			C60.3,34.1,59.1,35.3,57.4,35.3z M57.4,23.5H19.1c-1.8,0-2.9-1.2-2.9-2.9s1.2-2.9,2.9-2.9h38.2c1.8,0,2.9,1.2,2.9,2.9
			S59.1,23.5,57.4,23.5z"/>
	</g>
	<g>
		<g>
			<path class="st0" d="M95.6,14.7v5.9H77.9v-5.9c0-5,4.1-8.8,8.8-8.8C91.8,5.9,95.6,9.7,95.6,14.7z"/>
		</g>
		<g>
			<path class="st0" d="M77.9,26.2h17.6v52.4c0,0.6,0,0.9-0.3,1.2l-5.9,12.4c-0.6,0.9-1.5,1.8-2.6,1.8s-2.1-0.6-2.6-1.8l-5.9-12.4
				c-0.3-0.3-0.3-0.9-0.3-1.2C77.9,78.5,77.9,26.2,77.9,26.2z"/>
		</g>
	</g>
</g>
</svg>
