<?xml version="1.0" encoding="utf-8"?>
<!-- Generator: Adobe Illustrator 23.1.0, SVG Export Plug-In . SVG Version: 6.00 Build 0)  -->
<svg version="1.1"
	 id="Layer_1" xmlns:cc="http://creativecommons.org/ns#" xmlns:dc="http://purl.org/dc/elements/1.1/" xmlns:inkscape="http://www.inkscape.org/namespaces/inkscape" xmlns:rdf="http://www.w3.org/1999/02/22-rdf-syntax-ns#" xmlns:sodipodi="http://sodipodi.sourceforge.net/DTD/sodipodi-0.dtd" xmlns:svg="http://www.w3.org/2000/svg"
	 xmlns="http://www.w3.org/2000/svg" xmlns:xlink="http://www.w3.org/1999/xlink" x="0px" y="0px" viewBox="0 0 100 100"
	 style="enable-background:new 0 0 100 100;" xml:space="preserve">
<style type="text/css">
	.st0{fill:#0678BE;}
</style>
<g transform="translate(0,-1020.3622)">
	<g transform="translate(-0.1874839,-0.08735)">
		<g transform="translate(0.18336736,-0.87410704)">
			<g transform="translate(131.00412,-557.03854)">
				<path class="st0" d="M-129.4,1594c-0.9,0-1.6,0.7-1.6,1.6v43.8c0,0.9,0.7,1.6,1.6,1.6h20.3v6.3h-6.3v3.1h7.5h0.6h1.5
					c0.7,3.6,3.9,6.3,7.6,6.3h26.6v4.7c0,0.8,0.7,1.6,1.6,1.6h20.3v1.6c0,0.8,0.7,1.6,1.6,1.6h15.6c0.8,0,1.6-0.7,1.6-1.6v-25
					c0-0.8-0.7-1.6-1.6-1.6h-7.8v-14.1c0-0.8-0.7-1.6-1.6-1.6h-4.7v-4.7c0-0.9-0.7-1.6-1.6-1.6h-14.1v-20.3c0-0.9-0.7-1.6-1.6-1.6
					H-129.4z M-127.9,1597.1h62.5v18.8h-32.8c-0.9,0-1.6,0.7-1.6,1.6v14.1h-28.1V1597.1z M-96.6,1619h46.9v3.1h-20.3
					c-0.8,0-1.6,0.7-1.6,1.6v23.4h-6.3h-18.8V1619z M-68.5,1625.2h25v12.5h-4.7c-0.2,0-0.3,0-0.5,0c-0.6,0.2-1.1,0.9-1.1,1.6v20.3
					h-18.8V1625.2z M-127.9,1634.6h28.1v3.1h-7.3h-1h-19.8V1634.6z M-106,1640.9h6.3v6.3h-6.3V1640.9z M-46.6,1640.9h12.5v15.6
					h-12.5V1640.9z M-102.2,1650.2h24.3h6.3v3.1h-26.6C-100.2,1653.4-101.5,1652-102.2,1650.2z M-46.6,1659.6h12.5v3.1h-12.5v-1.3
					c0-0.1,0-0.2,0-0.3V1659.6z"/>
			</g>
		</g>
	</g>
</g>
</svg>
