<?xml version="1.0" encoding="utf-8"?>
<!-- Generator: Adobe Illustrator 23.1.0, SVG Export Plug-In . SVG Version: 6.00 Build 0)  -->
<svg version="1.1" id="Layer_1" xmlns="http://www.w3.org/2000/svg" xmlns:xlink="http://www.w3.org/1999/xlink" x="0px" y="0px"
	 viewBox="0 0 100 100" style="enable-background:new 0 0 100 100;" xml:space="preserve">
<style type="text/css">
	.st0{fill:#0678BE;}
</style>
<g>
	<g>
		<g>
			<path class="st0" d="M61.2,60.8l-7.4-6.7c0.5-2.6,0.5-5.2,0-7.7l7.3-6.8c0.5-0.5,0.6-1.2,0.3-1.8l-4.5-7.6
				c-0.3-0.6-1.1-0.9-1.8-0.6l-9.2,3.3c-1.8-1.5-3.9-2.7-6.2-3.6l-2.1-9.8c-0.2-0.8-0.8-1.2-1.5-1.2l0,0h-8.8
				c-0.8,0-1.4,0.5-1.5,1.2l-2,9.7c-2.4,0.9-4.5,2.1-6.5,3.8l-9.4-3c-0.6-0.2-1.4,0.2-1.8,0.8l-4.2,7.7c-0.3,0.6-0.2,1.4,0.3,1.8
				l7.4,6.5c-0.5,2.6-0.5,5.2,0.2,7.7l-7.3,6.8C1.8,61.7,1.7,62.4,2,63l4.5,7.6c0.3,0.6,1.1,0.9,1.8,0.6l9.2-3.2
				c1.8,1.5,3.9,2.7,6.2,3.6l2.1,9.8c0.2,0.8,0.8,1.2,1.5,1.2l0,0h8.8c0.8,0,1.4-0.5,1.5-1.2l2-9.7c2.4-0.9,4.5-2.3,6.5-3.8l9.4,3
				c0.8,0.2,1.4-0.2,1.8-0.8l4.2-7.7C61.8,62,61.7,61.2,61.2,60.8z M31.7,61.8c-6.2,0-11.2-5.2-11.2-11.4s5-11.4,11.2-11.4
				c6.1,0,11.2,5,11.2,11.4C42.7,56.7,37.7,61.8,31.7,61.8z"/>
		</g>
	</g>
	<g>
		<path class="st0" d="M78.3,71.4l1.7,18c0,0.5-0.2,0.9-0.5,1.2s-0.8,0.5-1.1,0.5l0,0l-17.9-0.5c-1.2,0-2-1.5-1.1-2.6l3.8-4.2
			l-5.6-5.3c-0.6-0.6-0.6-1.5,0-2.1l6.4-7c0.5-0.6,1.5-0.8,2.1-0.2l5.5,5.3l3.8-4.2C76.5,69.5,78.2,70.2,78.3,71.4z"/>
		<path class="st0" d="M60.5,22.7c-0.5-0.6-0.5-1.7,0.3-2.1l6.1-4.7l-3.5-4.5c-0.8-0.9,0-2.4,1.2-2.4L82.4,10c0.9,0,1.5,0.9,1.4,1.8
			l-3.2,17.9c-0.3,1.2-1.8,1.7-2.7,0.6l-3.6-4.5l-5.9,4.7c-0.8,0.6-1.7,0.5-2.1-0.3L60.5,22.7z"/>
		<path class="st0" d="M98.5,49.5c0,0.5-0.2,0.9-0.5,1.2L85.5,63.6c-0.9,0.9-2.6,0.5-2.6-0.9L82.6,57L75,57.4
			c-0.9,0-1.5-0.6-1.7-1.4l-0.6-9.7c0-0.8,0.6-1.5,1.4-1.7l7.6-0.5l-0.3-5.8c-0.2-1.2,1.4-2.1,2.4-1.4l14.1,11.1
			C98.2,48.6,98.5,49.1,98.5,49.5z"/>
	</g>
</g>
</svg>
