<?xml version="1.0" encoding="utf-8"?>
<!-- Generator: Adobe Illustrator 23.1.0, SVG Export Plug-In . SVG Version: 6.00 Build 0)  -->
<svg version="1.1" id="Layer_1" xmlns="http://www.w3.org/2000/svg" xmlns:xlink="http://www.w3.org/1999/xlink" x="0px" y="0px"
	 viewBox="0 0 374 326.4" style="enable-background:new 0 0 374 326.4;" xml:space="preserve">
<style type="text/css">
	.st0{fill:#0678BE;}
</style>
<g>
	<path class="st0" d="M317.5,134.9H197v-0.6c0-26.6-21.6-48.1-48.2-48.1H65.1c-26.6,0-48.1,21.6-48.1,48.1c0,18.7,10.7,35,26.4,42.9
		v31.9l25.1-26.7h58c3.8,17.9,19.6,31.3,38.6,31.3h17.6l28,26.3v-26.3h30.8l28,26.3v-26.3H299l28,26.3v-27.5
		c17.2-4.2,30-19.8,30-38.3C357,152.6,339.3,134.9,317.5,134.9z M65.1,169.7c-19.5,0-35.4-15.9-35.4-35.4
		c0-19.5,15.9-35.4,35.4-35.4h83.7c19.5,0,35.4,15.9,35.4,35.4c0,0.2,0,0.4,0,0.6c-0.1,4.5-1,8.8-2.6,12.8c-5.3,12.9-18,22-32.8,22
		H65.1z M317.5,201.1H165.1c-11.9,0-22-7.8-25.4-18.6h9.1c21.9,0,40.5-14.7,46.3-34.8h122.4c14.7,0,26.7,12,26.7,26.7
		C344.2,189.1,332.2,201.1,317.5,201.1z"/>
	<g>
		<path class="st0" d="M136.5,162.8h-12.7l-5.1-13.1H95.6l-4.8,13.1H78.4L101,105h12.4L136.5,162.8z M115,139.9l-8-21.5l-7.8,21.5
			H115z"/>
	</g>
	<path class="st0" d="M209.2,190.7l-2,3.8l4.3,2.2l2-3.8L209.2,190.7z M215.3,188.3l-2,3.8l4.3,2.3l2.1-3.8L215.3,188.3z"/>
	<path class="st0" d="M219.8,178.7v6.5h-17c-1.2,0-2.2-0.5-2.9-1.5c-0.6-0.9-1.1-2.1-1.5-3.8c-0.3-1.7-0.6-3.7-0.7-6.2
		c-0.1-2-0.2-4.1-0.3-6.2c-0.1-2.1-0.3-3.7-0.4-4.8c-0.2-1.1-0.4-2-0.7-2.7c-0.4-0.8-0.9-1.6-1.6-2.2l3.3-5.1
		c0.7,2.1,1.2,4.7,1.5,7.6c0.2,1.8,0.3,6.2,0.5,13.1c0.3,3.1,0.8,5.2,1.4,6c0.5,0.7,1,1.1,1.6,1.1h15.1c0-2.1-0.3-3.7-0.7-4.8
		c-0.3-0.8-1.2-1.9-2.5-3.3l2.1-4.3c1.3,1.6,2.1,2.9,2.4,3.8C219.6,173.3,219.8,175.6,219.8,178.7z"/>
	<path class="st0" d="M266.7,164.6c-2.7-2.6-6.7-4-11.9-4.1c0.2-2.8,2-4.2,5.3-4.2v-1h-15.9v1c3.3,0,5.1,1.4,5.3,4.2
		c-4.8,0.2-8.6,1.5-11.6,3.9c-3,2.4-4.4,5.6-4.4,9.5c0,3.7,1.5,6.9,4.4,9.5c2.9,2.6,6.8,3.9,11.6,3.9c-0.2,2.8-2,4.2-5.3,4.2v1H260
		v-1c-1.6,0-2.9-0.4-3.8-1.1c-0.9-0.7-1.4-1.8-1.5-3.2c4.9,0,8.8-1.3,11.7-3.9c2.9-2.6,4.4-5.8,4.4-9.5
		C270.8,170.2,269.4,167.1,266.7,164.6z M249.5,185.7c-6.7-0.4-10.1-4.2-10.1-11.4c0-4.5,0.9-7.7,2.7-9.4c1.8-1.8,4.2-2.7,7.4-2.9
		V185.7z M262.1,182.9c-1.8,1.7-4.3,2.7-7.3,2.8v-23.8c6.7,0.4,10.1,4.2,10.1,11.5C264.8,178,263.9,181.2,262.1,182.9z"/>
	<g>
		<path class="st0" d="M306.5,186.4h-9v7.8h-2.9v-7.8h-8.9v-2.7h8.9V180h-6.8v-14.9h6.8v-3.9h-8.4v-2.7h8.4v-5.1l3.7,0.3
			c0,0.3-0.3,0.5-0.8,0.6v4.3h8.8v2.7h-8.8v3.9h7V180h-7v3.7h9V186.4z M290.6,167.5v3.8h11.2v-3.8H290.6z M290.6,173.7v3.9h11.2
			v-3.9H290.6z M324.7,155.6v35c0,3.6-1.7,3.8-8,3.7c-0.1-0.8-0.6-2.1-1-2.9c1.4,0,2.7,0.1,3.7,0.1c2.1,0,2.4,0,2.4-1v-10.8h-10.5
			c-0.7,5.2-2.4,10.7-6.5,14.7c-0.4-0.6-1.6-1.5-2.3-1.8c5.8-5.7,6.4-13.8,6.4-20.3v-16.8L324.7,155.6L324.7,155.6z M311.7,172.3
			c0,1.5,0,3-0.1,4.6h10.2v-8h-10.1V172.3z M321.8,158.3h-10.1v7.9h10.1V158.3z"/>
	</g>
</g>
</svg>
