<?xml version="1.0" encoding="utf-8"?>
<!-- Generator: Adobe Illustrator 23.1.0, SVG Export Plug-In . SVG Version: 6.00 Build 0)  -->
<svg version="1.1" id="Layer_1" xmlns="http://www.w3.org/2000/svg" xmlns:xlink="http://www.w3.org/1999/xlink" x="0px" y="0px"
	 viewBox="0 0 100 100" style="enable-background:new 0 0 100 100;" xml:space="preserve">
<style type="text/css">
	.st0{fill:#0678BE;}
</style>
<g>
	<path class="st0" d="M49,47.1c4.1,0,7.5-3.3,7.5-7.3c0-4-3.3-7.3-7.5-7.3s-7.5,3.3-7.5,7.3C41.6,43.8,44.9,47.1,49,47.1z"/>
	<path class="st0" d="M49,48.6c-10,0-18.1,8.1-18.1,18.1c0,0.4,0.4,0.8,0.8,0.8h34.6c0.4,0,0.8-0.4,0.8-0.8
		C67.1,56.7,59,48.6,49,48.6z"/>
	<path class="st0" d="M92.2,32.4c1.3-0.2,2.1-1.4,1.9-2.7l-0.6-3.3c-0.2-1.3-1.4-2.1-2.7-1.9l-1.2,0.2c-0.2-0.4-0.5-0.9-0.7-1.3
		l0.8-0.9c0.8-1,0.7-2.5-0.3-3.3L86.8,17c-0.5-0.4-1.1-0.6-1.7-0.5c-0.6,0-1.2,0.4-1.6,0.8l-0.8,0.9c-0.4-0.2-0.9-0.4-1.4-0.5v-1.2
		c0-1.3-1.1-2.4-2.4-2.4h-3.4c-1.3,0-2.3,1.1-2.3,2.4v1.2c-0.5,0.1-0.9,0.3-1.4,0.5l-0.8-0.9c-0.8-1-2.3-1.1-3.3-0.3l-1.3,1.1
		c-5.1-2.8-10.9-4.4-16.7-4.5V8.4c6.8,0.1,13.6,1.9,19.5,5.3c0.4,0.2,0.9,0.1,1.1-0.3s0.1-0.9-0.3-1.1C63.8,8.7,56.5,6.8,49,6.8
		C25.2,6.8,5.8,26.2,5.8,50S25.2,93.2,49,93.2c23.8,0,43.2-19.4,43.2-43.2c0-1.7-0.1-3.5-0.3-5.2c-0.1-0.5-0.5-0.8-0.9-0.7
		c-0.4,0-0.8,0.5-0.7,0.9c0.2,1.4,0.3,2.8,0.3,4.2h-5.2c0-1.1-0.1-2.3-0.2-3.4c0.3-0.2,0.6-0.6,0.8-0.9c0.3-0.6,0.3-1.2,0.1-1.8
		L85.7,42c0.4-0.3,0.8-0.6,1.1-0.9l1,0.6c0.4,0.2,0.8,0.3,1.2,0.3c0.2,0,0.4,0,0.6-0.1c0.6-0.2,1.1-0.5,1.4-1.1l1.7-2.9
		c0.7-1.1,0.3-2.6-0.9-3.2l-1-0.6c0.1-0.5,0.2-1,0.3-1.4L92.2,32.4z M70.8,30.8c0-3.6,2.9-6.5,6.5-6.5c3.6,0,6.5,2.9,6.5,6.5
		s-2.9,6.5-6.5,6.5C73.8,37.3,70.8,34.4,70.8,30.8z M48.2,91.6C25.9,91.2,7.9,73.1,7.5,50.8h5.2C13.1,70.2,28.8,86,48.2,86.4V91.6z
		 M14.3,50c0-19.2,15.6-34.8,34.8-34.8c5.7,0,11.2,1.4,16.2,4c-1,0.8-1.1,2.3-0.3,3.3l0.8,0.9c-0.3,0.4-0.5,0.8-0.7,1.3l-1.2-0.2
		c-1.3-0.2-2.5,0.6-2.7,1.9l-0.6,3.3c-0.1,0.6,0,1.2,0.4,1.8c0.4,0.5,0.9,0.8,1.5,1l1.2,0.2c0.1,0.5,0.1,1,0.3,1.4l-1,0.6
		c-1.1,0.6-1.5,2.1-0.9,3.2l1.7,2.9c0.3,0.5,0.8,0.9,1.4,1.1c0.2,0,0.4,0.1,0.6,0.1c0.4,0,0.8-0.1,1.2-0.3l1-0.6
		c0.4,0.3,0.7,0.6,1.1,0.9l-0.4,1.1c-0.2,0.6-0.2,1.2,0.1,1.8c0.3,0.6,0.7,1,1.3,1.2l3.2,1.2c0.3,0.1,0.5,0.1,0.8,0.1
		c1,0,1.9-0.6,2.2-1.5l0.4-1.1c0.2,0,0.5,0,0.7,0c0.2,0,0.5,0,0.7,0l0.4,1.1c0.3,1,1.3,1.5,2.2,1.5c0.3,0,0.5,0,0.8-0.2l2.2-0.8
		c0.1,1.2,0.2,2.3,0.2,3.5c0,19.2-15.6,34.8-34.8,34.8C29.9,84.8,14.3,69.2,14.3,50z"/>
</g>
</svg>
