<svg height='100px' width='100px'  fill="#036db6" xmlns="http://www.w3.org/2000/svg" xmlns:xlink="http://www.w3.org/1999/xlink" version="1.1" x="0px" y="0px" viewBox="0 0 100 100" style="enable-background:new 0 0 100 100;" xml:space="preserve"><g><path d="M81,40.1l-5.5,13c1,0.9,1.9,1.7,2.6,2.4l6-14.1l0.3-0.8l0-0.1c0.6-1.8,0.9-3.6,0.9-5.5c0-8.9-7.2-16.1-16.1-16.1   s-16.1,7.2-16.1,16.1v3h1.7h1.6l0.1-3.4c0.2-6.9,5.9-12.4,12.8-12.4c7,0,12.8,5.7,12.8,12.8c0,1.5-0.2,2.9-0.7,4.3L81,40.1z"></path><path d="M69.1,11.1c-13.2,0-24,10.8-24,24h3.4c0-11.4,9.3-20.6,20.6-20.6s20.6,9.3,20.6,20.6c0,2.5-0.4,4.9-1.3,7.2l-0.1,0.3   L73.1,78l-0.5,1c-2.3,4-6.6,6.4-11.2,6.4c-4.2,0-8-2.1-10.4-5.2c-1.1,0.4-2.2,0.7-3.4,1c2.9,4.6,8,7.6,13.8,7.6   c5.8,0,11.2-3.1,14.1-8.1l0.7-1.3l15.3-35.5l0.2-0.4c1-2.7,1.5-5.5,1.5-8.4C93.1,21.9,82.3,11.1,69.1,11.1z"></path><path d="M47.2,78c2.1-0.4,4.2-0.9,6.3-1.6l5.4-5.4l13.5-13.5c0.8,0.7,1.5,1.3,2,1.8l-4.9,4.9l-9.4,9.4c2.4-1.2,4.8-2.6,7.1-4.1   c3.2-2.1,5.7-4.2,7.5-5.9c0.3-0.2,0.5-0.4,0.7-0.6c1.5-1.4,2.3-2.3,2.4-2.4l0.4-0.5l0.5-0.5l-0.9-1c-0.1-0.1-0.5-0.6-1.4-1.4   c-0.1-0.1-0.1-0.1-0.2-0.2c-0.5-0.5-1.1-1-1.8-1.7c-0.4-0.3-0.8-0.7-1.3-1.1c-0.4-0.3-0.8-0.7-1.3-1c-0.5-0.4-1.1-0.9-1.7-1.3   c-0.1-0.1-0.2-0.2-0.4-0.3c-0.9-0.6-1.8-1.3-2.7-1.9c0,0,0,0,0,0c-0.7-0.5-1.5-1-2.2-1.4c-1-0.6-2-1.2-3-1.7   c-0.7-0.4-1.5-0.8-2.2-1.1l14.1-14.1L70,28.4L54.8,43.5c-4.7-1.7-9.3-2.6-13.8-2.6c-4.7,0-9.5,0.9-14.4,2.8   c-3.9,1.5-7.8,3.5-11.6,6.1c-6.5,4.4-10.5,8.7-10.7,8.9l-0.9,1l0.9,1c0.2,0.2,4.2,4.5,10.7,8.9c0.9,0.6,1.9,1.2,2.8,1.8   c2,1.2,3.9,2.2,5.9,3.1L8,90.4h6.9l13.9-13.9l3.5-3.5l2.7-2.7l2.1-2.1l12.3-12.3l2.1-2.1l2.7-2.7l2.1-2.1l1.1-1.1   c0.7,0.3,1.5,0.7,2.2,1.1l-2.1,2.1l-2.2,2.2L34.4,74.2l-3.1,3.1c1.3,0.3,2.6,0.6,3.9,0.8l2.7-2.7l18.7-18.7l2.4-2.4l3.7-3.7   c0.7,0.4,1.5,0.9,2.2,1.4l-5.2,5.2L57,59.9L41.3,75.6l-2.8,2.8c0.4,0,0.9,0.1,1.3,0.1c0.4,0,0.9,0,1.3,0c0.7,0,1.4,0,2-0.1l4-4   l8.6-8.6l4-4l7.9-7.9c0.6,0.4,1.1,0.8,1.6,1.2c0.2,0.1,0.3,0.2,0.4,0.4L58.6,66.6L47.2,78z M40.7,43.8c0.1,0,0.3,0,0.4,0   c0.1,0,0.3,0,0.4,0c3.6,0.1,6.9,1.4,9.5,3.5L48.3,50c-2-1.5-4.6-2.4-7.3-2.4c-6.7,0-12.2,5.5-12.2,12.2c0,0.2,0,0.5,0,0.7   c0.1,2.5,1,4.7,2.4,6.6l-2.7,2.7c-1.4-1.7-2.4-3.8-3-6c-0.3-1.3-0.5-2.6-0.5-4C25.2,51.1,32.1,44,40.7,43.8z M20.1,69.3   c-1.1-0.6-2.2-1.3-3.3-2c-4.4-3-7.7-6-9.3-7.5c1.5-1.5,4.8-4.5,9.2-7.5c3.6-2.5,7.3-4.4,11-5.8c0,0,0,0,0,0   c-3.4,3.4-5.5,8.1-5.5,13.3c0,2.2,0.4,4.3,1.1,6.3c0.7,2.1,1.9,4,3.3,5.7L26,72.3C24,71.5,22,70.5,20.1,69.3z M33.4,64.9   c-1-1.5-1.6-3.3-1.6-5.2c0-0.9,0.1-1.7,0.4-2.5c1.1-3.9,4.7-6.7,8.9-6.7c1.9,0,3.7,0.6,5.2,1.6L33.4,64.9z"></path><path d="M88.3,17.8L97.1,9l-6.9,0l-5.6,5.6C86,15.5,87.2,16.6,88.3,17.8z"></path></g></svg>