<?xml version="1.0" encoding="utf-8"?>
<!-- Generator: Adobe Illustrator 22.1.0, SVG Export Plug-In . SVG Version: 6.00 Build 0)  -->
<svg version="1.1" id="Layer_1" xmlns="http://www.w3.org/2000/svg" xmlns:xlink="http://www.w3.org/1999/xlink" x="0px" y="0px"
	 viewBox="0 0 100 100" style="enable-background:new 0 0 100 100;" xml:space="preserve">
<style type="text/css">
	.st0{fill:#0678BE;}
</style>
<title>Artboard 23</title>
<path class="st0" d="M95.8,50.2c0.8,0.8,1.2,2,1,3.2l-2.5,15.2c-0.3,1.5-1.5,2.7-3,3c-0.2,0-0.4,0-0.6,0c-1,0-2-0.4-2.7-1.1
	l-2.9-2.9L66,86.8c-1.9,1.9-4.9,1.9-6.8,0c0,0,0,0,0,0l-9.7-9.7L29,97.6c-1.9,1.9-4.9,1.9-6.8,0s-1.9-4.9,0-6.8l0,0l23.9-23.9
	c1.9-1.9,4.9-1.9,6.8,0c0,0,0,0,0,0l9.7,9.7l15.8-15.8L75.5,58c-0.8-0.8-1.2-1.8-1.1-2.9c0.1-1.7,1.4-3.1,3.1-3.4l15.2-2.5
	c0.2,0,0.4-0.1,0.6,0C94.2,49.2,95.1,49.5,95.8,50.2z M22.4,78.6L26,75l3.5-3.5c1.6-1.5,1.8-4,0.4-5.8c-1.5-1.8-4.1-2.1-5.9-0.6
	c-0.1,0.1-0.2,0.2-0.3,0.3L20,69c-4.2-5.3-6.8-11.6-7.6-18.3h5.4c2.3,0,4.2-1.9,4.2-4.2c0-2.3-1.9-4.2-4.2-4.2h-5.3
	c0.8-6.7,3.4-13.1,7.5-18.4l3.6,3.6c1.7,1.6,4.3,1.6,6,0c0.1-0.1,0.2-0.2,0.3-0.3c1.4-1.7,1.2-4.2-0.4-5.8L26,17.9
	c5.3-4.2,11.6-6.8,18.3-7.6v5.1c0,2.3,1.9,4.2,4.2,4.2c2.3,0,4.2-1.9,4.2-4.2v-5.1l1.4,0.2c7.6,1.2,14.5,4.9,19.9,10.3l0.2,0.2
	c4.8,4.7,8.2,10.6,9.8,17.1l0.1,0.2c0.5,2.4,2.8,3.9,5.2,3.5c2.5-0.5,4.2-2.9,3.7-5.4c0-0.1,0-0.2-0.1-0.2
	C87.2,11.8,62.8-3.5,38.4,2.2S-1.3,32.2,4.3,56.7c1.9,8.3,6.1,15.9,12.1,21.9C18.1,80.2,20.8,80.2,22.4,78.6z M69.6,25.6
	c-1.4-1.5-3.8-1.6-5.4-0.3L50,36.6c-5.4-0.7-10.4,3.1-11.2,8.5s3.1,10.4,8.5,11.2s10.4-3.1,11.2-8.5c0.1-0.4,0.1-0.9,0.1-1.3
	c0-0.4,0-0.9-0.1-1.3L69.9,31C71.2,29.4,71,27,69.6,25.6L69.6,25.6z"/>
</svg>
