<svg xmlns="http://www.w3.org/2000/svg" xmlns:xlink="http://www.w3.org/1999/xlink" width="299" height="352" fill="none" xmlns:v="https://vecta.io/nano"><style><![CDATA[.B{fill:#fff}.C{fill:#cbe5ff}.D{fill:#0078d3}.E{fill-rule:evenodd}.F{fill:#005595}]]></style><g clip-path="url(#A)"><g class="C"><rect width="273.61" height="192.923" rx="6" transform="matrix(.859406 -.511293 0 1 30 158.895)"/><path d="M267.308 23.847l-3.604-2.144v6.565l3.604 2.144zM35.149 344.776l-3.658-2.176v6.565l3.658 2.176z"/></g><rect width="273.61" height="192.923" rx="6" transform="matrix(.859406 -.511293 0 1 33.5117 160.992)" class="B"/><g class="C"><rect width="122.882" height="6.99" rx="3.495" transform="matrix(.859406 -.511293 0 1 115.187 134.577)"/><rect width="111.381" height="6.99" rx="3.495" transform="matrix(.859406 -.511293 0 1 115.187 151.353)"/></g><g class="D"><path d="M63.949 176.541l-1.638 4.787c-2.755 1.085-4.869-.851-4.869-4.707 0-1.371.267-2.815.734-4.207l2.336 4.047c.468 1.06 1.48 1.387 2.652.69a4.31 4.31 0 0 0 .784-.61zm-2.863-2.088c0-1.54.933-3.348 2.079-4.03s2.079.016 2.079 1.557-.932 3.348-2.079 4.03-2.079-.017-2.079-1.557zm4.127-5.264l3.28-1.951c.254.718.394 1.583.394 2.574 0 4.217-2.527 9.145-5.657 11.054l2.34-6.839c.33-.833.523-1.721.523-2.553 0-1.099-.337-1.893-.88-2.285zm-4.884 4.731l-1.638-2.837c1.049-2.388 2.663-4.479 4.473-5.556 2.095-1.247 3.926-.823 4.924.84l-4.669 2.778-.255.136c-1.362.811-2.51 2.75-2.836 4.639z"/><use xlink:href="#B"/><path d="M79.17 169.744c-1.156-.3-2.413-.364-5.081 2.623l1.306-6.568c2.669-2.988 3.951-2.958 5.105-2.652l-1.331 6.597h0zm1.553-7.774c-.696-.181-1.445-.291-2.508.332-.701.41-1.536 1.16-2.596 2.346l1.314-6.557c2.667-2.986 3.948-2.956 5.102-2.65l-1.312 6.529zm.471 1.322c1.155.3 2.437.322 5.102-2.66l-1.313 6.538c-2.665 2.984-3.945 2.953-5.098 2.647l1.31-6.525z"/></g><g class="F"><path d="M243.513 140.628l-3.608-2.146v6.565l3.608 2.146zm-9.821 9.429l-3.542-2.107v6.565l3.542 2.107z"/></g><g class="D"><path d="M87.823 236.856c-2.662 2.98-3.942 2.957-5.095 2.658l-1.313 6.561c1.152.305 2.544.292 5.097-2.678l1.311-6.541zm-8.653 16.768c-1.156-.3-2.413-.364-5.081 2.623l1.306-6.568c2.669-2.988 3.951-2.958 5.105-2.652l-1.331 6.596v.001zm1.553-7.775c-.696-.18-1.445-.29-2.508.332-.701.411-1.536 1.16-2.596 2.347l1.314-6.557c2.667-2.986 3.948-2.956 5.102-2.65l-1.312 6.528zm.471 1.323c1.155.299 2.437.322 5.102-2.66l-1.313 6.537c-2.665 2.985-3.945 2.954-5.098 2.648l1.31-6.525zm-19.652 12.33c0 .37.044.68.135.929a1.45 1.45 0 0 0 .381.572 1.14 1.14 0 0 0 .565.264 1.98 1.98 0 0 0 .688.006 3.36 3.36 0 0 0 .759-.207 5.34 5.34 0 0 0 .779-.383 7.56 7.56 0 0 0 .919-.643l.846-.773.811-.884.823-.998v3.258l-.929 1.045-.929.898-.956.78-1.003.664c-.461.275-.907.473-1.336.596a3.5 3.5 0 0 1-1.207.146 2.48 2.48 0 0 1-1.034-.293 2.37 2.37 0 0 1-.807-.721c-.225-.31-.398-.695-.523-1.145s-.183-.972-.183-1.563a9.3 9.3 0 0 1 .208-1.931 11.14 11.14 0 0 1 .6-1.938c.262-.637.577-1.251.952-1.846a11.78 11.78 0 0 1 1.265-1.666 6.81 6.81 0 0 0-.596 1.491 8.65 8.65 0 0 0-.275 1.48l4.38-2.605c0-.553-.044-1.007-.135-1.367s-.235-.617-.437-.768-.458-.209-.775-.155-.7.21-1.148.477c-.529.314-1.057.725-1.586 1.239a14.21 14.21 0 0 0-1.507 1.713c-.477.637-.915 1.314-1.315 2.028a15.98 15.98 0 0 0-1.009 2.157 14.64 14.64 0 0 1 .333-2.065c.16-.689.371-1.367.625-2.03a15.6 15.6 0 0 1 .892-1.91c.34-.615.717-1.195 1.134-1.732a12.03 12.03 0 0 1 1.34-1.474c.481-.423.992-.809 1.53-1.13a5.86 5.86 0 0 1 .942-.454 5.44 5.44 0 0 1 .917-.253c.592-.097 1.121-.056 1.586.119s.855.466 1.173.871.558.918.723 1.533.25 1.307.25 2.079v1.91l-7.865 4.679z"/></g><path d="M236.746 65.751c0 1.324-.757 2.847-1.69 3.403s-1.691-.067-1.691-1.391.757-2.847 1.691-3.403 1.69.067 1.69 1.391zm5.636 2.239c.934-.556 1.691-2.079 1.691-3.403v-6.391c0-1.324-.757-1.946-1.691-1.391L234.83 61.3c-.565.336-1.093.972-1.414 1.703l-2.181 4.966c-.413.94-.406 1.857.016 2.293l2.163 2.229c.323.332.843.334 1.398.004l7.57-4.504z" class="C"/><g class="B"><rect width="4.843" height="1.598" rx=".799" transform="matrix(.859406 -.511293 0 1 238.276 65.6399)"/><rect width="4.843" height="1.598" rx=".799" transform="matrix(.859406 -.511293 0 1 238.276 62.4446)"/></g><g class="D"><path d="M93.157 148.765a1.95 1.95 0 0 0-.859 1.511v10.259c0 .552.385.771.859.488l10.767-6.405a1.95 1.95 0 0 0 .86-1.511v-10.259c0-.552-.385-.771-.86-.488l-10.767 6.405zm10.202-4.418l-9.832 5.849v7.431l9.832-5.849v-7.431z" class="E"/><path d="M97.297 158.56l2.488-1.48v2.229l-2.488 1.48z"/><rect width="6.755" height="1.114" rx=".5" transform="matrix(.859406 -.511293 0 1 95.6372 160.662)"/></g><g class="C"><rect width="122.882" height="6.99" rx="3.495" transform="matrix(.859406 -.511293 0 1 115.187 176.516)"/><rect width="111.381" height="6.99" rx="3.495" transform="matrix(.859406 -.511293 0 1 115.187 193.292)"/><path d="M236.746 107.691c0 1.324-.757 2.847-1.69 3.402s-1.691-.067-1.691-1.39.757-2.847 1.691-3.403 1.69.067 1.69 1.391zm5.636 2.239c.934-.556 1.691-2.079 1.691-3.402v-6.391c0-1.324-.757-1.947-1.691-1.391l-7.552 4.493c-.565.336-1.093.973-1.414 1.704l-2.181 4.965c-.413.94-.406 1.858.016 2.293l2.163 2.229c.323.332.843.334 1.398.004l7.57-4.504z"/></g><g class="B"><rect width="4.843" height="1.598" rx=".799" transform="matrix(.859406 -.511293 0 1 238.276 107.58)"/><rect width="4.843" height="1.598" rx=".799" transform="matrix(.859406 -.511293 0 1 238.276 104.384)"/></g><path d="M238.874 149.781c.933-.555 1.69-2.079 1.69-3.402v-6.391c0-1.324-.757-1.946-1.69-1.391l-7.553 4.494c-.564.335-1.093.972-1.414 1.703l-2.18 4.966c-.413.94-.407 1.857.016 2.292l2.163 2.229c.322.332.843.334 1.397.004l1.898-1.129c.403.488 1.15.816 2.006.816 1.282 0 2.322-.736 2.322-1.645 0-.504-.319-.955-.822-1.257l2.167-1.289z" class="E F"/><rect width="122.882" height="6.99" rx="3.495" transform="matrix(.859406 -.511293 0 1 115.187 218.456)" class="C"/><path d="M235.138 153.514c1.129-.671 2.043-2.513 2.043-4.112s-.914-2.353-2.043-1.681-2.044 2.512-2.044 4.112.915 2.352 2.044 1.681z" class="B"/><rect width="111.381" height="6.99" rx="3.495" transform="matrix(.859406 -.511293 0 1 115.187 235.232)" class="C"/><path d="M236.746 149.631c0 1.323-.757 2.847-1.69 3.402s-1.691-.067-1.691-1.39.757-2.847 1.691-3.403 1.69.067 1.69 1.391zm5.636 2.239c.934-.556 1.691-2.079 1.691-3.403v-6.39c0-1.324-.757-1.947-1.691-1.391l-7.552 4.493c-.565.336-1.093.973-1.414 1.704l-2.181 4.965c-.413.94-.406 1.858.016 2.293l2.163 2.229c.323.332.843.334 1.398.004l7.57-4.504z" class="D"/><g class="B"><rect width="4.843" height="1.598" rx=".799" transform="matrix(.859406 -.511293 0 1 238.276 149.52)"/><rect width="4.843" height="1.598" rx=".799" transform="matrix(.859406 -.511293 0 1 238.276 146.325)"/></g><g class="D"><path d="M93.157 232.645a1.95 1.95 0 0 0-.859 1.511v10.258c0 .553.385.771.859.489l10.767-6.405c.475-.283.86-.959.86-1.512v-10.258c0-.552-.385-.771-.86-.489l-10.767 6.406zm10.202-4.418l-9.832 5.849v7.431l9.832-5.849v-7.431z" class="E"/><path d="M97.297 242.44l2.488-1.48v2.229l-2.488 1.48z"/><rect width="6.755" height="1.114" rx=".5" transform="matrix(.859406 -.511293 0 1 95.6372 244.542)"/><path d="M93.157 275.284a1.95 1.95 0 0 0-.859 1.511v10.258c0 .553.385.771.859.489l10.767-6.405c.475-.283.86-.96.86-1.512v-10.258c0-.552-.385-.771-.86-.489l-10.767 6.406zm10.202-4.418l-9.832 5.849v7.431l9.832-5.849v-7.431z" class="E"/><path d="M97.297 285.079l2.488-1.48v2.229l-2.488 1.48z"/><rect width="6.755" height="1.114" rx=".5" transform="matrix(.859406 -.511293 0 1 95.6372 287.18)"/></g><g class="C"><rect width="122.882" height="6.99" rx="3.495" transform="matrix(.859406 -.511293 0 1 115.187 260.396)"/><rect width="111.381" height="6.99" rx="3.495" transform="matrix(.859406 -.511293 0 1 115.187 277.172)"/><path d="M236.746 191.571c0 1.323-.757 2.847-1.69 3.402s-1.691-.067-1.691-1.39.757-2.847 1.691-3.403 1.69.067 1.69 1.391zm5.636 2.239c.934-.556 1.691-2.079 1.691-3.403v-6.39c0-1.324-.757-1.947-1.691-1.391l-7.552 4.493c-.565.336-1.093.972-1.414 1.703l-2.181 4.966c-.413.94-.406 1.858.016 2.293l2.163 2.228c.323.333.843.335 1.398.005l7.57-4.504z"/></g><g class="B"><rect width="4.843" height="1.598" rx=".799" transform="matrix(.859406 -.511293 0 1 238.276 191.459)"/><rect width="4.843" height="1.598" rx=".799" transform="matrix(.859406 -.511293 0 1 238.276 188.264)"/></g><g class="D"><path d="M94.899 188.888c0-.553.385-1.229.859-1.512l6.085-3.62c.474-.282.859-.063.859.489v14.477c0 .552-.385 1.228-.859 1.511l-6.085 3.62c-.475.282-.859.063-.859-.489v-14.476zm1.04-.221l5.722-3.405v11.883l-5.722 3.405v-11.883zm2.862 12.867c.308-.183.557-.667.557-1.08s-.25-.601-.557-.418-.557.667-.557 1.081.25.6.557.417z" class="E"/><path d="M64.469 220.005l-1.638 4.787c-2.756 1.086-4.869-.851-4.869-4.707 0-1.37.267-2.815.734-4.207l2.337 4.047c.468 1.06 1.48 1.387 2.652.69a4.31 4.31 0 0 0 .784-.61zm-2.863-2.088c0-1.54.933-3.348 2.079-4.03s2.079.017 2.079 1.557-.932 3.348-2.079 4.03-2.079-.016-2.079-1.557zm4.128-5.264l3.28-1.951c.254.718.394 1.583.394 2.574 0 4.217-2.527 9.145-5.658 11.054l2.34-6.839c.33-.833.523-1.721.523-2.553 0-1.099-.337-1.893-.88-2.285zm-4.885 4.731l-1.638-2.837c1.049-2.388 2.663-4.479 4.474-5.556 2.095-1.247 3.927-.823 4.924.84l-4.669 2.778-.255.136c-1.362.811-2.51 2.75-2.836 4.639zm17.402-5.263c0 .417.234.618.52.448l.52-.309v2.65c0 .629.349.929.78.672s.78-.972.78-1.6v-2.651l1.04-.619v2.651c0 .628.349.928.78.671s.78-.971.78-1.6v-2.65l.52-.31c.286-.17.52-.65.52-1.067v-7.572l-6.243 3.714v7.572zm-1.3-6.798c-.432.257-.78.971-.78 1.6v5.301c0 .628.349.928.78.671s.78-.971.78-1.6v-5.301c0-.628-.349-.928-.78-.671zm8.844-5.262c-.432.257-.78.972-.78 1.6v5.301c0 .629.349.929.78.672s.78-.972.78-1.6v-5.301c0-.629-.349-.929-.78-.672zm-2.586-2.884l.677-1.387c.104-.213.104-.448 0-.537s-.266.006-.369.219l-.77 1.579c-.411-.058-.879.046-1.374.34s-.968.75-1.384 1.3l-.775-.659c-.104-.09-.265.006-.37.22s-.104.448 0 .538l.681.586c-.77 1.283-1.275 2.909-1.275 4.416l6.243-3.714c0-1.507-.505-2.54-1.285-2.901zm-2.877 3.862l-.52.31v-.757l.52-.31v.757zm2.601-1.547l-.52.309v-.757l.52-.309v.757zM69.91 293.413l-.145 1.373s-.207-2.259-.46-2.998c-.388-1.134-.561-1.02-.562-1.017.26.762.213 1.282.213 1.282s-.461-1.467-1.679-1.296c-1.35.189-2.08.791-2.164.873l-.037.022.029-.014c.004.008 1.49-.526 1.754-.18 0 0-.631.375-1.259 1-.028.028 2.311-.97 2.789 1.987 0 0-.257-.59-.573-.527.209.756.155 2.457-.044 3.405-.026.122-.052-.431-.443-.443.125 1.171-.007 3.225-.63 4.14-.048.071.391-2.182.088-1.233-1.74 4.735-3.797 3.967-4.722 3.64.474-.139 1.374-.84 1.772-1.487.434-.67.69-1.122.92-1.188s.383-.477.204-.654-.613-.311-1.201.252c-.415.397-.928 1.338-1.712 1.161-.602-.137-.659-.514-.664-.795l.056-.314c.069-.31.279-.516.396-.649.198-.071.369-.087.548-.066v-.317c.017-.057.007-.194-.021-.352-.016-.165-.042-.33-.082-.47.02-.104.154-.334.322-.595l.464-.695.236-.345.026-.043a1.36 1.36 0 0 0 .194-.625l.002-.029.002-.034.001-.036-.001-.089-.004-.044-.005-.02c-.021-.057-.101-.035-.432.154l-.544.321c-.405.243-.629-.175-.701-.346.098-.81.381-1.514.847-2.154.088-.145-1.104.638-1.652 1.93-.486.122-.91.385-1.276.722-.07.039-.157.078-.261.11-.243-.16-.591-.517-.609-1.179-.004-.014-.744 1.216-.633 3.301l-.002.1c-.2.496-.3.872-.307.946-.177.607-.358 1.468-.504 2.7 0 0 .103-.512.308-1.145-.151.733-.27 1.804-.2 3.262l.084-.861a6.76 6.76 0 0 0 .84 2.929c1.084 1.946 2.752 2.263 4.594 1.368a7.15 7.15 0 0 0 .993-.587l.092-.065a10.12 10.12 0 0 0 1.137-.919c5.184-4.822 4.62-13.167 4.62-13.167zm16.945-4.095a20.01 20.01 0 0 1-.731 2.191l-.941 2.081c-.376.686-.778 1.162-1.21 1.432-.309.184-.683.289-1.117.308s-.836.142-1.203.36c-.384.229-.796.592-1.237 1.091s-.797.838-1.069 1.012c-.413.27-.826.271-1.237.004-.263-.15-.591-.479-.984-.989-.422-.543-.769-1.258-1.041-2.146-.291-.961-.437-1.972-.437-3.036a10.43 10.43 0 0 1 .591-3.5c.31-.891.722-1.694 1.237-2.41s1.073-1.257 1.673-1.627c.328-.196.759-.316 1.294-.367s.876-.118 1.026-.207c.112-.067.493-.452 1.138-1.153.61-.657 1.125-1.085 1.547-1.288 1.143-.556 2.002-.465 2.573.281-1.022 1.437-1.528 2.899-1.518 4.382.009 1.154.324 1.932.942 2.33.28.189.593.278.941.266l-.24.985zm-2.622-12.24c0 .909-.248 1.906-.743 2.986-.597 1.288-1.319 2.258-2.103 2.639l-.016-.335c0-.873.284-1.976.788-3.039.252-.537.572-1.048.96-1.536s.754-.841 1.099-1.07l.014.355h0z"/></g><g class="F"><path d="M283.946 52.243l-3.608-2.146v6.565l3.608 2.146zm-90.687 93.148l-3.608-2.146v6.565l3.608 2.146zm45.2-16.764l-3.608-2.146v6.565l3.608 2.146z"/><g class="E"><path d="M192.112 101.327c-1.898 1.13-3.438 3.836-3.438 6.045v40.23c0 2.209 1.54 3.084 3.438 1.955l36.104-21.48 6.637 4.97 6.792-12.959 36.19-21.531c1.898-1.13 3.438-3.836 3.438-6.045v-40.23c0-2.209-1.54-3.084-3.438-1.955l-85.723 51z"/></g></g><path d="M195.618 103.411c-1.899 1.13-3.438 3.836-3.438 6.046v40.23c0 2.209 1.539 3.085 3.438 1.955l36.115-21.486 6.732 5.04 6.732-13.05 36.146-21.505c1.899-1.129 3.438-3.836 3.438-6.045V54.365c0-2.209-1.539-3.084-3.438-1.955l-85.725 51.001z" class="D E"/><g class="B"><rect width="83.536" height="6.99" rx="3.495" transform="matrix(.859406 -.511293 0 1 202.585 111.849)"/><rect width="69.008" height="6.99" rx="3.495" transform="matrix(.859406 -.511293 0 1 202.585 127.925)"/></g></g><defs><clipPath id="A"><path d="M0 0h299v352H0z" class="B"/></clipPath><path id="B" d="M87.823 152.976c-2.662 2.98-3.942 2.957-5.095 2.658l-1.313 6.561c1.152.305 2.544.292 5.097-2.678l1.311-6.541z"/></defs></svg>