<svg xmlns="http://www.w3.org/2000/svg" xmlns:xlink="http://www.w3.org/1999/xlink" width="299" height="352" fill="none" xmlns:v="https://vecta.io/nano"><style><![CDATA[.B{fill:#f1f5f9}.C{fill:#eaf5ff}.D{fill:#0078d3}.E{stroke-width:2}.F{fill:#cce4f6}.G{fill:#cbe5ff}]]></style><g clip-path="url(#A)"><g class="G"><rect width="273.61" height="192.923" rx="6" transform="matrix(.859406 -.511293 0 1 30.4541 158.984)"/><path d="M268.152 23.102l-3.604-2.144v6.565l3.604 2.144zM35.429 344.748l-3.658-2.176v6.565l3.658 2.176z"/></g><rect width="273.61" height="192.923" rx="6" transform="matrix(.859406 -.511293 0 1 33.9656 161.081)" fill="#fff"/><g class="D"><path d="M50.741 266.306v1.66l2.63-1.519-1.934 11.074 1.321-.762 1.946-11.148v-1.593l-3.963 2.288zm5.663-.514l1.021-.59v8.863l1.321-.763v-11.617l-.889.513c-.204.898-.432 1.71-1.453 2.299v1.295zm3.945 4.825v1.759l1.273-.735v-1.759l-1.273.735zm3.441-9.173c0-.83.264-1.298.684-1.54s.685-.08.685.75v6.273c0 .83-.264 1.298-.685 1.54s-.684.08-.684-.749v-6.274zm-1.321 6.92c0 1.859.709 2.512 2.006 1.763s2.006-2.22 2.006-4.079v-6.041c0-1.859-.709-2.512-2.006-1.763s-2.006 2.22-2.006 4.079v6.041zm7.884-1.764l1.357-.783-1.837-5.379 1.837-6.239-1.321.763-1.729 6.06v-5.061l-1.321.762v11.618l1.321-.763v-3.568l.408-1.298 1.285 3.888zm20.753-20.097c0 .93-.3 1.402-.793 1.686l-.517.299v1.659l.445-.256c.601-.347.865-.102.865.977v.913c0 1.029-.264 1.464-.685 1.707s-.685.08-.685-.75v-1.079l-1.25.722v.962c0 1.859.673 2.533 1.971 1.783s1.971-2.2 1.971-4.058v-.913c0-1.179-.264-1.889-.925-1.906.637-.732.925-1.679.925-2.924v-.298c0-1.859-.673-2.533-1.971-1.784s-1.971 2.2-1.971 4.059v.631l1.25-.722v-.747c0-.829.264-1.297.685-1.54s.685-.113.685.932v.647zm2.133-4.733v1.66l2.632-1.52-1.935 11.075 1.322-.763 1.947-11.148v-1.593l-3.966 2.289zm4.848 7.059v1.759l1.274-.735v-1.759l-1.274.735zm4.849-9.803c0 3.352-2.619 5.429-2.619 8.848v1.427l3.821-2.206v-1.66l-2.499 1.443c-.012-.076-.012-.159-.012-.242 0-1.908 2.631-4.789 2.631-8.44 0-1.859-.673-2.532-1.97-1.783s-1.971 2.2-1.971 4.059v1.128l1.25-.721v-1.245c0-.83.264-1.298.685-1.541s.684-.113.684.933zm5.161 5.783l1.358-.784-1.838-5.378 1.838-6.24-1.321.764-1.731 6.06v-5.061l-1.322.763v11.617l1.322-.763v-3.568l.409-1.298 1.285 3.888zm17.609-19.029l1.04-.601v8.863l1.346-.777v-11.618l-.905.523c-.208.9-.441 1.715-1.481 2.315v1.295zm3.934 3.803c0 1.859.722 2.504 2.043 1.741s2.043-2.242 2.043-4.1v-2.125c0-1.709-.501-2.365-1.492-1.793-.6.346-1.016.951-1.248 1.749v-2.124c0-1.112.269-1.583.746-1.858.428-.248.697-.088.697.742v.415l1.273-.735v-.298c0-1.859-.685-2.526-2.007-1.763-1.395.806-2.055 2.249-2.055 4.208v5.941zm2.043-4.3c.428-.247.697-.087.697.743v2.091c0 .83-.269 1.284-.697 1.531s-.697.104-.697-.726v-2.091c0-.83.269-1.301.697-1.548zm2.893 2.479v1.759l1.297-.749v-1.759l-1.297.749zm2.209-3.267v.962c0 1.859.686 2.526 2.007 1.763s2.007-2.221 2.007-4.08v-2.589c0-1.709-.502-2.365-1.493-1.793-.538.311-.93.835-1.175 1.524l.11-2.835 2.337-1.349v-1.66l-3.548 2.049-.245 6.879 1.273-.734v-.349c0-.83.269-1.3.697-1.548s.698-.087.698.743v2.556c0 .829-.269 1.284-.698 1.531s-.697.104-.697-.726v-1.079l-1.273.735zm7.984-.859l1.382-.798-1.872-5.358 1.872-6.259-1.346.777-1.761 6.079v-5.062l-1.346.777v11.617l1.346-.777v-3.568l.416-1.302 1.309 3.874zm21.245-21.028c0 3.352-2.563 5.396-2.563 8.815v1.427l3.739-2.158v-1.66l-2.446 1.412c-.011-.076-.011-.159-.011-.242 0-1.909 2.574-4.756 2.574-8.407 0-1.859-.658-2.541-1.928-1.808s-1.928 2.175-1.928 4.034v1.129l1.223-.706v-1.245c0-.83.259-1.295.67-1.532s.67-.105.67.941zm3.286-2.08c0-.83.259-1.294.67-1.532s.67-.072.67.758v6.274c0 .829-.258 1.294-.67 1.532s-.67.071-.67-.759v-6.273zm-1.293 6.904c0 1.859.693 2.52 1.963 1.787s1.964-2.195 1.964-4.054v-6.041c0-1.859-.694-2.521-1.964-1.788s-1.963 2.196-1.963 4.055v6.041zm4.767-1.723v1.759l1.246-.72v-1.759l-1.246.72zm2.099-11.071v1.66l2.575-1.486-1.893 11.05 1.293-.747 1.905-11.123v-1.594l-3.88 2.24zm7.695 7.175l1.328-.767-1.799-5.401 1.799-6.216-1.293.747-1.693 6.039v-5.062l-1.293.747v11.617l1.293-.747v-3.568l.4-1.293 1.258 3.904z"/></g><g stroke="#99c9ed"><path d="M80.098 244.331v22.368m37.745-44.16v22.368m36.696-43.555v22.368"/></g><g class="D"><rect width="243.949" height="6.99" rx="3.495" transform="matrix(.866025 -.5 0 1 50.217 297.931)"/><rect width="243.949" height="6.99" rx="3.495" transform="matrix(.866025 -.5 0 1 50.217 314.707)"/></g><g stroke="#0078d3" class="E"><use xlink:href="#B"/><use xlink:href="#C"/><use xlink:href="#D"/><use xlink:href="#E"/><path d="M102.512 150.243c0 1.627-.965 3.25-1.904 3.792s-1.904.033-1.904-1.594.965-3.25 1.904-3.792 1.904-.034 1.904 1.594zm10.288-.664c0 1.627-.966 3.25-1.904 3.792s-1.904.034-1.904-1.594.965-3.25 1.904-3.792 1.904-.033 1.904 1.594z"/><use xlink:href="#F"/><use xlink:href="#G"/><path d="M144.454 162.959c0 1.627-.965 3.25-1.903 3.792s-1.904.033-1.904-1.594.965-3.25 1.904-3.792 1.903-.033 1.903 1.594z"/><use xlink:href="#H"/><use xlink:href="#I"/><use xlink:href="#J"/><path d="M185.606 104.378c0 1.628-.965 3.251-1.904 3.793s-1.903.033-1.903-1.594.965-3.251 1.903-3.793 1.904-.033 1.904 1.594zm10.288-2.774c0 1.628-.965 3.251-1.904 3.793s-1.904.033-1.904-1.594.965-3.251 1.904-3.793 1.904-.033 1.904 1.594zm10.288 1.447c0 1.627-.965 3.251-1.904 3.793s-1.904.033-1.904-1.595.965-3.25 1.904-3.792 1.904-.033 1.904 1.594zm10.288-25.988c0 1.627-.966 3.25-1.904 3.792s-1.904.033-1.904-1.594.965-3.25 1.904-3.792 1.904-.033 1.904 1.594zm11.079 38.977c0 1.627-.965 3.25-1.904 3.792s-1.903.033-1.903-1.594.965-3.251 1.903-3.792 1.904-.034 1.904 1.594zm10.288-43.927c0 1.627-.965 3.25-1.904 3.792s-1.904.033-1.904-1.594.965-3.25 1.904-3.792 1.904-.033 1.904 1.594zm10.288 1.446c0 1.627-.965 3.25-1.904 3.792s-1.904.033-1.904-1.594.965-3.25 1.904-3.792 1.904-.033 1.904 1.594zM70.931 201.187l7.122-4.112m2.771-4.765l9.101-45.88m-29.677 44.569l7.122 9.606m24.533-55.844l7.122 5.384m3.561 1.11l5.936-.261m4.748-1.687l5.539-3.198m4.353-1.458l6.331.566m24.137 8.751l8.705-36.682m-29.676 29.797l8.705 15.022"/><path d="M144.925 162.16l5.54-3.726m14.64-43.802l6.727 1.392m3.561-1.528l6.331-6.821m4.352-3.04l5.54-1.088m4.353-.931l6.331 1.094m35.611-30.058l6.331 1.093"/></g><g stroke="#99c9ed" class="E"><path d="M60.569 225.504c0 1.628-.965 3.251-1.904 3.793s-1.904.033-1.904-1.594.965-3.251 1.904-3.793 1.904-.033 1.904 1.594zm10.288 3.557c0 1.628-.965 3.251-1.904 3.793s-1.904.033-1.904-1.594.965-3.251 1.904-3.793 1.904-.033 1.904 1.594zm10.288-4.884c0 1.627-.965 3.25-1.904 3.792s-1.904.034-1.904-1.594.965-3.25 1.904-3.792 1.904-.033 1.904 1.594zm11.079-28.556c0 1.627-.965 3.251-1.904 3.792s-1.904.034-1.904-1.594.965-3.25 1.904-3.792 1.904-.033 1.904 1.594zm10.288-.664c0 1.628-.965 3.251-1.904 3.793s-1.904.033-1.904-1.594.965-3.251 1.904-3.793 1.904-.033 1.904 1.594zm10.288-2.774c0 1.628-.966 3.251-1.904 3.793s-1.904.033-1.904-1.594.965-3.251 1.904-3.793 1.904-.033 1.904 1.594zm10.288-6.995c0 1.628-.965 3.251-1.904 3.793s-1.904.033-1.904-1.594.965-3.251 1.904-3.793 1.904-.033 1.904 1.594zm10.287-1.718c0 1.627-.965 3.25-1.904 3.792s-1.903.033-1.903-1.594.965-3.25 1.903-3.792 1.904-.034 1.904 1.594zm10.288 5.667c0 1.627-.965 3.25-1.903 3.792s-1.904.034-1.904-1.594.965-3.25 1.904-3.792 1.903-.033 1.903 1.594zm10.288-5.94c0 1.627-.965 3.251-1.904 3.793s-1.904.033-1.904-1.595.965-3.25 1.904-3.792 1.904-.033 1.904 1.594zm11.08-24.335c0 1.628-.966 3.251-1.904 3.793s-1.904.033-1.904-1.594.965-3.251 1.904-3.793 1.904-.033 1.904 1.594zm10.287-2.774c0 1.627-.965 3.251-1.904 3.792s-1.903.034-1.903-1.594.965-3.25 1.903-3.792 1.904-.033 1.904 1.594zm10.288-8.05c0 1.627-.965 3.25-1.904 3.792s-1.903.034-1.903-1.594.965-3.25 1.903-3.792 1.904-.033 1.904 1.594zm10.288-4.885c0 1.628-.965 3.251-1.904 3.793s-1.904.033-1.904-1.594.965-3.251 1.904-3.793 1.904-.033 1.904 1.594zm10.288-1.718c0 1.627-.965 3.25-1.904 3.792s-1.904.033-1.904-1.594.965-3.25 1.904-3.792 1.904-.034 1.904 1.594zm31.655-24.608c0 1.628-.965 3.251-1.904 3.793s-1.904.033-1.904-1.594.965-3.251 1.904-3.793 1.904-.033 1.904 1.594z"/><path d="M248.125 112.998c0 1.627-.965 3.251-1.904 3.793s-1.904.033-1.904-1.595.965-3.25 1.904-3.792 1.904-.033 1.904 1.594zM49.169 226.283l7.122.636m4.353.125l6.331 2.676m4.352-.403l5.935-2.899m3.562-4.694l8.309-22.208m3.166-3.41l6.727-.191m3.56-.473l5.936-1.316m4.352-1.986l5.936-3.954m4.748-2.742l5.935-.261m14.176 4.026l6.537-3.856m14.947-26.076l6.231-1.632m4.136-2.074l6.077-4.872m4.382-2.876l5.989-2.605m3.944-1.342l6.368-1.106m4.096-.992l6.083-4.398M238 117.139l6.33-2.255m-90.7 66.388l8.31-18.515m-28.49 22.252l6.727 4.558"/></g><g stroke="#0078d3" class="E"><path d="M235.538 76.078l-9.101 37.438m-11.08-33.173l9.497 34.087m-19.389-13.603l7.914-19.87M49.169 183.714l7.914 4.365"/></g><g class="G"><path d="M285.521 3.163L281.863.987v6.565l3.658 2.176z"/><rect width="87.262" height="100.764" rx="5.4" transform="matrix(.866025 -.5 0 1 207.585 42.2094)"/><path d="M212.645 136.236l-3.658-2.176v6.565l3.658 2.176z"/></g><rect width="87.269" height="100.772" rx="5.4" transform="matrix(.866025 -.5 0 1 211.08 44.2982)" fill="#fff"/><path d="M247.963 41.688c13.516-7.803 24.472.532 24.472 18.617s-10.956 39.072-24.472 46.875-24.473-.531-24.473-18.617 10.957-39.072 24.473-46.875z" class="F"/><path d="M247.963 74.434V41.688c10.634-6.14 19.617-2.782 23.113 8.639s.417 27.359-7.92 41.007-19.344 20.766-28.319 18.317-13.133-13.709-10.696-28.967l23.822-6.25z" fill="#99c9ed"/><path d="M248.173 74.234V38.842c11.014-6.359 20.346-3.279 24.454 8.072s1.738 27.504-6.211 42.33-19.05 23.796-29.088 23.506l10.845-38.517z" class="D"/><path d="M257.604 68.188c0-7.053-4.246-10.32-9.484-7.295s-9.484 11.194-9.484 18.247 4.246 10.32 9.484 7.296 9.484-11.193 9.484-18.247z" fill="#fff"/><g class="G"><path d="M160.985 310.643l-3.658-2.176v6.565l3.658 2.176z"/><rect width="158.597" height="92.561" rx="5" transform="matrix(.859406 -.511293 0 1 156.218 224.784)"/><path d="M294.817 148.025l-3.574-2.126v6.565l3.574 2.126z"/></g><rect width="158.597" height="92.561" rx="5" transform="matrix(.859406 -.511293 0 1 159.685 226.853)" fill="#fcfdfe"/><g class="C"><path d="M203.067 214.503c-.448.133-.464.092-.135-.335.48-.622.934-.978 1.14-.895.164.066.154.097-.167.544-.334.466-.47.577-.838.686z"/><path d="M204.524 214.779c-.16-.032-.387.066-.739.319-.33.238-.583.353-.72.328-.189-.034-.143-.078.434-.415.722-.421 1.039-.819.648-.812-.186.003-.159-.023.159-.153.416-.169.577-.416.351-.535-.241-.128.024-.37.883-.806.531-.269.865-.494 1.002-.674.262-.345.159-.525-.14-.246-.207.193-1.641.931-1.58.813.043-.084 2.075-1.547 3.408-2.455l1.71-1.2.452-.344-.746.927c-.699.871-1.835 1.989-2.302 2.267-.114.068-.441.431-.726.807s-.577.719-.647.76-.372.39-.672.773l-.544.695c0-.002-.104-.024-.231-.049zm24.858-14.514c-.454-.044-.498-.161-.141-.376.139-.084.316-.251.392-.37.12-.188.119-.197-.011-.064-.083.085-.199.118-.258.073-.082-.062-.125-.035-.178.114-.05.137-.151.211-.343.247-.487.092-.596.069-.596-.126 0-.166.123-.254.878-.632.576-.287.878-.482.878-.566 0-.246.256-.277.324-.039l.069.24.041-.305c.022-.169.1-.342.173-.385s.132-.146.132-.228c0-.117.025-.132.111-.066.065.048.374-.073.739-.29.661-.393.816-.326.376.163-.229.254-.628.458-1.064.544-.089.017-.162.078-.161.134 0 .115.52.23.66.147.051-.03.15-.011.221.043.112.085.111.12-.006.251-.075.083-.137.09-.137.016 0-.087-.117-.035-.332.147-.233.198-.314.23-.269.107.035-.097.013-.229-.049-.292-.118-.123-.458.02-.458.193 0 .056-.136.385-.301.73l-.3.628-.39-.038z"/><path d="M202.445 216.802l-1.134.524c-.083-.055.123-.515.345-.772.218-.251.318-.295.617-.267.291.027.478-.051 1.019-.425.364-.253.78-.489.924-.525l.262-.066-.324.426c-.178.234-.386.457-.462.495l-1.247.61zm-2.605 2.47c-.133-.211.771-1.197 1.155-1.261.28-.046.093.272-.395.672-.218.179-.466.406-.55.504s-.178.137-.21.085zm-1.439 1.221c0-.066-.114-.141-.254-.167l-.254-.046.34-.13c.242-.092.362-.195.416-.353.064-.189.652-.84.886-.982.04-.024.008.164-.071.417-.186.595-1.063 1.637-1.063 1.261zm-6.676 4.134c-.149-.113-.115-.177.6-1.132.838-1.119 1.259-1.452 2.01-1.589l.416-.076-.554.478c-.454.392-1.415 1.398-2.174 2.276-.077.09-.211.109-.298.043zm48.396-28.43c-.472.028-.462.036-.325-.27.064-.143.081-.24.036-.216s.003-.09.105-.255.185-.339.186-.388c.003-.187.379-.898.645-1.22.153-.185.548-.526.878-.758l.983-.729c.224-.18.407-.27.441-.216.065.104-.06.24-.777.841s-1.14 1.12-1.421 1.741c-.297.654-.307.961-.035 1.056l.208.073-.277.159a1.76 1.76 0 0 1-.647.182h0z"/></g><path d="M223.165 206.631c.179-.263.277-.321.277-.164 0 .068-.093.179-.208.246-.168.098-.181.083-.069-.082z" class="B"/><g class="C"><path d="M197.326 222.582c-.083-.086-.049-.173.167-.423.15-.173.365-.329.481-.348.2-.033.195-.017-.109.383-.388.511-.408.525-.539.388z"/><path d="M193.966 224.67c-.127.049-.437.086-.688.083l-.457-.006.642-.444c.352-.245.641-.501.641-.57s-.249-.006-.554.138c-.403.191-.479.202-.277.04.337-.271.361-.483.046-.403-.227.057-.225.052.094-.324.553-.652 1.142-1.064 1.664-1.165.429-.083.496-.124.698-.423.143-.212.228-.283.235-.199l.023.272c.022.258.206.113.426-.334.203-.415.556-.765.556-.552-.001.052-.083.325-.183.607l-.182.513.298.033.298.033-.49.594c-.441.536-.532.605-.928.712-.384.104-.494.184-.881.638-.437.514-.529.585-.981.757zm24.742-12.386c-.153-.045-.347-.011-.432.076-.116.119-.142.091-.106-.116.055-.317.867-1.21 1.141-1.256.096-.016.34-.195.544-.398.319-.319.403-.36.619-.297l.25.073-.223.367c-.188.31-.536.689-1.377 1.499-.077.073-.264.097-.416.052z"/></g><g class="B"><path d="M200.701 223.054c-.182-.021-.324.052-.579.299-.433.42-.585.392-.365-.069.282-.588.473-.785.813-.835.382-.057.552.096.449.404-.066.196-.111.225-.318.201zm22.464-12.693c0-.057.063-.141.139-.186s.138-.036.138.022-.062.141-.138.186-.139.035-.139-.022z"/></g><path d="M204.185 221.491a1.01 1.01 0 0 1-.541-.362c-.192-.297-.37-.244-.891.268-.176.173-.374.297-.453.285-.274-.045.221-.543.771-.777.419-.178.512-.254.561-.455.098-.404.547-.919.796-.914.154.004.294-.082.49-.3.264-.294.268-.308.095-.377-.099-.039-.211-.053-.25-.029s-.18-.145-.313-.373-.382-.448-.553-.489c-.292-.07-.331-.052-.592.286a1.13 1.13 0 0 1-.72.49c-.243.071-.582.247-.754.393-.298.252-.843.38-.843.197 0-.336.783-1.556 1.248-1.944l.369-.309-.264.538c-.365.742-.227.902.168.197.168-.3.458-.674.645-.833.285-.242.408-.267.766-.159.477.143.513.133.782-.222.162-.213.222-.217.398-.023.122.134.393.197.658.153.422-.07.451-.048.451.345 0 .296.063.445.211.5.62.231.607.214.473.585-.184.508-.33.623-.737.584-.283-.027-.407.02-.55.208-.174.231-.176.259-.035.543.115.233.125.379.047.658-.097.344-.112.358-.374.33-.515-.054-.862.39-.382.488.151.031.253.114.228.186-.09.249-.547.417-.905.332z" class="C"/><path d="M210.391 218.635c-.585-.083-.864-.58-.695-1.234.08-.31.083-.476.009-.618-.153-.296.047-.868.558-1.597.242-.346.484-.766.538-.932.148-.463.016-1.026-.242-1.031-.13-.003-.201-.088-.172-.207.065-.27-.242-.877-.549-1.081-.225-.151-.322-.122-1.095.331-1.051.616-1.247.653-1.23.235.008-.174.036-.329.062-.345s.401-.298.832-.626c.55-.418 1.043-.9 1.656-1.618.949-1.113 1.021-1.166 3.285-2.441.715-.403 1.373-.866 2.218-1.561.787-.647 1.366-1.06 1.678-1.195a3.47 3.47 0 0 0 .868-.58c.504-.484 1.813-1.042 2.328-.993.304.03.465-.039.979-.413.555-.405.597-.42.43-.155-.101.161-.413.47-.693.686-.606.469-1.164 1.385-1.016 1.671.064.123.018.288-.188.678-.15.283-.294.621-.321.751-.064.312-.881 1.309-1.286 1.569-.45.289-.497.446-.149.498.164.025.404.091.533.147l.234.102-.211.232c-.163.178-.295.204-.565.111-.367-.126-.761.107-.551.325.083.085.063.149-.091.295-.343.325-.1.421.278.109.241-.198.377-.25.452-.172.09.093-.027.23-.7.822-.444.391-1.037.851-1.316 1.023-.519.32-.894.744-1.444 1.638-.18.291-.561.701-1.008 1.082-.932.797-1.248 1.264-1.81 2.681-.451 1.139-.724 1.625-1.005 1.795-.076.047-.347.055-.601.018z" class="F"/><g class="B"><path d="M231.042 206.988c-.17.008-.14-.153.054-.288.093-.065.17-.038.17.06 0 .186-.033.219-.224.228h0zm-54.911 34.075c0-.088.281-.409.678-.775.151-.139.24-.181.21-.097s-.167.245-.308.367-.329.303-.418.403-.162.145-.162.102zm5.973-3.474c-.031-.05.005-.197.081-.327.15-.258.181-.144.055.2-.048.132-.101.182-.136.127zm-.201 1.06c-.091-.094-.085-.166.029-.361.188-.323.281-.235.172.161-.076.274-.103.301-.201.2zm41.355-24.001c0-.031.041-.115.092-.187s.092-.073.092 0-.041.157-.092.187-.092.03-.092 0z"/></g><g class="C"><path d="M221.561 216.9c-.032-.093.004-.368.08-.611.087-.279.104-.45.046-.464-.16-.039-.1-.245.135-.465.125-.117.275-.32.335-.452.123-.274.692-.649.777-.513.032.05-.007.255-.087.455s-.143.513-.143.696c0 .279-.064.4-.393.751l-.543.594c-.096.114-.17.117-.207.009zm1.558-.237l.445-.514c.314-.341.262-.474-.136-.345-.273.089-.282.076-.126-.172.093-.147.142-.311.109-.363s.061-.226.217-.392.277-.351.277-.419c0-.289-.193-.66-.3-.577-.247.19-.361.199-.321.025a.61.61 0 0 0-.042-.35c-.119-.242.154-1.052.409-1.21.038-.024.058.032.046.124s.074.129.194.082l.216-.084-.207.422-.207.422.234-.019c.25-.021.492.256.738.844.118.282.195.328.333.198.282-.268.316-.029.051.363-.179.266-.213.376-.135.436s-.076.223-.614.648l-1.042.841c-.248.209-.28.219-.139.04z"/></g><g class="B"><path d="M182.425 241.509c-.32-.214-.356-.363-.144-.6.19-.212.541-.099.674.217.14.332.137.349-.068.471-.096.057-.304.018-.462-.088zm22.516-12.499l-.345.156.648-1.253.751-1.315c.061-.036.043.067-.042.245-.193.402-.062.647.29.542.153-.046.306.022.365.163.095.225.079.263-.241.574-.336.326-.737.576-1.426.888z"/><path d="M205.424 229.126c0-.103.04-.211.089-.24s.066.045.037.165-.07.229-.09.241-.036-.063-.036-.166z"/></g><g class="C"><path d="M273.042 189.116c-.078-.073-.267-.397-.42-.719s-.556-.84-.896-1.151c-.38-.347-.574-.613-.501-.689.064-.067.203-.019.308.107.254.307.567.519 1.061.717.41.165.612.422.348.442-.305.024-.229.354.166.72.23.213.418.414.418.446 0 .152-.358.246-.484.127zm-45.38 29.635c-.107-.081-.067-.348.077-.508.101-.112.139-.069.139.154 0 .301-.09.449-.216.354zm45.966-27.494c-.169-.221-.174-.278-.049-.593s.123-.381-.004-.637c-.208-.42-.178-.47.182-.312.178.077.53.101.781.053.52-.101.646-.011.375.266-.103.105-.186.273-.186.373 0 .136-.064.197-.254.244-.488.122-.627.245-.595.531.038.35-.024.369-.25.075zm-48.281 30.151c.065-.27.346-.476.29-.213a.67.67 0 0 1-.192.311c-.107.092-.137.062-.098-.098zm1.821-1.187c-.08-.263-.073-.386.031-.588.187-.366.333-.274.333.21 0 .572-.232.812-.364.378zm2.198.045c-.37-.036-.387-.058-.194-.241.231-.219.743-.422.732-.29-.003.045-.035.192-.069.326-.057.221-.102.241-.469.205zm3.733-.974l-.277-.006.369-.229c.46-.284.8-.369.733-.183-.075.207-.507.426-.825.418h0zm3.151-1.657c-.111-.084-.052-.253.124-.358.098-.058.205-.178.236-.266.086-.239.233-.289.177-.059-.057.235-.457.744-.537.683zm37.434-21.845c-.18-.264-.433-.164-1.013.399-.236.229-.399.327-.509.306-.088-.017-.112-.062-.053-.099s.234-.286.387-.551c.198-.343.343-.499.499-.539.165-.042.344-.256.719-.861.731-1.178.797-1.452.5-2.069-.286-.593-.206-.885.217-.799.308.063.598.595.514.943-.031.125.014.433.1.686.121.357.133.531.052.783-.119.371-.449.767-.825.991-.21.125-.273.236-.342.601l-.084.448-.162-.239z"/><path d="M272.84 196.749c-.06-.176.081-.46.294-.59.147-.09.149.189.004.471-.151.294-.228.325-.298.119z"/></g><path d="M200.618 239.869c0-.03.042-.114.093-.187s.092-.073.092 0-.042.157-.092.187-.093.03-.093 0z" class="B"/><path d="M272.324 197.961c0-.098-.101-.28-.224-.405-.293-.297-.189-.673.158-.572.249.073.379.447.287.826-.069.288-.221.391-.221.151z" class="C"/><g class="B"><path d="M194.828 246.807c0-.103.079-.234.176-.291.156-.093.16-.075.037.165-.076.148-.155.279-.176.292s-.037-.062-.037-.166zm.579-.232c-.033-.096-.039-.215-.014-.265s.073-.011.106.086.039.215.014.265-.073.011-.106-.086zm-.537 1.303c-.147-.142-.126-.458.038-.555.053-.032.075.065.049.215s0 .268.058.261.081.039.051.102-.118.051-.196-.023zm1.828.117c.061-.172.41-.395.41-.262 0 .052-.104.164-.231.249s-.207.091-.179.013z"/></g><path d="M269.682 204.741c-.056-.017-.152-.13-.214-.252-.093-.183-.083-.304.056-.711.216-.627.361-.776.431-.441.074.353-.139 1.444-.273 1.404z" class="C"/><g class="B"><path d="M196.091 248.744c.179-.263.277-.321.277-.164 0 .068-.094.179-.208.246-.168.098-.181.083-.069-.082zm-.668 1.453c-.028-.022-.224.059-.433.18-.29.167-.359.17-.288.012s-.03-.243-.37-.339c-.666-.188-1.038-.08-1.485.428-.42.477-.452.502-.452.359 0-.261.735-.987 1.265-1.247.506-.249.79-.272 1.784-.144.817.105.818.106.555.365-.3.293-.511.435-.576.386zm3.994-1.481c0-.027.063-.118.139-.203s.138-.1.138-.033-.062.158-.138.203-.139.06-.139.033z"/></g><path d="M265.161 209.63c-.245-.186-.003-.726.445-.993.199-.118.199-.116.029.38-.199.578-.318.732-.474.613z" class="C"/><g class="B"><path d="M198.308 249.601c-.109-.083.027-.316.269-.46.146-.087.219-.072.196.04-.043.2-.367.494-.465.42zm-1.427.77c-.082-.014-.266.078-.406.204s-.358.234-.482.241c-.199.01-.182-.013.152-.201.492-.277.623-.463.497-.706-.089-.172-.062-.205.379-.468.426-.253 1.041-.355 1.146-.188.069.11-1.12 1.145-1.286 1.118zm-2.338 1.462a.11.11 0 0 1-.116-.109c0-.18.409-.377.607-.292.171.073.166.085-.098.236-.152.088-.329.162-.393.165zm6.353-3.447c0-.069.018-.136.041-.149s.066.017.097.067.013.117-.04.149-.098.002-.098-.067z"/><path d="M200.48 248.633c-.031-.05-.013-.117.041-.149s.097-.002.097.067-.018.136-.04.149-.067-.017-.098-.067zm14.322-8.271c-.031-.05-.013-.117.041-.149s.098-.002.098.067-.019.136-.041.149-.066-.017-.098-.067zm-14.691 8.742c-.032-.051.005-.094.087-.1.159-.012.189.06.056.139-.048.028-.112.011-.143-.039zm.785.047a.54.54 0 0 1 .092-.257c.051-.073.092-.076.092-.007a.54.54 0 0 1-.092.257c-.051.073-.092.075-.092.007zm14.784-8.311c0-.068.042-.149.093-.179s.092.001.092.07a.23.23 0 0 1-.092.179c-.051.03-.093-.001-.093-.07zm-14.507 9.076c0-.03.042-.114.092-.187s.092-.072.092 0-.041.157-.092.187-.092.03-.092 0z"/></g><path d="M271.025 209.145c-.092-.015-.268.065-.39.179-.179.167-.302.143-.637-.123-.473-.378-.565-.601-.426-1.034a2.73 2.73 0 0 0 .097-.681c0-.678.336-.851.582-.299.137.306.138.389.009.881-.138.529-.135.547.111.748.178.146.312.151.452.02.119-.111.247-.137.317-.065.166.173.094.409-.115.374z" class="C"/><g class="B"><path d="M201.727 250.392c0-.069.019-.136.041-.149s.066.016.098.066.013.117-.041.149-.098.002-.098-.066zm-4.342 2.833c0-.068.018-.135.04-.148s.066.016.098.066.013.117-.041.149-.097.002-.097-.067zm.523-.145c-.034-.025-.061-.104-.061-.175 0-.078.043-.096.109-.046.06.045.087.124.061.175s-.075.072-.109.046z"/></g><g class="C"><path d="M270.441 209.947a.39.39 0 0 1-.15-.258c0-.079.092-.075.203.01s.179.2.15.257-.121.053-.203-.009zm1.174-.215c-.106-.119-.178-.247-.159-.284.075-.146.335-.077.474.127.212.312-.057.448-.315.157zm-.747.874c-.13-.134-.003-.511.191-.568.122-.036.126.014.028.317-.094.292-.135.339-.219.251zm.591-.025l-.1-.271c-.021-.04.001-.095.05-.124.092-.055.222.382.153.516-.022.043-.069-.011-.103-.121z"/></g><path d="M200.422 252.877c.057-.126.076-.25.042-.276s.026-.097.131-.16c.146-.087.18-.048.143.165-.028.162-.126.325-.234.39-.144.086-.162.06-.082-.119z" class="B"/><g class="C"><path d="M271.184 211.265c-.034-.099-.027-.283.015-.41.065-.196.093-.214.184-.119.082.084.078.181-.015.409-.115.281-.127.288-.184.12zm-2.001 1.524c0-.054.185-.487.411-.964.332-.699.413-.817.416-.612.002.14-.136.546-.309.902-.291.605-.518.9-.518.674zm6.468-3.112a.55.55 0 0 1 .092-.257c.051-.072.092-.076.092-.007a.54.54 0 0 1-.092.257c-.05.072-.092.076-.092.007zm-20.636 12.924c-.103-.165-.162-1.149-.087-1.464.079-.334.085-.334.32-.003.283.396.373.704.28.953-.089.238-.456.606-.513.514z"/><path d="M271.518 212.562c-.176-.451-.2-.462-.471-.22s-.28.237-.179-.08c.084-.262.162-.35.361-.409.192-.057.314-.188.502-.535.136-.252.249-.561.25-.685.003-.317.346.537.424 1.056.06.394.052.422-.092.346-.214-.112-.421.26-.245.442.07.072.079.145.022.179a1.45 1.45 0 0 0-.241.219c-.108.12-.194.038-.331-.313h0z"/></g><g class="B"><path d="M227.416 240.68c0-.031.042-.115.092-.187s.092-.073.092 0-.041.157-.092.187-.092.03-.092 0zm-.555 1.83a.52.52 0 0 1 .093-.187c.05-.073.092-.073.092 0s-.042.157-.092.187-.093.03-.093 0z"/></g><path d="M272.926 215.516c-.074-.056-.079-.17-.014-.369.05-.159.067-.328.037-.376-.083-.133.126-.7.295-.801.136-.081.135-.059-.006.236-.122.256-.136.384-.063.599.147.435-.013.89-.249.711h0z" class="C"/><g class="B"><path d="M288.31 206.702a.53.53 0 0 1 .092-.187c.051-.073.093-.073.093 0s-.042.157-.093.187-.092.03-.092 0zm-14.715 10.35c-.192.046-.218-.16-.035-.269.07-.042.266-.121.435-.176.261-.084.28-.068.127.104-.2.225-.29.283-.527.341z"/></g><path d="M268.227 220.247a.57.57 0 0 0-.417.139c-.23.236-1.143.527-1.234.394-.072-.105-.284-.896-.397-1.481-.031-.161 0-.413.073-.591.106-.258.16-.305.328-.284.177.023.214-.021.311-.367.061-.216.262-.588.449-.827.196-.253.386-.62.453-.88a1.71 1.71 0 0 1 .43-.772c.173-.181.423-.585.556-.899s.29-.6.35-.636.243.042.405.172l.296.237-.237.572c-.269.65-.255 1.063.05 1.461l.185.241-.23.341c-.127.188-.23.41-.23.494.001.286-.592 2.289-.74 2.503-.103.148-.224.203-.401.183z" class="C"/><path d="M282.738 212.03c-.087-.128-.287-.246-.444-.263s-.264-.07-.238-.119c.143-.28.945.126.877.444-.021.097-.105.071-.195-.062z" class="B"/><path d="M270.06 220.24c-.032-.051-.032-.217-.001-.369s-.007-.371-.085-.486c-.129-.189-.128-.246.013-.601.085-.215.186-.717.224-1.116.046-.491.138-.86.285-1.147.202-.393.253-.435.706-.589.389-.132.543-.235.754-.509.355-.46.381-.464.263-.044-.15.534-.449.854-.764.818-.564-.064-1.312.974-.917 1.273.145.11.225.08.494-.184.46-.452.642-.527.356-.147-.324.43-.385.731-.219 1.068a1.61 1.61 0 0 1 .138.602c0 .285-.022.32-.185.299-.101-.013-.248-.192-.326-.397-.14-.37-.142-.37-.322-.021-.157.306-.167.407-.081.778.077.335.072.464-.025.605-.163.237-.239.278-.309.167h.001z" class="C"/><path d="M245.62 234.781c0-.069.041-.15.092-.18s.092.001.092.07-.041.149-.092.18-.092-.002-.092-.07z" class="B"/><g class="C"><path d="M264.233 223.79c-.34-.06-.952-.708-1.151-1.219a3.92 3.92 0 0 0-.548-.916c-.194-.229-.416-.547-.494-.706s-.315-.413-.527-.562c-.446-.315-.721-.761-.534-.868.243-.138.867-.04 1.135.179.738.604.89.699 1.238.783.337.08.496.277.512.633.003.067.099.207.213.311l.477.434c.149.135.298.395.331.578.107.598-.287 1.417-.652 1.353zm17.333-9.826l-.229-.035.356-.302c.195-.166.496-.553.668-.86.188-.334.312-.489.311-.387-.002.256-.116.519-.461 1.069-.361.575-.344.562-.645.515h0z"/></g><path d="M283.524 213.198c-.053-.054-.123-.251-.156-.438-.052-.3-.046-.318.052-.155.061.101.171.242.243.312s.095.181.044.254-.131.082-.183.027z" class="B"/><g class="C"><path d="M283.761 213.215c-.093-.083-.126-.176-.075-.206s.167.013.26.096.125.175.074.206-.167-.013-.259-.096zm-16.242 10.265c-.33.135-.796.274-1.035.31s-.52.154-.625.262c-.212.217-1.112.394-1.112.219 0-.4.828-.923 1.269-.801.164.045.294-.022.641-.334.385-.346.465-.379.691-.288.141.057.298.079.349.049.183-.109.737-.021.691.11a.36.36 0 0 1-.158.181l-.711.292z"/></g><g class="B"><path d="M284.845 213.194c-.248-.222-.115-.359.139-.144.12.101.175.209.123.24s-.17-.012-.262-.096zm-.579.47c-.064-.1-.075-.205-.025-.235s.134.033.189.138.065.211.025.235-.125-.038-.189-.138z"/></g><g class="C"><path d="M270.047 222.2c-.168-.174.025-.372.461-.473s.437-.075-.018.306c-.236.199-.365.247-.443.167zm-1.026.705c-.064.001-.093-.063-.064-.143.07-.197.663-.541.735-.427.031.05.003.124-.064.165a2.88 2.88 0 0 0-.306.238c-.102.09-.237.165-.301.167z"/></g><g class="B"><path d="M285.163 213.708c-.034-.102-.06-.281-.057-.397.004-.141.036-.129.095.036.049.137.075.316.058.398s-.061.065-.096-.037z"/><path d="M285.076 213.87c-.125-.129-.095-.173.131-.19.08-.006.146.04.146.101 0 .173-.15.221-.277.089z"/></g><path d="M271.669 221.676c.262-.654.672-1.111 1.051-1.172.276-.044.281-.037.061.105-.13.085-.433.439-.673.789-.549.797-.681.881-.439.278z" class="C"/><g class="B"><path d="M270.106 222.77c-.134-.02-.172-.071-.092-.12.165-.102.43-.051.367.071-.024.047-.147.069-.275.049zm15.526-8.728c-.073-.076-.08-.143-.018-.179.111-.067.241.093.177.218-.023.045-.095.027-.159-.039z"/></g><path d="M281.611 216.445c-.585.098-.85.024-1.08-.302-.263-.372-.744-.486-.99-.234-.099.101-.266.433-.371.736-.179.516-.213.559-.538.675-.191.067-.458.049-.593-.041-.171-.114-.303-.104-.437.033-.105.108-.258.185-.339.172-.127-.02-.115-.073.089-.374.235-.349.235-.352.077-.706-.127-.284-.301-.367-.874-.416-.393-.034-.838.012-.988.101-.344.205-.485-.14-.227-.55.154-.244.132-.268-.27-.293-.426-.027-.432-.035-.229-.309.115-.155.301-.338.412-.407.217-.134.491.126.491.465 0 .113.089.306.199.43.197.221.202.22.347-.111.081-.184.338-.598.573-.919l.426-.584.59.01 1.025-.038c.238-.026.716.036 1.06.138.659.193.945.516.781.882-.134.297.392.978.936 1.212.597.256.587.319-.07.43z" class="C"/><g class="B"><path d="M241.046 241.753c-.032-.05-.013-.117.04-.149s.098-.002.098.067-.018.135-.041.149-.066-.017-.097-.067zm47.087-26.191c-.004-.129.018-.216.049-.193s.034.129.007.235c-.03.117-.052.101-.056-.042zm-.354.3c-.19-.44-.123-.692.073-.276.205.432.208.448.112.504-.038.022-.121-.08-.185-.228zm-41.882 27.2a.52.52 0 0 1 .092-.187c.051-.072.092-.072.092.001s-.041.156-.092.186-.092.031-.092 0zm-.647.816c0-.069.041-.15.092-.18s.092.001.092.07-.041.149-.092.18-.092-.002-.092-.07z"/></g><g class="C"><path d="M286.472 219.531c-.295-.261-.472-.531-.472-.72 0-.419.05-.412.317.044.127.219.358.486.512.594s.28.243.28.299c0 .24-.197.173-.637-.217zm-45.864 29.46c-.261-.045-.298-.129-.366-.826-.055-.558-.032-.699.229-1.428.265-.74.284-.864.226-1.462-.085-.864.059-1.429.451-1.779.37-.33 1.17-1.762 1.362-2.437l.147-.516.102.241c.256.609.23.959-.216 2.893l-.569 2.712c-.237 1.462-.372 1.861-.762 2.25-.414.415-.374.391-.604.352z"/></g><path d="M243.499 212.347c.238-.308.273-.421.273-.897 0-.341-.054-.572-.145-.62-.08-.042-.209-.206-.287-.363-.129-.261-.128-.288.006-.298a.58.58 0 0 0 .426-.444c0-.068-.086-.236-.191-.373-.159-.207-.222-.209-.37-.014-.12.158-.179.194-.179.109 0-.07-.165-.143-.366-.162-.446-.042-.605-.289-.466-.724.105-.329.482-.739.642-.7.217.052.281-.253.102-.486-.433-.566-1.037-.153-1.785 1.222-.483.887-.525 1.072-.252 1.107.102.013.185.108.185.21s.164.329.365.505c.463.404.548.663.49 1.501l-.046.675.635.063.663.053c.015-.006.15-.17.3-.364h0z" class="B"/><path d="M231.328 259.465c-.196-.148-.229-.264-.185-.655.041-.367.002-.546-.174-.791-.124-.174-.227-.378-.227-.453s-.163-.335-.363-.578c-.308-.377-.372-.562-.423-1.24-.09-1.197-.384-2.374-.781-3.118-.195-.366-.382-.881-.416-1.144-.072-.558.109-1.562.521-2.893l.274-.885-.154-.536c-.086-.3-.128-.691-.095-.887a.92.92 0 0 0-.12-.642c-.097-.16-.243-.562-.322-.893-.107-.442-.255-.682-.56-.905-.585-.429-.662-.689-.48-1.644.37-1.942-.03-2.708-1.006-1.929-.38.303-.395.302-.449-.029-.041-.255-.152-.352-.433-.379-.364-.035-.52.057-.968.57l-.924.981c-.611.636-.795.781-1.061.835-.252.051-.464.203-.98.701-.533.515-.727.651-1.015.715-.601.133-1.633-.512-1.78-1.112-.114-.464-.821-1.284-1.061-1.23-.153.034-.172.001-.078-.136s.077-.17-.07-.135c-.233.057-.256-.188-.031-.325.139-.084.142-.104.024-.137-.088-.024-.097-.064-.027-.107s.046-.183-.08-.397c-.177-.301-.181-.352-.046-.635.414-.864.504-2.249.19-2.9-.15-.311-.053-.922.267-1.687.12-.288.356-.955.523-1.481.292-.921.944-2.348 1.12-2.453.195-.116.825-1.407.825-1.69 0-.641.283-1.449.745-2.124a6.7 6.7 0 0 0 .646-1.203c.219-.611.25-.645.506-.556.1.035.349.002.553-.073.312-.115.46-.254.924-.866.798-1.052 1.291-1.489 2.204-1.955.602-.308.873-.502 1.165-.833.43-.489.801-.572.701-.158-.03.125-.012.272.041.326.066.069.066.225-.002.505-.085.353-.066.432.145.604.133.109.371.156.529.104.743-.24.954-.236 1.107.024.113.191.26.235.503.152.19-.065.465-.105.611-.09.249.027.282.001.489-.387.14-.26.204-.486.171-.606-.029-.105-.007-.333.048-.506.143-.447.549-.653 1.183-.601.691.057 2-.388 2.464-.838.223-.216.438-.345.634-.38.638-.114.965-.516 1.052-1.295.029-.259.079-.485.11-.504.06-.036.091-.417.1-1.216.003-.259.048-.497.1-.528.062-.037.059-.126-.009-.258-.114-.219-.344-.076-.896.559-.261.301-.334.338-.568.29-.304-.062-.616.087-.706.337-.067.186-.539.365-.796.301-.184-.046-.356-.407-.356-.747 0-.13-.093-.271-.208-.312-.177-.063-.187-.105-.069-.279.076-.113.233-.232.349-.264.147-.04.282-.199.453-.532.161-.313.356-.55.576-.696.182-.122.447-.392.587-.601a1.88 1.88 0 0 1 1.537-.747c.725.06 1.369-.352 1.629-1.042.134-.359.135-.418.007-.606-.078-.115-.452-.263-.832-.329l-.691-.121.129-.415c.072-.229.106-.434.078-.455s-.018-.134.024-.249.084-.288.094-.382c.021-.202-.128-.061-.862.816-.427.509-.49.624-.396.722.062.065.201.067.309.006.152-.086.116-.006-.157.351-.331.434-.368.459-.583.396-.185-.054-.209-.115-.121-.309s.073-.24-.063-.228c-.095.008-.217-.039-.272-.105-.264-.32-1.104 1.435-1.348 2.819-.115.649-.111.677.105.769l.224.096-.411.359c-.226.197-.531.386-.677.419-.27.061-.612.414-.612.633 0 .064-.063.121-.14.127s-.199.112-.271.236c-.112.193-.099.289.086.651.202.392.208.459.082.874-.157.52-.303.576-.525.199-.155-.263-.154-.272.051-.433.258-.204.275-.436.024-.341-.572.216-.878-.01-.878-.652 0-.5-.343-.848-.759-.769-.216.041-.451-.004-.522-.098s-.279-.169-.462-.163-.388-.064-.455-.154c-.097-.129-.161-.114-.302.073-.099.13-.18.317-.18.415 0 .325 1.178 1.093 1.754 1.143.61.054.706.146.282.273-.378.112-.481.286-.352.593.091.216.076.307-.107.653l-.212.402.048-.401c.077-.637-.499-1.143-.977-.859-.175.104-.848-.379-1.024-.735-.189-.381-.398-.351-.695.098-.447.676-.783 1.014-1.133 1.143-.466.171-.76.565-.685.921.038.186.017.292-.07.344-.07.041-.247.287-.395.547s-.3.491-.339.514c-.114.069-.437 1.05-.437 1.331-.001.269-.362 1.013-.711 1.462-.111.144-.369.361-.574.482-.282.168-.397.3-.474.541-.102.316-.105.317-.342.138-.222-.168-.35-.168-.798.005-.236.091-.275-.607-.099-1.739.075-.485.112-.999.082-1.144-.088-.42.186-.861.645-1.038 1.059-.41 1.678-.767 1.823-1.05.2-.388.29-1.332.168-1.758-.079-.279-.189-.347-.514-.321-.48.037-.49-.196-.021-.481a2.27 2.27 0 0 0 .572-.565c.136-.201.287-.357.335-.346.13.032.625-.648.789-1.085.08-.211.236-.47.348-.575s.411-.577.665-1.048c.36-.668.549-.923.858-1.157.383-.289.768-.944.587-.998-.112-.034-.206-.584-.144-.841.03-.122.161-.38.291-.573l.237-.351-.061.551c-.053.478-.039.533.102.417a3 3 0 0 0 .372-.414c.175-.235.218-.254.264-.118.08.232-.141.691-.293.611-.083-.045-.137-.01-.184.121s-.086.151-.141.063c-.042-.067-.097-.08-.123-.029s.048.196.164.324c.196.216.233.21.512-.088.239-.255.354-.316.558-.294.23.024.307-.03.749-.52.387-.429.539-.545.711-.542.157.004.274-.068.42-.257.416-.538.531-.826.48-1.197-.077-.551.063-.83.432-.861a.42.42 0 0 0 .438-.29c.12-.234.11-.288-.087-.455-.19-.16-.203-.22-.087-.394.075-.113.355-.304.623-.425.491-.222 1.103-.845.996-1.015-.093-.149-.656.127-1.134.555-.423.38-.534.436-.858.431-.504-.007-.564-.332-.218-1.189.445-1.104.526-1.419.399-1.55-.187-.195-.371.015-.8.909-.227.473-.535 1.002-.686 1.176s-.337.519-.414.767c-.126.403-.126.472.002.659.078.115.226.195.329.178.284-.047.227.215-.178.832-.125.189-.291.615-.37.945-.098.415-.248.746-.481 1.068-.329.453-.344.463-.526.348-.103-.065-.213-.257-.243-.427s-.17-.426-.309-.569l-.252-.259-.321.455c-.176.251-.404.504-.505.563-.294.171-.633-.056-.656-.438-.011-.189-.049-.424-.084-.521-.082-.231.331-1.002.761-1.418s1.307-1.769 1.456-2.247c.067-.213.292-.696.5-1.072s.379-.741.379-.809.197-.337.439-.597l.901-1.005c.312-.36.702-.684 1.201-.998.872-.549 1.443-.732 1.913-.614a.61.61 0 0 0 .601-.137c.319-.276 2.02-.575 2.091-.367s-.417.736-.837.904c-.192.077-.589.213-.883.303-.395.12-.561.215-.638.365s-.038.204.148.208c.139.003.313.127.386.275.187.379.786.421 1.095.078.297-.329.295-.376-.018-.42-.29-.04-.156-.166.208-.195.291-.024.62-.405.543-.63-.036-.105.065-.257.35-.525.61-.574.654-.631.604-.768-.191-.519-.194-.499.084-.622.149-.065.257-.044.245.048s.065.177.172.191c.16.021.287-.096.728-.671.646-.843 1.15-1.293 1.338-1.193.104.055.278-.048.78-.461.356-.293.687-.522.736-.51s.117-.055.15-.147c.073-.203-.128-.445-.238-.287-.133.19-.57.251-.475.066s2.667-.906 2.821-.789c.104.078.432-.304.432-.504 0-.067-.183-.133-.408-.147-.694-.044-.739-.749-.085-1.36.379-.354.543-.303 1.068.332.681.825.663.773.441 1.328-.165.412-.175.491-.061.482.217-.016.681-.686.746-1.076.076-.458-.066-.724-.407-.76-.268-.028-.462-.256-.462-.543 0-.098.1-.183.3-.252.299-.104.547-.399 1.226-1.456.155-.242.417-.497.682-.662.536-.336.71-.561.555-.721-.06-.063-.091-.151-.067-.197.118-.23 1.639-1.423 1.989-1.56.338-.132.442-.231.719-.682.179-.291.325-.578.325-.639 0-.152-.808.342-.878.537-.097.27-.222.271-.187.002.03-.227-.048-.215-.721.115-1.838.899-1.988.943-1.767.513.194-.377.669-.655 1.067-.623.163.013.433-.058.6-.157s.33-.14.361-.09.193.01.36-.089c.461-.274 1.352-.535 1.296-.379-.027.076.059.073.191-.006a.98.98 0 0 1 .537-.104c.219.029.524-.095 1.174-.478.698-.411.93-.501 1.132-.437.139.045.253.117.252.161s-.214.366-.474.714c-.627.842-.495.968.265.25.492-.465.604-.534 1.012-.612.334-.065.542-.172.769-.394s.458-.342.852-.438c.411-.1.624-.213.885-.465.594-.577 1.325-.95 1.75-.891l.864.122c.469.067.489.059.814-.332.272-.326.424-.431.826-.566s.544-.233.768-.524c.22-.284.256-.381.172-.468-.163-.168.413-.609 1.12-.858l.913-.369c.178-.088.525-.158.772-.154.377.005.661-.112 1.762-.727 1.046-.583 1.378-.724 1.631-.692s.547-.094 1.518-.659c.892-.519 1.292-.7 1.557-.704.428-.005.599-.198.366-.412-.167-.154-.166-.155.479-.452 1.082-.499 2.379-.95 2.818-.982.229-.016.665-.136.969-.267s.748-.219.986-.198c.362.033.479-.009.711-.257.318-.339.524-.353 1.009-.072l.301.175-.227.212c-.228.213-.833.37-1.042.271-.061-.03-.147-.002-.191.06s-.26.138-.48.166c-.516.066-.745.293-.51.505.16.144.157.151-.149.305-.573.286-.416.422.425.365l.876-.025c.086.062-.2.373-.408.443-.228.077-.791.744-.791.937 0 .065-.089.282-.198.484-.181.337-.219.365-.462.339-.227-.024-.3.018-.518.297-.14.178-.379.439-.531.579s-.328.343-.392.452c-.186.32.142.732.604.76.252.015.434.128.488.301.047.152.148.389.224.526.123.223.122.266-.011.414-.097.108-.125.226-.083.344.035.098.075.313.089.477s.054.374.091.466c.047.121.008.228-.138.377-.162.166-.271.147-.538-.093a2.7 2.7 0 0 0-.682-.436c-.191-.075-.533-.36-.761-.634-.401-.483-.409-.511-.276-.938a3.22 3.22 0 0 0 .14-.73c.002-.16.061-.464.131-.676.133-.406.082-.636-.204-.909-.187-.179-.52.237-.436.546.077.284-.16.532-.434.453-.118-.035-.391.004-.606.085-.369.14-.396.171-.491.568-.056.23-.08.557-.052.725.042.262.012.338-.206.533-.148.132-.403.231-.61.237a.89.89 0 0 0-.596.247c-.133.13-.581.443-.996.695-.658.401-.785.515-.984.888-.127.235-.278.719-.337 1.075s-.168.809-.241 1.006c-.127.339-.115.359.248.393.393.038.821-.146 1.146-.491.251-.266 1.015.086 1.254.577.097.201.259.376.359.389.377.049.454 1.797.138 3.157-.218.941-.463 1.352-.822 1.381-.137.011-.263.029-.28.039s-.12.302-.229.648c-.142.456-.17.659-.1.732.135.139.035.484-.234.81-.124.151-.226.328-.226.395s.289.218.643.337c.449.151.689.33.799.595.087.208.141.409.12.447s-.209.288-.419.556l-.383.488-.23-.577c-.257-.646-.478-.837-.867-.747-.195.045-.264-.015-.264-.234 0-.201-.095-.314-.299-.354-.297-.059-.303-.055-.618.396s-.32.455-.417.267c-.054-.104-.098-.275-.098-.38s-.078-.202-.172-.214c-.142-.018-.231.097-.49.631-.175.359-.398.763-.497.898-.153.209-.161.264-.056.373.068.071.303.157.522.192.349.057.416.032.533-.197.112-.218.203-.277.54-.354l.406-.092-.226.338c-.42.629-.552.907-.612 1.284-.049.31-.019.377.167.381.124.003.313.196.42.43s.32.45.473.482c.339.069.437.298.241.562-.182.246-.095.4.146.257.287-.171.289.06.011 1.567-.337 1.823-.641 2.546-1.437 3.413-.313.342-.694.705-.847.807-.354.237-.629.604-.869 1.159l-.19.441-.089-.264c-.116-.343-.381-.288-.762.157-.35.407-.58.863-.673 1.331-.083.418.211.892.699 1.124.4.191.849 1 .954 1.72.092.626-.071 1.17-.507 1.695-.198.239-.384.548-.412.687-.069.332-.479.94-.554.82-.032-.05-.033-.209-.003-.354s.028-.34-.003-.432c-.046-.134-.096-.118-.242.074-.152.2-.211.207-.334.04-.301-.412-1.175-.843-1.417-.699-.086.051-.119.209-.104.499.012.234-.025.725-.081 1.091-.091.597-.082.69.09.903.106.13.219.363.251.516s.299.398.605.548c.509.25.563.327.777 1.118l.231.968c0 .212-.193.241-.596.089-.417-.157-.683-.639-.904-1.638-.097-.435-.202-.582-.502-.702-.367-.147-.379-.173-.349-.796l.093-1.138c.048-.383.008-.613-.176-1.02-.131-.29-.285-.761-.344-1.049-.13-.642-.313-.653-.638-.039-.134.254-.27.478-.302.497-.147.087-.349-.216-.301-.452.088-.428-.453-1.414-.77-1.403-.173.006-.332-.135-.438-.39-.184-.444-.391-.532-.597-.256-.075.1-.375.39-.667.644-.534.467-.726.8-.653 1.135.027.124-.066.314-.291.592-.182.226-.378.578-.435.784s-.185.455-.282.554-.248.381-.334.624-.344.748-.571 1.12c-.312.51-.41.749-.394.968.09 1.279-.049 2.478-.388 3.342-.331.843-.354.875-.634.869-.154-.004-.249-.133-.288-.393-.032-.213-.219-.756-.414-1.208-1.181-2.73-1.356-3.282-1.255-3.962.068-.459-.096-.994-.253-.829-.064.067-.116.201-.118.299-.008.576-.481.945-.851.664l-.246-.186.211-.231c.238-.26.216-.567-.026-.365-.085.072-.282.062-.436-.021s-.316-.132-.36-.106-.105-.05-.138-.169c-.085-.312-.575-.337-.821-.041-.221.267-2.226 1.432-2.562 1.489-.121.02-.345-.082-.497-.227-.276-.263-.28-.262-.693.135-.392.375-.449.396-.976.349-.456-.04-.593-.127-.733-.465-.18-.432-.579-.585-.821-.315-.076.086-.165.335-.198.556-.047.317.001.476.227.758.158.196.33.547.382.778.113.498.335.534.519.084.111-.271.141-.296.216-.18.048.074.074.199.057.278-.051.247.482.285.731.053.126-.118.394-.568.597-1 .319-.68.431-.78.376-.335-.037.299.125.528.392.556.412.043.986.344.986.517 0 .079-.108.345-.24.59s-.322.711-.422 1.036c-.243.787-.949 2.146-1.188 2.288-.276.165-.687.725-.85 1.16-.078.206-.282.553-.453.77l-2.233 2.599c-.318.27-.344.266-.513-.083-.097-.203-.208-.659-.246-1.015-.049-.463-.144-.719-.334-.899-.147-.139-.266-.307-.266-.373s-.167-.254-.371-.417c-.254-.203-.418-.49-.52-.91-.083-.337-.251-.722-.374-.855-.848-.921-1.099-1.273-1.225-1.723-.168-.596-.309-.624-.375-.074l-.046.39-.313-.348c-.482-.536-.542-.126-.09.61.214.348.555.984.758 1.413s.466.897.585 1.039a1.17 1.17 0 0 1 .215.662c0 .471.104.703.512 1.144.164.178.326.483.36.678.044.251.223.434.606.622.583.286.96.721 1.054 1.216.035.185.169.318.338.336.257.027.348-.032 1.162-.755l1.144-1.122.26-.337.062.459c.056.416-.004.668-.662 2.767-.707 2.256-.74 2.336-1.444 3.506l-.92 1.698-.786 1.727c-.938 1.967-1.065 3.283-.443 4.574.158.328.22.611.182.835-.031.186-.011.599.045.916.087.5.077.653-.074 1.145-.219.709-.392 1.021-1.003 1.798-.267.34-.485.671-.485.736s-.187.516-.416 1l-.416 1.007c0 .069.086.302.191.518.314.646.103 1.375-.65 2.245-.318.367-.422.792-.343 1.4.041.318.015.448-.129.638-.099.131-.279.505-.399.831-.378 1.03-1.467 3.102-1.962 3.734-.413.527-.518.615-.821.682-.268.059-.484.203-.932.622-.726.679-.649.643-.93.43h0z" fill="#6cb1e5" fill-opacity=".698"/><path d="M276.386 235.287c-.194-.164-.23-.154-.417.123-.239.353-.686.496-1.045.334-.191-.087-.205-.143-.106-.452.084-.263.087-.414.011-.594-.056-.133-.102-.352-.102-.486 0-.303-.145-.231-.266.131-.049.149-.116.251-.149.227s.075-.33.238-.678c.402-.858.245-.933-.285-.137-.229.344-.431.69-.449.77s-.128-.069-.244-.331c-.126-.284-.343-.516-.539-.574-.293-.087-.393-.049-.957.362-.827.604-1.625 1.355-2.147 2.021-.238.302-.701.743-1.058 1.007-.35.257-.906.766-1.236 1.131-.505.557-.648.669-.904.707-.343.051-.486-.18-.264-.427.081-.09.227-.463.324-.83.157-.588.166-.747.073-1.331-.077-.483-.079-.982-.008-1.838.054-.647.074-1.283.046-1.414s.016-.519.099-.863c.146-.607.182-.662 1.173-1.82.563-.657 1.138-1.263 1.279-1.347.382-.227.855-1 1.116-1.823.161-.509.273-.733.369-.74.27-.019.324-.078.303-.337-.014-.166.042-.326.152-.438.095-.098.271-.43.39-.739.123-.316.375-.739.577-.97.338-.383.371-.401.555-.284.338.215.578.194.693-.061.055-.124.075-.246.042-.27-.106-.08.378-1.19.615-1.41.127-.118.388-.414.58-.658.299-.381.404-.457.739-.534.722-.168.746-.139.478.57-.346.912-.254 1.134.593 1.437.392.14.761.203.821.14s.251-.462.423-.886c.235-.578.326-.951.364-1.489.053-.764.312-1.936.445-2.015.044-.026.144.215.223.536s.245.652.369.736c.288.195.456 1.121.326 1.803-.086.453-.069.508.225.742.175.139.451.567.614.952s.457.89.653 1.125l.356.426-.101 1.046c-.074.76-.187 1.304-.415 1.984-.348 1.042-.869 2.148-1.143 2.43-.099.101-.328.55-.508.998s-.37.839-.419.868-.262.448-.47.929c-.348.803-.412.895-.775 1.12-.278.173-.491.402-.72.773l-.324.528-.213-.18z" class="F"/><g class="C"><path d="M286.158 231.089c-.033-.025.043-.215.169-.422.188-.313.21-.411.128-.57-.119-.231.058-.66.468-1.134.318-.368.398-.777.313-1.599-.059-.565-.052-.607.091-.532.113.059.14.201.1.513-.044.343-.004.484.191.681.21.214.273.213.437-.003s.182-.216.131-.004l-.06.297c0 .027-.135.223-.301.436a12.75 12.75 0 0 0-.716 1.098c-.372.637-.754 1.201-.856 1.261-.02.012-.063.002-.095-.022zm-10.678 7.446c-.096-.025-.102-.107-.023-.351.056-.176.102-.495.102-.711 0-.352.021-.394.207-.416.115-.014.354-.104.532-.201l.395-.2c.153-.052-.257.822-.624 1.332-.438.608-.42.591-.589.547zm6.467-2.224c-.265-.069.286-.897 1.651-2.483a16.73 16.73 0 0 0 1.29-1.772c.559-.904.606-.956.716-.808.169.224.07.519-.341 1.013-.196.237-.443.616-.549.843s-.274.461-.376.522-.341.392-.532.737c-.653 1.181-1.48 2.048-1.859 1.948h0z"/></g><g class="B"><path d="M204.431 285.566c0-.055.05-.197.111-.316s.076-.195.034-.17-.128.168-.189.317c-.087.214-.148.264-.287.238-.1-.019-.124-.067-.056-.11s.095-.116.064-.167c-.06-.096.098-.226.554-.455.408-.205.448-.149.197.269-.235.389-.428.567-.428.394zm-6.594-50.068c.193-.297.2-.337.064-.359-.2-.033-.794.581-.794.82 0 .247.46-.044.73-.461zm-1.638 1.919c.329-.422.36-.498.245-.586s-.19-.034-.567.416c-.443.528-.583.969-.244.768.103-.062.358-.331.566-.598z"/><path d="M194.52 237.644c.247-.845.706-1.638 1.076-1.858.267-.159.27-.102.026.463l-.192.443.197.099c.158.079.24.046.421-.173.123-.15.25-.396.281-.547.042-.206.111-.29.274-.331.15-.039.245-.139.307-.325.187-.566-.29-.862-.642-.398-.252.332-.58.165-.51-.259.026-.158-.028-.372-.121-.483-.191-.227-.481-.09-1.117.527-.229.222-.49.443-.58.492s-.139.128-.11.175.02.107-.021.132-.178.217-.304.424l-.23.375.258-.02c.202-.017.321-.102.545-.392.263-.342.312-.371.6-.356a.82.82 0 0 0 .529-.187c.119-.111.242-.161.274-.112s-.099.218-.298.382c-.541.446-.822.917-1.214 2.039-.327.937-.346 1.038-.216 1.156s.164.098.34-.173c.108-.166.3-.658.427-1.093z"/></g><path d="M193.857 257.213a.49.49 0 0 1 .521-.025c.255.124.291.11.49-.186a3.53 3.53 0 0 0 .36-.792c.178-.587.479-1.104.731-1.258.106-.065.29-.316.409-.559.242-.493.669-.861.461-.397-.175.39-.276 1.368-.163 1.586.094.181.102.175.273-.212.122-.276.146-.421.08-.471-.159-.12-.111-.327.184-.799.307-.489.544-.598.808-.373.194.165 1.23-.072 1.527-.35.452-.422 1.674-.144 2.133.486.218.3.916.317 1.223.03.632-.59 1.497-.249 1.7.67.06.273.151.508.202.52.135.034-.067.603-.509 1.434-.282.53-.349.727-.27.787s.21-.112.523-.689c.456-.839.608-.987.836-.814.139.106.135.146-.056.533-.113.231-.271.462-.351.514s-.051.09.081.082c.18-.009.274-.093.462-.409.488-.824.602-.918 1.036-.848.282.046.394.141.38.32-.039.501.044.557.288.195.194-.288.327-.375.977-.641.691-.283.782-.286 1.113-.035.246.187.523.241.871.171.467-.094.518-.068.602.307.123.544-.021 1.314-.41 2.196l-.453 1.176c-.082.27-.259.701-.391.959-.224.437-.236.52-.181 1.207.11 1.342-.399 4.268-.889 5.121-.16.278-.297.402-.55.5-.208.08-.362.2-.403.313-.036.101-.238.388-.448.639s-.524.702-.696 1.004c-.299.522-.309.566-.208.919.115.405.037 1.014-.211 1.641-.08.203-.146.506-.146.673s-.096.536-.214.818l-.505 1.383c-.394 1.176-.63 1.48-1.201 1.542-.495.055-.759.183-.759.37 0 .07.098.129.219.132s.309.194.418.424c.162.344.18.487.095.789-.131.468-.633 1.093-1.1 1.371-.413.246-.515.443-.373.719.088.171.029.564-.141.94-.014.031-.159.042-.322.025-.389-.041-.527.214-.33.612.08.162.232.28.338.262.182-.03.184-.014.036.295-.086.181-.131.403-.099.495.033.099-.042.401-.185.739-.232.55-.235.581-.086.8.085.125.217.222.295.216.278-.021.324.445.112 1.135s-.245 1.275-.081 1.445c.15.155-.354.929-.58.893-.088-.015-.236.05-.327.144-.116.119-.205.098-.291-.067-.067-.132-.189-.23-.27-.22-.185.024-.574-.597-.79-1.262-.109-.336-.256-.526-.431-.557-.309-.054-.331-.149-.092-.394.274-.281.325-.965.095-1.266-.111-.143-.168-.355-.135-.491.039-.162-.069-.34-.331-.545-.33-.258-.391-.387-.406-.858-.009-.305-.065-.604-.124-.665-.074-.077-.089-.501-.049-1.38.043-.954.018-1.511-.101-2.238-.178-1.08-.268-3.234-.222-5.276.01-.435-.031-1.001-.091-1.257-.147-.622-.821-1.117-1.653-1.214-.596-.069-.68-.127-.913-.639-.141-.31-.41-.739-.599-.952s-.393-.57-.455-.792c-.196-.705-.543-1.324-.779-1.393-.126-.037-.269-.241-.319-.455-.08-.345-.059-.467.192-1.11.272-.697.275-.72.092-.676-.452.109-.262-.821.549-2.688.539-1.241.697-2.036.547-2.757l-.113-.651c-.005-.082-.046-.129-.09-.102s-.036-.092.019-.262c.084-.262.063-.311-.139-.315a.51.51 0 0 0-.247.075" class="F"/><path d="M193.857 257.48c-.247.138-.492.44-.493.664-.002.362-.12.459-.506.416-.207-.023-.422-.014-.478.019s-.273-.038-.482-.157l-.497-.272c-.063-.031-.115-.185-.115-.344s-.082-.339-.182-.402-.229-.281-.287-.485c-.076-.268-.134-.317-.207-.175-.152.297-.377.392-.924.39-.286-.001-.584-.116-.703-.271-.114-.149-.331-.283-.483-.299-.25-.026-.312.012-.677.418l-.402.446-1.232-.074c-.759-.046-1.347-.171-1.529-.323-.283-.236-.292-.275-.198-.832.086-.51.072-.644-.116-1.056a2.75 2.75 0 0 0-.572-.784c-.197-.172-.336-.375-.309-.451s-.111-.398-.308-.714c-.224-.359-.382-.792-.421-1.155-.05-.465-.109-.581-.295-.585-.196-.004-.251.044-.364.319-.158.387-.113.67.237 1.486a5.16 5.16 0 0 1 .328 1.178c.037.316.148.739.246.94.231.477.082.555-.284.149-.215-.24-.273-.408-.231-.664.046-.274.001-.366-.223-.457-.34-.137-.412-.314-.287-.704.073-.227.04-.409-.145-.792a1.55 1.55 0 0 1-.181-1.009c.076-.654-.125-1.084-.502-1.071-.217.007-.292-.084-.336-.412l-.133-.781c-.044-.206-.04-.411.007-.48s.016-.219-.066-.341c-.123-.179-.131-.294-.045-.602.059-.209.081-.421.05-.472s.047-.304.175-.563a6.49 6.49 0 0 0 .378-1.039 9.97 9.97 0 0 1 .549-1.413c.222-.466.504-1.219.625-1.672.17-.63.269-.853.42-.944.108-.066.192-.046.185.044-.03.375.179.141.415-.466.138-.357.213-.646.166-.641s-.086-.075-.086-.178-.191-.326-.425-.495c-.388-.279-.413-.332-.284-.601.105-.219.117-.341.047-.468-.122-.223.071-1.001.28-1.128.087-.052.112-.107.059-.128-.12-.048-.174-.285-.157-.687.027-.642-.074-.843-.418-.833-.186.005-.469-.047-.63-.118s-.364-.084-.452-.032-.49.178-.893.279c-.647.161-.761.22-.985.51-.465.6-.957 1.025-1.158.999-.151-.02-.315.145-.888.892-.387.503-.848 1.045-1.026 1.202a7.95 7.95 0 0 0-.757.84c-.675.862-1.643 1.903-1.911 2.054-.173.097-.056-.075.404-.595.781-.884 1.584-1.907 1.658-2.114.091-.254-.107-.208-.346.081-.175.212-.283.267-.486.243l-.261-.029.284-.367c.32-.415.421-.729.348-1.082-.072-.342.321-.858 1.168-1.535.455-.363.801-.723 1.034-1.077.411-.622.34-.866-.103-.354a1.07 1.07 0 0 1-.672.405c-.378.087-.391.076-.222-.192.282-.447.866-.962 1.25-1.103.243-.089.441-.246.645-.51l.295-.382-.194-.164c-.107-.09-.194-.197-.194-.238 0-.116.556-.679.835-.844.138-.083.519-.445.845-.805s1.08-1.036 1.673-1.5c.964-.753 1.168-.877 1.89-1.145l1.364-.546c.305-.136.845-.312 1.199-.391.824-.185 1.361-.508 2.281-1.373.407-.383.818-.708.913-.724s.258-.14.362-.276c.142-.187.252-.241.454-.219.184.019.41-.079.717-.311.325-.245.609-.36 1.025-.417.316-.044.667-.134.78-.202.2-.119.2-.114.026.163s-.172.285-.011.274c.092-.007.414-.193.714-.414.543-.4.547-.4.699-.094l.152.307.198-.453c.113-.26.383-.639.634-.891.38-.38.495-.448.876-.517.269-.048.591-.199.833-.39.307-.243.449-.29.65-.216.253.093.26.089.484-.28.125-.206.383-.525.573-.71.454-.441.608-.897.335-.994-.193-.068-.184-.087.323-.725.378-.476.548-.634.622-.578s.073.166-.003.402c-.129.403.032.801.233.577.072-.081.192-.152.267-.157.116-.009.115.043-.014.386-.355.945.441.263.98-.84.22-.448.559-.746.878-.77.205-.016.186.083-.154.791-.406.843-.614 1.09-1.223 1.452-.295.175-.643.469-.805.678-.224.291-.333.369-.51.365-.33-.007-.445.231-.208.431l.202.17-.403.395c-.222.217-.59.514-.819.66-.332.212-.416.311-.416.488-.001.152-.162.408-.509.806-1.122 1.288-2.074 2.974-1.73 3.063.065.016.168.153.228.304.07.174.205.245.368.192.141-.046.507-.066.812-.044s.679.002.831-.044c.42-.126.424-.115.228.673-.167.673-.17.757-.041 1.019.078.157.192.253.255.214.302-.192.586-.739.763-1.47.168-.697.244-.854.727-1.49.712-.938 1.008-1.621.929-2.144-.051-.34-.024-.443.21-.808.148-.231.344-.688.435-1.017.204-.734.533-1.142 1.086-1.348.491-.184 1.071-.108 1.141.15.029.105.005.34-.053.521-.088.274-.071.358.1.502l.204.173.335-.433c.184-.239.479-.666.655-.949l.321-.516.075.231a.94.94 0 0 1 .026.434.65.65 0 0 0 .047.388.59.59 0 0 1 .012.438c-.058.176-.019.368.129.634.213.38.214.381.026.669-.246.38-.088.534.182.177s.576-.511.765-.392c.281.176.048.725-.696 1.641-.808.995-1.169 1.312-2.224 1.952-.779.473-.883.568-1.64 1.511-.445.553-.809 1.054-.809 1.115 0 .258.14.152.678-.512.317-.391.725-.796.919-.912.333-.197.345-.191.241.133-.06.188-.19.477-.288.644-.155.261-.164.338-.067.567.145.345.524.327.977-.046l.359-.295-.276.421c-.151.231-.401.532-.554.668s-.469.49-.701.786c-.236.301-.472.527-.536.511-.146-.035.008-.31.483-.862.423-.49.355-.703-.1-.317-.177.151-.753.786-1.278 1.412-.821.977-.964 1.191-1.012 1.514-.058.397-.259.687-.963 1.396a4.27 4.27 0 0 0-.647.881c-.131.259-.382.679-.557.933s-.344.617-.374.806c-.05.312-.061.325-.123.145-.115-.339-.29.163-.3.863-.01.717-.276 1.361-.861 2.08-.599.738-1.451 2.145-1.624 2.682-.153.474-.159.627-.065 1.556.088.866.082 1.1-.033 1.47-.086.277-.187.444-.27.451-.199.015-.441-.945-.373-1.476.047-.368.016-.478-.172-.605-.151-.102-.29-.092-.409.029-.099.101-.379.187-.622.191-.373.006-.492.058-.758.335-.181.188-.36.486-.419.696-.087.311-.145.379-.387.452-.156.048-.396.076-.533.062-.338-.032-.527.097-.907.618l-.803 1.064c-.304.393-.513.758-.568.993l-.378 1.752-.292 1.381.149.689c.274 1.268.655 1.47 1.45.767.598-.53.958-1.096 1.09-1.717a1.33 1.33 0 0 1 .446-.825c.408-.396.578-.503.735-.462.129.035.084.244-.495 2.285-.398 1.4-.369 1.487.312.949.62-.49 1.186-.734 1.253-.54.025.076-.017.715-.094 1.42-.138 1.262-.137 1.288.062 1.605.111.176.319.334.463.349.228.024.3-.019.588-.354.2-.231.36-.385.503-.471" class="D"/><path d="M202.395 288.329c-.469.041-.601-.113-.489-.576.052-.215.151-.424.22-.466s.375-.006.678.079.673.141.822.126l.273-.029-.335.209a7.93 7.93 0 0 0-.601.42c-.146.115-.402.222-.568.237h0z" class="B"/></g><defs><clipPath id="A"><path fill="#fff" d="M0 0h299v352H0z"/></clipPath><path id="B" d="M60.569 188.176c0 1.627-.965 3.25-1.904 3.792s-1.904.034-1.904-1.594.965-3.25 1.904-3.792 1.904-.033 1.904 1.594z"/><path id="C" d="M70.857 201.23c0 1.627-.965 3.25-1.904 3.792s-1.904.033-1.904-1.594.965-3.25 1.904-3.792 1.904-.033 1.904 1.594z"/><path id="D" d="M81.936 194.833c0 1.628-.965 3.251-1.904 3.793s-1.904.033-1.904-1.594.965-3.251 1.904-3.793 1.904-.033 1.904 1.594z"/><path id="E" d="M92.224 142.465c0 1.627-.965 3.25-1.904 3.792s-1.904.033-1.904-1.594.965-3.25 1.904-3.792 1.904-.034 1.904 1.594z"/><path id="F" d="M123.088 143.639c0 1.627-.965 3.251-1.904 3.793s-1.904.033-1.904-1.595.965-3.25 1.904-3.792 1.904-.033 1.904 1.594z"/><path id="G" d="M133.375 144.031c0 1.627-.965 3.25-1.904 3.792s-1.903.033-1.903-1.594.965-3.25 1.903-3.792 1.904-.034 1.904 1.594z"/><path id="H" d="M154.742 155.964c0 1.627-.965 3.25-1.903 3.792s-1.904.034-1.904-1.594.965-3.25 1.904-3.792 1.903-.033 1.903 1.594z"/><path id="I" d="M165.031 113.092c0 1.628-.966 3.251-1.904 3.793s-1.904.033-1.904-1.594.965-3.251 1.904-3.793 1.904-.033 1.904 1.594z"/><path id="J" d="M175.318 115.594c0 1.627-.965 3.251-1.904 3.792s-1.903.034-1.903-1.594.965-3.25 1.903-3.792 1.904-.033 1.904 1.594z"/></defs></svg>