<svg xmlns="http://www.w3.org/2000/svg" xmlns:xlink="http://www.w3.org/1999/xlink" width="582" height="742" fill="none" xmlns:v="https://vecta.io/nano"><style><![CDATA[.B{stroke-width:2}.C{fill:#fff}.D{fill:#0078d3}.E{fill-rule:evenodd}.F{fill:#cddae7}.G{fill:#aec4db}.H{fill:#822f17}.I{fill:#064685}.J{fill:#cbe5ff}.K{fill:#32a7ff}.L{fill:#76c349}.M{fill:#d6e142}.N{fill:#12bdef}.O{fill:#82a2c2}.P{fill:#64220f}.Q{stroke:#0078d3}.R{fill:#062148}.S{fill:#ffaa83}.T{stroke-width:1.332}]]></style><g class="K"><path d="M83.131 4.784l3.389-1.957v4.332l-3.389 1.957z"/><path d="M85.215 5.799c0-2.977 2.074-4.156 4.632-2.634l377.159 224.386c2.558 1.522 4.632 5.169 4.632 8.146v22.47L85.215 28.269V5.799z"/></g><path d="M468.638 348.949l3-1.732V565.63l-3 1.732z" class="C"/><path fill="#0864bf" d="M468.638 567.362l3-1.732v60.117l-3 1.732z"/><path d="M81.631 56.577l387.008 230.245v39.075L81.631 95.652z" class="I"/><g class="F"><path d="M105.761 87.798l1.346.801c.613.365 1.058.747 1.334 1.147s.417.853.417 1.365c0 .347-.061.596-.184.745s-.281.189-.482.114v.04c.274.245.471.516.592.813s.183.634.183 1.007c0 .53-.143.858-.429.985s-.67.046-1.159-.245l-1.618-.963v-5.81zm.917 2.846l.532.317c.249.148.428.203.539.165s.168-.174.168-.412a.97.97 0 0 0-.183-.586c-.121-.17-.312-.332-.574-.488l-.482-.287v1.291zm0 .978v1.514l.597.355c.253.15.439.196.559.138s.181-.221.181-.489c0-.482-.257-.876-.769-1.181l-.568-.338zm6.406 6.343l-.314-1.569-1.576-.938-.314 1.196-.988-.588 1.526-4.926 1.121.667 1.532 6.745-.987-.588zm-.533-2.733l-.491-2.418-.077-.435-.559 2.183 1.127.67zm4.51.231c-.345-.205-.612-.189-.802.048s-.284.663-.284 1.285c0 1.296.362 2.159 1.086 2.589.304.181.671.297 1.103.35v1.034c-.355-.013-.751-.149-1.189-.41-.629-.374-1.11-.916-1.443-1.625s-.5-1.548-.5-2.507c0-.604.082-1.084.245-1.44s.399-.567.704-.626.668.032 1.08.277c.42.25.842.637 1.266 1.162l-.296.826-.488-.561a2.28 2.28 0 0 0-.482-.402zm6.11 8.503l-1.041-.619-1.133-3.122-.388.143v2.074l-.916-.545v-5.81l.916.546v2.659l.361-.469 1.172-1.278 1.017.605-1.508 1.674 1.52 4.143z"/><rect width="1.45" height="13.466" rx=".725" transform="matrix(0 1.06906 -.795642 -.473358 101.053 86.7366)"/><path d="M91.1 84.438c0 .705-.634.68-1.005-.039l-2.083-4.038c-.23-.446-.23-.947 0-1.119l2.083-1.56c.371-.278 1.005.453 1.005 1.157v5.598z"/></g><g opacity=".8" class="C"><path d="M460.717 301.037c.279.447.271 1.008-.015 1.108l-4.376 1.531c-.341.119-.809-.485-.809-1.043l.002-8.54c0-.57.485-.608.823-.066l4.375 7.01zm-5.425-3.228c.279.447.271 1.009-.015 1.109l-4.376 1.53c-.341.119-.809-.484-.809-1.043l.002-8.539c0-.57.485-.609.823-.066l4.375 7.009z"/><rect width="1.263" height="10.934" rx=".631" transform="matrix(.859406 .511293 0 1 461.098 296.107)"/></g><g opacity=".8" class="C"><path d="M400.719 265.342c-.279.115-.271.685.015 1.126l4.376 6.737c.341.525.808.478.808-.081l-.001-8.541c0-.57-.485-1.185-.824-1.046l-4.374 1.805zm5.425 3.227c-.279.115-.271.686.015 1.127l4.376 6.737c.341.524.809.477.808-.081l-.001-8.541c0-.57-.485-1.186-.824-1.046l-4.374 1.804z"/><rect width="1.263" height="10.934" rx=".631" transform="matrix(-.859406 -.511293 0 1 400.338 259.959)"/></g><path d="M421.98 276.33c0 .399-.084.675-.251.829s-.401.185-.706.089v.034c.373.284.65.608.83.972a2.6 2.6 0 0 1 .27 1.168c0 .596-.154.963-.461 1.101s-.744.036-1.31-.3c-.245-.147-.471-.306-.677-.48a4.41 4.41 0 0 1-.594-.614v-.675a5.81 5.81 0 0 0 .642.69c.229.204.445.367.649.488.803.478 1.204.294 1.204-.552 0-.757-.443-1.4-1.328-1.927l-.458-.272v-.611l.464.276c.362.216.649.28.861.193s.318-.327.318-.708c0-.305-.078-.591-.235-.858s-.366-.478-.633-.637c-.203-.121-.395-.198-.575-.231s-.386-.019-.617.043l-.267-.637c.191-.089.41-.116.658-.083s.513.13.789.294c.451.269.802.617 1.052 1.045a2.65 2.65 0 0 1 .375 1.363zm4.263 2.571c.402.239.72.589.953 1.05s.35.967.35 1.527c0 .536-.076.996-.229 1.381s-.359.629-.62.733-.555.058-.883-.137c-.407-.242-.726-.593-.957-1.052s-.347-.968-.347-1.526c0-.541.078-1.003.232-1.387s.364-.628.627-.725.554-.055.874.136zm.75 2.15a2.11 2.11 0 0 0-.2-.913c-.132-.284-.311-.493-.538-.628s-.438-.155-.623-.054-.324.311-.426.626-.149.7-.149 1.159c0 .373.067.701.2.986a1.45 1.45 0 0 0 .582.649c.22.131.419.145.594.042s.313-.317.411-.64.149-.734.149-1.227zm.531 5.454a1.76 1.76 0 0 1-.398-.326v-.602c.136.143.255.245.356.306.161.095.285.081.372-.044s.157-.335.21-.631l.722-4.192-.614-.365.042-.262.654.108.073-.384c.098-.511.233-.833.404-.964s.43-.099.769.103c.085.051.189.129.312.237a2.49 2.49 0 0 1 .286.277l-.137.469c-.161-.178-.306-.306-.435-.383-.184-.109-.326-.124-.426-.044s-.177.284-.238.614l-.08.414.757.451-.08.495-.753-.448-.738 4.25c-.082.489-.21.807-.381.952s-.398.136-.677-.031zm7.435 2.322l-3.055-1.817v-.611l1.224-.925c.373-.285.619-.5.737-.646a1.56 1.56 0 0 0 .267-.473c.06-.17.089-.373.089-.609 0-.333-.075-.642-.225-.925s-.359-.508-.627-.667c-.192-.115-.376-.181-.549-.199s-.364.024-.576.123l-.28-.649c.429-.224.895-.185 1.399.115.437.259.779.614 1.027 1.063a2.9 2.9 0 0 1 .372 1.43c0 .396-.083.738-.248 1.027s-.475.595-.928.917l-1.018.732v.034l2.391 1.422v.658zm2.209-5.02c.424.253.76.585 1.008.997s.372.852.372 1.319c0 .308-.071.546-.213.715s-.369.264-.681.287c.378.466.646.881.805 1.243s.238.714.238 1.064c0 .519-.134.853-.404 1.003s-.637.082-1.106-.197a3.2 3.2 0 0 1-1.144-1.116 2.86 2.86 0 0 1-.401-1.481c0-.715.325-1.079.973-1.092-.292-.396-.502-.76-.629-1.092a2.74 2.74 0 0 1-.191-.98c0-.453.124-.739.372-.86s.584-.058 1.001.19zm-1.004 4.161c0 .342.088.66.263.956a2.11 2.11 0 0 0 .747.73c.316.188.562.235.738.14s.264-.316.264-.663c0-.276-.083-.57-.248-.882s-.454-.696-.865-1.143c-.316-.005-.544.061-.686.198s-.213.356-.213.664zm.998-3.588c-.265-.157-.473-.195-.623-.114s-.226.264-.226.549c0 .262.063.524.188.786s.356.588.693.976c.303.01.517-.046.642-.169s.19-.312.19-.574a1.58 1.58 0 0 0-.232-.821 1.75 1.75 0 0 0-.632-.633zm5.073 4.001c0 .399-.084.675-.251.829s-.401.184-.706.088v.034c.373.285.65.609.83.972a2.6 2.6 0 0 1 .27 1.169c0 .595-.154.962-.461 1.101s-.744.036-1.309-.301a5.01 5.01 0 0 1-.678-.48c-.203-.169-.401-.374-.594-.614v-.675a5.73 5.73 0 0 0 .642.69c.229.204.445.367.649.488.803.478 1.204.294 1.204-.551 0-.758-.443-1.4-1.328-1.927l-.458-.272v-.611l.464.276c.362.216.649.28.861.192s.318-.326.318-.708c0-.304-.078-.59-.235-.857s-.365-.478-.633-.637c-.203-.121-.395-.198-.575-.231s-.386-.019-.617.043l-.267-.637c.191-.089.41-.117.658-.083s.513.13.789.294c.451.268.802.617 1.052 1.044a2.65 2.65 0 0 1 .375 1.364z" class="F"/><rect x=".313" y=".551" width="25.784" height="12.392" rx="6.196" transform="matrix(.859406 .511293 0 1 366.065 238.653)" stroke="#aec4db" stroke-width=".729" class="I"/><g class="F"><ellipse rx="3.156" ry="3.645" transform="matrix(.859406 .511293 0 1 383.361 255.69)"/><path d="M373.748 250.009c0 .999-.188 1.673-.566 2.021s-.897.324-1.567-.074c-.684-.407-1.213-1.002-1.586-1.785s-.556-1.689-.556-2.714c0-1.017.186-1.693.559-2.029s.903-.305 1.59.104c.667.397 1.188.992 1.564 1.785s.562 1.69.562 2.692zm-3.703-2.203c0 .845.133 1.567.4 2.164s.659 1.046 1.17 1.35.904.32 1.167.04.394-.843.394-1.692c0-.839-.131-1.554-.394-2.143s-.648-1.039-1.16-1.344-.907-.32-1.177-.042-.4.832-.4 1.667zm7.047 7.323v-3.028c0-.382-.064-.705-.194-.97a1.51 1.51 0 0 0-.607-.643c-.364-.217-.631-.243-.801-.079s-.254.55-.254 1.16v2.456l-.528-.314v-4.681l.429.255.086.692.026.015c.108-.167.259-.254.454-.264s.412.053.652.196c.419.249.735.574.947.973s.318.894.318 1.492v3.054l-.528-.314z"/></g><path fill="#f4faff" d="M81.631 118.697l387.008 230.245v218.42L81.631 337.117z"/><g class="J"><path d="M81.631 95.652l387.008 230.245v23.044L81.631 118.697z"/><rect width="71.683" height="82.775" rx="3.531" transform="matrix(.859406 .511293 0 1 174.474 193.708)"/><rect width="151.73" height="35.869" rx="3.531" transform="matrix(.859406 .511293 0 1 246.345 384.083)"/><rect width="151.73" height="8.015" rx="4.008" transform="matrix(.859406 .511293 0 1 246.345 236.467)"/><rect width="151.73" height="8.015" rx="4.008" transform="matrix(.859406 .511293 0 1 246.345 254.401)"/><rect width="151.73" height="8.015" rx="4.008" transform="matrix(.859406 .511293 0 1 246.345 272.336)"/><rect width="151.73" height="8.015" rx="4.008" transform="matrix(.859406 .511293 0 1 246.345 319.242)"/><rect width="151.73" height="8.015" rx="4.008" transform="matrix(.859406 .511293 0 1 246.345 337.177)"/><rect width="127.835" height="8.015" rx="4.008" transform="matrix(.859406 .511293 0 1 246.345 355.111)"/></g><g class="C"><rect width="29.868" height="8.278" rx="3.531" transform="matrix(.859406 .511293 0 1 174.474 159.218)"/><rect width="29.868" height="8.278" rx="3.531" transform="matrix(.859406 .511293 0 1 208.356 179.375)"/><rect width="29.868" height="8.278" rx="3.531" transform="matrix(.859406 .511293 0 1 242.239 199.534)"/><rect width="29.868" height="8.278" rx="3.531" transform="matrix(.859406 .511293 0 1 276.122 219.692)"/><rect width="13.142" height="8.278" rx="3.531" transform="matrix(.859406 .511293 0 1 364.423 272.226)"/><rect width="13.142" height="8.278" rx="3.531" transform="matrix(.859406 .511293 0 1 346.969 261.841)"/></g><rect width="109.915" height="8.015" rx="4.008" transform="matrix(.859406 .511293 0 1 246.345 290.271)" class="J"/><path d="M81.631 7.873c0-2.982 2.078-4.164 4.641-2.639l377.727 224.724c2.563 1.525 4.64 5.178 4.64 8.16v22.655L81.631 30.527V7.873z" class="D"/><path d="M89.491 21.484c0-2.083 1.382-2.95 3.088-1.935s3.088 3.526 3.088 5.609-1.382 2.95-3.088 1.935-3.088-3.526-3.088-5.609zm11.23 6.681c0-2.083 1.383-2.95 3.088-1.935s3.088 3.526 3.088 5.609-1.382 2.95-3.088 1.935-3.088-3.526-3.088-5.609zm10.668 6.346c0-2.083 1.382-2.95 3.088-1.935s3.088 3.526 3.088 5.609-1.383 2.95-3.088 1.935-3.088-3.526-3.088-5.609z" fill="#eee"/><path d="M152.064 51.166c-2.017-1.199-3.774-.615-4.263 1.418l-3.627 11.015c-.615 1.869-2.402 2.323-4.419 1.123l-58.124-34.58v27.404l387.008 230.245v-27.403L220.773 112.923c-2.138-1.272-3.999-4.079-4.508-6.797l-.914-4.892-1.781-9.522c-.489-2.615-2.247-5.29-4.263-6.49l-57.243-34.056z" fill="#e7eff5"/><g class="G"><rect width="7.58" height="1.402" rx=".701" transform="matrix(.562603 1.09065 -.562603 .421227 205.347 91.9197)"/><rect width="7.58" height="1.402" rx=".701" transform="matrix(-.562603 .421227 -.562603 -1.09065 209.611 95.5164)"/></g><g class="C"><rect width="284.595" height="19.037" rx="2.7" transform="matrix(.859406 .511293 0 1 119.66 57.1602)"/><rect width="83.716" height="19.615" rx="2.7" transform="matrix(.859406 .511293 0 1 373.191 207.619)"/></g><g class="G"><path d="M126.721 65.098c-2.32-.94-4.103.586-4.103 3.756 0 3.476 2.137 7.558 4.77 9.124 2.639 1.57 4.775.03 4.775-3.446 0-.314-.04-.644-.075-.97l-1.347-.801a7.56 7.56 0 0 1 .068.948c0 2.487-1.531 3.589-3.415 2.468s-3.415-4.044-3.415-6.532c0-2.174 1.177-3.296 2.742-2.779v1.724l2.728-1.063-2.728-4.281v1.85z"/><rect width="10.735" height="2.147" rx="1.074" transform="matrix(-.529217 .356958 -.529217 -.98666 113.228 62.5759)"/><rect width="10.735" height="2.147" rx="1.074" transform="matrix(-.529218 -.98666 .529218 -.356957 112.092 63.3425)"/><rect width="9.349" height="2.04" rx="1.02" transform="matrix(.859406 .511293 0 -1 103.835 58.0676)"/><rect width="10.735" height="2.147" rx="1.074" transform="matrix(.529217 .98666 .529217 -.356957 90.0437 48.783)"/><rect width="10.735" height="2.147" rx="1.074" transform="matrix(.529218 -.356956 -.529218 -.98666 91.1797 50.9014)"/><rect width="9.349" height="2.04" rx="1.02" transform="matrix(-.859406 -.511293 0 -1 99.437 55.4514)"/><path d="M384.187 225.965c1.153-1.597.977-4.835-.529-7.754-1.705-3.306-4.47-4.951-6.176-3.675s-1.705 4.993 0 8.299c1.506 2.918 3.837 4.542 5.537 4.004l1.786 3.464c.323.626.846.937 1.169.695s.322-.944 0-1.57l-1.787-3.463zm-1.424-7.085c1.212 2.348 1.212 4.988 0 5.895s-3.176-.261-4.387-2.61-1.212-4.989 0-5.896 3.176.262 4.387 2.611z" class="E"/><rect width="12.413" height="2.263" rx="1.132" transform="matrix(.859406 .511293 0 1 451.315 257.116)"/><rect width="12.413" height="2.263" rx="1.132" transform="matrix(.859406 .511293 0 1 451.314 262.396)"/><rect width="12.413" height="2.263" rx="1.132" transform="matrix(.859406 .511293 0 1 451.314 267.677)"/><path d="M162.867 70.846c0 .517-.139.841-.416.973s-.66.053-1.154-.24c-.454-.27-.856-.624-1.206-1.062V69.39l.729.797c.2.189.382.333.547.431.198.118.35.157.455.118s.16-.158.16-.359a.9.9 0 0 0-.07-.339 2.08 2.08 0 0 0-.207-.377c-.089-.134-.273-.372-.55-.715-.261-.319-.456-.593-.586-.822a3.69 3.69 0 0 1-.312-.714c-.077-.247-.116-.505-.116-.774 0-.506.127-.828.381-.967s.61-.072 1.061.196a3.59 3.59 0 0 1 .632.482 8.53 8.53 0 0 1 .632.674l-.291.77-.565-.598c-.148-.137-.294-.249-.437-.334-.171-.102-.302-.126-.394-.073s-.137.165-.137.337c0 .107.019.212.056.315a1.72 1.72 0 0 0 .175.335 12.88 12.88 0 0 0 .573.741c.398.493.671.912.819 1.258s.221.702.221 1.075zm2.074 1.95c.156.092.342.158.559.196v.888c-.221.001-.493-.094-.815-.286-.355-.212-.615-.486-.778-.823s-.242-.749-.242-1.232V69.43l-.425-.253v-.505l.489-.108.257-.771.568.338v.931l.912.542v.896l-.912-.542v2.11c0 .17.035.316.105.438a.79.79 0 0 0 .282.289zm3.289 2.829l-.172-.697-.023-.014c-.15.164-.304.248-.464.253s-.363-.071-.617-.223c-.313-.186-.559-.453-.74-.8a2.52 2.52 0 0 1-.268-1.185c0-.464.121-.735.361-.811s.608.017 1.096.284l.565.313v-.192c0-.444-.169-.766-.507-.967-.26-.155-.566-.231-.918-.229l-.294-.981c.375-.04.79.075 1.247.347a2.8 2.8 0 0 1 1.005.981c.233.394.349.852.349 1.374v2.916l-.62-.369zm-.262-2.183l-.344-.189c-.258-.143-.451-.195-.577-.155s-.189.177-.189.412a.83.83 0 0 0 .431.761c.206.122.37.14.492.054s.187-.26.187-.523v-.36zm3.172 3.041c.155.092.341.158.559.196v.888c-.221.001-.493-.094-.816-.286-.355-.212-.614-.486-.777-.823s-.242-.749-.242-1.232v-2.109l-.425-.253v-.505l.489-.108.256-.771.568.338v.931l.912.542v.896l-.912-.542v2.109c0 .17.035.316.105.438a.79.79 0 0 0 .283.289zm2.543 2.464c-1.014-.603-1.521-1.652-1.521-3.147 0-.744.138-1.229.414-1.456s.671-.192 1.185.114a3.72 3.72 0 0 1 1.014.901l-.262.768-.391-.416a1.82 1.82 0 0 0-.361-.289c-.462-.275-.693.028-.693.91 0 .856.231 1.421.693 1.696a1.46 1.46 0 0 0 .475.192.96.96 0 0 0 .437-.03v1.021a.83.83 0 0 1-.437-.006c-.146-.04-.33-.126-.553-.259zm2.455-.813c0 .433.052.792.157 1.076s.28.499.519.641.407.132.51-.025.157-.457.157-.893-.053-.789-.157-1.068a1.2 1.2 0 0 0-.516-.632c-.237-.141-.408-.134-.513.02s-.157.445-.157.881zm2.252 1.34c0 .712-.14 1.186-.42 1.422s-.669.205-1.168-.092a2.82 2.82 0 0 1-.827-.766 3.75 3.75 0 0 1-.551-1.122 4.51 4.51 0 0 1-.192-1.32c0-.715.139-1.188.417-1.419s.668-.198 1.171.102a2.82 2.82 0 0 1 .827.766 3.68 3.68 0 0 1 .55 1.114 4.44 4.44 0 0 1 .193 1.316zm3.041 4.005l-.12-.631-.046-.028c-.096.147-.231.225-.405.233s-.374-.058-.597-.191c-.383-.228-.671-.536-.866-.926s-.291-.847-.291-1.363V77.72l.889.528v2.556c0 .316.041.578.125.787a.94.94 0 0 0 .399.472c.248.148.428.144.539-.012s.166-.496.166-1.013V78.98l.888.529v4.376l-.681-.406zm4.619 2.748l-.888-.528v-2.556c0-.316-.042-.577-.125-.783s-.217-.368-.399-.476c-.249-.148-.429-.142-.539.016s-.166.492-.166 1.009v2.059l-.889-.529v-4.376l.679.404.119.631.05.029c.099-.153.235-.231.408-.235s.373.057.594.189a2.2 2.2 0 0 1 .862.928c.196.391.294.846.294 1.365v2.853zm2.287.488c.155.092.342.158.559.196v.889c-.221.001-.493-.094-.815-.286-.356-.211-.615-.486-.778-.823s-.242-.749-.242-1.232V83.35l-.425-.253v-.505l.489-.108.257-.771.568.338v.931l.911.542v.896l-.911-.542v2.11c0 .17.034.316.104.438a.79.79 0 0 0 .283.289zm2.569-1.208c-.188-.112-.336-.119-.443-.021s-.168.286-.183.572l1.246.742c-.003-.297-.061-.558-.171-.783a1.17 1.17 0 0 0-.449-.51zm.125 3.761a3.24 3.24 0 0 1-1.229-1.314c-.295-.564-.443-1.203-.443-1.915 0-.733.136-1.218.408-1.456s.652-.215 1.133.071c.46.274.819.663 1.075 1.168s.385 1.068.385 1.689v.579l-2.101-1.249a2.15 2.15 0 0 0 .225.928 1.53 1.53 0 0 0 .588.636c.196.117.382.2.556.249a1.78 1.78 0 0 0 .548.064v.924c-.155.012-.321-.01-.498-.066s-.392-.155-.647-.306zm3.868-2.234a1.9 1.9 0 0 1 .3.214l-.066 1.08c-.072-.069-.16-.134-.263-.195-.283-.169-.505-.203-.664-.102s-.236.329-.236.681v2.227l-.888-.529v-4.376l.673.4.131.814.044.026a.66.66 0 0 1 .407-.348c.173-.049.361-.013.562.108z"/></g><path d="M156.496 66.863l-1.776-1.511c-.07.455-.321.718-.66.724l.749 2.603c.875-.006 1.503-.681 1.687-1.815z" class="L"/><path d="M155.165 69.341l-1.05-3.269c-.164.017-.351-.029-.55-.148-.649-.386-1.175-1.391-1.175-2.245s.526-1.233 1.175-.846l.005.003v-2.997c-1.431-.851-2.713-.45-3.221 1.007s-.137 3.668.932 5.555 2.615 3.057 3.884 2.94z" class="D"/><path d="M154.473 63.937c.167.366.267.768.267 1.14a1.66 1.66 0 0 1-.043.39l2.47 2.4c.292-1.17.136-2.7-.42-4.206l-2.274.275z" class="M"/><path d="M153.57 58.888v3.948c.534.321.984 1.06 1.124 1.787l2.887.642c-.508-2.663-2.146-5.268-4.011-6.377z" class="N"/><path d="M139.796 81.838l-.889-.528v-2.556c0-.631-.174-1.051-.524-1.259-.249-.148-.428-.141-.539.02s-.166.496-.166 1.005v2.059l-.888-.529v-6.09l.888.529v1.241l-.02.669-.021.34.047.028c.198-.31.513-.337.944-.08a2.24 2.24 0 0 1 .871.933c.198.394.297.85.297 1.367v2.853zm2.286.488a1.65 1.65 0 0 0 .56.196v.888c-.222.001-.494-.094-.816-.286-.355-.211-.615-.486-.778-.823s-.241-.749-.241-1.232V78.96l-.426-.253v-.505l.49-.108.256-.771.568.338v.931l.912.542v.896l-.912-.542v2.109c0 .17.035.316.105.438a.79.79 0 0 0 .282.289zm2.593 1.542a1.63 1.63 0 0 0 .559.196v.888c-.221.001-.493-.094-.816-.286a1.93 1.93 0 0 1-.777-.823c-.162-.338-.242-.749-.242-1.232v-2.11l-.425-.253v-.505l.489-.108.256-.771.568.338v.931l.912.542v.896l-.912-.542v2.109c0 .17.035.316.105.438a.79.79 0 0 0 .283.289zm3.009 2.742c-.383-.228-.683-.593-.9-1.095l-.047-.028.047.662v1.773l-.889-.529v-6.301l.723.43.125.642.041.024c.207-.31.515-.343.923-.1.384.229.685.607.903 1.136s.326 1.148.326 1.858c0 .467-.051.842-.154 1.125s-.246.46-.434.528-.41.026-.664-.125zm-.263-3.737c-.219-.13-.379-.135-.48-.012s-.154.388-.157.803v.129c0 .47.051.837.154 1.102a1.17 1.17 0 0 0 .495.6c.398.237.597-.086.597-.968 0-.431-.049-.782-.148-1.055s-.251-.474-.461-.599zm4.521 4.892c0 .449-.116.721-.349.817s-.578.008-1.04-.266c-.237-.141-.439-.283-.606-.427a4.4 4.4 0 0 1-.469-.467v-.986a6 6 0 0 0 .556.593c.206.193.391.338.548.431.322.192.483.162.483-.088 0-.094-.021-.182-.064-.265a2.28 2.28 0 0 0-.221-.331l-.419-.512c-.251-.29-.435-.53-.554-.721a2.32 2.32 0 0 1-.256-.563c-.053-.188-.079-.395-.079-.622 0-.389.112-.622.335-.701s.544.002.955.247c.393.233.774.575 1.145 1.025l-.268.702-.457-.503a2.18 2.18 0 0 0-.434-.348c-.262-.156-.393-.139-.393.052 0 .107.041.224.125.352s.271.356.556.679c.255.29.441.53.56.72s.205.381.262.571a2.15 2.15 0 0 1 .084.61zm.568 1.078c0-.219.044-.359.131-.419s.215-.041.382.059c.161.096.285.227.373.394s.134.359.134.573c0 .206-.045.343-.134.409s-.214.049-.373-.046a1 1 0 0 1-.379-.398 1.22 1.22 0 0 1-.134-.573zm0-3.233c0-.219.044-.359.131-.419s.215-.041.382.059c.161.096.285.227.373.394s.134.359.134.573-.046.349-.137.412-.213.046-.37-.048a1 1 0 0 1-.379-.398c-.089-.168-.134-.359-.134-.573zm3.796.329l-1.588 4.778-.807-.48 1.588-4.778.807.48zm2.464 1.466l-1.588 4.778-.807-.48 1.588-4.777.807.48zm2.767 6.069c0 .449-.117.721-.35.818s-.577.008-1.039-.266c-.237-.141-.439-.283-.606-.427s-.324-.297-.469-.467v-.986a6 6 0 0 0 .556.593 3.35 3.35 0 0 0 .548.431c.322.192.483.162.483-.088 0-.094-.021-.182-.064-.265a2.28 2.28 0 0 0-.221-.331l-.42-.512c-.25-.29-.435-.53-.553-.721s-.202-.377-.256-.563a2.24 2.24 0 0 1-.079-.622c0-.389.112-.622.335-.701s.544.003.955.248c.393.233.774.575 1.145 1.025l-.268.702-.457-.503a2.19 2.19 0 0 0-.434-.348c-.262-.156-.393-.139-.393.052 0 .107.041.224.125.352s.271.355.556.679a5.84 5.84 0 0 1 .559.72c.119.191.206.381.263.571a2.15 2.15 0 0 1 .084.61zm2.065 1.655c.156.092.342.158.559.196v.888c-.221.001-.493-.094-.815-.286-.356-.211-.615-.486-.778-.823s-.242-.749-.242-1.232v-2.109l-.425-.253v-.505l.489-.108.257-.771.568.338v.931l.911.542v.896l-.911-.542v2.11c0 .17.035.316.105.438a.79.79 0 0 0 .282.289zm3.289 2.829l-.172-.697-.023-.014c-.15.164-.304.248-.464.253s-.363-.071-.617-.223c-.313-.186-.559-.453-.74-.8a2.52 2.52 0 0 1-.268-1.185c0-.464.12-.735.361-.811s.608.017 1.095.284l.566.313v-.192c0-.444-.169-.766-.507-.967-.26-.155-.566-.231-.918-.229l-.294-.981c.375-.041.79.075 1.247.346a2.8 2.8 0 0 1 1.005.981c.233.394.349.852.349 1.374v2.916l-.62-.369zm-.262-2.183l-.344-.189c-.258-.143-.451-.195-.577-.155s-.189.177-.189.412a.83.83 0 0 0 .431.761c.206.123.37.141.492.054s.187-.26.187-.523v-.36zm3.172 3.042a1.63 1.63 0 0 0 .559.196v.888c-.221.001-.493-.094-.816-.286a1.93 1.93 0 0 1-.777-.823c-.162-.339-.242-.749-.242-1.232v-2.109l-.425-.253v-.505l.489-.108.256-.771.568.338v.931l.912.542v.896l-.912-.542v2.11c0 .17.035.316.105.438a.79.79 0 0 0 .283.289zm2.543 2.464c-1.014-.603-1.521-1.653-1.521-3.148 0-.744.138-1.229.414-1.456s.671-.192 1.185.114c.377.224.715.524 1.014.9l-.262.768-.391-.416a1.8 1.8 0 0 0-.361-.289c-.462-.275-.693.029-.693.91 0 .856.231 1.421.693 1.697a1.48 1.48 0 0 0 .475.192c.146.024.291.014.437-.03v1.022a.83.83 0 0 1-.437-.006c-.146-.039-.33-.126-.553-.258zm2.455-.813c0 .433.052.791.157 1.075a1.21 1.21 0 0 0 .519.642c.237.141.407.132.51-.026s.157-.457.157-.893-.053-.789-.157-1.068a1.2 1.2 0 0 0-.516-.631c-.237-.141-.408-.134-.513.02s-.157.445-.157.881zm2.252 1.339c0 .712-.14 1.186-.42 1.422s-.669.204-1.168-.092c-.313-.186-.588-.442-.827-.767a3.74 3.74 0 0 1-.551-1.122 4.5 4.5 0 0 1-.192-1.319c0-.715.139-1.188.417-1.419s.668-.198 1.171.102a2.82 2.82 0 0 1 .827.766 3.68 3.68 0 0 1 .55 1.114 4.44 4.44 0 0 1 .193 1.316zm3.041 4.005l-.12-.631-.046-.028c-.096.147-.231.225-.405.233s-.374-.058-.597-.191c-.383-.227-.671-.536-.866-.925s-.291-.847-.291-1.363v-2.854l.889.529v2.556c0 .315.041.578.125.787a.94.94 0 0 0 .399.472c.248.148.428.144.539-.012s.166-.496.166-1.013v-2.059l.888.529v4.375l-.681-.405zm4.619 2.748l-.888-.528v-2.556c0-.316-.042-.577-.125-.783a.95.95 0 0 0-.399-.476c-.249-.148-.429-.142-.539.016s-.166.492-.166 1.009v2.059l-.889-.529v-4.376l.679.404.119.631.05.029a.48.48 0 0 1 .408-.235c.174-.005.373.058.594.19.379.225.666.534.862.927s.294.846.294 1.365v2.853zm2.287.488c.155.092.342.158.559.196v.888c-.221.002-.493-.094-.815-.285-.356-.212-.615-.486-.778-.823s-.242-.749-.242-1.232v-2.11l-.425-.253v-.505l.489-.108.256-.771.568.338v.932l.912.542v.896l-.912-.542v2.109c0 .17.035.316.105.439s.166.22.283.289zm2.569-1.207c-.188-.112-.336-.119-.443-.021s-.168.286-.183.572l1.246.741c-.003-.297-.061-.558-.171-.783a1.17 1.17 0 0 0-.449-.509zm.125 3.761c-.524-.312-.934-.75-1.229-1.314s-.443-1.203-.443-1.915c0-.734.136-1.219.408-1.456s.652-.216 1.133.071c.46.274.819.663 1.075 1.168s.384 1.067.384 1.688v.58l-2.1-1.25a2.15 2.15 0 0 0 .225.928c.139.274.336.486.588.636.196.117.382.199.556.249a1.78 1.78 0 0 0 .548.063v.924c-.155.012-.321-.01-.498-.066s-.392-.155-.647-.306zm3.868-2.235c.121.072.221.143.3.214l-.067 1.079c-.071-.068-.159-.133-.262-.195-.283-.168-.505-.202-.664-.101s-.236.329-.236.681v2.227l-.888-.528v-4.376l.673.4.131.814.043.026c.101-.185.237-.301.408-.348s.36-.013.562.107zm.767 4.354c0-.219.043-.359.131-.419s.214-.041.381.059c.161.096.286.227.373.394s.134.359.134.573c0 .206-.045.342-.134.409s-.214.049-.373-.046a1.02 1.02 0 0 1-.379-.397 1.22 1.22 0 0 1-.133-.573zm3.148 2.511c-1.013-.603-1.52-1.652-1.52-3.147 0-.743.138-1.229.413-1.456s.671-.192 1.186.114a3.72 3.72 0 0 1 1.014.901l-.263.767-.39-.416c-.12-.121-.241-.217-.361-.289-.462-.275-.693.028-.693.91 0 .856.231 1.422.693 1.696.171.102.329.166.475.193s.291.014.437-.03v1.022a.83.83 0 0 1-.437-.006c-.146-.039-.33-.126-.554-.259zm2.456-.813c0 .434.052.792.157 1.076s.28.499.519.641.406.133.509-.025.158-.457.158-.893-.053-.789-.158-1.068-.276-.489-.515-.631-.408-.135-.513.019-.157.446-.157.881zm2.251 1.34c0 .712-.139 1.186-.419 1.422s-.669.204-1.168-.093c-.313-.186-.589-.441-.827-.766s-.423-.701-.551-1.122-.192-.86-.192-1.32c0-.714.139-1.188.416-1.419s.668-.197 1.171.102c.313.186.589.441.828.766a3.68 3.68 0 0 1 .55 1.114 4.47 4.47 0 0 1 .192 1.316zm3.65 4.367l-.888-.529v-2.555c0-.316-.04-.576-.12-.78a.87.87 0 0 0-.37-.459c-.227-.135-.392-.121-.495.042s-.154.502-.154 1.016v2.059l-.889-.529v-4.375l.679.403.12.631.049.03c.087-.149.214-.231.379-.245s.354.039.568.166c.487.29.817.7.99 1.231l.079.047c.087-.152.215-.233.384-.245s.363.048.577.175c.369.219.648.513.836.881s.285.83.285 1.391v2.853l-.891-.53v-2.556c0-.316-.04-.576-.119-.78a.87.87 0 0 0-.37-.458c-.218-.13-.381-.123-.49.022s-.16.444-.16.898v2.196zm4.914-2.799l-1.587 4.778-.807-.48 1.587-4.778.807.48z" class="G"/><path d="M281.043 197.737l-4.369-3.757c-.174 1.162-.791 1.846-1.624 1.879l1.842 6.59c2.153-.06 3.699-1.815 4.151-4.712z" class="L"/><path d="M277.767 204.119l-2.581-8.272c-.404.052-.865-.057-1.354-.348-1.597-.95-2.891-3.483-2.891-5.657s1.294-3.168 2.891-2.218l.012.008v-7.635c-3.519-2.094-6.672-1.006-7.923 2.733s-.337 9.351 2.293 14.102 6.433 7.65 9.553 7.287z" class="D"/><path d="M276.065 190.39c.411.925.657 1.942.657 2.891a4.4 4.4 0 0 1-.106.997l6.076 5.985c.719-2.996.334-6.885-1.034-10.692l-5.593.819z" class="M"/><path d="M273.844 177.575v10.057c1.314.789 2.421 2.649 2.766 4.494l7.1 1.485c-1.249-6.758-5.278-13.307-9.866-16.036z" class="N"/><path d="M167.237 323.125l3.966-8.137 7.85 15.234 2.606-1.934-7.9-15.33 7.9-.617-21.625-22.49 7.203 33.274zm-85.606 13.992l387.008 230.245v60.116L81.631 397.233z" class="D"/><path d="M457.101 598.481c.312.605.091 1.191-.351.928l-2.768-1.647c-.274-.163-.496-.593-.496-.961v-3.721c0-.593.534-.573.846.033l2.769 5.368zm-9.709-.172c-.312-.606-.091-1.191.351-.929l2.769 1.648c.273.162.495.593.495.961v3.72c0 .593-.534.573-.846-.033l-2.769-5.367z" class="F"/><g class="C"><path d="M118.885 400.063c0 1.495-.183 2.492-.549 2.993s-.924.527-1.682.076c-.735-.437-1.289-1.138-1.664-2.102s-.558-2.168-.558-3.616c0-1.51.182-2.514.545-3.013s.922-.528 1.677-.079c.735.437 1.29 1.142 1.664 2.114s.567 2.183.567 3.627zm-3.115-1.853c0 1.05.067 1.843.2 2.379s.365.896.684 1.086.54.091.68-.287.209-1.085.209-2.123c0-1.05-.071-1.846-.214-2.387s-.364-.907-.675-1.092-.543-.093-.68.286-.204 1.088-.204 2.138zm3.947 5.79c0-.328.065-.536.196-.627s.321-.06.571.088a1.46 1.46 0 0 1 .557.59c.134.251.201.536.201.856 0 .309-.067.513-.201.613s-.319.073-.557-.068c-.244-.145-.433-.344-.567-.595s-.2-.541-.2-.857zm4.71-1.828c.615.366 1.105.89 1.468 1.57a4.65 4.65 0 0 1 .549 2.235c0 .956-.22 1.561-.658 1.815s-1.066.139-1.882-.347c-.709-.421-1.281-.916-1.717-1.483v-1.563c.23.3.497.594.802.881s.594.505.867.668c.822.489 1.233.28 1.233-.625 0-.862-.426-1.547-1.277-2.053-.154-.092-.324-.171-.509-.239a2.72 2.72 0 0 0-.454-.141l-.535-.705.239-4.219 3.455 2.056v1.534l-2.274-1.353-.118 1.61.153.049c.177.051.396.154.658.31zm4.117 4.574l-1.569-4.135 1.508.897.945 2.646.954-1.516 1.508.897-1.586 2.258 1.66 4.331-1.512-.9-1.024-2.851-1.028 1.63-1.507-.897 1.651-2.36zm22.973 3.715c-.139.053-.138.331.001.549l2.691 4.218c.166.259.398.241.401-.032l.052-5.273c.003-.277-.233-.582-.401-.517l-2.744 1.055zm-3.24-1.928c-.139.053-.138.332.001.549l2.692 4.218c.165.26.397.241.4-.032l.052-5.272c.003-.278-.233-.582-.401-.517l-2.744 1.054zm2.494 14.741l-.898-.534v-3.302l.009-.537.015-.585-.311.21-.488.236-.433-.983 1.368-.65.738.439v5.706zm4.124-.399c0 .996-.122 1.661-.366 1.995s-.616.352-1.121.051c-.49-.292-.86-.759-1.109-1.402s-.372-1.445-.372-2.41c0-1.007.121-1.677.363-2.009s.615-.352 1.118-.053c.49.292.86.762 1.11 1.41s.377 1.455.377 2.418zm-2.077-1.236c0 .7.045 1.229.134 1.586s.243.597.456.724.36.061.453-.191.14-.723.14-1.416c0-.699-.048-1.23-.143-1.591s-.243-.605-.45-.728-.362-.062-.453.191-.137.725-.137 1.425zm5.022 4.545c0 .448-.116.719-.348.815s-.576.009-1.037-.265a4.33 4.33 0 0 1-.604-.426c-.167-.141-.323-.296-.468-.466v-.983a6.09 6.09 0 0 0 .555.591c.207.194.389.337.546.431.321.191.482.161.482-.088 0-.094-.021-.182-.064-.265s-.116-.195-.221-.33l-.418-.51c-.25-.289-.434-.529-.552-.719a2.25 2.25 0 0 1-.255-.562 2.23 2.23 0 0 1-.079-.62c0-.388.112-.621.334-.699s.543.003.953.247c.391.233.772.573 1.142 1.022l-.268.7-.456-.502c-.141-.144-.285-.259-.432-.347-.262-.155-.393-.138-.393.052 0 .106.042.224.125.351s.27.355.555.678a5.74 5.74 0 0 1 .558.718c.118.19.205.379.261.569s.084.392.084.608z"/><path d="M144.875 418.186c.377 6.193 4.103 13.097 8.643 15.798 4.791 2.85 8.675-.058 8.675-6.495 0-6.101-3.488-13.182-7.932-16.332v2.007c3.621 2.654 6.446 8.445 6.446 13.441 0 5.334-3.218 7.744-7.188 5.382-3.718-2.212-6.778-7.827-7.15-12.912l-1.494-.889z" class="E"/><ellipse rx=".866" ry="1" transform="matrix(.859406 .511293 0 1 145.62 418.651)"/></g><path d="M192.431 439.766l-2.479 5.852m-12.529-8.975l-.735-.438v1.53l-.539-.32v-1.53l-2.41-1.434v-.66l2.352-3.104.597.355v4.476l.735.437v.688zm-1.274-1.446v-2.212l.034-1.451-.027-.016c-.109.227-.211.408-.305.542l-1.549 2.039 1.847 1.098zm1.931 2.884c0-.203.034-.336.102-.399s.169-.059.298.018.233.191.305.341.112.323.112.526c0 .197-.037.327-.112.389s-.176.054-.305-.022c-.115-.069-.211-.173-.288-.313s-.112-.321-.112-.54zm0-4.02c0-.41.134-.536.4-.377.278.165.417.453.417.863 0 .197-.037.327-.112.388s-.176.055-.305-.022c-.115-.068-.211-.172-.288-.312a1.15 1.15 0 0 1-.112-.54zm4.744 2.235c0 .425-.089.719-.267.883s-.427.197-.753.095v.036c.398.303.693.649.885 1.036a2.77 2.77 0 0 1 .288 1.246c0 .634-.164 1.026-.492 1.174s-.793.038-1.396-.321c-.262-.156-.502-.326-.721-.511s-.429-.399-.634-.655v-.719a6.25 6.25 0 0 0 .684.735c.244.218.475.391.692.52.856.51 1.284.314 1.284-.588 0-.807-.472-1.492-1.417-2.054l-.487-.29v-.651l.494.294c.387.23.693.298.919.205s.338-.348.338-.755a1.78 1.78 0 0 0-.25-.914c-.165-.283-.39-.509-.675-.679-.217-.129-.421-.211-.613-.246s-.411-.02-.657.046l-.285-.679c.203-.095.437-.124.701-.088s.547.138.841.313c.481.286.855.657 1.121 1.113s.4.938.4 1.454zm4.158 7.564l-3.256-1.938v-.651l1.304-.985c.398-.304.66-.534.786-.689a1.66 1.66 0 0 0 .285-.505c.063-.181.095-.397.095-.649 0-.355-.08-.684-.241-.985a1.77 1.77 0 0 0-.667-.712c-.206-.122-.401-.193-.586-.212s-.388.026-.614.131l-.298-.691c.456-.239.953-.198 1.491.122.465.277.83.654 1.094 1.133s.397.985.397 1.525c0 .422-.088.787-.264 1.095s-.506.633-.99.977l-1.084.78v.037l2.548 1.516v.701zm10.01 5.955l-.549-.326v-4.745l.027-1.104c-.047.036-.1.071-.159.106s-.328.171-.807.408l-.298-.697 1.312-.581.474.283v6.656zm5.144 3.06l-3.257-1.937v-.651l1.305-.986c.398-.304.66-.533.786-.689s.222-.323.285-.504.095-.398.095-.649c0-.356-.081-.684-.241-.986a1.76 1.76 0 0 0-.667-.711c-.206-.123-.401-.193-.587-.212s-.387.026-.613.131l-.298-.692c.456-.238.953-.198 1.491.122a2.96 2.96 0 0 1 1.094 1.134c.265.476.397.984.397 1.524 0 .422-.088.787-.265 1.095s-.506.634-.989.978l-1.084.78v.036l2.548 1.516v.701zm.891.048c0-.203.034-.337.102-.399s.169-.059.298.018a.78.78 0 0 1 .305.34c.074.148.112.323.112.527 0 .197-.038.327-.112.389s-.176.054-.305-.022c-.115-.069-.211-.173-.288-.313s-.112-.321-.112-.54zm0-4.02c0-.41.133-.536.4-.377.278.165.417.453.417.862 0 .198-.038.327-.112.389s-.176.055-.305-.022c-.115-.068-.211-.173-.288-.312a1.15 1.15 0 0 1-.112-.54zm4.958 4.115c0 1.15-.136 1.928-.407 2.335s-.681.446-1.237.115c-.533-.317-.939-.848-1.216-1.593s-.417-1.684-.417-2.807c0-1.159.134-1.94.403-2.342s.679-.438 1.23-.11c.538.32.945.855 1.223 1.606s.421 1.685.421 2.796zm-2.708-1.611c0 .968.085 1.724.254 2.268s.44.922.81 1.142.646.162.813-.185.254-1.001.254-1.957-.084-1.706-.254-2.25-.438-.93-.813-1.153-.64-.161-.81.178-.254.989-.254 1.957zm6.465 2.093c0 .425-.089.72-.267.884s-.427.197-.752.094v.037c.397.303.692.648.884 1.036s.288.802.288 1.246c0 .634-.164 1.025-.491 1.173s-.793.038-1.396-.32c-.263-.156-.503-.327-.722-.512-.217-.18-.428-.399-.634-.654v-.72a6.18 6.18 0 0 0 .685.735c.244.218.474.392.691.521.856.509 1.284.313 1.284-.588 0-.808-.472-1.492-1.416-2.054l-.488-.291v-.651l.494.295c.387.23.693.298.919.205s.339-.348.339-.755c0-.325-.084-.629-.251-.914s-.39-.51-.674-.679c-.217-.129-.422-.211-.614-.247s-.411-.02-.657.046l-.285-.679c.203-.094.437-.124.702-.088s.546.139.84.313c.481.287.855.658 1.122 1.114a2.82 2.82 0 0 1 .399 1.453z" stroke="#fff" stroke-width=".666"/><path d="M103.758 389.546c.68.932.68 2.094 0 2.217l-11.662 2.108c-.761.138-1.78-1.103-1.78-2.167V373.61c0-1.064 1.019-1.093 1.78-.05l11.662 15.986z" class="C"/><mask id="A" class="C"><path d="M390.693 558.38v8.658c0 .736.513 1.637 1.145 2.013l4.65 2.767c.633.376 1.145.085 1.145-.651v-8.659l-6.94-4.128z" class="E"/></mask><path d="M390.693 558.38v-1.332l-1.144-.682v1.333l1.144.681zm6.94 4.128l1.145.681v-1.332l-1.145-.681v1.332zm-5.795-3.447h0l-2.289-1.362h0l2.289 1.362zm0 8.658v-8.658l-2.289-1.362v8.658l2.289 1.362zm0 0h0l-2.289-1.362c0 1.472 1.025 3.274 2.289 4.027v-2.665zm4.65 2.767l-4.65-2.767v2.665l4.65 2.766v-2.664zm0 0h0v2.664c1.265.752 2.29.169 2.29-1.302l-2.29-1.362zm0-8.659v8.659l2.29 1.362v-8.659l-2.29-1.362zm1.145-.651l-6.94-4.128v2.664l6.94 4.129v-2.665z" mask="url(#A)" class="F"/><mask id="B" class="C"><path d="M392.278 556.658c-1.423-.846-2.576-.19-2.576 1.465v.999l8.922 5.308v-.999c0-1.655-1.153-3.683-2.575-4.529l-3.771-2.244z" class="E"/></mask><path d="M389.702 559.122l-1.145-.681v1.332l1.145.681v-1.332zm8.922 5.308v1.333l1.145.681v-1.332l-1.145-.682zm-7.777-5.626c0-.92.64-1.284 1.431-.814v-2.664c-2.055-1.222-3.721-.275-3.721 2.116l2.29 1.362zm0 .999v-.999l-2.29-1.362v.999l2.29 1.362zm-1.145.651l8.922 5.309v-2.665l-8.922-5.308v2.664zm7.778 2.296v.999l2.289 1.363v-1l-2.289-1.362zm-1.431-2.516c.79.47 1.431 1.597 1.431 2.516l2.289 1.362c0-2.391-1.666-5.32-3.72-6.542v2.664zm-3.771-2.244l3.771 2.244v-2.664l-3.771-2.244v2.664z" mask="url(#B)" class="F"/><mask id="C" class="C"><path d="M392.446 557.424l3.434 2.044c-.12-1.202-.843-2.5-1.717-3.02s-1.597-.082-1.717.976z" class="E"/></mask><g class="F"><path d="M392.446 557.424l-1.136-.84-.16 1.402 1.296.77v-1.332zm3.434 2.044v1.332l1.296.77-.159-1.59-1.137-.512zm-3.434-.712l3.434 2.044v-2.664l-3.434-2.044v2.664zm1.717-.976c.166.099.515.512.581 1.175l2.273 1.025c-.174-1.739-1.272-3.923-2.854-4.864v2.664zm-.581.484c.066-.585.415-.583.581-.484v-2.664c-1.582-.941-2.679-.063-2.853 1.468l2.272 1.68z" mask="url(#C)"/><path d="M392.676 562.223l.991.59v4.662l-.991-.59zm1.983 1.18l.991.59v4.662l-.991-.59z"/></g><g stroke="#cddae7" class="T"><use xlink:href="#E"/><use xlink:href="#F"/><use xlink:href="#G"/></g><path d="M394.659 563.403l.991.59v4.662l-.991-.59z" class="F"/><g stroke="#cddae7" class="T"><use xlink:href="#E"/><use xlink:href="#F"/><use xlink:href="#G"/></g><path d="M456.284 574.442c0 .553.334 1.2.746 1.445l2.567 1.528-.911.682c-.291.218-.291.852 0 1.416s.763.846 1.055.628l2.109-1.579c.291-.218.291-.853 0-1.417l-2.109-4.089c-.292-.564-.764-.845-1.055-.627s-.291.852 0 1.417l.762 1.476-2.418-1.439c-.412-.245-.746.005-.746.559zm-4.783-9.308v13.025l5.965 3.549c.412.245.746-.005.746-.558s-.334-1.201-.746-1.446l-4.474-2.662v-9.017l1.928 1.147.797 1.545c.291.564.763.845 1.055.627s.291-.852 0-1.417l-1.234-2.391-4.037-2.402z" class="O"/><path d="M98.036 360.354l76.805 45.694v2.004l-76.805-45.694z" class="C"/><path d="M268.05 461.503l122.292 72.756v2.004L268.05 463.507zm129.345 76.952l54.838 32.625v2.004l-54.838-32.625z" class="O"/><path d="M212.87 428.674l17.896 10.647v2.004l-17.896-10.647z" class="C"/><path d="M244.189 447.307l16.405 9.76v2.004l-16.405-9.76z" class="O"/><g class="C"><use xlink:href="#H"/><use xlink:href="#H" x="5.965" y="3.549"/><use xlink:href="#H" x="11.93" y="7.098"/><use xlink:href="#H" x="17.896" y="10.647"/><use xlink:href="#H" x="23.861" y="14.196"/><use xlink:href="#H" x="29.827" y="17.745"/></g><g class="O"><ellipse rx="2.603" ry="3.006" transform="matrix(.859406 .511293 0 1 303.843 483.799)"/><ellipse rx="2.603" ry="3.006" transform="matrix(.859406 .511293 0 1 310.554 487.792)"/><ellipse rx="2.603" ry="3.006" transform="matrix(.859406 .511293 0 1 325.468 496.665)"/><g class="E"><use xlink:href="#I"/><use xlink:href="#I" x="129.345" y="76.952"/></g></g><g class="C"><path d="M87.596 355.144c0 .553.334 1.2.746 1.445l2.567 1.527-.911.682c-.291.218-.291.853 0 1.417s.763.846 1.055.628l2.109-1.579c.291-.218.291-.853 0-1.417l-2.109-4.089c-.291-.565-.763-.845-1.055-.627s-.291.852 0 1.417l.762 1.476-2.418-1.439c-.412-.245-.746.005-.746.559zm4.165-2.983c0-.553.334-.803.746-.558l2.546 1.514 3.42 6.63v8.43l-5.965-3.549c-.412-.245-.746-.892-.746-1.446s.334-.803.746-.558l4.474 2.662v-5.596l-2.546-4.936-1.928-1.147c-.412-.245-.746-.893-.746-1.446z"/><ellipse rx="7.809" ry="9.017" transform="matrix(.859406 .511293 0 1 237.478 443.863)"/></g><path d="M158.27 283.635c-11.908-38.084-2.977-70.055 25.305-27.229 22.625 34.26 76.905-37.629 77.401-14.667 2.977 26.104-39.743 137.755-17.118 92.816 28.282-56.175 20.132 45.762 44.692 39.374 19.648-5.111 47.944 45.923 55.386 78.35" class="B Q"/><path d="M57.137 478.816l.491.233a5.6 5.6 0 0 0-1.074-.442c-1.736-.509-3.356-1.209-4.847-2.086a43.23 43.23 0 0 1-9.345-7.596l.307.338c-.202.128-.448.245-.748.349a77.82 77.82 0 0 0-3.344.951c-3.393 1.105-5.381 3.314-5.952 6.627 2.111 0 5.129.521 9.05 1.564h0c.031.013.061.025.092.031l5.829 1.595c3.129 0 5.921-.386 8.387-1.166l1.154-.398zm2.086 4.025c.061-.411-.018-.583-.245-.522-2.963.902-6.087 1.246-9.351 1.049a31.5 31.5 0 0 1-7.823-1.613l-1.319-.479c-.258-.049-11.478-4.522-11.784-4.559-.081.473-.081 1.121-.081 1.669.736.196 12.485 4.798 13.179 4.976 2.73.681 5.136 1.117 7.209 1.319 3.663.35 7.007.043 10.032-.92l.184-.92z" class="I"/><path d="M39.516 467.95c.061 0 .129-.007.203-.019h.061l.767-.337.399-.276c.037.049.08.092.123.141l1.307 1.472.307.338a3.69 3.69 0 0 1-.748.349l-3.344.952c-3.393 1.104-5.381 3.313-5.952 6.626 2.111 0 5.129.522 9.05 1.565a.55.55 0 0 0 .092.03l5.829 1.596c3.129 0 5.927-.387 8.387-1.166l1.154-.399.491.233.184.368 1.239 2.393c-.006.031-.012.061-.012.092v.08l-.018.104-.031.154-.018.079c-2.964.902-6.087 1.246-9.357 1.043-2.62-.19-5.227-.73-7.823-1.613l-1.319-.479-.847-.123c-4.92-.766-7.899-3.635-10.971-4.215.123-1.251.381-2.706.767-4.374l.46-2.025.135-.644c.362-1.694.571-2.97.632-3.835 1.332.779 2.804 1.319 4.418 1.626 1.448.288 2.927.374 4.436.264z" class="E R"/><path d="M33.513 483.844l.471.27c-.299-.195-.642-.37-1.036-.523a21.39 21.39 0 0 1-4.671-2.455 43.25 43.25 0 0 1-8.729-8.295l.28.36a3.58 3.58 0 0 1-.773.291l-3.407.689c-3.468.839-5.621 2.888-6.446 6.147 2.104.163 5.074.916 8.902 2.259h0c.03.015.059.03.089.038l5.688 2.041c3.12.242 5.933.072 8.452-.514a19.01 19.01 0 0 0 1.181-.308zm1.769 4.174c.093-.405.027-.583-.204-.539-3.024.67-6.165.771-9.404.323a31.51 31.51 0 0 1-7.675-2.213l-1.278-.58c-.253-.068-11.094-5.395-11.397-5.456-.117.465-.168 1.111-.21 1.658.719.253 12.077 5.749 12.754 5.98 2.669.89 5.034 1.51 7.086 1.872 3.625.632 6.983.585 10.073-.142l.255-.903z" class="I"/><g class="E"><path d="M16.784 471.648c.061.005.129.004.203-.003l.061.005.791-.277.419-.245c.033.052.072.098.111.15l1.189 1.57.28.36a3.75 3.75 0 0 1-.773.291l-3.408.689c-3.468.839-5.621 2.888-6.446 6.147 2.104.163 5.074.916 8.902 2.259.03.015.059.03.089.038l5.688 2.041c3.12.242 5.939.073 8.452-.514l1.181-.308.471.27.155.382 1.051 2.481c-.009.03-.017.06-.019.091l-.006.079-.026.103-.042.151-.025.078c-3.024.67-6.165.771-9.409.316-2.597-.392-5.155-1.132-7.675-2.213l-1.278-.58-.835-.187c-4.846-1.145-7.595-4.235-10.612-5.051.219-1.238.588-2.668 1.103-4.302l.615-1.983.184-.632c.492-1.661.799-2.917.927-3.775 1.267.88 2.694 1.532 4.279 1.963 1.421.399 2.889.599 4.402.606z" class="R"/><path d="M14.525 472.747c-1.031-.036-2.154-.208-3.375-.521-.712-.227-1.344-.601-1.902-1.135l-1.583-1.332-.356-.294c1.19-6.498 1.068-12.149-.35-16.965l-1.092-6.934c-.08-1.883.172-3.939.767-6.166.368-1.35 1.031-3.313 1.994-5.89.018-.055.043-.117.061-.172l.663-1.871c.025-.08.049-.166.08-.246.006-.012.012-.018.018-.03.528-1.534.914-2.737 1.153-3.608.614-2.252.908-4.307.89-6.166a112.54 112.54 0 0 1 .092-3.577l.46-9.523c.325-5.602.473-9.97.43-13.099l-.031-9.633a44.92 44.92 0 0 1 .215-3.792l.08-.595c.104-.915.245-1.78.411-2.59l.08-.325c.172-.761.368-1.478.601-2.147l6.952 3.129 1.902.755 1.012.368a14.01 14.01 0 0 1 .135.54c.448 1.822.675 3.344.675 4.571 0 6.485-.368 12.253-1.104 17.302-.491 3.479-1.368 7.731-2.638 12.762l-1.135 4.553c-.994 4.031-1.706 7.142-2.147 9.344-1.246 6.259-2.227 13.204-2.945 20.831v22.456h-.012zm24.99-4.184c-1.509.116-2.982.03-4.436-.258-1.614-.307-3.086-.847-4.418-1.626l-1.135-.736v-.043c.006-.117.018-.233.031-.356.337-5.424-.123-11.038-1.381-16.842-1.123-2.289-1.675-4.86-1.657-7.7.019-1.921.368-4.522 1.043-7.793.798-3.908 1.27-6.534 1.411-7.884.307-2.963.135-5.583-.521-7.854.184-2.319.509-4.92.982-7.792a163.43 163.43 0 0 1 1.196-6.35l3.006-14.02c1.779-.798 3.203-1.546 4.264-2.24 1.491-1 2.651-2.129 3.467-3.374.405-.117.804-.239 1.197-.368.853-.289 1.663-.614 2.442-.982.411-.19.81-.399 1.196-.614.012 2.215.252 4.455.706 6.737.399 2.001.27 5.038-.387 9.13l-.307 1.792c-.914 4.994-3.307 11.584-7.179 19.769-1.043 4.111-1.565 9.768-1.565 16.965l1.381 24.297.399 5.141.264 3.001zm10.553-65.302c-.589 4.087-1.614 7.872-3.068 11.364l.522-1.35.479-1.829 2.068-8.185z" class="I"/><path d="M41.798 443.081v22.935 1.307l-.859.614-1.166.613h-.061l-.203.019-.258-3.007-.399-5.141-1.381-24.303c0-7.198.522-12.855 1.565-16.965 3.872-8.185 6.264-14.775 7.179-19.769.117-.62.215-1.221.307-1.792.657-4.086.785-7.13.387-9.13-.46-2.276-.693-4.522-.706-6.737.307-.165.601-.337.89-.521.73-.46 1.423-.957 2.074-1.504l.276 1.504c.859 4.853 1.27 9.51 1.227 13.977a58.5 58.5 0 0 1-.184 4.43l-.018.245a55.81 55.81 0 0 1-.387 3.301c-.006.037-.012.074-.012.104l-2.074 8.191-.479 1.829-.522 1.35a42.12 42.12 0 0 1-1.859 3.853c-.031.049-.061.104-.092.153 0 1.982-.35 4.123-1.043 6.412-.509 1.638-1.301 3.638-2.362 6.013.19 2.742.239 6.129.153 10.154v.295 1.57h.006zm-.429-59.392c-.816 1.245-1.976 2.374-3.467 3.374-1.061.694-2.485 1.442-4.264 2.24-.614 3.129-1.614 7.804-3.006 14.02a163.43 163.43 0 0 0-1.196 6.35c-.473 2.871-.798 5.473-.982 7.792.018 1.675-.632 3.663-1.963 5.952-1.515 2.62-2.393 4.522-2.638 5.706-.104.368-.736 2.104-1.902 5.215-.779 2.105-1.258 3.896-1.442 5.369.08 2.393-.061 5.105-.43 8.13-.104.883-.307 2.343-.601 4.387l.018 15.443v4.129l-1.503.43c-1.006.392-2.16.57-3.467.521v-22.456c.718-7.627 1.7-14.572 2.945-20.831.442-2.196 1.153-5.313 2.147-9.344l1.135-4.553c1.27-5.031 2.147-9.283 2.638-12.762.736-5.05 1.104-10.817 1.104-17.302 0-1.228-.227-2.749-.675-4.571-.043-.185-.092-.362-.135-.54a74.47 74.47 0 0 0 2.344.816l1.166.368c4.485 1.35 8.768 2.055 12.854 2.117h1.319z" fill="#073d72"/></g><path d="M60.573 327.882c-6.698-3.237-10.298-4.334-16.664-6.041 2.391 2.782 1.902 11.263.691 13.689 0 0 19.588 3.438 23.979.043 1.04-.804.88-27.929.88-27.929l-5.025-1.681-3.861 21.919zM35.14 289.936s5.479 8.347 6.182 9.789c.931 1.911-1.38 1.866-1.324 2.874.072 1.305.503 3.177.67 4.413.212 1.571-.062 3.381-3.404 3.801l-4.919.455c-.207.465 1.844 5.568 3.568 7.393 3.316 3.509 8.256 18.334-.549 18.226-4.911-.061-16.671-16.116-16.671-16.116-.799-.699.326-1.593.512-2.64l1.727-4.845s-4.346-28.722 14.207-23.35z" class="S"/><path d="M17.763 319.092l1.442-.961s18.334 8.813 16.708.53c.383.236 1.724.283 4.18 1.312 3.632 1.222 8.165 2.132 14.251 5.054.025 2.157-1.802 10.192-1.754 11.645-2.262.119-6.4-.922-6.4-.922.139 2.523.182 20.623.233 22.932.194 8.887 3.87 20.552 2.851 22.225-4.237 3.135-14.907 5.173-35.319 0 .135-19.82-.806-20.252-.106-30.021-7.988-.769-9.433-9.827-9.433-9.827 0-2.078-.245-5.661.157-9.392.657-6.096 7.292-10.945 13.189-12.575z" class="D"/><g class="S"><path d="M12.541 364.756l3.871-19.166c-3.602.516-10.539-2.243-11.994-4.531 0 0-1.896 22.414-1.248 27.927.153 1.306 16.96 18.42 16.96 18.42l4.448-3.081-12.037-19.569z"/><path d="M20.129 387.406l.724 1.543.458-.054a10.54 10.54 0 0 0 7.276-4.26c.295-.405-6.013-1.991-6.013-1.991l-2.445 4.762z"/></g><path d="M35.461 318.119c-1.473-1.951-3.018-5.717-3.123-6.664.106.947 1.651 4.709 3.125 6.659l-.002.005zm-3.124-6.666zm-.001-.007zm0-.007zm-.001-.006zm-.001-.006zm0-.11v-.001.001zm0-.004v-.001.001zm.002-.016v-.001.001zm.001-.004h0 0zm0-.003zm.001-.004h0 0zm.001-.002v-.001.001zm.001-.003zm.001-.003zm.001-.003zm.001-.003v-.001.001z" fill="#0c9c95"/><path d="M35.223 318.127c-3.881-.359-6.836-7.065-6.836-7.065l3.959.206-.001.004-.004.011-.001.006-.001.004-.001.004-.003.02c-.004.038-.003.068 0 .103l.002.017.002.018c.105.947 1.65 4.713 3.123 6.664l-.008.022-.23-.014z" fill="#ce7c56"/><path d="M39.967 287.174c.205.873-.683 4.265-6.838 4.075s-5.729 4.485-5.729 4.485l1.407 6.01-1.552.365s-1.283-3.275-2.007-3.916c-.541-.479-2.315.118-2.998.917-.399.467-.411 1.081-.205 1.738 1.24 3.941 1.161 8.176-.782 11.821l-.329.617s-4.635-11.034-4.928-14.622c-.217-2.659-1.506-12.731 6.223-14.551 3.427-.807 11.353-.139 15.731-1.777.326 1.393-.401 4.135-1.056 4.843s.565.584 3.064-.005z" fill="#77473e"/><path d="M18.609 285.847c.677-.526 1.44-.973 2.299-1.311-.787.328-1.458.758-2.028 1.264l-.271.047zm18.144 1.538c.028-.059.077-.128.15-.206.653-.706 1.378-3.435 1.059-4.832h.001c.326 1.393-.401 4.135-1.056 4.843-.025.027-.075.096-.154.195z" fill="#0c9c95"/><path d="M31.038 289.387l-.359-.039c-3.741-.469-5.774-3.294-9.523-3.641-.693-.064-1.444-.043-2.276.093.57-.506 1.241-.936 2.028-1.264a9.65 9.65 0 0 1 1.324-.413c.21-.049.439-.093.682-.133 2.7.875 4.626 2.878 7.724 3.267l.359.04c4.23.391 5.688-2.004 5.868-2.199.392-.422.803-1.569 1.006-2.722l.091-.029c.32 1.397-.405 4.126-1.059 4.832-.073.078-.123.147-.15.206-.486.611-2.074 2.339-5.715 2.002z" fill="#6c4038"/><g class="E S"><path d="M71.806 302.817l-.269 1.289c-.134.943-.504 2.001-1.115 3.18l-1.435.977c-1.139-.046-2.283-.453-3.441-1.221l-1.119-.912-.059-4.503c.149-.124.359-.322.626-.601.417-.43.738-.644.964-.635l.514 2.187c-.008.207-.129.582-.358 1.117-.261.519-.395.836-.399.947-.008.206.272.771.846 1.694.394.628.814.978 1.165 1.473.243-.053.35.008.422-.229a3.78 3.78 0 0 0 .045-.528c.019-.481-.038-.858-.171-1.138-.145-.343-.254-.867-.322-1.578l.675-.02 1.534.158c.048.001.152.044.308.132.175.07.299.109.381.112.322.013.723-.621 1.208-1.901zM64.346 301l-.03-1.06c.038-1.072.146-2.069.328-2.995.236-1.204.597-2.277 1.078-3.23.561.056.892.315 1.003.787.082.354.036.901-.138 1.631l-.18.883-.131.861c-.023.577.114.991.407 1.244-.311.194-.767.532-1.364 1.004l-.974.875zm7.94.055l-.023-.025c-.013-.034-.084-.075-.211-.128-.214.169-.572.689-1.074 1.569-.465.785-.736 1.174-.817 1.17a.81.81 0 0 1-.215-.032c-.013-.035-.036-.05-.07-.051-.036.046-.048-.012-.041-.171l.517-2.674c.003-.082-.064-.195-.203-.345-.317.338-.547.805-.682 1.392l-.277 1.505-.865-.035.073-1.826c-.018-.737-.157-1.113-.412-1.124-.111-.004-.183.008-.218.04-.001.033-.011.047-.026.047l-.05 1.249c.007.193.051.518.129.968-.017.418-.244.674-.681.767-.036-.305-.165-.931-.382-1.868l-.304-1.409c.006-.144.123-.298.356-.467.213-.15.326-.323.334-.516a.85.85 0 0 1-.169.018 7.15 7.15 0 0 1 2.859.115c1.129.286 1.98.787 2.563 1.499l-.11.332z"/><path d="M64.369 301.627l-.024-.001.007-.168-.006-.458.974-.875 1.364-1.004c.014 0 .033.015.046.05a.23.23 0 0 1 .073-.021l.17-.042c.048.002.106-.005.169-.017-.008.192-.121.366-.334.516-.233.169-.35.323-.356.467-.003.082.098.548.304 1.408l.382 1.869c.437-.093.664-.349.681-.767l-.129-.968.05-1.249c.014 0 .025-.014.026-.047.035-.033.108-.044.218-.04.255.01.394.387.412 1.124l-.074 1.826.865.035.277-1.505c.134-.587.365-1.054.682-1.393.138.15.206.264.203.345-.009.226-.18 1.115-.517 2.675-.006.159.006.217.041.17.034.002.057.017.07.051.047.017.119.029.215.033.082.003.353-.385.817-1.17.502-.88.86-1.4 1.074-1.57.128.054.198.095.212.129l.023.025c-.176.426-.339 1.012-.48 1.762-.485 1.28-.886 1.914-1.208 1.901-.082-.004-.205-.042-.381-.112-.155-.088-.26-.131-.308-.133l-1.534-.158-.675.021c.068.711.176 1.235.322 1.578.133.279.19.657.171 1.138l-.045.527c-.362 1.194-1.35-.866-1.587-1.243-.574-.923-.855-1.488-.846-1.695.004-.11.137-.427.399-.946.229-.535.35-.91.358-1.117.001-.014-.172-.743-.514-2.187-.226-.009-.547.204-.964.635l-.626.601z"/></g><path d="M468.638 239.075l3-1.732v21.318l-3 1.732z" class="K"/><path fill="#f2faff" d="M468.638 260.394l3-1.732v27.508l-3 1.732z"/><path fill="#2e89e2" d="M468.638 287.791l3-1.732v38.11l-3 1.732z"/><path fill="#d7ebff" d="M468.638 325.901l3-1.732v23.053l-3 1.732z"/><g class="K"><path d="M307.265 321.101l3.389-1.957v4.332l-3.389 1.957z"/><path d="M309.202 322.202c0-2.977 2.074-4.157 4.632-2.635l262.807 156.354c2.558 1.522 4.632 5.169 4.632 8.146v22.47L309.202 344.671v-22.469z"/></g><path d="M309.091 372.2L581.273 534.131V739.28L309.091 577.349V372.2Z" class="C"/><path d="M306.122 373.93l272.182 161.931v205.18L306.122 579.11V373.93z" fill="#f4faff"/><path d="M305.985 324.056c0-2.976 2.074-4.156 4.632-2.634l263.024 156.483c2.558 1.522 4.632 5.169 4.632 8.145v22.471L305.985 346.527v-22.471z" class="D"/><path d="M313.831 337.641c0-2.079 1.38-2.944 3.082-1.931s3.082 3.519 3.082 5.598-1.38 2.944-3.082 1.931-3.082-3.519-3.082-5.598zm11.208 6.668c0-2.08 1.38-2.944 3.082-1.931s3.082 3.519 3.082 5.598-1.38 2.944-3.082 1.931-3.082-3.519-3.082-5.598zm10.647 6.334c0-2.079 1.38-2.944 3.082-1.931s3.083 3.519 3.083 5.599-1.38 2.944-3.083 1.931-3.082-3.519-3.082-5.599z" fill="#eee"/><path d="M376.283 367.266c-2.012-1.197-3.766-.614-4.254 1.415l-3.62 10.994c-.615 1.866-2.397 2.319-4.411 1.121l-58.013-34.514v27.351l272.319 162.013v-27.351L444.86 428.904c-2.134-1.269-3.991-4.071-4.499-6.784l-.913-4.882-1.777-9.504c-.488-2.609-2.242-5.28-4.254-6.477l-57.134-33.991z" fill="#e7eff5"/><g class="G"><rect width="7.566" height="1.399" rx=".699" transform="matrix(.562603 1.09065 -.562603 .421227 429.463 407.941)"/><rect width="7.566" height="1.399" rx=".699" transform="matrix(-.562603 .421227 -.562603 -1.09065 433.72 411.531)"/></g><g class="C"><rect width="151.377" height="19.577" rx="2.695" transform="matrix(.859406 .511293 0 1 344.092 372.963)"/><rect width="83.555" height="19.577" rx="2.695" transform="matrix(.859406 .511293 0 1 481.471 454.694)"/></g><g class="G"><path d="M350.989 381.171c-2.316-.938-4.095.585-4.095 3.749 0 3.47 2.133 7.544 4.761 9.107 2.634 1.568 4.766.03 4.766-3.439 0-.313-.041-.642-.075-.968l-1.344-.799c.04.32.067.641.067.946 0 2.482-1.527 3.581-3.408 2.463s-3.409-4.037-3.409-6.519c0-2.17 1.175-3.29 2.737-2.774v1.721l2.722-1.06-2.722-4.273v1.846z"/><rect width="10.714" height="2.143" rx="1.071" transform="matrix(-.529217 .356958 -.529217 -.98666 337.521 378.653)"/><rect width="10.714" height="2.143" rx="1.071" transform="matrix(-.529218 -.98666 .529218 -.356957 336.387 379.418)"/><rect width="9.331" height="2.036" rx="1.018" transform="matrix(.859406 .511293 0 -1 328.147 374.154)"/><rect width="10.714" height="2.143" rx="1.071" transform="matrix(.529217 .98666 .529217 -.356957 314.383 364.888)"/><rect width="10.714" height="2.143" rx="1.071" transform="matrix(.529218 -.356956 -.529218 -.98666 315.517 367.002)"/><rect width="9.331" height="2.036" rx="1.018" transform="matrix(-.859406 -.511293 0 -1 323.758 371.543)"/><path d="M492.445 473.004c1.151-1.594.975-4.826-.528-7.739-1.702-3.3-4.462-4.942-6.164-3.667s-1.702 4.982 0 8.282c1.502 2.913 3.829 4.534 5.525 3.997l1.784 3.457c.322.624.844.935 1.166.694s.322-.943 0-1.567l-1.783-3.457zm-1.421-7.071c1.21 2.344 1.21 4.979 0 5.884s-3.17-.261-4.379-2.605-1.209-4.979 0-5.884 3.17.261 4.379 2.605z" class="E"/><rect width="12.389" height="2.259" rx="1.129" transform="matrix(.859406 .511293 0 1 559.443 504.095)"/><rect width="12.389" height="2.259" rx="1.129" transform="matrix(.859406 .511293 0 1 559.443 509.365)"/><rect width="12.389" height="2.259" rx="1.129" transform="matrix(.859406 .511293 0 1 559.443 514.636)"/><path d="M387.066 386.908c0 .515-.139.839-.416.971s-.659.053-1.151-.24c-.454-.269-.855-.623-1.204-1.059v-1.125l.727.795c.199.189.382.333.546.431.198.118.349.157.454.117s.16-.157.16-.358a.88.88 0 0 0-.07-.338 2.02 2.02 0 0 0-.206-.377c-.09-.133-.273-.371-.55-.713-.26-.319-.454-.592-.584-.821a3.62 3.62 0 0 1-.311-.712 2.58 2.58 0 0 1-.117-.772c0-.506.127-.827.381-.965s.609-.072 1.059.196a3.57 3.57 0 0 1 .63.481 8.28 8.28 0 0 1 .631.672l-.29.768-.564-.597a2.65 2.65 0 0 0-.437-.334c-.17-.101-.301-.126-.392-.073s-.137.165-.137.337c0 .106.019.211.056.314s.095.211.174.334a11.54 11.54 0 0 0 .573.739c.397.492.669.91.817 1.256a2.69 2.69 0 0 1 .221 1.073zm2.07 1.946a1.64 1.64 0 0 0 .558.195v.887c-.221.001-.493-.094-.814-.285a1.93 1.93 0 0 1-.777-.821c-.16-.338-.241-.748-.241-1.23v-2.105l-.424-.253v-.504l.488-.108.256-.769.567.337v.93l.91.541v.895l-.91-.542v2.106c0 .169.035.315.105.437s.165.22.282.289zm3.282 2.824l-.172-.696-.023-.014c-.149.164-.303.248-.462.252s-.363-.071-.617-.222c-.312-.185-.558-.452-.738-.798s-.267-.74-.267-1.183c0-.464.12-.733.36-.809s.607.017 1.093.283l.564.312v-.191c0-.443-.168-.764-.506-.965a1.73 1.73 0 0 0-.915-.229l-.294-.979c.374-.04.789.075 1.244.346.436.259.771.586 1.003.979s.349.851.349 1.372v2.91l-.619-.368zm-.262-2.179l-.343-.189c-.258-.143-.45-.194-.576-.155s-.189.177-.189.411a.83.83 0 0 0 .431.76c.205.122.369.14.491.054s.186-.259.186-.522v-.359zm3.166 3.036a1.64 1.64 0 0 0 .558.195v.887c-.221.001-.492-.094-.814-.285a1.93 1.93 0 0 1-.776-.822c-.161-.338-.241-.747-.241-1.229v-2.106l-.425-.252v-.504l.489-.108.256-.77.566.338v.929l.91.542v.894l-.91-.541v2.105c0 .17.035.315.105.438a.79.79 0 0 0 .282.289zm2.538 2.459c-1.012-.602-1.517-1.649-1.517-3.141 0-.743.137-1.227.412-1.454s.67-.192 1.184.114c.376.224.713.523 1.011.899l-.261.766-.39-.415c-.12-.121-.24-.218-.36-.289-.462-.274-.692.028-.692.909 0 .854.23 1.418.692 1.693a1.47 1.47 0 0 0 .473.192c.146.024.291.014.437-.03v1.02a.83.83 0 0 1-.437-.006c-.145-.04-.329-.126-.552-.258zm2.451-.812c0 .433.052.79.157 1.074s.279.498.517.64.406.132.509-.025.157-.457.157-.891-.052-.788-.157-1.066a1.2 1.2 0 0 0-.514-.631c-.237-.141-.407-.134-.512.02s-.157.444-.157.879zm2.247 1.337c0 .711-.139 1.184-.418 1.419s-.668.204-1.166-.092a2.8 2.8 0 0 1-.826-.765 3.73 3.73 0 0 1-.549-1.119c-.128-.42-.192-.859-.192-1.318 0-.713.138-1.185.415-1.416s.667-.198 1.169.101c.312.186.587.441.826.765a3.69 3.69 0 0 1 .549 1.112 4.45 4.45 0 0 1 .192 1.313zm3.035 3.997l-.119-.629-.046-.028a.48.48 0 0 1-.405.232c-.174.006-.373-.058-.596-.19a2.2 2.2 0 0 1-.863-.924c-.194-.391-.291-.845-.291-1.36v-2.848l.887.527v2.551c0 .315.042.577.125.786a.93.93 0 0 0 .398.471c.248.147.428.143.538-.012s.166-.495.166-1.011v-2.055l.887.528v4.367l-.681-.405zm4.611 2.743l-.887-.527v-2.551c0-.315-.041-.575-.125-.781s-.216-.367-.398-.475c-.248-.148-.427-.143-.538.015s-.165.492-.165 1.007v2.055l-.887-.527v-4.368l.677.403.119.63.05.029c.099-.152.234-.23.407-.234s.372.057.593.189c.378.224.665.533.86.926s.294.844.294 1.362v2.847zm2.282.487a1.64 1.64 0 0 0 .558.196v.886c-.22.002-.492-.093-.814-.285-.354-.211-.613-.485-.776-.821s-.241-.748-.241-1.23v-2.105l-.425-.253v-.503l.489-.108.256-.77.567.337v.93l.91.541v.895l-.91-.541v2.105c0 .169.034.315.104.437a.79.79 0 0 0 .282.289zm2.564-1.205c-.188-.112-.335-.119-.441-.021s-.168.286-.184.571l1.245.74c-.004-.296-.061-.557-.172-.781s-.26-.397-.448-.509zm.125 3.754c-.523-.311-.932-.748-1.226-1.312s-.442-1.2-.442-1.911c0-.732.135-1.216.407-1.453s.65-.215 1.131.071c.459.273.817.662 1.072 1.166s.384 1.065.384 1.685v.578l-2.096-1.247a2.14 2.14 0 0 0 .224.926 1.53 1.53 0 0 0 .587.635c.196.116.381.199.555.248a1.8 1.8 0 0 0 .547.064v.921c-.155.012-.321-.009-.497-.065s-.392-.155-.646-.306zm3.861-2.23c.12.071.22.142.3.213l-.067 1.078a1.43 1.43 0 0 0-.262-.195c-.283-.169-.504-.202-.663-.102s-.235.329-.235.681v2.222l-.887-.527v-4.367l.672.399.131.812.043.026c.101-.185.237-.3.407-.347s.36-.013.561.107z"/></g><path d="M380.707 382.932l-1.773-1.508c-.071.454-.321.717-.659.722l.748 2.598c.873-.006 1.5-.68 1.684-1.812z" class="L"/><path d="M379.378 385.406l-1.048-3.263c-.164.017-.351-.029-.549-.147-.648-.386-1.173-1.389-1.173-2.241s.525-1.23 1.173-.845l.005.003v-2.991c-1.428-.85-2.708-.45-3.215 1.005s-.137 3.661.931 5.544 2.61 3.051 3.876 2.935z" class="D"/><path d="M378.687 380.013c.167.365.267.766.267 1.138a1.65 1.65 0 0 1-.043.389l2.465 2.396c.292-1.168.135-2.695-.419-4.198l-2.27.275z" class="M"/><path d="M377.786 374.973v3.94c.533.32.982 1.058 1.122 1.784l2.881.641c-.507-2.658-2.142-5.258-4.003-6.365z" class="N"/><path d="M364.039 397.879l-.887-.527v-2.551c0-.63-.174-1.049-.523-1.257-.248-.147-.428-.14-.538.02s-.166.496-.166 1.003v2.055l-.887-.528v-6.078l.887.528v1.238l-.02.668-.021.339.047.028c.198-.31.512-.336.942-.08a2.22 2.22 0 0 1 .869.931c.198.394.297.848.297 1.364v2.847zm2.282.487a1.64 1.64 0 0 0 .558.195v.887c-.221.002-.492-.093-.814-.285-.355-.211-.613-.485-.776-.821s-.242-.748-.242-1.23v-2.105l-.424-.253v-.503l.488-.108.256-.77.567.337v.93l.91.541v.895l-.91-.542v2.106c0 .169.035.315.105.437a.79.79 0 0 0 .282.289zm2.587 1.539a1.62 1.62 0 0 0 .558.196v.887c-.22.001-.492-.094-.814-.286-.354-.211-.613-.484-.776-.821s-.241-.747-.241-1.229v-2.106l-.425-.252v-.504l.489-.108.256-.77.567.338v.929l.91.542v.894l-.91-.541v2.105c0 .17.034.315.104.438a.78.78 0 0 0 .282.288zm3.003 2.736c-.381-.227-.681-.591-.898-1.093l-.046-.027.046.66v1.77l-.887-.528v-6.289l.721.429.125.641.041.024c.207-.309.515-.342.922-.1.383.228.684.606.901 1.134s.326 1.145.326 1.854c0 .466-.052.84-.155 1.123s-.245.459-.433.527-.409.026-.663-.125zm-.261-3.73c-.219-.13-.379-.134-.48-.011s-.153.386-.157.801v.129c0 .468.051.835.154 1.099a1.18 1.18 0 0 0 .494.599c.398.236.596-.086.596-.966 0-.43-.049-.781-.148-1.053s-.25-.473-.459-.598zm4.512 4.884c0 .448-.117.72-.349.816s-.577.008-1.038-.266c-.236-.141-.438-.283-.605-.426a4.2 4.2 0 0 1-.468-.466v-.984c.165.202.35.399.556.592a3.35 3.35 0 0 0 .546.43c.322.192.483.162.483-.088 0-.093-.022-.182-.064-.264s-.117-.196-.221-.331l-.419-.511c-.25-.289-.434-.529-.552-.719s-.202-.376-.256-.562-.079-.395-.079-.621c0-.388.112-.621.335-.7s.542.003.953.247c.392.233.773.574 1.143 1.024l-.268.7-.456-.502c-.142-.144-.286-.26-.433-.348-.262-.155-.393-.138-.393.052 0 .107.042.224.125.352s.271.355.556.678c.254.289.44.528.558.719a2.36 2.36 0 0 1 .261.569 2.11 2.11 0 0 1 .085.609zm.567 1.076c0-.219.043-.359.13-.419s.215-.04.381.059.285.227.372.393a1.19 1.19 0 0 1 .134.572c0 .206-.044.342-.134.409s-.213.049-.372-.046a1.01 1.01 0 0 1-.378-.397 1.21 1.21 0 0 1-.133-.571zm0-3.227c0-.219.043-.358.13-.418s.215-.041.381.058a.96.96 0 0 1 .372.394 1.22 1.22 0 0 1 .134.571c0 .213-.045.348-.136.411s-.213.046-.37-.048-.288-.229-.378-.396a1.2 1.2 0 0 1-.133-.572zm3.788.328l-1.585 4.768-.805-.479 1.584-4.768.806.479zm2.459 1.463l-1.584 4.768-.805-.479 1.584-4.768.805.479zm2.762 6.057c0 .448-.116.72-.349.816s-.576.009-1.038-.266a4.17 4.17 0 0 1-.604-.426c-.167-.141-.323-.296-.468-.466v-.984a5.97 5.97 0 0 0 .555.592c.207.194.389.337.546.431.322.191.483.162.483-.088 0-.094-.021-.182-.064-.265a2.23 2.23 0 0 0-.221-.331l-.419-.51c-.25-.29-.434-.53-.552-.72a2.35 2.35 0 0 1-.256-.562c-.052-.187-.078-.394-.078-.621 0-.388.111-.621.334-.699s.543.002.954.247c.391.232.772.574 1.142 1.023l-.267.7-.457-.502c-.141-.144-.286-.26-.433-.347-.261-.156-.392-.139-.392.051 0 .107.041.224.125.352s.27.355.555.678c.254.289.44.529.558.719s.206.38.262.57.084.392.084.608zm2.061 1.652c.155.093.341.158.559.196v.887c-.221.001-.493-.094-.815-.286-.354-.211-.613-.484-.776-.821s-.241-.747-.241-1.229v-2.106l-.424-.252v-.504l.488-.108.256-.77.567.338v.929l.91.542v.894l-.91-.541v2.105a.88.88 0 0 0 .104.438c.072.123.166.219.282.288zm3.283 2.824l-.172-.696-.023-.013c-.149.163-.304.248-.462.252s-.363-.071-.617-.222a1.95 1.95 0 0 1-.738-.799c-.179-.346-.268-.74-.268-1.182 0-.464.12-.734.361-.809s.606.017 1.093.283l.564.312v-.192c0-.442-.169-.764-.506-.965-.26-.154-.565-.23-.916-.228l-.293-.979c.374-.041.788.074 1.244.345a2.8 2.8 0 0 1 1.003.98c.233.393.349.851.349 1.372v2.91l-.619-.369zm-.262-2.179l-.343-.188c-.258-.143-.45-.195-.576-.155s-.189.176-.189.411a.83.83 0 0 0 .431.76c.205.122.369.14.491.054s.186-.259.186-.522v-.36zm3.166 3.036a1.64 1.64 0 0 0 .558.195v.887c-.221.001-.492-.094-.814-.285-.355-.211-.613-.485-.776-.821s-.241-.748-.241-1.23v-2.105l-.425-.253v-.504l.488-.107.256-.77.567.337v.93l.91.541v.895l-.91-.542v2.106c0 .169.035.315.105.437a.79.79 0 0 0 .282.289zm2.538 2.459c-1.012-.602-1.518-1.649-1.518-3.141 0-.742.138-1.227.413-1.454s.67-.191 1.183.115c.376.223.714.523 1.012.898l-.262.767-.389-.416c-.12-.121-.24-.217-.361-.288-.461-.275-.692.028-.692.908 0 .854.231 1.419.692 1.693a1.44 1.44 0 0 0 .474.192c.146.024.291.014.436-.029v1.019a.84.84 0 0 1-.436-.005c-.145-.04-.329-.126-.552-.259zm2.451-.811c0 .432.052.79.157 1.074a1.21 1.21 0 0 0 .517.64c.237.14.406.132.509-.026s.157-.456.157-.891-.052-.788-.157-1.066-.276-.488-.515-.63-.407-.134-.511.019-.157.445-.157.88zm2.247 1.337c0 .711-.14 1.184-.419 1.419s-.667.204-1.166-.092c-.312-.186-.587-.441-.825-.765s-.422-.7-.55-1.12-.192-.859-.192-1.317c0-.714.139-1.186.416-1.417s.667-.197 1.169.102a2.81 2.81 0 0 1 .826.764 3.69 3.69 0 0 1 .549 1.112c.128.418.192.855.192 1.314zm3.035 3.997l-.119-.63-.047-.027c-.095.146-.229.224-.404.232s-.373-.058-.596-.191a2.2 2.2 0 0 1-.863-.923c-.194-.392-.291-.845-.291-1.361v-2.848l.887.528v2.551c0 .315.041.577.125.785a.94.94 0 0 0 .398.471c.248.148.427.144.538-.012s.166-.495.166-1.01v-2.055l.886.527v4.368l-.68-.405zm4.611 2.743l-.887-.528v-2.55c0-.315-.041-.576-.125-.782a.94.94 0 0 0-.398-.475c-.248-.148-.427-.142-.538.016s-.166.491-.166 1.007v2.055l-.886-.528v-4.367l.677.403.119.629.05.03c.098-.152.234-.231.407-.235s.372.058.593.189a2.2 2.2 0 0 1 .86.926c.196.39.294.844.294 1.362v2.848zm2.282.487a1.64 1.64 0 0 0 .558.195v.887c-.221.001-.492-.094-.814-.285a1.93 1.93 0 0 1-.776-.822c-.161-.337-.241-.747-.241-1.229v-2.105l-.425-.253v-.504l.489-.108.255-.769.567.337v.93l.91.541v.894l-.91-.541v2.106c0 .169.035.315.105.437a.8.8 0 0 0 .282.289zm2.564-1.205c-.188-.112-.335-.119-.442-.021s-.167.286-.183.571l1.244.74a1.8 1.8 0 0 0-.171-.782c-.111-.227-.26-.396-.448-.508zm.125 3.754c-.523-.312-.932-.749-1.227-1.312s-.442-1.201-.442-1.912c0-.731.136-1.216.407-1.453s.651-.214 1.131.072c.46.273.817.661 1.073 1.165s.384 1.066.384 1.685v.579l-2.096-1.247c.009.344.084.653.224.926s.335.484.587.634c.196.117.381.199.555.249a1.74 1.74 0 0 0 .547.063v.922c-.155.012-.321-.01-.497-.065s-.392-.155-.646-.306zm3.861-2.231a1.95 1.95 0 0 1 .299.214l-.066 1.077a1.43 1.43 0 0 0-.262-.195c-.283-.168-.504-.202-.663-.101s-.235.329-.235.68v2.223l-.887-.528v-4.367l.671.4.131.812.044.026c.101-.185.236-.301.407-.348s.359-.013.561.107zm.765 4.346c0-.219.043-.358.13-.418s.215-.041.381.058.285.227.372.393.134.359.134.572c0 .206-.044.342-.134.409s-.213.049-.372-.046a1 1 0 0 1-.378-.396c-.089-.171-.133-.361-.133-.572zm3.142 2.506c-1.011-.602-1.517-1.649-1.517-3.141 0-.742.137-1.227.413-1.453s.669-.192 1.183.114c.376.223.713.523 1.011.898l-.261.767-.39-.416c-.12-.121-.24-.217-.36-.288-.462-.275-.692.028-.692.908 0 .854.23 1.419.692 1.693.17.102.328.166.474.192s.29.014.436-.029v1.019a.84.84 0 0 1-.436-.005c-.146-.04-.33-.126-.553-.259zm2.451-.811c0 .432.052.79.157 1.074s.279.498.518.64.406.132.508-.026.157-.456.157-.891-.052-.787-.157-1.066-.276-.488-.514-.63-.407-.134-.512.02-.157.444-.157.879zm2.247 1.337c0 .711-.139 1.184-.418 1.419s-.668.204-1.166-.092c-.312-.186-.587-.441-.826-.765a3.68 3.68 0 0 1-.549-1.12c-.128-.42-.192-.859-.192-1.317 0-.714.138-1.186.416-1.417s.666-.197 1.168.102c.312.185.588.44.826.764a3.67 3.67 0 0 1 .549 1.112c.128.418.192.855.192 1.314zm3.643 4.358l-.887-.527v-2.551c0-.315-.039-.574-.119-.778s-.2-.357-.369-.458c-.227-.135-.392-.121-.494.042s-.154.501-.154 1.014v2.055l-.887-.528v-4.367l.677.403.12.629.049.03a.46.46 0 0 1 .378-.244c.165-.017.354.038.567.165a2.17 2.17 0 0 1 .988 1.229l.079.047c.087-.152.215-.233.383-.245s.363.048.576.175a2.15 2.15 0 0 1 .834.879c.19.366.285.828.285 1.388v2.848l-.889-.529v-2.551c0-.315-.04-.575-.119-.778a.87.87 0 0 0-.37-.458c-.217-.129-.38-.122-.488.022s-.16.444-.16.897v2.191zm4.905-2.793l-1.585 4.769-.805-.479 1.584-4.769.806.479z" class="G"/><path d="M305.985 373.667l22.328 13.283v205.345l-22.328-13.283V373.667z" class="I"/><path d="M322.447 401.075l-3.799-3.233c-.151.974-.688 1.539-1.412 1.552l1.602 5.574c1.872-.014 3.216-1.464 3.609-3.893z" class="L"/><path d="M319.599 406.388l-2.244-7.001c-.352.037-.752-.062-1.178-.315-1.388-.826-2.513-2.978-2.513-4.807s1.125-2.642 2.513-1.816l.011.006v-6.42c-3.06-1.821-5.802-.96-6.889 2.164s-.293 7.859 1.994 11.898 5.593 6.544 8.306 6.291z" class="D"/><path d="M318.119 394.813c.357.784.572 1.644.572 2.442 0 .309-.033.588-.092.836l5.282 5.136c.625-2.506.29-5.784-.899-9.009l-4.863.595z" class="M"/><path d="M316.188 383.996v8.459c1.142.685 2.104 2.268 2.405 3.826l6.173 1.369c-1.086-5.704-4.59-11.281-8.578-13.654z" class="N"/><g fill="#b5c8db"><use xlink:href="#J"/><use xlink:href="#J" y="14.31"/><path d="M310.945 444.428c0-.439.305-.612.682-.388l10.951 6.515c.89.53 1.612 1.802 1.612 2.837h0c0 1.036-.722 1.449-1.612.92l-9.087-5.407c-1.406-.836-2.546-2.841-2.546-4.477h0z"/></g><path d="M578.273 486.958l3-1.732v21.318l-3 1.732z" class="K"/><path fill="#f2faff" d="M578.273 508.269l3-1.732v27.483l-3 1.732z"/><path d="M578.273 535.751l3-1.732v205.287l-3 1.732z" class="C"/><path d="M340.579 519.923v1.772l2.786 1.658-2.048 9.411 1.399.833 2.061-9.475v-1.701l-4.198-2.498zm5.998 6.51l1.082.644v9.461l1.399.832v-12.402l-.941-.56c-.216.704-.458 1.287-1.54.643v1.382zm4.18 10.07v1.878l1.348.802v-1.878l-1.348-.802zm3.646-5.503c0-.886.279-1.056.725-.791s.725.768.725 1.654v6.697c0 .886-.28 1.056-.725.791s-.725-.768-.725-1.654V531zm-1.4 5.74c0 1.985.751 3.565 2.125 4.383s2.124.13 2.124-1.854v-6.449c0-1.985-.75-3.565-2.124-4.383s-2.125-.13-2.125 1.854v6.449zm8.352 7.946l1.438.855-1.946-8.032 1.946-4.37-1.399-.832-1.833 4.314v-5.404l-1.399-.833v12.402l1.399.833v-3.809l.433-.877 1.361 5.753zm21.985 4.416c0 .992-.318 1.122-.84.811l-.548-.326v1.772l.471.28c.637.379.917.971.917 2.123v.974c0 1.098-.28 1.233-.726.968s-.725-.768-.725-1.654v-1.152l-1.324-.788v1.028c0 1.984.713 3.542 2.087 4.36s2.088.109 2.088-1.876v-.974c0-1.258-.28-2.346-.98-3.188.675.012.98-.639.98-1.968v-.319c0-1.984-.713-3.542-2.088-4.36s-2.087-.108-2.087 1.876v.673l1.324.788v-.797c0-.886.28-1.056.725-.791s.726.733.726 1.849v.691zm2.259-2.394v1.772l2.788 1.658-2.049 9.411 1.4.833 2.062-9.474v-1.701l-4.201-2.499zm5.137 13.58v1.878l1.349.803v-1.878l-1.349-.803zm5.137-4.421c0 3.579-2.775 2.531-2.775 6.18v1.524l4.048 2.408v-1.771l-2.648-1.576c-.013-.096-.013-.184-.013-.273 0-2.037 2.788-1.832 2.788-5.729 0-1.985-.713-3.543-2.087-4.361s-2.088-.108-2.088 1.876v1.205l1.324.788v-1.329c0-.886.28-1.056.725-.791s.726.733.726 1.849zm5.468 12.608l1.438.856-1.948-8.033 1.948-4.369-1.4-.833-1.833 4.313v-5.404l-1.401-.833v12.402l1.401.833v-3.809l.432-.877 1.363 5.754zm18.654 1.637l1.102.656v9.461l1.426.848v-12.402l-.959-.571c-.221.702-.467 1.282-1.569.626v1.382zm4.167 8.964c0 1.984.765 3.573 2.165 4.406s2.165.154 2.165-1.83v-2.268c0-1.825-.532-3.151-1.582-3.776-.635-.378-1.076-.25-1.322.312v-2.268c0-1.187.285-1.354.791-1.053.453.27.739.776.739 1.662v.443l1.348.802v-.319c0-1.984-.726-3.55-2.126-4.383-1.478-.879-2.178-.161-2.178 1.929v6.343zm2.165-2.043c.454.27.739.776.739 1.662v2.232c0 .886-.285 1.035-.739.766s-.739-.759-.739-1.645v-2.232c0-.886.285-1.053.739-.783zm3.065 6.253v1.878l1.374.817v-1.878l-1.374-.817zm2.34-.734v1.028c0 1.984.726 3.55 2.126 4.383s2.126.13 2.126-1.854v-2.764c0-1.825-.532-3.151-1.582-3.775-.57-.34-.985-.268-1.244.163l.117-2.89 2.475 1.473v-1.771l-3.758-2.237-.26 7.039 1.348.802v-.372c0-.886.286-1.053.739-.783s.739.776.739 1.662v2.729c0 .886-.285 1.035-.739.765s-.739-.759-.739-1.644v-1.152l-1.348-.802zm8.458 9.036l1.464.871-1.983-8.054 1.983-4.348-1.425-.848-1.867 4.293v-5.404l-1.426-.848v12.402l1.426.848v-3.809l.441-.872 1.387 5.769zm22.506 4.035c0 3.579-2.715 2.566-2.715 6.216v1.523l3.961 2.357v-1.772l-2.591-1.541c-.012-.096-.012-.185-.012-.273 0-2.038 2.727-1.868 2.727-5.766 0-1.984-.697-3.533-2.042-4.333s-2.043-.081-2.043 1.903v1.205l1.296.77v-1.329c0-.885.274-1.059.709-.8s.71.724.71 1.84zm3.481 1.876c0-.886.274-1.059.71-.8s.71.759.71 1.645v6.697c0 .886-.274 1.059-.71.8s-.71-.759-.71-1.645v-6.697zm-1.37 5.758c0 1.984.735 3.555 2.08 4.356s2.08.103 2.08-1.881v-6.449c0-1.984-.735-3.555-2.08-4.356s-2.08-.103-2.08 1.881v6.449zm5.051 4.103v1.878l1.32.786v-1.878l-1.32-.786zm2.223-9.201v1.772l2.728 1.623-2.005 9.437 1.37.815 2.017-9.501v-1.701l-4.11-2.445zm8.152 17.252l1.407.837-1.905-8.008 1.905-4.394-1.37-.815-1.793 4.337v-5.404l-1.37-.815v12.402l1.37.815v-3.809l.423-.882 1.333 5.736z" class="D"/><path d="M371.679 533.061v23.878m39.986-.089v23.878m38.875-.75v23.879" stroke="#99c9ed"/><g class="J"><rect width="260.424" height="7.462" rx="3.731" transform="matrix(.859406 .511293 0 1 340.023 553.031)"/><rect width="260.424" height="7.462" rx="3.731" transform="matrix(.859406 .511293 0 1 340.023 570.939)"/></g><g class="B Q"><use xlink:href="#K"/><use xlink:href="#K" x="10.899" y="26.76"/><use xlink:href="#L"/><use xlink:href="#M"/><use xlink:href="#N"/><use xlink:href="#K" x="55.332" y="23.907"/><use xlink:href="#O"/><use xlink:href="#K" x="77.13" y="43.634"/><use xlink:href="#O" x="22.636" y="47.261"/><path d="M450.813 531.812c0 1.765-1.04 2.324-2.074 1.709s-2.075-2.412-2.075-4.177 1.041-2.324 2.075-1.709 2.074 2.412 2.074 4.177z"/><use xlink:href="#M" x="77.129" y="59.405"/><use xlink:href="#O" x="55.332" y="35.172"/><use xlink:href="#O" x="66.231" y="36.024"/><path d="M494.408 525.081c0 1.765-1.04 2.323-2.074 1.708s-2.075-2.412-2.075-4.177 1.041-2.323 2.075-1.708 2.074 2.412 2.074 4.177z"/><use xlink:href="#K" x="154.259" y="90.648"/><use xlink:href="#O" x="98.927" y="45.338"/><path d="M527.943 579.953c0 1.765-1.041 2.323-2.075 1.708s-2.075-2.412-2.075-4.177 1.041-2.324 2.075-1.709 2.075 2.412 2.075 4.178z"/><use xlink:href="#K" x="187.794" y="97.081"/><use xlink:href="#P"/><path d="M361.968 475.575l7.545 4.489m2.934-1.633l9.642-37.633m-31.439 10.584l7.545 19.133m25.989-29.034l7.546 14.628m3.772 5.623l6.288 7.121m5.03 4.119l5.869 3.491m4.611 3.87l6.707 8.496m25.57 39.431l9.222-28.307m-31.439-5.186l9.222 26.889m3.773 4.498l5.868 2.928m15.51-28.509l7.126 9.871m3.773 2.808l6.707.611m4.611 2.18l5.869 5.744m4.61 4.433l6.707 9.059m37.727 12.307l6.707 9.059"/><path d="M548.99 562.829l14.465 73.685" stroke-dasharray="3 2"/></g><g stroke="#99c9ed" class="B"><use xlink:href="#O" x="-66.231" y="9.458"/><use xlink:href="#O" x="-55.332" y="26.08"/><path d="M372.846 512.884c0 1.765-1.041 2.324-2.075 1.709s-2.075-2.412-2.075-4.177 1.041-2.324 2.075-1.709 2.075 2.412 2.075 4.177z"/><use xlink:href="#O" x="-32.696" y="17.018"/><path d="M395.481 508.328c0 1.765-1.04 2.323-2.074 1.708s-2.075-2.412-2.075-4.177 1.04-2.323 2.075-1.708 2.074 2.412 2.074 4.177zm10.899 9.864c0 1.765-1.041 2.323-2.075 1.708s-2.074-2.412-2.074-4.177 1.04-2.324 2.074-1.708 2.075 2.411 2.075 4.177zm10.899 5.357c0 1.766-1.041 2.324-2.075 1.709s-2.075-2.412-2.075-4.177 1.041-2.324 2.075-1.709 2.075 2.412 2.075 4.177z"/><use xlink:href="#M" x="43.595" y="95.074"/><path d="M439.076 553.414c0 1.765-1.04 2.324-2.074 1.708s-2.075-2.412-2.075-4.177 1.041-2.323 2.075-1.708 2.074 2.412 2.074 4.177z"/><use xlink:href="#P" x="-99.766" y="-0.355"/><use xlink:href="#O" x="44.433" y="68.537"/><use xlink:href="#O" x="55.332" y="78.401"/><use xlink:href="#O" x="66.231" y="82.632"/><use xlink:href="#K" x="143.361" y="120.634"/><use xlink:href="#N" x="109.826" y="119.833"/><use xlink:href="#M" x="131.623" y="149.698"/><use xlink:href="#P" x="-21.798" y="46.031"/><use xlink:href="#L" x="165.158" y="111.073"/><use xlink:href="#O" x="132.462" y="123.162"/><path d="M338.913 475.237l7.545 9.558m4.611 5.559l6.707 10.749m4.611 4.996l6.288 4.304m3.772-.571l8.803-13.35m3.354.305l7.126 8.183m3.773 3.934l6.287 5.994m4.611 3.306l6.288 3.178m5.03 2.992l6.288 7.12m15.017 21.969l6.926 4.034m15.834-9.205l6.601 6.025m4.382 2.942l6.437 2.375m4.642 2.392l6.345 4.685m4.178 3.484l6.747 6.758m4.339 4.048l6.444 5.126m4.313 4.558l7.784 11.648m3.268 1.13l8.323-9.672m3.37.329l6.706 5.484m-96.086-42.196l8.803-9.406m-30.181-11.761l7.126 13.252"/><path d="M548.99 605.017l14.612 42.918" stroke-dasharray="3 3"/></g><path d="M536.348 547.216l-9.642 28.621m-11.737-49.225l10.061 48.228m-20.54-38.692l8.384-11.346m-173.961-95.009l8.383 14.525" class="Q B"/><path d="M305.45 606.891l-60.282-34.907 61.056-34.356 60.879 34.827-61.653 34.436z" fill="#eef7ff"/><path d="M305.32 606.755l-1.848 43.779-58.923-34.99.846-43.78 59.925 34.991z" fill="#b7d2ed"/><path d="M305.576 606.545l61.534-33.652-.807 41.706-62.643 35.853 1.916-43.907z" class="J"/><path d="M256.649 581.384s13.273 24.565 29.192 17.586-16.993-25.613-16.993-25.613l-12.199 8.027z" fill="#020a16"/><path d="M299.585 507.088c-1.88 10.687-5.96 18.491-11.534 27.687-1.835 3.021-3.801 5.707-3.266 9.224.735 4.84 2.205 9.435 2.673 14.382.51 5.412-8.109 5.338-8.62-.032-.839-8.832-4.818-15.485-.403-23.974 2.318-4.459 5.389-8.49 7.807-12.89 2.854-5.198 4.054-10.915 5.062-16.671.951-5.372 9.224-3.062 8.281 2.274z" class="H"/><path d="M301.69 507.324c-3.687 9.825-8.538 19.028-12.615 28.674-2.823 6.666-13.891 3.712-11.031-3.043 4.084-9.646 8.935-18.85 12.614-28.675 2.553-6.805 13.614-3.838 11.032 3.044z" fill="#0069b8"/><path d="M303.807 568.202c-9.748 4.245-21.781 12.239-26.889 21.776-2.983 5.565-2.649 11.275-2.421 17.251l1.18 31.419c.286 7.691-9.647 8.007-9.94.344-.429-11.451-3.088-23.291-3.518-34.742-.302-7.974 1.057-15.847 5.703-22.66 6.85-10.042 18.798-18.888 29.918-23.734 7.134-3.109 13.159 7.214 5.967 10.346z" class="P"/><path d="M229.748 614.12c8.966-9.439 14.655-22.442 24.682-31.012 6.213-5.309 12.904-8.232 20.854-5.915 9.579 2.793 17.516 3.331 26.355-2.432 6.599-4.303 12.521 6.125 5.973 10.397-8.259 5.385-17.459 7.4-27.143 5.796-3.29-.548-6.34-1.698-9.562-2.458-1.329-.311-1.213-.374-1.925-.283-2.896.372-5.513 2.873-7.544 4.7-9.255 8.339-14.513 16.975-23.026 25.923-5.409 5.691-15.828 2.15-10.441-3.528l1.777-1.188z" class="H"/><g fill="#004d88"><path d="M230.499 627.739l-.34-.716a.82.82 0 0 1 .406-1.094c.419-.191.918-.016 1.12.391l.339.716a.82.82 0 0 1-.405 1.094c-.419.199-.926.023-1.12-.391z"/><path d="M230.267 626.147l2.324-2.977a.85.85 0 0 1 1.179-.159c.368.272.439.79.153 1.153l-2.324 2.977a.85.85 0 0 1-1.179.158c-.368-.271-.439-.789-.153-1.152z"/></g><path d="M241.702 616.847c.356-1.974-.398-4.974-1.674-5.448l-6.157 2.363-.506-.175c-2.99.808-17.017 3.279-21.38 4.68-2.213.708-.452 3.462-.452 3.462 4.487 4.871 11.512 6.39 11.512 6.39 3.412.137 3.558-3.04 8.398-4.66.815-.278 2.169-.175 1.914.471l-2.933 3.414 1.423.69s4.659-4.535 7.964-7.451c1.368-1.217 2.001-2.608 1.891-3.736z" class="D"/><path d="M239.613 610.542l-3.79.194-15.309 5.761c-2.902 1.158 1.956 10.495 16.758 1.994 8.869-3.705 2.341-7.949 2.341-7.949z" class="H"/><path d="M291.119 551.951c-21.088 12.792-36.329 19.538-34.471 29.44 0 0 9.921-6.882 18-2.171 7.986 4.66 6.615 8.157 7.249 11.01 1.715 7.75 1.752 9.868 3.944 8.747 7.813-5.65 36.986-6.772 37.877-24.647.754-15.151-1.332-16.978-1.332-16.978s-20.161 9.211-31.267-5.401z" class="R"/><g fill="#004d88"><path d="M274.114 649.941l-.719-.376a.82.82 0 0 1-.34-1.126c.222-.405.741-.559 1.146-.341l.719.376a.82.82 0 0 1 .34 1.126c-.222.404-.741.551-1.146.341z"/><path d="M272.941 648.796l.063-3.762c.007-.453.394-.828.86-.821s.84.38.833.84l-.063 3.762c-.007.453-.394.828-.86.821-.459-.006-.84-.387-.833-.84z"/></g><path d="M276.625 634.568c-.909-1.786-3.343-3.735-4.676-3.359l-3.599 5.523-.527.164c-1.955 2.412-11.923 12.667-14.638 16.365-1.38 1.876 1.734 3.03 1.734 3.03 6.633 1.237 13.294-1.697 13.294-1.697 2.879-1.904 1.066-4.529 4.04-8.682.5-.702 1.673-1.417 1.849-.757l-.327 4.456 1.583-.289s1.054-6.367 1.98-10.655c.388-1.782.055-3.265-.713-4.099z" class="D"/><path d="M271.053 630.762l-2.987 2.393-9.021 13.631c-1.665 2.638 7.973 7.225 14.911-8.301 5.014-8.196-2.903-7.723-2.903-7.723z" class="P"/><path d="M339.014 522.576c.968 7.207.805 13.86.539 21.076-.24 6.559 1.552 14.2-.485 20.632-1.318 4.154-4.783 5.982-8.942 6.457-7.082.811-14.238.439-21.349 1.298-5.503.668-5.309-7.817.143-8.475 6.121-.744 12.18-.85 18.321-1.094 3.142-.123 3.504.501 3.848-2.047.806-6.085-.42-12.44-.065-18.571.335-5.822.434-11.232-.357-17.051-.726-5.344 7.621-7.62 8.347-2.225zm-54.34 43.786c-2.704.407-5.241-1.432-5.635-4.083l-1.535-10.398c-.394-2.651 1.506-5.149 4.21-5.549 2.704-.407 5.242 1.433 5.635 4.084l1.535 10.398c.394 2.651-1.506 5.149-4.21 5.548z" class="H"/><path d="M311.854 573.398l.009-.943-1.249.462-.256-.6-30.802-17.849c-.369-.214-1.03-.195-1.471.045l-13.51 7.46.003-.208-2.491.952-.016 1.007.014.001c.027.096.105.19.233.259l32.052 18.576c.37.214 1.03.195 1.472-.045l15.653-8.639c.232-.144.349-.313.359-.478z" fill="#a8c4e5"/><path d="M294.366 581.551l-32.053-18.576c-.37-.214-.32-.591.121-.831l15.653-8.639c.435-.241 1.095-.26 1.472-.045l32.052 18.576c.37.214.321.591-.121.831l-15.653 8.639c-.442.24-1.102.259-1.471.045z" fill="#333"/><path d="M296.77 569.779l-7.759-4.495c-.093-.051-.077-.143.032-.198l3.787-2.094c.108-.055.266-.062.351-.011l7.759 4.495c.093.051.077.143-.032.198l-3.786 2.094c-.102.056-.259.063-.352.011z" fill="#000"/><path d="M293.882 560.942c-.115-.839-.766-1.828-1.455-2.223l-31.83-18.159c-.284-.163-.528-.192-.708-.115l-.008.006c-.065.03-.123.068-.167.122l-1.079 1.089.969-.076 2.735 19.368c.115.838.766 1.827 1.455 2.222l30.097 17.172.964 1.089.118.271c.615.135 2.102-.873 2.102-.873l-3.193-19.893z" class="C"/><path d="M294.457 582.488l-31.83-18.159c-.682-.394-1.333-1.383-1.455-2.222l-2.76-19.58c-.115-.838.343-1.193 1.025-.806l31.83 18.159c.682.394 1.333 1.383 1.455 2.223l2.76 19.579c.123.84-.335 1.201-1.025.806z" fill="#fcfdfe"/><path d="M294.911 567.21l.859 5.408c1.29.822 3.066 1.159 4.762.778l11.007-1.789c2.683-.6 2.485-3.072 1.64-5.143s-3.734-3.275-6.417-2.675l-9.296 2.077c-1.057.237-1.933.719-2.555 1.344z" class="E H"/><path d="M277.7 563.41c.148 1.043-.817 1.264-2.153.5s-2.538-2.228-2.686-3.265c-.148-1.043.817-1.264 2.153-.5s2.539 2.228 2.686 3.265z" class="G"/><g class="D"><path d="M294.796 511.001l-3.939 10.464.262 30.479s9.481 17.899 31.267 5.394l10.192-32.745-37.782-13.592z"/><path d="M332.497 529.426c.935-.548 4.221.323 4.221.323.735-5.428 6.298-6.941-1.468-15.787-1.175-1.34-19.557-10.275-29.455-12.121-4.799-.895-6.001-2.359-8.018 2.022-1.176 2.564-5.954 11.684-5.954 11.684-.639 9.982 4.09-3.089 4.716 2.428-.02-.131-.053-.271-.072-.403l1.892 16.539.889 8.214c0 .022.007.051-.001.058l16.995 13.439 9.325-15.948 6.93-10.448z"/><path d="M294.721 511.254s-7.949 5.197-8.568 14.836 7.316 15.661 7.316 15.661l1.252-30.497z"/></g><path d="M291.094 538.76l5.792.215-5.784 3.625-.008-3.84zm23.055 22.128l2.881-12.794-7.87-4.332s12.999 5.646 16.757-12.016c0 0 3.552-6.999 11.507-.448l-15.045 26.046c-2.753 1.599-5.498 2.765-8.23 3.544z" fill="#0069b8"/><path d="M337.796 515.89c5.033 13.337 3.5 25.992 2.92 39.928-.302 7.252-11.794 7.237-11.491-.044.541-12.944 2.12-24.535-2.556-36.924-2.564-6.788 8.59-9.681 11.127-2.96z" class="D"/><path d="M307.367 502.252s-10.008 8.668-2.559 15.871 22.319-6.607 22.319-6.607c-6.791-4.903-13.419-8.386-19.76-9.264z" class="H"/><path d="M309.269 521.549c-1.926-.168-3.743-.891-5.317-2.413-2.081-2.015-3.154-4.335-3.183-6.889-.074-5.872 5.489-10.825 5.721-11.029.517-.456 1.333-.37 1.819.187s.457 1.381-.06 1.836c-.05.046-4.979 4.439-4.908 9.157.027 1.815.782 3.418 2.32 4.908 5.357 5.186 16.656-3.176 20.554-6.838.503-.471 1.32-.415 1.82.129s.5 1.37-.002 1.841c-.525.491-10.578 9.824-18.764 9.111z" class="D"/><path d="M295.588 486.591c-1.162 3.005-1.539 6.635.39 9.185.358.466.774.886 1.176 1.312 1.042 1.133 1.946 2.385 2.683 3.731.126.228.258.471.47.634.489.369 1.239.137 1.683-.287.445-.432.698-1.011 1.051-1.516 1.044-1.509 21.819 10.822 22.891 9.33 1.454-2.016-3.157-25.036-3.64-27.438-.622-3.066-16.113.818-18.59-1.121-.489-.383-1.021-.698-1.451-1.133-.628-.634-1.172-1.978-2.248-1.536-.859.353-1.186 1.866-1.499 2.599-.917 2.099-2.091 4.097-2.916 6.24z" fill="#000"/><g class="H"><path d="M311.114 511.175l-3.756-15.752 9.953 3.277 3.058 12.865c.668 2.092-6.455 7.668-9.255-.39z"/><path d="M310.485 501.941l-2.77.048c-4.269.068-7.793-3.295-7.832-7.476l-.129-13.806c-.039-4.181 3.419-7.66 7.689-7.728l2.77-.048c4.269-.069 7.793 3.294 7.832 7.476l.129 13.805c.031 4.181-3.427 7.659-7.689 7.729z"/></g><path d="M312.936 484.36c-3.12-3.946-9.185.597-12.371-.668-3.449-1.376-2.179-4.861.256-7.655 1.309-1.501 2.951-2.754 6.198-3.897 9.099-3.19 18.052.694 18.145 10.693 0 0 .843 13.612-7.345 15.496l-.836-1.921s4.803-4.983-.111-8.013c-1.143-.71-1.2-.729-1.051-2.387.15-1.686-1.838-.32-2.885-1.648z" fill="#000"/><path d="M319.798 496.638c-1.46 1.141-3.089.717-3.635-.961-.546-1.671.195-3.958 1.656-5.099s3.089-.717 3.635.961c.546 1.671-.195 3.951-1.656 5.099z" class="P"/><path d="M298.182 491.569s.248-4.587 11.607-10.408l.514-.27-11.061-2.644c.007.001-4.506 4.815-1.06 13.322zm14.282-7.713s8.73 11.707 7.736 19.265c-.821 6.242-7.85 10.112-9.32 19.543-.305 1.96 2.267 3.046 3.548 1.5 1.611-1.941 3.712-4.06 6.213-5.674 6.12-3.932 10.85-7.956 10.903-11.15.147-8.896-6.5-26.362-6.5-26.362l-13.791-1.57 1.211 4.448z" fill="#000"/><path d="M308.189 501.978l5.401-1.261s-2.303 2.605-4.626 3.853l-.775-2.592z" class="P"/><path d="M36.203 245.645c-.063 1.398-.781 2.604-2.159 3.62-1.461 1.035-3.207 1.556-5.239 1.556h-.032c-2.032 0-3.779-.521-5.239-1.556-1.397-1.016-2.115-2.222-2.159-3.62v-4.731c-.933-.59-1.81-1.302-2.636-2.127-2.75-2.75-4.128-6.097-4.128-10.034 0-3.919 1.378-7.253 4.128-10.003 2.775-2.775 6.116-4.159 10.034-4.159s7.259 1.384 10.034 4.159c2.75 2.75 4.128 6.084 4.128 10.003 0 3.937-1.378 7.284-4.128 10.034-.826.825-1.696 1.524-2.604 2.095v4.763z" class="E J"/><path d="M28.804 257.267c1.524 0 2.877-.286 4.064-.857.425-.21.813-.445 1.175-.699 1.442-1.06 2.159-2.331 2.159-3.81v-6.256c-.063 1.397-.781 2.604-2.159 3.62-1.461 1.035-3.207 1.556-5.239 1.556h-.032c-2.032 0-3.779-.521-5.239-1.556-1.397-1.016-2.115-2.223-2.159-3.62v6.256c0 1.479.718 2.75 2.159 3.81.362.254.749.489 1.175.699 1.188.571 2.54.857 4.065.857h.032z" fill="#aad5ff"/><path d="M28.773 257.267c-1.524 0-2.877-.286-4.064-.857v.73c0 .826.4 1.524 1.207 2.096.781.571 1.746.857 2.89.857s2.096-.286 2.858-.857c.807-.572 1.207-1.27 1.207-2.096v-.73c-1.188.571-2.54.857-4.064.857h-.032zM9.72 249.106a.96.96 0 0 1-.673-.279c-.375-.375-.375-.978 0-1.346 1.937-1.937 3.645-3.423 5.081-4.427.432-.298 1.022-.197 1.327.235.298.432.197 1.023-.235 1.328-1.346.939-2.966 2.356-4.827 4.21a.96.96 0 0 1-.673.279zm42.518-5.652c-.07 0-.133-.006-.203-.025-1.257-.273-2.712-.902-4.318-1.861-1.537-.902-2.782-1.816-3.677-2.718-.375-.375-.375-.978 0-1.346s.978-.375 1.346 0c.788.787 1.892 1.6 3.302 2.426 1.435.857 2.699 1.41 3.753 1.638.514.115.838.623.73 1.137a.96.96 0 0 1-.934.749zM6.577 230.213c-1.74 0-3.277-.159-4.572-.47a.953.953 0 0 1 .445-1.854c1.149.279 2.54.419 4.128.419 1.613 0 3.01-.14 4.16-.419.514-.127 1.029.19 1.149.705a.95.95 0 0 1-.705 1.149c-1.296.311-2.845.47-4.604.47zm47.503-2.921h-8.129a.953.953 0 1 1 0-1.905h8.129a.953.953 0 1 1 0 1.905zm-40.644-10.606c-.292 0-.584-.133-.768-.394l-1.569-1.968c-.705-.705-1.48-1.213-2.299-1.505-.495-.178-.756-.724-.578-1.22s.724-.755 1.219-.578c1.08.388 2.096 1.048 3.023 1.969.476.495 1.042 1.207 1.747 2.178.311.426.216 1.023-.21 1.334a.94.94 0 0 1-.565.184zm27.562-.635a.95.95 0 0 1-.534-1.74l3.969-2.528c1.581-.984 2.75-1.797 3.474-2.419.4-.343.997-.299 1.346.101.343.401.298.998-.102 1.347-.807.698-2.02 1.543-3.709 2.597l-3.906 2.49c-.165.101-.356.152-.54.152zm-12.543-5.652a.95.95 0 0 1-.953-.953v-7.493a.953.953 0 1 1 1.905 0v7.493a.95.95 0 0 1-.953.953zm-3.486 35.865c.041.456.421.8.87.8h.105a.87.87 0 0 0 .794-.946l-.292-2.658-.794-5.666-.73-4.843-.578-4.434a2.44 2.44 0 0 1 .012-.555 1.76 1.76 0 0 1 .245-.613c.082 0 .169-.006.251-.029.193-.047.321-.059.526.239l.859 1.157a2.52 2.52 0 0 0 1.262.923c1.244.444 2.366.087 3.061-.976a9.2 9.2 0 0 1 1.443-1.653c.245-.228.426-.228.631-.163.023.011.053.017.076.023.099.023.216.07.31.28.274.725.368 1.432.269 2.156l-.584 3.546-.707 4.498-.462 3.014a45.32 45.32 0 0 1-1.174 5.298c-.134.462.134.947.602 1.081a.88.88 0 0 0 1.081-.602c.508-1.799.923-3.651 1.215-5.491l.473-3.061.695-4.439.59-3.605c.134-1.022.012-2.038-.386-3.066-.304-.696-.824-1.145-1.507-1.315-.824-.257-1.647-.064-2.307.543a10.88 10.88 0 0 0-1.723 1.981c-.228.344-.456.496-1.034.292a.83.83 0 0 1-.438-.327l-.812-1.087c-.549-.812-1.344-1.151-2.249-.975-.508-.024-.964.187-1.314.619a3.51 3.51 0 0 0-.631 1.443 4.12 4.12 0 0 0-.035 1.016l.59 4.527.73 4.861.783 5.619.286 2.588z" fill="#69a5ed"/><defs ><path id="E" d="M417.931 572.639l4.484 6.836-4.484 2.007v-2.771-.677l-.583-.335c-2.468-1.419-3.886-1.984-4.843-1.755a1.59 1.59 0 0 0-.455.187c.288-.758.7-1.29 1.203-1.624 1.02-.675 2.462-.56 4.149.293l.529.267v-.617-1.811z"/><path id="F" d="M367.096 550.829l-.17-.394-.305-.181-1.146-.683c-.477-.283-.977-1.119-.977-1.959v-4.771c0-.848.498-1.082.977-.797l8.303 4.94c.471.28.976 1.113.976 1.959v4.771c0 .838-.506 1.077-.976.797l-3.238-1.926-.305-.182-.17.194-.75.854-.731.831-1.091-2.532-.397-.921z"/><path id="G" d="M345.446 527.727c.11-.388.662-.059.772.459l.923 4.367c.049.23.206.463.386.57l3.097 1.842c.374.223.544.868.258.977l-2.601.992c-.12.046-.171.205-.128.407l.969 4.584c.107.506-.341.576-.643.101l-2.389-3.754c-.149-.234-.367-.363-.515-.306l-2.39.911c-.302.115-.75-.488-.643-.867l.969-3.431c.043-.151-.007-.37-.128-.56l-2.6-4.085c-.287-.451-.117-.893.257-.67l3.097 1.842c.18.107.338.062.386-.11l.923-3.269z"/><path id="H" d="M177.078 407.38l3.728 2.218v2.004l-3.728-2.218z"/><path id="I" d="M264.631 454.013l-4.037-2.402v13.025l7.456 4.436v-8.43l-3.419-6.629zm1.928 6.572l-2.546-4.936-1.928-1.147v9.017l4.474 2.662v-5.596z"/><path id="J" d="M310.945 416.014c0-.438.305-.612.682-.388l10.951 6.516c.89.529 1.612 1.801 1.612 2.836h0c0 1.036-.722 1.449-1.612.92l-9.087-5.407c-1.406-.836-2.546-2.841-2.546-4.477h0z"/><path id="K" d="M351.048 448.803c0 1.765-1.041 2.323-2.075 1.708s-2.075-2.412-2.075-4.177 1.041-2.324 2.075-1.708 2.075 2.412 2.075 4.177z"/><path id="L" d="M373.684 482.546c0 1.765-1.041 2.323-2.075 1.708s-2.075-2.412-2.075-4.177 1.041-2.324 2.075-1.708 2.075 2.411 2.075 4.177z"/><path id="M" d="M384.583 439.465c0 1.765-1.041 2.324-2.075 1.708s-2.075-2.412-2.075-4.177 1.041-2.323 2.075-1.708 2.075 2.412 2.075 4.177z"/><path id="N" d="M395.481 460.593c0 1.765-1.041 2.324-2.075 1.709s-2.074-2.412-2.074-4.177 1.04-2.324 2.074-1.709 2.075 2.412 2.075 4.177z"/><path id="O" d="M417.279 479.194c0 1.765-1.041 2.323-2.075 1.708s-2.075-2.412-2.075-4.177 1.041-2.323 2.075-1.708 2.075 2.412 2.075 4.177z"/><path id="P" d="M549.741 560.253c0 1.765-1.041 2.324-2.075 1.709s-2.075-2.412-2.075-4.178 1.041-2.323 2.075-1.708 2.075 2.412 2.075 4.177z"/></defs></svg>