<svg xmlns="http://www.w3.org/2000/svg" xmlns:xlink="http://www.w3.org/1999/xlink" width="299" height="352" fill="none" xmlns:v="https://vecta.io/nano"><g clip-path="url(#A)"><g fill="#cbe5ff"><rect width="273.61" height="192.923" rx="6" transform="matrix(.859406 -.511293 0 1 30 158.984)"/><path d="M267.518 24.03l-3.604-2.144v6.565l3.604 2.144zM35.07 344.802l-3.658-2.176v6.565l3.658 2.176z"/></g><rect width="273.61" height="192.923" rx="6" transform="matrix(.859406 -.511293 0 1 33.5117 161.081)" fill="#fff"/><g fill="#cbe5ff"><rect width="66.45" height="76.732" rx="3.531" transform="matrix(.859406 -.511293 0 1 57.6584 197.227)"/><rect width="66.587" height="16.776" rx="3.531" transform="matrix(.859406 -.511293 0 1 57.4421 281.052)"/><rect width="140.653" height="6.99" rx="3.495" transform="matrix(.859406 -.511293 0 1 124.283 157.59)"/><rect width="140.653" height="6.99" rx="3.495" transform="matrix(.859406 -.511293 0 1 124.283 174.215)"/><rect width="140.653" height="6.99" rx="3.495" transform="matrix(.859406 -.511293 0 1 124.283 190.84)"/><rect width="140.653" height="6.99" rx="3.495" transform="matrix(.859406 -.511293 0 1 124.283 234.322)"/><rect width="140.653" height="6.99" rx="3.495" transform="matrix(.859406 -.511293 0 1 124.283 250.947)"/><rect width="118.503" height="6.99" rx="3.495" transform="matrix(.859406 -.511293 0 1 124.283 267.573)"/><rect width="27.688" height="6.99" rx="3.495" transform="matrix(.859406 -.511293 0 1 57.6588 165.255)"/><rect width="27.688" height="6.99" rx="3.495" transform="matrix(.859406 -.511293 0 1 89.067 146.569)"/><rect width="27.688" height="6.99" rx="3.495" transform="matrix(.859406 -.511293 0 1 120.477 127.882)"/><rect width="27.688" height="6.99" rx="3.495" transform="matrix(.859406 -.511293 0 1 151.886 109.195)"/><rect width="12.183" height="6.99" rx="3.495" transform="matrix(.859406 -.511293 0 1 233.741 60.4968)"/><rect width="12.183" height="6.99" rx="3.495" transform="matrix(.859406 -.511293 0 1 217.561 70.1234)"/><rect width="101.89" height="6.99" rx="3.495" transform="matrix(.859406 -.511293 0 1 124.283 207.466)"/></g><path d="M99.797 277.218c.225.771 1.298.253 1.624-.785l1.097-3.489c.256-.815 1.031-1.383 1.447-1.062l3.615 2.797c.345.267.962-.077 1.307-.729l.565-1.065c.284-.534.285-1.094.002-1.313l-4.017-3.107c-.356-.276-.25-1.067.221-1.645l2.713-3.328c.632-.775.557-1.812-.124-1.731l-10.9 1.295c-.668.08-1.34 1.17-1.141 1.851l3.591 12.311z" fill="#0078d3"/><path d="M93.504 260.043c-11.14-22.499-7.994-68.914 18.463-59.625 21.166 7.431 71.944-117.576 72.408-96.824 2.785 20.998-37.179 170.433-16.013 104.446 26.457-82.483 15.408 15.611 41.808-11.556 19.76-20.334 36.536-21.033 48.419-5.655" stroke="#0078d3" stroke-width="3" stroke-linecap="round"/><g fill="#005595"><rect width="240.329" height="41.942" rx="4" transform="matrix(.866025 -.5 0 1 87.4492 301.827)"/><path d="M92.076 337.588l-3.658-2.176v6.565l3.658 2.176zm206.06-152.03l-3.658-2.176v6.565l3.658 2.176z"/></g><rect width="240.317" height="41.94" rx="4" transform="matrix(.866025 -.5 0 1 90.9714 303.922)" fill="#0078d3"/><g fill="#fff"><path d="M126.365 312.663c0 1.495-.213 2.724-.638 3.688s-1.075 1.698-1.957 2.207c-.855.494-1.501.496-1.937.006s-.649-1.461-.649-2.909c0-1.511.211-2.745.634-3.703a4.63 4.63 0 0 1 1.952-2.204c.855-.494 1.5-.492 1.936.006s.659 1.465.659 2.909zm-3.625 2.093c0 1.05.078 1.758.234 2.125.159.361.424.434.796.22.365-.211.628-.594.79-1.148s.244-1.35.244-2.388c0-1.05-.083-1.755-.249-2.116-.162-.367-.424-.446-.785-.237-.369.212-.632.595-.791 1.147s-.239 1.347-.239 2.397zm4.594.79c0-.327.076-.619.228-.875a1.79 1.79 0 0 1 .664-.635c.28-.162.497-.201.649-.117s.233.283.233.603c0 .308-.078.597-.233.866a1.75 1.75 0 0 1-.649.638c-.284.164-.504.205-.659.123s-.233-.286-.233-.603zm5.48-7.794c.716-.414 1.286-.51 1.708-.29s.639.732.639 1.54c0 .956-.255 1.839-.765 2.649s-1.241 1.488-2.19 2.037c-.825.476-1.491.706-1.998.691v-1.563c.267.009.578-.036.933-.135s.691-.247 1.009-.43c.956-.553 1.434-1.281 1.434-2.187 0-.862-.495-1.008-1.485-.436-.179.104-.377.239-.593.407l-.527.433-.624-.026.279-4.522 4.02-2.321v1.533l-2.646 1.528-.137 1.759.177-.143c.207-.174.462-.348.766-.524zm4.791-.641l-1.825-2.148 1.754-1.013 1.1 1.449 1.11-2.725 1.754-1.013-1.845 4.267 1.931 2.228-1.759 1.015-1.191-1.554-1.197 2.933-1.754 1.013 1.922-4.452zm17.933-7.943l-.855.494v1.53l-.627.362v-1.53l-2.804 1.619v-.66l2.737-6.083.694-.401v4.476l.855-.494v.687zm-1.482.169v-2.213l.039-1.493-.031.018-.355.929-1.802 4 2.149-1.241zm2.247.437a1.11 1.11 0 0 1 .119-.528c.081-.154.197-.273.347-.36s.27-.103.355-.045.13.181.13.384c0 .198-.044.374-.13.531a.95.95 0 0 1-.355.364c-.134.077-.246.095-.336.052s-.13-.18-.13-.398zm0-4.02c0-.41.155-.705.466-.884.323-.186.485-.075.485.335a1.08 1.08 0 0 1-.13.53c-.087.157-.206.278-.355.365-.134.077-.246.094-.336.052s-.13-.18-.13-.398zm5.521-3.775c0 .425-.104.833-.312 1.223s-.497.737-.875 1.047v.036c.462-.2.805-.228 1.029-.084s.335.438.335.881c0 .634-.19 1.233-.572 1.796s-.922 1.043-1.624 1.448c-.305.176-.585.31-.84.403a2.28 2.28 0 0 1-.737.148v-.719c.249-.002.515-.046.796-.132.284-.092.552-.21.804-.356.997-.575 1.495-1.313 1.495-2.215 0-.807-.55-.894-1.648-.259l-.568.328v-.651l.576-.333a3.25 3.25 0 0 0 1.068-.958c.263-.383.394-.777.394-1.184 0-.325-.097-.524-.291-.597s-.454-.015-.785.176a3.93 3.93 0 0 0-.714.53c-.223.208-.478.501-.765.879l-.331-.319a6.17 6.17 0 0 1 .816-.976c.311-.304.636-.554.978-.752.56-.323.995-.425 1.305-.307s.466.431.466.947zm4.838 2.297l-3.789 2.188v-.651l1.518-2.639.914-1.684a5.78 5.78 0 0 0 .332-.865 2.86 2.86 0 0 0 .11-.77c0-.355-.093-.582-.28-.681s-.446-.057-.777.135a3.33 3.33 0 0 0-.682.53 6.28 6.28 0 0 0-.714.908l-.347-.314c.531-.816 1.11-1.405 1.735-1.766.542-.313.966-.397 1.274-.253s.461.482.461 1.022c0 .422-.102.899-.307 1.43s-.589 1.275-1.152 2.231l-1.261 2.153v.037l2.965-1.712v.701zm11.648-6.725l-.639.369v-4.744l.031-1.139-.185.308-.938 1.429-.347-.318 1.526-2.243.552-.318v6.656zm5.985-3.456l-3.789 2.188v-.651l1.518-2.638.915-1.685a5.88 5.88 0 0 0 .331-.865c.074-.261.11-.518.11-.77 0-.355-.093-.582-.28-.68s-.445-.057-.776.134a3.28 3.28 0 0 0-.683.531c-.212.214-.45.516-.713.908l-.347-.314c.531-.817 1.109-1.406 1.735-1.767.541-.313.966-.397 1.273-.253s.462.482.462 1.023c0 .421-.103.898-.308 1.429s-.589 1.275-1.151 2.231l-1.262 2.154v.036l2.965-1.712v.701zm1.037-1.081c0-.203.04-.379.118-.528s.198-.273.347-.36.271-.103.355-.045.13.181.13.384a1.07 1.07 0 0 1-.13.531c-.086.156-.205.278-.355.364-.134.078-.245.095-.335.053-.086-.048-.13-.18-.13-.399zm0-4.02c0-.41.155-.704.465-.884.324-.186.485-.075.485.335 0 .197-.043.374-.13.531s-.205.277-.355.364c-.134.077-.245.095-.335.052s-.13-.18-.13-.398zm5.769-2.165c0 1.15-.158 2.1-.473 2.85s-.793 1.309-1.44 1.682c-.62.359-1.092.341-1.415-.052s-.485-1.156-.485-2.279c0-1.159.156-2.11.469-2.852s.79-1.299 1.431-1.669c.626-.361 1.101-.342 1.424.057s.489 1.152.489 2.263zm-3.151 1.819c0 .968.099 1.617.296 1.946s.511.365.942.116c.437-.252.752-.657.947-1.215s.296-1.323.296-2.279-.099-1.599-.296-1.928-.51-.375-.947-.123c-.431.249-.745.65-.942 1.204s-.296 1.31-.296 2.279zm7.524-6.097c0 .425-.104.833-.312 1.223s-.497.737-.875 1.047v.036c.462-.2.806-.228 1.029-.084s.335.438.335.881c0 .634-.19 1.233-.572 1.796s-.922 1.043-1.624 1.448c-.305.176-.585.311-.84.403a2.28 2.28 0 0 1-.737.148v-.719c.249-.002.515-.046.796-.132a4.18 4.18 0 0 0 .805-.355c.996-.576 1.494-1.314 1.494-2.216 0-.807-.549-.893-1.648-.259l-.568.328v-.651l.576-.333a3.25 3.25 0 0 0 1.068-.958c.263-.383.394-.777.394-1.184 0-.325-.097-.524-.291-.596s-.454-.016-.785.175c-.252.146-.49.322-.714.53s-.478.501-.765.879l-.331-.319a6.17 6.17 0 0 1 .816-.976c.311-.304.637-.554.978-.752.56-.323.995-.425 1.305-.307s.466.431.466.947z"/></g><path d="M174.232 282.202l-3.551 7.171" stroke="#fff" stroke-width=".666"/><g fill="#fff"><path d="M106.124 322.286c.685.132.685 1.294 0 2.217l-7.241 9.755c-.767 1.033-1.793.991-1.793-.073v-11.149c0-1.064 1.027-2.291 1.793-2.144l7.241 1.394zm184.279-123.419c0 .386.236.564.526.397l1.808-1.044-.642 1.225c-.205.392-.205.836 0 .991s.538-.037.743-.429l1.486-2.839c.205-.392.205-.835 0-.99l-1.486-1.123c-.205-.155-.537.037-.743.429s-.205.835 0 .99l.537.406-1.703.983c-.29.167-.526.617-.526 1.004zm-3.369-2.573v9.105l4.202-2.426c.29-.168.526-.617.526-1.004s-.236-.564-.526-.397l-3.151 1.82v-6.303l1.358-.784.561.424c.205.155.538-.037.743-.429s.205-.835 0-.99l-.869-.657-2.844 1.641zM102.527 306.672l54.1-31.235v1.401l-54.1 31.235z"/><path d="M222.282 237.531l65.17-37.626v1.401l-65.17 37.626v-1.401zm-38.868 22.441l12.606-7.278v1.401l-12.606 7.278zm22.06-12.737l11.555-6.672v1.401l-11.555 6.672z"/><use xlink:href="#B"/><path d="M162.404 272.102l2.626-1.516v1.401l-2.626 1.516zm4.203-2.426l2.626-1.516v1.401l-2.626 1.516zm4.201-2.426l2.626-1.516v1.401l-2.626 1.516zm4.202-2.426l2.626-1.516v1.401l-2.626 1.516zm4.202-2.426l2.626-1.516v1.401l-2.626 1.516z"/><ellipse rx="1.819" ry="2.101" transform="matrix(.866025 -.5 0 1 247.494 223.676)"/><ellipse rx="1.819" ry="2.101" transform="matrix(.866025 -.5 0 1 252.221 220.946)"/><ellipse rx="1.819" ry="2.101" transform="matrix(.866025 -.5 0 1 262.726 214.881)"/><path fill-rule="evenodd" d="M219.873 235.108l-2.843 1.642v9.105l5.252-3.033v-5.893l-2.409-1.821zm1.358 3.008l-1.793-1.356-1.358.784v6.303l3.151-1.819v-3.912z"/><path d="M95.173 311.616c0 .387.235.565.525.397l1.808-1.044-.642 1.226c-.205.392-.205.836 0 .991s.538-.037.743-.429l1.486-2.839c.205-.392.205-.835 0-.99l-1.486-1.123c-.205-.155-.538.037-.743.428s-.205.836 0 .991l.536.405-1.703.984c-.29.167-.525.617-.525 1.003zm2.934-5.51c0-.387.235-.837.525-1.004l1.794-1.035 2.408 1.821v5.892l-4.202 2.426c-.29.168-.525-.01-.525-.397s.235-.836.525-1.003l3.152-1.82v-3.911l-1.794-1.356-1.358.784c-.29.167-.525-.011-.525-.397z"/><ellipse rx="5.458" ry="6.303" transform="matrix(.866025 -.5 0 1 200.747 250.348)"/></g><path d="M289.106 217.016c.083.029.087.172.007.301l-3.744 6.035c-.112.18-.289.191-.289.018v-2.328c0-.112-.082-.154-.179-.096-2.891 1.749-3.287 2.558-3.965 4.516-.082.235-.306.299-.289.079.262-3.262 2.003-5.99 4.273-7.572.09-.062.16-.19.16-.294v-1.633c0-.168.168-.358.281-.319l3.745 1.293z" stroke="#fff" stroke-width="1.332"/></g><defs><clipPath id="A"><path fill="#fff" d="M0 0h299v352H0z"/></clipPath><path id="B" d="M158.203 274.528l2.626-1.516v1.401l-2.626 1.516z"/></defs></svg>