<svg xmlns="http://www.w3.org/2000/svg" width="176" height="186" fill="none" xmlns:v="https://vecta.io/nano"><circle cx="88" cy="92.844" r="87.817" fill="#f5fafe"/><g fill="#cbe5ff"><path d="M26.802 4.802l5.156-3.067v9.393l-5.156 3.067zm117.21 169.951l5.156-3.067v9.393l-5.156 3.067z"/><rect width="137.707" height="114.011" rx="4" transform="matrix(.866025 .5 0 1 30.8711 0)"/></g><rect width="137.694" height="114" rx="4" transform="matrix(.866025 .5 0 1 25.8711 3.00146)" fill="#fff"/><g fill="#cbe5ff"><rect width="97.869" height="3.965" rx="1.983" transform="matrix(.866025 .5 0 1 49.5884 42.2594)"/><rect width="46.359" height="3.965" rx="1.983" transform="matrix(.866025 .5 0 1 49.5884 54.1556)"/><rect width="18.887" height="3.965" rx="1.983" transform="matrix(.866025 .5 0 1 37.6926 23.4954)"/><rect width="24.323" height="3.965" rx="1.983" transform="matrix(.866025 .5 0 1 37.6926 59.1836)"/></g><g fill="#0078d3"><rect width="63.529" height="3.965" rx="1.983" transform="matrix(.866025 .5 0 1 49.5884 89.8436)"/><rect width="52.683" height="3.965" rx="1.983" transform="matrix(.866025 .5 0 1 49.772 101.846)"/><rect width="18.887" height="3.965" rx="1.983" transform="matrix(.866025 .5 0 1 37.6926 71.0796)"/><rect width="24.323" height="3.965" rx="1.983" transform="matrix(.866025 .5 0 1 37.6926 106.768)"/></g></svg>