<svg xmlns="http://www.w3.org/2000/svg" xmlns:xlink="http://www.w3.org/1999/xlink" width="177" height="186" fill="none" xmlns:v="https://vecta.io/nano"><circle cx="88.5" cy="91.844" r="87.817" fill="#f5fafe"/><g fill="#cbe5ff"><path d="M27.302 4.802l5.156-3.067v9.393l-5.156 3.067zm117.21 169.951l5.156-3.067v9.393l-5.156 3.067z"/><rect width="137.707" height="114.011" rx="4" transform="matrix(.866025 .5 0 1 31.3711 0)"/></g><rect width="137.694" height="114" rx="4" transform="matrix(.866025 .5 0 1 26.3711 3.00146)" fill="#fff"/><rect width="106.044" height="16.533" rx="1" transform="matrix(.866025 .5 0 1 39.8707 59.8108)" fill="#cbe5ff"/><rect width="106.044" height="16.533" rx="1" transform="matrix(.866025 .5 0 1 39.8707 87.3781)" fill="#0078d3"/><path d="M98.116 149.226l2.751-5.637 5.445 10.415 1.808-1.355-5.48-10.48 5.48-.496-15-15.285 4.996 22.838z" fill="#fff" stroke="#0078d3"/><ellipse rx="13.856" ry="16" transform="matrix(.866025 .5 0 1 85.6194 63.2084)" fill="#cbe5ff"/><mask id="A" mask-type="alpha" maskUnits="userSpaceOnUse" x="73" y="45" width="25" height="36"><ellipse rx="13.856" ry="16" transform="matrix(.866025 .5 0 1 85.6194 63.2084)" fill="#cbe5ff"/></mask><g mask="url(#A)"><rect width="17.32" height="35" rx="5" transform="matrix(.866025 .5 0 1 78.1196 62.8784)" fill="#0078d3"/></g><ellipse rx="5.629" ry="6.5" transform="matrix(.866025 .5 0 1 85.9944 59.9249)" fill="#0078d3"/><g fill="#fff"><path d="M53.989 101.563c-.385-.222-.682-.2-.893.065s-.316.737-.316 1.425c0 1.433.403 2.382 1.209 2.848.338.195.748.319 1.229.371v1.143c-.395-.009-.837-.154-1.325-.436-.701-.404-1.237-.997-1.608-1.776s-.557-1.705-.557-2.765c0-.668.091-1.2.274-1.596s.444-.633.784-.703.744.025 1.203.29c.468.271.938.693 1.411 1.268l-.33.917-.544-.613a2.5 2.5 0 0 0-.537-.438zm3.954 4.094l.33.19c.323.187.561.252.715.198s.231-.236.231-.544-.079-.567-.237-.787-.399-.424-.728-.614l-.31-.179v1.736zm0 1.107v2.466l-1.022-.59v-6.425l1.404.811c.655.378 1.139.817 1.454 1.318s.471 1.07.471 1.718c0 .378-.078.669-.234.875s-.377.306-.663.308l1.417 3.617-1.134-.654-1.15-3.13-.544-.314z"/><use xlink:href="#C"/><use xlink:href="#D"/><path d="M73.705 118.33l-1.022-.59v-5.291l-1.309-.756v-1.133l3.639 2.1v1.134l-1.308-.755v5.291z"/><use xlink:href="#C" x="14.377" y="8.301"/><use xlink:href="#D" x="16.806" y="9.703"/><path d="M90.699 122.758c-.384-.222-.682-.201-.893.064s-.316.737-.316 1.426c0 1.433.403 2.382 1.21 2.847.338.196.748.319 1.229.372v1.142c-.395-.008-.837-.154-1.325-.435-.701-.405-1.237-.997-1.608-1.777s-.557-1.704-.557-2.765c0-.668.091-1.2.273-1.595s.444-.633.784-.703.744.025 1.203.29c.468.27.938.693 1.411 1.267l-.33.917-.544-.613a2.45 2.45 0 0 0-.537-.437zm4.979 2.875c-.385-.222-.682-.201-.893.064s-.316.737-.316 1.426c0 1.432.403 2.381 1.21 2.847.338.195.748.319 1.229.371v1.143c-.395-.009-.837-.154-1.325-.435-.701-.405-1.237-.997-1.608-1.777s-.557-1.705-.557-2.765c0-.668.091-1.2.273-1.596s.444-.632.784-.702.744.025 1.203.29c.468.27.938.692 1.411 1.267l-.33.917-.544-.613a2.45 2.45 0 0 0-.537-.437zm7.306 6.38c0 1.063-.197 1.767-.593 2.11s-.962.301-1.701-.125-1.305-1.04-1.7-1.839-.593-1.734-.593-2.804.198-1.771.593-2.105.967-.29 1.707.138 1.306 1.038 1.697 1.832.59 1.726.59 2.793zm-3.516-2.03c0 .717.102 1.317.306 1.798s.51.839.916 1.074c.816.471 1.223-.016 1.223-1.461s-.405-2.404-1.216-2.873c-.406-.234-.713-.228-.919.019s-.31.725-.31 1.443zm9.112 2.057v4.157c0 .475-.08.844-.241 1.109a.81.81 0 0 1-.688.424c-.302.017-.657-.093-1.068-.331-.62-.357-1.101-.846-1.444-1.466s-.514-1.301-.514-2.037v-4.139l1.018.587v3.934c0 .495.075.901.224 1.219s.397.576.742.775c.334.193.576.217.725.072s.228-.47.228-.968v-3.924l1.018.588zm6.129 9.964l-1.298-.75-2.096-6.071-.03-.017.063 1.873v3.024l-.913-.527v-6.425l1.288.744 2.093 6.02.023.013-.049-1.799v-3.041l.919.531v6.425zm3.75 2.165l-1.021-.59v-5.291l-1.309-.756v-1.133l3.639 2.1v1.134l-1.309-.755v5.291z"/></g><defs ><path id="C" d="M64.828 113.204l-2.775-1.602v-6.425l2.775 1.602v1.117l-1.753-1.013v1.411l1.632.942v1.116l-1.632-.942v1.657l1.753 1.012v1.125z"/><path id="D" d="M69.461 115.879l-.349-1.731-1.757-1.014-.349 1.328-1.101-.636 1.701-5.469 1.249.721 1.707 7.437-1.101-.636zm-.593-3.014l-.547-2.667-.086-.48-.623 2.422 1.256.725z"/></defs></svg>