<svg xmlns="http://www.w3.org/2000/svg" xmlns:xlink="http://www.w3.org/1999/xlink" width="177" height="186" fill="none" xmlns:v="https://vecta.io/nano"><style><![CDATA[.B{stroke-width:2}]]></style><circle cx="88.5" cy="92.844" r="87.817" fill="#f5fafe"/><g fill="#cbe5ff"><path d="M27.302 4.802l5.156-3.067v9.393l-5.156 3.067zm117.21 169.951l5.156-3.067v9.393l-5.156 3.067z"/><rect width="137.707" height="114.011" rx="4" transform="matrix(.866025 .5 0 1 31.3711 0)"/></g><rect width="137.694" height="114" rx="4" transform="matrix(.866025 .5 0 1 26.3711 3.00146)" fill="#fff"/><g stroke="#0078d3" class="B"><use xlink:href="#B"/><use xlink:href="#B" x="14.718" y="-44.338"/><use xlink:href="#C"/><use xlink:href="#D"/><use xlink:href="#C" x="29.436" y="13.976"/><use xlink:href="#C" x="44.154" y="33.04"/><use xlink:href="#C" x="58.872" y="12.855"/><path d="M41.848 87.494l12.454-38.098m3.962.778l9.623 13.104m5.095 3.697l9.057.7m6.227 2.84l7.925 7.595m6.227 5.86l9.057 12.022"/></g><g stroke="#cbe5ff" class="B"><path d="M42.68 110.055c0 2.505-1.499 3.418-3.097 2.495s-3.096-3.565-3.096-6.071 1.499-3.418 3.096-2.496 3.097 3.566 3.097 6.072z"/><use xlink:href="#B" x="14.718" y="1.141"/><path d="M73.248 106.569c0 2.506-1.499 3.418-3.096 2.496s-3.097-3.566-3.097-6.072 1.499-3.418 3.097-2.495 3.096 3.565 3.096 6.071z"/><use xlink:href="#D" y="42.46"/><path d="M102.684 122.054c0 2.506-1.499 3.419-3.096 2.496s-3.097-3.565-3.097-6.071 1.499-3.418 3.097-2.496 3.096 3.566 3.096 6.071z"/><use xlink:href="#C" x="44.154" y="67.952"/><path d="M132.12 128.107c0 2.505-1.499 3.418-3.096 2.495s-3.097-3.565-3.097-6.071 1.499-3.418 3.097-2.496 3.096 3.566 3.096 6.072zM58.332 94.123l8.914 7.958m5.918 3.866l8.694 3.069m6.268 3.124l8.568 6.166"/><path d="M102.336 122.901l9.111 8.938m5.111 1.916l10.951-5.946m-85.661-21.254l11.888-12.761"/></g><path d="M116.004 97.097l11.322-15.353" stroke="#0078d3" class="B"/><defs ><path id="B" d="M43.812 92.402c0 2.506-1.499 3.418-3.096 2.496s-3.096-3.566-3.096-6.071 1.499-3.418 3.096-2.496 3.096 3.566 3.096 6.071z"/><path id="C" d="M73.248 68.638c0 2.506-1.499 3.418-3.096 2.496s-3.097-3.566-3.097-6.071 1.499-3.418 3.097-2.496 3.096 3.566 3.096 6.071z"/><path id="D" d="M87.966 69.587c0 2.506-1.499 3.418-3.097 2.496s-3.096-3.566-3.096-6.071 1.499-3.418 3.096-2.496 3.097 3.566 3.097 6.071z"/></defs></svg>