<svg xmlns="http://www.w3.org/2000/svg" width="65" height="65" fill="none" xmlns:v="https://vecta.io/nano"><circle cx="32.5" cy="32.5" r="32.5" fill="#0078d3"/><path d="M20.721 17.284A16.07 16.07 0 0 0 16 28.682a16.07 16.07 0 0 0 4.721 11.398l1.414-1.414C19.58 36.11 18 32.581 18 28.682s1.58-7.428 4.135-9.983l-1.414-1.414zm21.381 1.414c2.555 2.555 4.135 6.085 4.135 9.984s-1.58 7.429-4.135 9.984l1.414 1.414a16.07 16.07 0 0 0 4.721-11.398 16.07 16.07 0 0 0-4.721-11.398l-1.414 1.414zM23.987 20.55c-2.081 2.081-3.368 4.956-3.368 8.132s1.287 6.051 3.368 8.132l1.414-1.414a9.47 9.47 0 0 1 0-13.435l-1.414-1.414zm14.849 1.414a9.47 9.47 0 0 1 0 13.435l1.414 1.414c2.081-2.081 3.368-4.956 3.368-8.132s-1.287-6.051-3.368-8.132l-1.414 1.414z" fill-rule="evenodd" fill="#fff"/><circle cx="42.822" cy="18.004" r=".999" fill="#fff"/><circle cx="39.541" cy="21.255" r=".999" fill="#fff"/><circle r=".999" transform="matrix(-1 0 0 1 21.4224 17.999)" fill="#fff"/><circle r=".999" transform="matrix(-1 0 0 1 24.6841 21.2695)" fill="#fff"/><circle r=".999" transform="matrix(1 0 0 -1 42.8218 39.3623)" fill="#fff"/><circle r=".999" transform="matrix(1 0 0 -1 39.5405 36.1113)" fill="#fff"/><circle cx="21.422" cy="39.368" r=".999" transform="rotate(180 21.422 39.368)" fill="#fff"/><circle cx="24.684" cy="36.097" r=".999" transform="rotate(180 24.684 36.097)" fill="#fff"/><g fill-rule="evenodd"><path d="M32.119 35.182a6.5 6.5 0 1 0 0-13 6.5 6.5 0 1 0 0 13zm0-2.172a4.33 4.33 0 0 0 4.328-4.328 4.33 4.33 0 0 0-4.328-4.328 4.33 4.33 0 0 0-4.328 4.328 4.33 4.33 0 0 0 4.328 4.328z" fill="#fff"/><path d="M33.465 32.796c-.424.138-.876.213-1.346.213s-.922-.075-1.346-.213l-5.141 16.436h12.974l-5.141-16.436zM32.12 37.11l2.969 9.492h-5.94l2.971-9.492z" fill="#fff"/></g></svg>