<svg xmlns="http://www.w3.org/2000/svg" width="65" height="65" fill="none" xmlns:v="https://vecta.io/nano"><circle cx="32.5" cy="32.5" r="32.5" fill="#0078d3"/><g fill="#fff"><path d="M20.605 33.356l1.3-1.762 8.809 6.499-1.3 1.762z"/><path d="M22.982 30.19c-.073 2.72-2.338 4.865-5.057 4.791s-4.865-2.338-4.791-5.057 2.338-4.865 5.057-4.791 4.865 2.338 4.791 5.057zm14.98 10.864c-.074 2.72-2.338 4.865-5.057 4.791s-4.865-2.338-4.791-5.057 2.338-4.865 5.057-4.791 4.865 2.338 4.791 5.057z"/><path d="M45.471 33.356l-1.3-1.762-8.809 6.499 1.3 1.762z"/><path d="M43.094 30.19a4.93 4.93 0 0 0 5.057 4.791c2.72-.073 4.865-2.338 4.791-5.057s-2.338-4.865-5.057-4.791-4.865 2.338-4.791 5.057z"/></g></svg>