<svg xmlns="http://www.w3.org/2000/svg" width="70" height="85"><path d="M62.105 14.912c-1.046 0-2.088-.003-3.133-.003-2.477-.005-4.762 1.86-6.5 3.337-1.702 1.44-3.16 3.184-4.552 4.917-.5-1.348-1.156-2.672-1.837-3.882-.892-1.724-2.644-3.387-4.603-3.79-.993-.205-2.105-.105-3.113-.105-.874-.003-3.356 0-3.356 0s-2.485-.003-3.358 0c-1.01 0-2.12-.1-3.113.105-1.96.402-3.71 2.064-4.603 3.79-.682 1.21-1.34 2.534-1.837 3.882-1.392-1.732-2.85-3.477-4.553-4.917-1.75-1.478-4.032-3.342-6.51-3.337l-3.133.003-4.475.007c-1.086.005-3.492-.277-2.923 1.463.138.42.624.8.9 1.15l.9 1.237 1.262 2.085 2.773 5.198C8.47 29.82 10.756 33.5 13.518 36.86c2.04 2.478 4.504 4.98 7.553 6.21l-6.887 12.636L7.816 67.08c-.275.5-.668 1.224-.665 1.8.002 1.164 1.757 1.198 2.597 1.204.906.005 1.814-.02 2.72-.028l4.726-.053c.932-.01 1.88.026 2.81-.062 2.363-.224 4.523-1.386 5.917-3.3.452-.62 4.688-7.456 6.402-10.218.647-1.046 2.678-4.17 2.678-4.17l2.678 4.17 6.4 10.218c1.396 1.904 3.554 3.066 5.917 3.3.93.087 1.875.05 2.808.062l7.448.08c.838-.006 2.596-.04 2.597-1.204.004-.587-.388-1.3-.667-1.8-.095-.176-.2-.347-.3-.522-2.093-3.584-4.08-7.21-6.065-10.852L48.928 43.07c3.05-1.23 5.514-3.732 7.554-6.21 2.765-3.36 5.048-7.04 7.187-10.807.97-1.708 1.794-3.5 2.774-5.198a57.3 57.3 0 0 1 1.262-2.085c.27-.43.585-.836.9-1.237.278-.35.76-.73.9-1.15.567-1.74-1.835-1.46-2.92-1.463l-4.478-.007z" fill="#f9c638"/><path d="M40.177 24.603l.477-.08a4.56 4.56 0 0 0 .647-.184c.573-.197.927-.46 1.18-.66.194-.146.34-.3.4-.413-1.383.025-2.413.017-3.093-.035-.186-.028-.32.444-.4 1.396-.01.073.436.025.808-.025zm-3.8 6.654h-.002.002zm-2.957 0h-.004.004zm-.224-.3c-.017.02-.027.043-.027.07s.014.058.04.077c.066.056.133.115.212.162.403.275.898.42 1.477.428.6-.008 1.056-.144 1.48-.428a1.53 1.53 0 0 0 .22-.162c.053-.043.077-.1.038-.154s-.106-.054-.177-.003l-.198.146h-.002c-.4.26-.822.384-1.364.393-.532-.01-1-.14-1.36-.392h-.004c-.066-.044-.127-.096-.186-.146-.045-.038-.112-.037-.152.01zm6.06-.907l-.013-.034.016.035h-.003zm3.257-3.805c-.16-.315-.338-.543-.528-.68-.613-.446-1.545-.45-2.1.087a2.74 2.74 0 0 0-.59.88c-.322.74-.562 1.576-.5 2.4.027.368.156.75.42 1.018.315.33.77.46 1.207.546s.942.155 1.348-.057c.468-.248.665-.817.795-1.282.164-.6.318-1.24.256-1.868-.035-.345-.14-.723-.297-1.035z" fill="#2a2d2c"/><path d="M40.98 27.754l.674-.186c-.492.036-.747-.16-.792-.583l-.092-.88c-.027.565-.1.926-.218 1.113-.083.116-.153.197-.236.232l-.292.1c-.117.034-.238.072-.335.072.537-.046.826.1.87.38l.156.837c.01-.656.1-1 .265-1.077zm.654 1.306l-.054-.544c-.02.35-.054.572-.128.7a.47.47 0 0 1-.156.147l-.172.05c-.074.018-.145.045-.2.045.326-.027.5.053.545.232l.092.5c0-.404.055-.617.163-.654l.4-.117c-.3.02-.464-.107-.5-.36z" fill="#fff"/><path d="M30.4 24.628c-.094-.952-.228-1.424-.4-1.396-.682.052-1.7.06-3.095.035.05.102.2.267.4.413a3.79 3.79 0 0 0 1.181.659 4.78 4.78 0 0 0 .646.184c.045.01.248.046.478.08.37.05.816.098.8.025zm.108 5.412l.014-.035-.012.034h-.002zm-3.553-2.77c-.063.627.1 1.27.256 1.868.127.465.324 1.034.793 1.282.408.212.916.145 1.347.057.437-.087.893-.217 1.208-.546.263-.27.392-.65.42-1.018.053-.814-.187-1.652-.5-2.4-.142-.327-.33-.63-.6-.88-.552-.536-1.482-.533-2.098-.087-.2.137-.367.366-.525.68a2.95 2.95 0 0 0-.3 1.035z" fill="#2a2d2c"/><path d="M28.795 27.754l-.673-.186c.492.036.748-.16.792-.583l.1-.88c.027.565.1.926.22 1.113.08.116.154.197.233.232l.293.1c.12.034.236.072.337.072-.537-.046-.827.1-.872.38l-.156.837c-.01-.656-.1-1-.265-1.077zm-.655 1.306l.056-.544c.018.35.056.572.128.7a.48.48 0 0 0 .154.147l.173.05c.074.018.145.045.2.045-.33-.027-.5.053-.546.232l-.092.5c0-.404-.056-.617-.164-.654l-.4-.117c.3.02.465-.107.492-.36zM8.022 67.186l-.426.857c-.128.298-.215.6-.215.844v.004a.67.67 0 0 0 .22.514c.138.13.35.232.6.303.502.14 1.134.156 1.55.158l.278.002 7.165-.083.492-.001.58.001 1.716-.062c2.3-.217 4.395-1.347 5.75-3.198.103-.136.455-.688.94-1.456l1.778-2.834 3.674-5.912 2.68-4.174c.042-.064.117-.106.197-.106s.152.043.194.106a372.94 372.94 0 0 1 2.682 4.174l5.45 8.746.94 1.456c1.353 1.85 3.45 2.98 5.75 3.198a18.07 18.07 0 0 0 1.715.062l.582-.001.492.001 4.726.054 2.438.03.278-.002a7.65 7.65 0 0 0 1.154-.074c.4-.062.8-.193.993-.388a.67.67 0 0 0 .22-.514v-.007c0-.242-.087-.545-.212-.844s-.3-.598-.428-.852l-.295-.514c-2.094-3.6-4.084-7.217-6.068-10.86l-6.9-12.637a.22.22 0 0 1-.013-.185c.02-.062.07-.1.13-.135 2.987-1.2 5.43-3.676 7.46-6.14 2.754-3.348 5.03-7.014 7.165-10.776.735-1.295 1.4-2.645 2.1-3.974-1.354 2.117-3.335 4.2-5.9 6.248-3.385 2.685-9.138 5.335-17.2 7.923-7.776 2.5-13.5 5.4-17.163 8.735L21.62 48.1c-.163.164-.937.96-2.3 2.436-1.643 1.818-3.384 4-5.202 6.522l-1.78 2.486-4.327 7.652z" fill="#fff"/><path d="M69.11 16.258c-.034.112-.15.28-.313.457l-.52.572-.92 1.268-1.27 2.1-2.776 5.2c-2.133 3.76-4.405 7.417-7.148 10.75-2.023 2.46-4.45 4.91-7.39 6.09-.107.043-.192.13-.23.238s-.03.227.025.328L55.458 55.9 61.82 67.27c.14.255.3.548.42.837s.2.57.198.775v.008a.49.49 0 0 1-.161.385c-.158.155-.508.284-.9.343s-.817.07-1.126.072h-.308c-.797 0-1.6-.02-2.407-.028L52.8 69.61l-.428-.003-.667.001c-.57 0-1.133-.007-1.68-.06-2.25-.213-4.3-1.318-5.622-3.123-.044-.06-.16-.236-.322-.485-1.132-1.754-4.563-7.293-6.063-9.708-.654-1.055-2.68-4.176-2.682-4.178-.075-.116-.206-.186-.347-.186s-.27.07-.347.186a411.71 411.71 0 0 0-2.684 4.179l-3.673 5.91-1.777 2.833-.613.964-.322.485c-1.32 1.804-3.37 2.91-5.622 3.123-.545.052-1.108.06-1.68.06-.222 0-.444-.001-.667-.001l-.43.003-7.133.082H9.75c-.413-.002-1.033-.02-1.5-.153-.234-.064-.42-.16-.526-.262s-.155-.194-.16-.386v-.007c-.002-.204.075-.49.198-.775s.28-.582.417-.836c.09-.164.19-.334.295-.513l-.001.003c2.097-3.59 4.086-7.22 6.073-10.864l6.887-12.635c.055-.1.064-.22.025-.328a.41.41 0 0 0-.231-.238c-2.94-1.182-5.366-3.63-7.39-6.09-2.74-3.334-5.014-6.99-7.145-10.75-.96-1.687-1.784-3.48-2.776-5.2a55.68 55.68 0 0 0-1.271-2.101l.001.001c-.286-.454-.607-.868-.923-1.27-.166-.2-.36-.394-.522-.572s-.28-.343-.312-.455c-.05-.15-.067-.267-.067-.353a.38.38 0 0 1 .087-.267c.078-.096.278-.198.568-.254s.646-.075.997-.075c.327 0 .646.014.915.014h.032l4.474-.007 3.143-.002c1.13-.001 2.25.428 3.3 1.057s2.05 1.446 2.92 2.183c1.667 1.408 3.11 3.132 4.498 4.86.093.115.24.173.39.148s.27-.123.32-.26c.488-1.322 1.136-2.628 1.81-3.824l.008-.013c.84-1.636 2.535-3.22 4.32-3.576.46-.095.965-.12 1.487-.12.508 0 1.03.024 1.54.024l1.258-.001 5.453.001c.513 0 1.034-.024 1.544-.024.52 0 1.028.026 1.485.12 1.786.356 3.483 1.94 4.323 3.576l.007.013c.674 1.196 1.32 2.503 1.8 3.824a.41.41 0 0 0 .322.261c.147.024.295-.033.388-.148 1.387-1.73 2.83-3.453 4.496-4.86.87-.736 1.862-1.556 2.922-2.183s2.18-1.057 3.3-1.057h.01l7.64.01c.27 0 .587-.014.914-.014.467-.002.95.033 1.254.144.153.054.255.12.308.185s.084.126.087.267c0 .087-.018.205-.066.353zm.604-1.147c-.275-.3-.65-.442-1.03-.52s-.782-.092-1.16-.092c-.35 0-.675.014-.914.014h-.03l-4.478-.007c-1.045 0-2.088-.003-3.133-.003h.002l-.013-.001c-1.343.002-2.6.502-3.734 1.173s-2.157 1.522-3.033 2.26c-1.556 1.318-2.896 2.87-4.16 4.427-.466-1.143-1.023-2.255-1.602-3.28-.946-1.808-2.75-3.542-4.88-3.99-.546-.112-1.105-.138-1.653-.138-.535 0-1.06.024-1.542.024L37.1 14.98 35 14.982a3864.7 3864.7 0 0 0-2.099-.001l-1.26.001c-.483 0-1.006-.024-1.54-.024-.55 0-1.108.025-1.656.14-2.135.447-3.94 2.187-4.885 4a29.26 29.26 0 0 0-1.594 3.268c-1.265-1.557-2.604-3.1-4.16-4.427-.875-.74-1.898-1.59-3.032-2.26s-2.39-1.172-3.735-1.173l-.022.001-3.122.003-4.506.007c-.24 0-.567-.014-.915-.014-.5.002-1.05.024-1.532.19-.242.086-.475.214-.657.42s-.288.5-.285.794c0 .19.037.4.105.6.105.31.3.54.483.748s.373.384.484.527c.313.398.617.793.875 1.203.433.678.852 1.373 1.254 2.07.967 1.677 1.79 3.468 2.774 5.196 2.142 3.775 4.44 7.475 7.224 10.863 1.967 2.386 4.344 4.813 7.306 6.14L13.82 55.516 7.758 66.36c-.098.17-.204.344-.305.533-.136.252-.3.567-.453.906s-.26.703-.26 1.085v.017c-.001.39.167.736.415.962.377.347.87.478 1.338.557a8.36 8.36 0 0 0 1.252.08l.312.001 2.416-.028 5.145-.056h.667c.577 0 1.168-.007 1.758-.063 2.474-.234 4.745-1.455 6.21-3.457.07-.096.184-.27.35-.523l6.07-9.72 1.58-2.472.75-1.158.748 1.158 1.58 2.472 3.673 5.914 1.78 2.837.617.97.348.523c1.468 2.003 3.738 3.223 6.21 3.457.592.056 1.18.063 1.758.063h.667l.42.002 7.455.08c.427-.004 1.103-.01 1.724-.183.31-.09.617-.22.866-.453a1.29 1.29 0 0 0 .416-.971v-.008c-.001-.382-.12-.745-.26-1.085s-.318-.655-.456-.908c-.1-.185-.205-.36-.304-.53l-.001-.002c-2.09-3.578-4.074-7.2-6.06-10.842l-6.687-12.263c2.962-1.326 5.34-3.754 7.305-6.14 2.787-3.39 5.082-7.09 7.227-10.863.98-1.728 1.805-3.52 2.773-5.196a54.52 54.52 0 0 1 1.252-2.069l.002-.003c.256-.408.562-.803.874-1.204l-.002.003c.113-.143.3-.324.486-.528s.377-.44.482-.746c.07-.212.105-.41.105-.602.004-.303-.102-.588-.284-.794z" fill="#2a2d2c"/></svg>