<svg xmlns="http://www.w3.org/2000/svg" width="70" height="85"><path d="M31.14 11.025zM19.414 27.163z" stroke="#e9fa32" fill="none"/><path d="M43.372 77.835c7.012 0 13.96-2.493 16.258-5.515l.46-.605-4.346-12.87c-.04-.12-.152-.2-.278-.2h-9.7a.29.29 0 0 1-.284-.211c-.113-.43-.18-.954-.19-1.602v-15.74c0-.162.13-.293.293-.293H57c.162 0 .293-.13.293-.293v-16.1c0-.162-.13-.293-.293-.293H45.624c-.162 0-.293-.13-.293-.293V8.127c0-.162-.13-.293-.293-.293H25.09a3.39 3.39 0 0 0-3.313 3.016c-.996 8.1-4.715 12.96-11.705 15.295l-.78.26c-.12.04-.2.152-.2.278V40.51c0 .162.13.293.293.293h7.14V57.83c0 13.594 9.425 20.005 26.85 20.005zm13.36-6.57c-2.188 2.102-6.68 3.663-10.983 3.736l-.483.004C31.1 75.004 27.333 64.21 27.333 57.83V38.228c0-.162-.13-.293-.293-.293h-6.845c-.162 0-.293-.13-.293-.293v-8.93a.29.29 0 0 1 .186-.269c7.317-2.845 11.403-8.498 12.477-17.243.06-.486.46-.5.465-.5h9.138c.162 0 .293.13.293.293V26.69c0 .162.13.293.293.293H54.13c.162 0 .293.13.293.293v10.367c0 .162-.13.293-.293.293H42.705c-.162 0-.293.13-.293.293v18.63c.067 4.195 2.1 6.32 6.04 6.32 1.588 0 3.407-.37 5.067-1.002.155-.06.327.02.38.177l2.906 8.605c.037.108.01.228-.072.308z" fill="#38465e"/></svg>