<svg xmlns="http://www.w3.org/2000/svg" width="70" height="85"><path d="M61.3 18.382c-.055-.397-.405-.617-.695-.64l-6.408-.474-4.715-4.65c-.467-.463-1.378-.322-1.73-.22l-2.38.728c-1.42-4.053-3.924-7.778-8.33-7.778-.122 0-.247.005-.373.012C35.424 3.715 33.872 3 32.53 3c-10.267 0-15.17 12.737-16.71 19.21l-7.185 2.21c-2.227.694-2.297.763-2.59 2.845L0 73.558 45.4 82 70 76.72l-8.7-58.337zm-18.438-4.485l-3.84 1.18.003-.822c0-2.52-.352-4.55-.918-6.156 2.27.283 3.784 2.847 4.757 5.798zM35.3 8.598c.63 1.57 1.042 3.823 1.042 6.863l-.003.442-7.934 2.438c1.528-5.85 4.39-8.677 6.895-9.743zm-3.05-2.865c.443 0 .89.15 1.317.44-3.29 1.536-6.817 5.406-8.307 13.134l-6.272 1.928c1.745-5.894 5.887-15.502 13.26-15.502z" fill="#94be45"/><path d="M60.615 17.74l-6.408-.474-4.715-4.65c-.174-.172-.4-.26-.656-.3L45.403 82 70 76.72l-8.7-58.337c-.055-.397-.406-.617-.695-.64z" fill="#5d8d3d"/><path d="M37.05 31.23l-3.033 8.954s-2.658-1.408-5.915-1.408c-4.776 0-5.016 2.975-5.016 3.724 0 4.1 10.74 5.657 10.74 15.235 0 7.536-4.816 12.4-11.31 12.4-7.794 0-11.78-4.814-11.78-4.814l2.087-6.842s4.097 3.5 7.554 3.5c2.258 0 3.177-1.765 3.177-3.054 0-5.335-8.813-5.573-8.813-14.34 0-7.377 5.336-14.517 16.107-14.517 4.15 0 6.2 1.18 6.2 1.18z" fill="#fff"/></svg>