<svg xmlns="http://www.w3.org/2000/svg" width="78" height="93" fill="#6db801"><path d="M21.038 18.808c8.236-.128 12.202-5.214 11.665-9.84-.44-3.824-4.014-7.406-10.8-7.47-2.36-.047-4.653.808-6.45 2.405s-2.975 3.824-3.3 6.264c-.55 4.372 2.038 8.757 8.956 8.643m40.276-1.048c7.907-.472 11.36-4.614 11.4-8.77 0-4.678-4.222-9.344-11.323-8.745C55.754.73 52.4 4.862 51.9 8.992c-.56 4.6 2.38 9.178 9.456 8.757M30.86 82.022c-27.43 0-23.684-33.793-19.07-33.984l51.407-2.715c11.726-.268-10.664 36.6-32.335 36.7zm34.96-46.974c-19.437 2.04-20.4 2.243-56.13 3.1-15.082.064-12.03 54.215 20.17 54.215 30.65.038 67.78-60.1 35.96-57.325z"/></svg>