<svg xmlns="http://www.w3.org/2000/svg" width="70" height="85" fill="#21759b"><path d="M4.975 42.5c0 11.714 6.906 21.84 16.922 26.636L7.575 30.454c-1.666 3.68-2.6 7.754-2.6 12.045zm50.293-1.494c0-3.66-1.334-6.2-2.476-8.162-1.52-2.44-2.95-4.502-2.95-6.942 0-2.72 2.093-5.253 5.042-5.253.133 0 .26.016.4.024-5.342-4.824-12.458-7.77-20.275-7.77-10.5 0-19.717 5.306-25.086 13.34l1.932.036c3.14 0 8.002-.376 8.002-.376 1.618-.093 1.8 2.25.192 2.44 0 0-1.627.188-3.436.28L27.537 60.68l6.57-19.424-4.677-12.634c-1.618-.094-3.15-.28-3.15-.28-1.618-.095-1.428-2.533.2-2.44 0 0 4.957.376 7.908.376 3.14 0 8.003-.376 8.003-.376 1.62-.093 1.8 2.25.192 2.44 0 0-1.63.188-3.436.28l10.85 31.814 2.996-9.863c1.296-4.095 2.285-7.035 2.285-9.567zm-19.74 4.082l-9 25.803a30.41 30.41 0 0 0 8.482 1.206 30.35 30.35 0 0 0 9.971-1.678 2.76 2.76 0 0 1-.215-.408l-9.228-24.923zM61.346 28.3c.13.942.202 1.954.202 3.043 0 3.002-.57 6.378-2.283 10.6l-9.17 26.136c8.926-5.13 14.93-14.663 14.93-25.58a29.12 29.12 0 0 0-3.677-14.198zM35 8C15.7 8 0 23.476 0 42.5S15.7 77 35 77s35-15.477 35-34.5S54.3 8 35 8zm0 67.418c-18.414 0-33.394-14.768-33.394-32.92S16.586 9.582 35 9.582 68.395 24.348 68.395 42.5 53.413 75.418 35 75.418z"/></svg>