<svg xmlns="http://www.w3.org/2000/svg" width="70" height="85" stroke="#f57d00" stroke-width="13" fill="none"><path d="M20.984 15.744L37.14 15.5c7.398.2 11.5 5.357 11.434 11.24.717 6.95-1.274 14.822-12.428 14.66H20.238c-7.014.066-12.614-3.986-12.18-11.973C7.7 22.8 9.933 15.65 20.984 15.744zm26.1 53.753H22.227c-10.358.13-15.346-4.5-14.665-15.148.05-9.562 5.7-12.292 14.168-12.46h24.608c16.732-.44 14.905-.6 15.163 12.705-.105 9.67-5.516 14.83-14.417 14.904z"/><path d="M7.562 56.303l.497-29.32"/></svg>