<svg xmlns="http://www.w3.org/2000/svg" width="70" height="85"><path d="M66.044 33.065c-5.276-5.21-13.83-5.21-19.104 0L25.447 54.298a3.31 3.31 0 0 0 0 4.718c1.32 1.303 3.458 1.303 4.776 0l21.49-21.232c2.637-2.606 6.915-2.606 9.552 0s2.637 6.83 0 9.436L40.19 68.044c2.637 2.605 6.913 2.605 9.552 0L66.044 51.94c5.275-5.213 5.275-13.662 0-18.874zm-7.164 7.077a3.41 3.41 0 0 0-4.777 0L32.612 61.374c-2.637 2.605-6.914 2.605-9.552 0a3.41 3.41 0 0 0-4.775 0c-1.32 1.303-1.32 3.416 0 4.718 5.274 5.212 13.828 5.212 19.104 0L58.88 44.86a3.31 3.31 0 0 0 0-4.718zm-7.165-21.23c-5.276-5.212-13.828-5.212-19.104 0L11.12 40.142a3.31 3.31 0 0 0 0 4.718c1.32 1.303 3.457 1.303 4.776 0L37.39 23.63c2.637-2.606 6.913-2.606 9.55 0a3.41 3.41 0 0 0 4.777 0 3.31 3.31 0 0 0 0-4.718zm-7.164 7.077c-1.32-1.303-3.457-1.303-4.775 0L18.285 47.22c-2.64 2.605-6.915 2.605-9.552 0s-2.64-6.83 0-9.437L29.81 16.96c-2.637-2.606-6.915-2.606-9.552 0L3.956 33.065c-5.275 5.212-5.275 13.66 0 18.874s13.828 5.212 19.104 0l21.49-21.233a3.31 3.31 0 0 0 0-4.718z"/></svg>