<svg xmlns="http://www.w3.org/2000/svg" width="70" height="85"><path d="M51.678 18c-4.027-2.48-7.825-3.457-11.624-5.936-2.355-1.578-5.622-5.334-8.358-8.565-.532 5.185-2.127 7.288-3.95 8.79-3.875 3.005-6.306 3.907-9.65 5.7C15.288 19.437.017 28.454.017 47.84S16.503 81.5 34.812 81.5 69 68.35 69 48.44 54.1 19.513 51.678 18z" fill="#0077c0"/><path d="M45.508 64.66c1.215 0 2.507.075 3.42.676s1.443 1.954 1.748 2.705 0 1.202-.608 1.502c-.532.3-.608.15-1.14-.827s-.988-1.953-3.647-1.953-3.495.9-4.786 1.953-1.748 1.428-2.203.827-.303-1.202.532-1.954 2.203-1.954 3.494-2.48 1.975-.45 3.2-.45zm-12.612 8.567c1.52 1.202 3.8 2.18 8.66 2.18s8.28-1.353 9.8-2.48c.684-.526.987-.075 1.064.225s.228.75-.304 1.277c-.38.376-3.874 2.78-7.977 3.156s-9.648.6-13-2.405c-.532-.526-.38-1.278 0-1.578s.684-.525 1.14-.525.38 0 .607.15z" fill="#fff"/><g fill="#0077c0"><path d="M14.283 67.517c5.774-.076 6.837-1.052 11.928-3.306 27.502-12.172 32.592-23.292 33.58-25.847s2.43-6.687.91-11.27c-.293-.885-.507-1.595-.66-2.167-3.655-4.042-7.283-6.247-8.38-6.925-3.95-2.48-7.825-3.456-11.624-5.936-2.355-1.503-5.622-5.334-8.357-8.565-.532 5.184-2.05 7.363-3.95 8.79-3.875 3.005-6.306 3.907-9.648 5.7C15.27 19.504 0 28.445 0 47.83c0 6.19 1.68 11.858 4.565 16.707l.754-.027c1.595 1.428 4.103 3.08 8.965 3.006z"/><path d="M51.66 18c-3.95-2.48-7.825-3.456-11.624-5.936-2.355-1.503-5.622-5.334-8.357-8.565-.532 5.184-2.05 7.363-3.95 8.79-3.875 3.005-6.306 3.907-9.648 5.7C15.27 19.504 0 28.445 0 47.83c0 6.19 1.68 11.858 4.565 16.707 6.15 10.34 17.768 16.954 30.23 16.954 18.3 0 34.188-13.15 34.188-33.06 0-10.934-4.5-18.583-8.943-23.506-3.655-4.042-7.283-6.247-8.38-6.925zm9.235 8.796c4.988 6.167 7.517 13.447 7.517 21.635 0 4.752-.915 9.24-2.72 13.34-1.712 3.9-4.177 7.336-7.327 10.244-6.227 5.747-14.598 8.912-23.57 8.912a34.85 34.85 0 0 1-12.948-2.492c-4.08-1.625-7.754-3.95-10.924-6.915C4.247 65.28.57 56.867.57 47.83c0-8.048 2.642-15.2 7.85-21.255 3.98-4.626 8.272-7.2 9.932-8.078.806-.435 1.563-.818 2.293-1.2 2.293-1.164 4.458-2.263 7.436-4.573 1.588-1.194 3.28-3.084 4-7.885 2.5 2.952 5.422 6.27 7.647 7.69 1.975 1.3 4 2.193 5.96 3.066 1.853.827 3.77 1.68 5.666 2.872a7.27 7.27 0 0 0 .072.044c5.544 3.424 8.498 7.076 9.468 8.276z"/></g><path d="M14.967 59.552c.076-5.86 5.622-11.346 12.61-11.42 8.89-.075 15.043 8.716 19.525 8.64 3.798-.075 11.092-7.438 14.663-7.438 3.8 0 4.862 3.907 4.862 6.236s-.76 6.537-2.583 9.167-2.963 3.606-5.1 3.456c-2.736-.226-8.205-8.64-11.7-8.79-4.407-.15-13.98 9.092-21.5 9.092-4.558 0-5.926-.676-7.446-1.653-2.28-1.58-3.42-3.982-3.342-7.288z" fill="#fff"/></svg>