<svg xmlns="http://www.w3.org/2000/svg" width="70" height="85"><defs><clipPath id="A"><path d="M67.385 36.084H34.5V49.72h18.93c-1.764 8.663-9.144 13.635-18.93 13.635-11.55 0-20.854-9.304-20.854-20.854S22.95 21.646 34.5 21.646a20.4 20.4 0 0 1 12.993 4.652L57.76 16.03C51.504 10.577 43.483 7.21 34.5 7.21A35.19 35.19 0 0 0-.792 42.5 35.19 35.19 0 0 0 34.5 77.792c17.646 0 33.688-12.833 33.688-35.29 0-2.085-.32-4.33-.802-6.416z" fill="none"/></clipPath><clipPath id="B"><path d="M67.385 36.084H34.5V49.72h18.93c-1.764 8.663-9.144 13.635-18.93 13.635-11.55 0-20.854-9.304-20.854-20.854S22.95 21.646 34.5 21.646a20.4 20.4 0 0 1 12.993 4.652L57.76 16.03C51.504 10.577 43.483 7.21 34.5 7.21A35.19 35.19 0 0 0-.792 42.5 35.19 35.19 0 0 0 34.5 77.792c17.646 0 33.688-12.833 33.688-35.29 0-2.085-.32-4.33-.802-6.416z" fill="none"/></clipPath><clipPath id="C"><path d="M67.385 36.084H34.5V49.72h18.93c-1.764 8.663-9.144 13.635-18.93 13.635-11.55 0-20.854-9.304-20.854-20.854S22.95 21.646 34.5 21.646a20.4 20.4 0 0 1 12.993 4.652L57.76 16.03C51.504 10.577 43.483 7.21 34.5 7.21A35.19 35.19 0 0 0-.792 42.5 35.19 35.19 0 0 0 34.5 77.792c17.646 0 33.688-12.833 33.688-35.29 0-2.085-.32-4.33-.802-6.416z" fill="none"/></clipPath><clipPath id="D"><path d="M67.385 36.084H34.5V49.72h18.93c-1.764 8.663-9.144 13.635-18.93 13.635-11.55 0-20.854-9.304-20.854-20.854S22.95 21.646 34.5 21.646a20.4 20.4 0 0 1 12.993 4.652L57.76 16.03C51.504 10.577 43.483 7.21 34.5 7.21A35.19 35.19 0 0 0-.792 42.5 35.19 35.19 0 0 0 34.5 77.792c17.646 0 33.688-12.833 33.688-35.29 0-2.085-.32-4.33-.802-6.416z" fill="none"/></clipPath></defs><path clip-path="url(#A)" d="M-4 63.354V21.646L23.27 42.5-4 63.354z" fill="#fbbc05"/><path clip-path="url(#B)" d="M-4 21.646L23.27 42.5l11.23-9.786L73 26.46V4H-4v17.646z" fill="#ea4335"/><path clip-path="url(#C)" d="M-4 63.354L44.125 26.46 56.8 28.063 73 4v77H-4V63.354z" fill="#34a853"/><path clip-path="url(#D)" d="M73 81L23.27 42.5l-6.417-4.812L73 21.646V81z" fill="#4285f4"/></svg>