<svg xmlns="http://www.w3.org/2000/svg" xmlns:xlink="http://www.w3.org/1999/xlink" width="70" height="85"><style><![CDATA[.B{stroke:#231f20}.C{stroke-width:2}.D{fill:none}.E{fill:#bed63d}]]></style><path d="M19.005 50.77c-4.864 1.717-5.648 3.588-5.335 6.398s3.61 4.056 6.904 3.744" fill="#fff"/><path d="M19.005 50.77c-4.864 1.717-5.648 3.588-5.335 6.398s3.61 4.056 6.904 3.744" class="B C D"/><use xlink:href="#B" fill="#fff"/><use xlink:href="#B" class="B C D"/><path d="M30.46 16.135c.47 1.248.157 2.34-.628 3.12-.47.312-1.256.312-1.57.936-.157.78.313 1.248 1.098 1.56 1.726.624 3.295-.47 3.923-1.56 2.197-3.745-2.04-7.176-2.5-10.92-.313-2.496 1.883-4.993 1.883-7.333 0-.78-2.5-.936-3.295.467-1.255 2.653-3.295 5.617-1.883 8.113.94 1.716 2.197 3.433 2.98 5.617zm7.7 0c.314 1.404 0 2.496-.47 3.744-.628 1.717 1.412 2.34 2.354 1.404 3.923-4.212 2.04-6.552.47-8.737-1.57-2.34-1.883-2.808-2.668-4.524-.314-.624-1.412-2.34.47-4.212.785-.625.627-2.497-.157-3.276-2.668-1.873-3.452 1.56-4.393 4.524-1.256 3.9 3.295 7.02 4.393 11.077zm-26.363 3.43c.94 1.092.94 2.185.47 3.12-.314.47-.942 1.56-1.1 2.185.157.78.628.155 1.413.155 1.725.156 2.98-1.404 3.295-2.808.784-4.213-4.236-6.24-5.806-9.673-1.098-2.184.314-5.148-.47-7.332-.313-.78-2.667 0-2.98 1.56-.47 2.964-1.412 6.24.784 8.27 1.256 1.56 2.98 2.8 4.394 4.524zm7.218-4.368c.47 1.248.157 2.496-.156 3.744-.47 1.716 2.04 1.716 2.98.624 2.04-2.652.785-5.928-.47-8.27-1.412-2.496-3.452-4.68-3.6-7.333 0-.78 1.57-.78 2.354-1.092.94-.312 2.824-1.25 1.883-1.872-2.982-1.716-7.218.312-8.003 3.433-.942 3.9 3.766 6.864 5.02 10.765z" fill="#f48120"/><path d="M33.598 62.002c4.393 6.24 6.904 9.986 15.848 11.233" class="B C D"/><path d="M15.396 29.864c.628-.468 2.354-5.928 2.354-6.24-.157-.468 2.354 5.304 2.51 5.617.157.156 5.02.468 5.335.936s-2.98 1.404-3.453 2.028c-.47.47 4.865 6.71 4.55 7.177s-7.06-4.213-7.375-3.9c-.47.312-5.178 5.148-5.335 5.148s1.412-6.24 1.098-6.708c-.156-.468-3.61.312-3.923-.313-.156-.624 4.237-3.744 4.237-3.744z" fill="#ffd420"/><path d="M17.28 35.948c-.942.78-1.413 1.873-2.354 2.81-.157.156-.157-.156-.157-.312.313-1.248.47-2.34.627-3.588l.47-1.25c.157-.312.157-.624 0-.935-.313-.312-.785 0-1.098.155-.942.47-1.883.47-2.825.156.314-.468.785-.624 1.256-.936s1.098-.468 1.57-.935c.313-.156.627-.156.627-.313.314-.312.628-.624.94-1.092.942-1.404.942-3.276 1.57-4.836.785 1.56 1.098 3.432 1.882 5.304 0 .312.47-.156.628.312.627-.468 1.412-.312 2.04-.312.314 0 .942-.156 1.255.312-.785.47-1.57.936-2.5 1.25-.314.156-.628.78-.314 1.248.157.312.47.468.627.624 1.256 1.093 2.197 2.496 3.138 3.9-.313.313-.627 0-.785-.31-1.412-1.093-2.824-1.56-4.236-2.81-.628-.78-1.413.936-2.354 1.56zm0 1.873c.47-.624 1.098-1.56 1.725-1.404 1.883.156 3.453 1.716 5.022 2.808.942.624 1.726 1.56 2.824 1.404.314 0 .314-.468.628-.78.157-.312-.157-.624-.157-.624-.942-.78-1.1-2.028-1.726-2.808l-2.668-3.59c1.1-.935 2.354-1.09 3.61-1.56.314-.155.47-.624.314-.936 0-.312-.314-.47-.314-.47-.94-.156-1.883-.312-2.668-.624-1.098-.156-2.196.156-3.295-.468-.47-.156-.47-.937-.628-1.405-.47-1.872-1.098-3.744-1.882-5.305-.157-.31-.628-.468-.942-.156-.157-.312-.314.156-.157.78.314 1.873-.47 3.745-.94 5.46a1.22 1.22 0 0 1-.628.625v.312c-.942.78-1.726 1.25-2.824 1.873-.942.468-1.726 1.404-2.51 2.184-.47.157-.627 1.248-.157 1.248 1.57.47 2.98.313 4.55.156 0 1.872-.47 3.59-1.098 5.15l-.47.935c-.313.625.314 1.25.627 1.092 1.57-.936 2.668-2.34 3.767-3.9z" fill="#231f20"/><path d="M25.753 45.153c-8.317.313-10.827 2.963-12.24 4.68s-1.255 5.304.314 5.616" class="B C D"/><path d="M34.07 50.77c4.08 0 7.532-2.652 7.532-6.084 0-3.277-3.295-6.085-7.532-6.085s-7.532 2.653-7.532 6.085 3.295 6.084 7.532 6.084z" class="E"/><path d="M34.07 38.6c4.16 0 7.532 2.724 7.532 6.085s-3.373 6.084-7.532 6.084-7.532-2.724-7.532-6.084S29.91 38.6 34.07 38.6z" class="B C D"/><use xlink:href="#C" class="E"/><use xlink:href="#C" class="B C D"/><path d="M41.6 44.685s3.452-1.092 3.452.312" class="E"/><path d="M41.6 44.685s3.452-1.092 3.452.312" class="B C D"/><defs ><path id="B" d="M12.415 27.523C22.457 23 35 21.907 43.64 28.616s11.612 23.4 11.612 27.458c0 .936-6.904 1.715-8.943 3.276-2.51 2.185 4.393 10.453 4.393 14.353 0 0 .785 5.46-4.393 6.71-5.806 1.248-9.886-3.276-14.593 0-.785.625-3.138 2.185-5.806 3.588L12.415 27.523z"/><path id="C" d="M53.526 49.366c4.707 0 8.474-1.872 8.474-4.37 0-2.34-3.767-4.37-8.474-4.37s-8.473 1.716-8.473 4.37c0 2.81 3.766 4.37 8.473 4.37z"/></defs></svg>