<svg xmlns="http://www.w3.org/2000/svg" width="70" height="85"><path d="M57.224 16c-5.383 0-9.87 3.585-11.246 8.95-2.48-8.062-8.83-8.944-11.478-8.944s-8.994.882-11.48 8.942c-1.377-5.36-5.863-8.942-11.245-8.942C5.173 16.006 0 20.735 0 26.772c0 2.67.66 4.8 1.454 7.113l8.966 25.4c3.002 8.424 9.12 9.682 12.497 9.682 5.3 0 9.43-2.72 11.583-7.537C36.656 66.268 40.786 69 46.083 69c3.374 0 9.484-1.26 12.502-9.714L67.67 33.59l.305-.924C68.456 31.243 69 29.63 69 27.654 69 20.9 64.048 16 57.224 16zm4.25 15.625L52.46 57.11c-1.1 3.084-2.93 5.38-6.376 5.38-3.227 0-5.133-1.8-6.085-4.888L34.573 40.64h-.147l-5.422 16.962c-.953 3.087-2.86 4.852-6.086 4.852-3.445 0-5.277-2.276-6.376-5.36L7.6 31.763c-.733-2.13-1.1-3.448-1.1-4.992 0-2.35 2.2-4.255 5.277-4.255 2.566 0 4.398 1.694 4.985 4.19l6.084 20.205h.146l6.157-19.76c.808-2.863 2.273-4.636 5.353-4.636s4.543 1.77 5.35 4.633l6.158 19.763h.145l6.086-20.205c.586-2.497 2.417-4.197 4.984-4.197 3.077 0 5.276 1.91 5.276 5.143 0 1.174-.515 2.354-1.026 3.972z" fill="#3192e7"/></svg>