<svg xmlns="http://www.w3.org/2000/svg" width="70" height="85"><path d="M67 18.812c0-4.7-3.845-8.528-8.588-8.528-4.33 0-7.91 3.184-8.5 7.322l-.087-.045c-7.023-3.146-12.94 2.425-12.94 2.425L21.237 35.602l6.183 5.913 12.595-12.288c5.882-5.84 9.084-1.887 9.084-1.887 4.428 3.714.153 8.11.153 8.11l6.336 6.064c5.174-5.55 5.474-10.392 3.9-14.244 4.234-.526 7.51-4.11 7.51-8.458z" fill="#f9ae41"/><path d="M59.57 58.03l.046-.086c3.168-6.974-2.443-12.85-2.443-12.85l-15.726-15.54-5.954 6.14 12.374 12.507c5.882 5.84 1.9 9.02 1.9 9.02-3.74 4.396-8.168.152-8.168.152l-6.107 6.29c5.588 5.138 10.465 5.436 14.344 3.874.53 4.205 4.14 7.46 8.518 7.46 4.743 0 8.588-3.818 8.588-8.528 0-4.3-3.206-7.855-7.374-8.44z" fill="#ee4035"/><path d="M41.58 43.485L28.985 55.773c-5.882 5.84-9.084 1.888-9.084 1.888-4.428-3.714-.153-8.11-.153-8.11l-6.336-6.064C8.24 49.034 7.938 53.877 9.51 57.73 5.276 58.256 2 61.84 2 66.188c0 4.7 3.845 8.528 8.588 8.528 4.33.001 7.91-3.183 8.5-7.322l.087.045c7.023 3.146 12.94-2.426 12.94-2.426l15.65-15.615-6.183-5.913z" fill="#4f91cd"/><path d="M21.134 36.796c-5.882-5.84-1.9-9.02-1.9-9.02 3.74-4.396 8.168-.152 8.168-.152l6.107-6.29c-5.588-5.137-10.465-5.436-14.344-3.874-.53-4.205-4.14-7.46-8.518-7.46-4.743 0-8.587 3.818-8.588 8.528 0 4.3 3.206 7.855 7.374 8.44l-.045.087c-3.168 6.974 2.443 12.848 2.443 12.848l15.726 15.54 5.954-6.14-12.374-12.507z" fill="#7ac043"/></svg>