<?xml version="1.0" encoding="UTF-8"?>
<svg width="16px" height="16px" viewBox="0 0 16 16" version="1.1" xmlns="http://www.w3.org/2000/svg" xmlns:xlink="http://www.w3.org/1999/xlink">
    <title>Icons / Search</title>
    <g id="Symbols" stroke="none" stroke-width="1" fill="none" fill-rule="evenodd">
        <g id="Icons-/-Navigation-/-Search" fill="#000000" fill-rule="nonzero">
            <path d="M11.7452011,10.3316002 L16,14.5863991 L14.5863991,16 L10.3316002,11.7452011 C7.59074657,13.7476394 3.77043323,13.3031542 1.56252879,10.7249387 C-0.645375655,8.14672309 -0.49691901,4.30350545 1.90329322,1.90329322 C4.30350545,-0.49691901 8.14672309,-0.645375655 10.7249387,1.56252879 C13.3031542,3.77043323 13.7476394,7.59074657 11.7452011,10.3316002 L11.7452011,10.3316002 Z M6.49768247,10.9964125 C8.10492393,10.9964125 9.59007628,10.1389594 10.393697,8.7470475 C11.1973177,7.35513558 11.1973177,5.64022937 10.393697,4.24831744 C9.59007628,2.85640552 8.10492393,1.99895243 6.49768247,1.99895245 C4.01310249,1.99895245 1.99895245,4.01310249 1.99895245,6.49768247 C1.99895245,8.98226246 4.01310249,10.9964125 6.49768247,10.9964125 L6.49768247,10.9964125 Z" id="Icons-/-Search"></path>
        </g>
    </g>
</svg>