<svg xmlns="http://www.w3.org/2000/svg" width="132" height="44" viewBox="0 0 132 44"><path d="M53.4 1.7l-6.6 40.8h10.5l6.6-40.8zM85.2 18.1c-3.7-1.9-5.9-3.1-5.9-5 0-1.7 1.9-3.5 6.1-3.5 3.4-.1 5.9.7 7.8 1.6l.9.4 1.4-8.8C93.4 1.9 90.1 1 86.1 1 75.7 1 68.3 6.6 68.3 14.5c-.1 5.8 5.2 9.1 9.2 11 4.1 2 5.5 3.3 5.5 5.1 0 2.7-3.3 4-6.3 4-4.2 0-6.5-.6-9.9-2.2l-1.4-.6-1.5 9.1c2.5 1.1 7 2.1 11.7 2.2 11 0 18.2-5.5 18.3-13.9.1-4.7-2.7-8.2-8.7-11.1zM122.5 1.7h-8.2c-2.5 0-4.4.7-5.5 3.4L93.2 42.5h11s1.8-5 2.2-6.1h13.5c.3 1.4 1.3 6.1 1.3 6.1h9.7l-8.4-40.8zm-13 26.3c.9-2.3 4.2-11.4 4.2-11.4 0 .1.9-2.4 1.4-3.9l.7 3.5s2 9.7 2.4 11.8h-8.7zM38 1.7L27.7 29.5l-1.1-5.6-3.7-18.7c-.6-2.6-2.5-3.3-4.8-3.4H1.2l-.2.8c4.1 1 7.8 2.5 11.1 4.4l9.4 35.4h11.1L49.1 1.7H38z"/></svg>
