<svg xmlns="http://www.w3.org/2000/svg" width="152" height="40" viewBox="0 0 152 40"><path d="M5.8 30.2l2.5-6.7 2.3 6.7H5.8zm7.2 6.7h2.3L9.4 20.8H7.1L1 36.9h2.3L5.1 32h6.1l1.8 4.9zm10.7-3.4c0 1.3-1.1 2-2.9 2-1.5 0-2.4-.4-3-1.4l-2.2.4c.8 1.7 2.6 2.6 5.1 2.6 3.4 0 5.1-1.9 5.1-3.8 0-2.5-2.3-3.2-5.1-3.8-1.3-.3-2.8-.7-2.8-1.9 0-.8.8-1.8 2.4-1.8 1.6 0 2.6 1.1 2.8 1.6l1.9-.8c-.9-1.7-2.6-2.3-4.5-2.3-2.8 0-4.7 1.4-4.7 3.6 0 2.5 2.2 3 4.3 3.5 1.9.3 3.6.7 3.6 2.1m6.7-12.7l-2.1.9v3h-1.9v1.7h1.9v7.9c0 1.6 0 2.7 2.3 2.7.8 0 1.6-.1 2-.2v-1.7c-.4.1-.9.3-1.3.3-.9 0-.9-.6-.9-2.1v-6.9h2.2v-1.7h-2.2v-3.9zm4.1 3.9V37h2v-5.6c0-1 0-2.3.5-3.2.7-1.1 1.6-1.5 3.7-1.5v-2.1c-.8 0-3 .1-4.2 2.4v-2.2l-2-.1zm18.4-3.9v2h9.2l-9.2 12V37h11.8v-2h-9.4l9.1-12.2v-2H52.9zm24.8 3.9V37h2v-7c0-.9 0-1.8.9-2.7.6-.6 1.4-.9 2.3-.9 1.1 0 2.3.5 2.6 1.7.1.4.1.8.1 2V37h2v-7.3c0-1 0-1.8-.2-2.5-.6-2-2.5-2.8-4-2.8-.7 0-2.7.2-3.8 2.2v-1.9h-1.9zm32 9.3c-.4.8-1.2 1.6-2.8 1.6-1.4 0-3.7-.9-3.7-4.9 0-1.1.2-4.9 3.6-4.9 1.7 0 2.5.9 2.8 1.7l1.9-.8c-1.2-2-3.3-2.4-4.9-2.4-3.9 0-5.8 3.1-5.8 6.6 0 3 1.6 6.3 6 6.3 2.5 0 3.9-1.2 4.7-2.4l-1.8-.8zm-42-4.5h6.5c-.2-3.2-2-3.7-3.3-3.7-1.7 0-2.9 1.3-3.2 3.7m8.2 5.1c-.7 1.2-2 2.6-4.7 2.6-3.6 0-5.7-2.4-5.7-6.6 0-4.6 3-6.4 5.6-6.4 2.2 0 4.4 1.2 5.1 4.3.2 1 .2 2 .2 2.5h-8.8c-.1 2 .8 4.6 3.7 4.6 1.2 0 2-.5 2.5-1.4l2.1.4zm15.2-5.1h6.5c-.2-3.2-2-3.7-3.3-3.7-1.7 0-2.9 1.3-3.2 3.7m8.2 5.1c-.7 1.2-2 2.6-4.7 2.6-3.6 0-5.7-2.4-5.7-6.6 0-4.6 3-6.4 5.6-6.4 2.2 0 4.4 1.2 5.1 4.3.2 1 .2 2 .2 2.5H91c-.1 2 .8 4.6 3.7 4.6 1.2 0 2-.5 2.5-1.4l2.1.4zm23.4 2.3h-2.1s-.2-.9-.2-1.8c-.6.6-1.8 2-4.1 2-2.4 0-4.1-1.4-4.1-3.5 0-.6.2-1.3.5-1.8.7-1 2-1.9 5.6-2.1l1.9-.1v-.3c0-1.3 0-3.4-2.7-3.4-1.7 0-2.3.8-2.5 1.6l-1.9-.8c0-.1 0-.1.1-.2.7-1.3 2.1-2.2 4.2-2.2 1.1 0 2.6.3 3.6 1 1.4 1 1.3 3.1 1.3 3.1l.1 6.3c0-.1.1 1.7.3 2.2m-2.8-3.3c.3-.7.3-.9.3-2.7-.8.1-1.9.3-3.2.6-2.3.5-2.7 1.3-2.7 2.2 0 1 .8 1.8 2.3 1.8 1.5-.1 2.7-.7 3.3-1.9m-68.4 3.3h-2.1s-.2-.9-.2-1.8c-.6.6-1.8 2-4.1 2-2.4 0-4.1-1.4-4.1-3.5 0-.6.2-1.3.5-1.8.7-1 2-1.9 5.6-2.1l1.9-.1v-.3c0-1.3 0-3.4-2.7-3.4-1.7 0-2.3.8-2.5 1.6l-1.9-.8c0-.1.1-.1.1-.2.7-1.3 2.1-2.2 4.2-2.2 1.1 0 2.6.3 3.6 1 1.4 1 1.3 3.1 1.3 3.1l.1 6.3c-.1-.1 0 1.7.3 2.2m-2.8-3.3c.3-.7.3-.9.3-2.7-.8.1-1.9.3-3.2.6-2.3.5-2.7 1.3-2.7 2.2 0 1 .8 1.8 2.3 1.8 1.4-.1 2.7-.7 3.3-1.9M136.1 26.6l-.9.6c-3.7-2-11.6-6-12.3-6.4-.7-.4-2-.9-1.8-2.1.2-1.7 3.2-5.5 4.5-7 6.8-8.4 9.9-11 11.9-10.7 2.2.3 3.4 2.5 3.5 13-1.2-.4-2.5-.7-4-1.1-.1-1.5-.4-3.8-.5-4.6-.1-.9-.3-1.2-.6-1.3-.4 0-1.4.9-2.3 1.8l-2.9 2.9c-1.1-.1-1.8.1-2.2.7-.3.4-.4 1-.2 1.7l-1.7 1.7c-1.4 1.4-2.9 2.6-3 3.2-.1.5.6.9 1.7 1.6 2.5 1.5 8.6 4.8 10.8 6m9.7-10.5c-2.4-.8-8.4-3.1-14.7-3.9-2.2-.3-3 .5-2.1 2.5.9 2 3.1 5.4 5.5 8 2.4 2.6 5 3.2 5.8-.7 0-.1.1-.3.1-.4.2-1 .4-2 .4-2.8-1-.5-2.2-1-3.4-1.5.1.9.2 2.5.2 3.7v.4c.1 1.9-.6 1.9-1.7 1.1-1.3-.9-5.2-6.1-5.7-8.4 0-.1.1-.1.1-.1h.1c.9.3 3.9 1.5 6.9 2.8 1.2.5 2.4 1 3.5 1.5s2 .9 2.7 1.3c1.3.7 1.8 1.2 1.3 1.7-2.7 2.7-12.2 6.7-15.5 11.5-.1 0-.1.1-.1.2-.1.3-.4.8-.5 1.4-.1 1 .4 2 1.9 2.4.4.1.8.2 1.3.2h.3c2.9.1 10.5-1.5 12.8-2.5 2.4-1 1.7-2.1 1-2.6-.5-.4-3.2-1.9-4.5-2.6-.4.2-.6.4-.9.6 2.2 1.3 3 2 3.6 2.4.2.1.1.3-.2.3h-.2c-2.1.1-6 .4-7.9.5h-.7c.4-.4 1-.8 1.2-1 4-2.8 10.6-6.7 12.5-8.4 1.4-.8 5.3-4.6-3.1-7.6"/></svg>
