<svg xmlns="http://www.w3.org/2000/svg" width="118" height="58" viewBox="0 0 118 58"><path d="M117 25.1v-6.9H90.6v25.5c-.1-3-1.2-5.3-3.3-6.9-1.4-1.1-3.6-2-6.5-2.7l-6.5-1.5c-2.5-.6-4.2-1.1-5-1.5-.7-.4-1.2-.9-1.5-1.5-.2-.4-.3-.9-.3-1.5 0-1.1.4-2.1 1.2-2.9l.1-.1c.2-.2.4-.3.6-.4 1.2-.8 2.9-1.2 4.9-1.2 1.9 0 3.4.3 4.6.9 1.9 1 2.9 2.5 3 4.8h7.5c-.1-4-1.6-7-4.4-9.1S78.8 17 74.8 17c-4.8 0-8.4 1.1-10.8 3.3-1.5 1.3-2.6 2.9-3.1 4.7l-.3 1.2c-.9 4.3-3.7 7.2-8.3 7.2-7.4 0-10.2-6.3-10.2-12.6C42.1 14.3 44.9 8 52.3 8c4.1 0 7.7 2.8 8.2 6.5h8C67.5 5.8 60.6 1 52.3 1c-11 0-17.7 7.9-18.4 18.3V1.9h-8.2v23.3c0 5.6-1.9 8.1-7.8 8.1-6.7 0-7.7-4.1-7.7-8.1V1.9H2v23.3c0 10.2 5.9 15.1 16 15.1 10 0 16-4.9 16-15.1v-2.9c.6 10.1 7.3 18 18.4 18 4.5 0 8.4-1.5 11.3-4.1.2.1.4.3.5.4 1.5 1 4.2 2 8.2 2.8l4 .9c2.4.5 4.1 1.1 5.2 1.8s1.6 1.6 1.6 2.8c0 2.1-1.1 3.5-3.3 4.3-1.2.4-2.7.6-4.6.6-3.1 0-5.3-.8-6.6-2.3-.7-.8-1.2-2.1-1.4-3.8h-7.4c0 3.9 1.4 6.9 4.2 9.1 2.8 2.2 6.7 3.3 11.6 3.3 4.8 0 8.5-1.1 11.1-3.4 2.4-2.1 3.7-4.6 3.9-7.7v10.5h8.2V40.2h15.7v-6.4H98.9v-8.7H117z"/></svg>
