<svg xmlns="http://www.w3.org/2000/svg" width="150" height="28" viewBox="0 0 150 28"><path d="M114.9 3.9c0 1.1-.9 2-2 2s-2-.9-2-2 .9-2 2-2c1.1-.1 2 .8 2 2 0-.1 0-.1 0 0zM145 12.8h5v5.1h-5zM45.3 12.8h5v5.1h-5zM30.2 12.8h5v5.1h-5zM15.4 12.8h5v5.1h-5zM0 12.8h5v5.1H0z"/><path d="M12.1 2.5h.6c3.8 0 5.6 2.1 6.4 7.6l1.2-.1-.2-8.7H.5L.3 10l1.2.1c.2-2.1.4-3.2.9-4.3.9-2.1 2.8-3.3 5.2-3.3h.8v19c0 2-.1 2.7-.6 3.1-.4.4-1.2.5-2.1.5h-.9v1.3h10.9v-1.3h-.9c-.9 0-1.7-.2-2.1-.5-.5-.5-.6-1.1-.6-3.1v-19M63.9 26.4l6.4-22.2v17.4c0 1.9-.1 2.6-.5 3-.3.3-1.1.5-1.9.5h-.3v1.2h9v-1.2H76c-.8 0-1.6-.2-1.9-.5-.4-.5-.5-1.1-.5-3V6.8c0-1.9.1-2.6.5-3.1.3-.3 1.1-.5 1.9-.5h.5V2h-7l-5.3 17.9-5-17.9h-6.9v1.2h.7c1.9 0 2.2.4 2.2 2.9v14.1c0 2.2-.1 3.2-.4 3.8-.3.7-1.1 1.1-1.9 1.1h-.6v1.2h7.4v-1.2h-.5c-.9 0-1.7-.4-2.1-1.1s-.5-1.4-.5-3.9V4.2l6.3 22.2h1M84.2 9c-4.5 0-7.4 3.5-7.4 9 0 5.3 2.9 8.9 7.2 8.9 4.4 0 7.3-3.6 7.3-8.9.1-5.3-2.8-9-7.1-9m-.1 1.2c1.3 0 2.4.8 3 2.2.6 1.3.8 3 .8 5.6 0 5.2-1.2 7.7-3.8 7.7-2.6 0-3.8-2.6-3.8-7.8 0-2.5.2-4.2.8-5.5.6-1.3 1.8-2.2 3-2.2M97.3 1.8l-5.1.2v1.1h.2c1.5 0 1.8.5 1.8 2.9v16.7c0 2.2-.1 2.7-.4 3.7H95c.9-1.5 1.1-1.7 1.5-1.7.2 0 .3.1.6.3 1.8 1.4 2.5 1.7 4.1 1.7 3.9 0 6.7-3.7 6.7-9.1 0-5-2.6-8.4-6.5-8.4-2 0-3.5 1-4.2 2.7l.1-10.1m3.8 8.7c2.3 0 3.5 2.5 3.5 7.3 0 5.1-1.2 7.7-3.6 7.7-2.6 0-3.9-2.7-3.9-7.6 0-2.5.3-4.2 1.1-5.4.6-1.2 1.7-2 2.9-2M114.7 9.3l-5.2.3v1.1h.4c1.5 0 1.8.5 1.8 2.9v8.7c0 2.4-.3 2.9-1.8 2.9h-.6v1.2h7.8v-1.2h-.6c-1.5 0-1.8-.5-1.8-2.9v-13M123.8 1.8l-5.3.2v1.1h.4c1.5 0 1.8.5 1.8 2.9v16.2c0 2.4-.3 2.9-1.8 2.9h-.6v1.2h7.8v-1.2h-.6c-1.5 0-1.8-.5-1.8-2.9l.1-20.4M140.5 17.9c-.2-5.4-2.7-8.8-6.7-8.8-3.8 0-6.5 3.7-6.5 8.8 0 5.5 2.7 9 6.9 9 2.7 0 4.6-1.4 6.1-4.6l-1.1-.6c-1.2 2.7-2.5 3.7-4.5 3.7-2.8 0-4.1-2.2-4.1-7.6l9.9.1m-9.8-1.3c0-3.8 1.3-6.3 3.3-6.3s3.2 2.4 3.2 6.3h-6.5"/></svg>
