<svg xmlns="http://www.w3.org/2000/svg" width="150" height="36" viewBox="0 0 150 36"><path d="M50.766 21.16h-1.3v5c0 .7.1 1.1.4 1.3.2.2.6.3 1.2.3h.6v.7h-7.6v-.7h.7c.7 0 1.1-.1 1.3-.3s.4-.6.4-1.2v-12c0-.8-.2-1.3-.5-1.5-.3-.1-.7-.2-1.4-.2h-.5v-.6h6.6c1.9 0 3.3.3 4.4 1 1.3.8 2 2 2 3.6s-.6 2.7-1.9 3.5c-1.1.8-2.6 1.1-4.4 1.1zm3.1-4.5c0-2.6-1.1-4-3.2-4h-1.1v7.8h1.2c2.1 0 3.1-1.3 3.1-3.8zm13.1 1.5c0 .4-.1.7-.4 1s-.6.4-1.1.4c-.4 0-.7-.1-1-.3-.3-.2-.4-.5-.4-.7 0-.3 0-.5.1-.6-.5.4-.9 1.4-1.1 2.8-.2 1.1-.3 2.1-.3 3.2v1.7c0 .9.1 1.4.2 1.7.1.2.5.3 1.1.3h1.1v.7h-7.6v-.7h.7c.7 0 1.2-.1 1.3-.4.2-.3.2-.8.2-1.6v-4.4c0-1.6-.1-2.6-.2-2.9-.2-.3-.5-.5-1.1-.5h-.2v-.7h4.1l.1 2.9c.1-.8.3-1.5.7-2.1.5-.7 1.2-1.1 2.1-1.1 1.2-.1 1.7.4 1.7 1.3zm13.3 10.2h-4.3v-1.7c-.2.5-.5 1-1.1 1.4-.6.5-1.3.7-2.1.7-1.3 0-2.2-.4-2.7-1.1-.4-.6-.6-1.4-.6-2.6v-4.9c0-1.2-.1-1.9-.2-2.1s-.4-.2-.8-.2h-.2v-.7h4.1v8.2c0 1.2.5 1.9 1.5 1.9.9 0 1.4-.6 1.7-1.7.1-.4.2-1 .2-1.8v-3.6c0-1.2-.1-1.9-.2-2-.2-.2-.6-.3-1.2-.3h-.3v-.7h4.6v8.6c0 .8.1 1.4.3 1.7.2.2.4.3.9.3h.4v.6zm12.6 0h-4.3v-1.7c-.1.5-.5.9-1 1.3-.6.5-1.4.8-2.2.8-1.6 0-2.8-.6-3.6-2-.6-1-.9-2.4-.9-4 0-1.5.4-2.8 1.2-4 .9-1.3 2.1-2 3.7-2 1.3 0 2.1.4 2.5 1.1v-3.4c0-.7-.1-1.2-.4-1.4-.2-.2-.6-.3-1.1-.3h-.2v-.7l4.7-.5v14.6c0 .6.1 1 .3 1.2s.6.2 1.1.2h.3l-.1.8zm-4.6-4.5v-2.4c0-2.5-.7-3.8-2-3.8-1.4 0-2.1 1.7-2.1 5 0 3.1.7 4.7 2 4.7.8 0 1.3-.4 1.6-1.1.3-.7.5-1.5.5-2.4zm15.4-1.5h-7c0 .8 0 1.7.2 2.5.3 1.9 1.1 2.8 2.4 2.8 1 0 1.9-.4 2.5-1.1.5-.6.8-1.3.8-2.1h1c0 1-.4 1.9-1.2 2.7-.9 1-2.1 1.5-3.5 1.5-1.8 0-3.1-.6-4.1-1.7-.9-1.1-1.3-2.5-1.3-4.3 0-1.7.5-3.2 1.5-4.3s2.3-1.7 3.8-1.7c1.7 0 2.9.6 3.8 1.7.7 1.1 1.1 2.4 1.1 4zm-3.1-.8c.1-2.8-.6-4.2-1.9-4.2-.8 0-1.4.6-1.7 1.7-.2.5-.3 1.4-.3 2.5h3.9zm16.2 6.8h-4.6v-8.4c0-1.2-.5-1.8-1.5-1.8-.6 0-1 .3-1.3.8-.3.6-.5 1.4-.5 2.5v4.2c0 1 .1 1.6.2 1.7.2.2.6.3 1.1.3h.3v.7h-6.2v-.7h.4c.5 0 .9-.1 1.1-.3.1-.1.2-.7.2-1.7v-5.8c0-.9-.1-1.5-.2-1.7-.2-.2-.5-.3-.9-.3h-.5v-.7h4.3l.1 1.8c.5-1.4 1.6-2.1 3.2-2.1 1.2 0 2.1.3 2.6 1 .4.6.6 1.5.6 2.8v5.1c0 .9.1 1.5.2 1.7.2.2.5.3.9.3h.5v.6zm8.1-4.2c0 1.5-.1 2.5-.4 3.1-.4.9-1.4 1.4-2.8 1.4-1.9 0-2.8-1.1-2.8-3.1v-7.7h-2v-.7h.2c1.2 0 2.2-.6 3-2 .7-1.1 1-2.2 1-3.2h.7v5.2h2.3v.8h-2.2v8.1c0 1 .3 1.5.9 1.5.3 0 .6-.2.8-.4.3-.4.4-1.4.4-2.8h.9v-.2zm7 4.2h-6.1v-.7h.4c.5 0 .8-.1.9-.3.2-.2.2-.8.2-1.7v-6.1c0-.8-.1-1.3-.4-1.5-.2-.2-.6-.2-1.1-.2h-.2v-.7h4.7v8.5c0 .9.1 1.5.2 1.7.2.2.5.3.9.3h.4l.1.7zm-1.3-14.8c0 .5-.2.9-.5 1.3-.4.4-.8.5-1.3.5s-.9-.2-1.3-.5c-.4-.4-.6-.8-.6-1.3s.2-.9.5-1.3c.4-.3.8-.5 1.3-.5s.9.2 1.3.5c.4.4.6.8.6 1.3zm12.5 14.8h-4.1v-1.8c-.1.5-.5 1-1.1 1.4-.7.5-1.4.7-2.2.7-1.1 0-2-.3-2.6-1-.5-.6-.7-1.2-.7-1.9 0-1.2.6-2.2 1.8-2.9.9-.5 2.4-1 4.6-1.4v-1.8c0-1.4-.8-2-2.3-2-.5 0-1.1.1-1.5.4-.4.2-.7.5-.8.7.1-.2.4-.3.7-.3.9 0 1.4.4 1.4 1.3 0 .3-.2.7-.5.9-.3.3-.7.4-1.1.4s-.8-.1-1.2-.4c-.4-.3-.5-.7-.5-1.3 0-.8.4-1.4 1.2-1.9.8-.5 1.8-.7 3-.7 3 0 4.4 1.3 4.4 3.9v5.5c0 .6.1 1.1.3 1.2.2.2.5.2.8.2h.4v.8zm-4.3-4.3v-1.8c-1.2.2-2 .5-2.5.9-.6.5-.9 1.2-.9 2.2 0 .6.1 1.1.4 1.4.2.3.6.5.9.5.7 0 1.2-.3 1.6-1 .3-.4.5-1.2.5-2.2zm11.2 3.6v.7h-5.9v-.7h.1c.4 0 .7-.1.9-.2.2-.2.3-.6.3-1.2v-11.8c0-.7-.1-1.2-.3-1.4-.2-.2-.5-.3-.9-.3h-.4v-.7l4.7-.5v14.6c0 .6.1 1 .3 1.2.2.2.6.2 1.1.2h.1v.1zM25.1 10.8l-7.8-4.5-2.8-.5v2.1l2.2 2-3-.3c0 .1.9 1 2.6 2.8l11.5 1.9 2 1.3-5.3.4-2.1 7.9-7.1 4.7h-4.6l1.6-3.1-.2-.1-4.2 3.2h-1l4.3-6c0-.4.2-1.7.3-4l-.6-.9L9 24.3l-3.6 4.3h-.9l2.1-3 3-9.1-.7.4-1.3 3.6-.9.5-3.2 7.7C1.1 25.4 0 21.7 0 17.8c0-4.3 1.6-8.1 4.8-11.5C8.2 2.8 12.5 1 17.5 1c4.5 0 8.4 1.5 11.7 4.6 2.6 2.4 4.2 5 4.8 7.7l-8.9-2.5zm7 .8c-1.1-2.7-2.9-4.9-5.5-6.7-2.8-1.9-5.8-2.8-9.1-2.8-4.7 0-8.7 1.7-11.9 5-3 3.1-4.4 6.7-4.4 10.7 0 3.1.7 5.9 2.2 8.5l4.4-11.7c.9-.5 1.4-.7 1.4-.6l2-5 1.2-.7L14 5l3.4.5 6.9 3.9 7.8 2.2zm-1.4 17.8c-1.5 1.9-3.5 3.4-6 4.5-2.3 1.1-4.8 1.6-7.3 1.6-5.5 0-9.9-2-13.3-6.1h26.6zm-5.5-5.5l-2.5 4.7h-2.4l4.5-5.6.4.9zm6.4-5.1L30 22.6l-1.5 1.3-2.9 4.7h-1.9l1.9-3.4 1.5-1.2 2.2-6.1 2.3.9zm-2.9-1.1l-2.1 4-1.1.2.3-2.3-.3-.6.3-2.6 2.9 1.3zm5.9 2.1c-.2 3.2-1.3 6.1-3.2 8.8h-3.9l3.7-5.8 1.1-3.8 2.3.8z"/></svg>
