<svg xmlns="http://www.w3.org/2000/svg" width="150" height="52" viewBox="0 0 150 52"><path d="M129.6 30.1c-.1 1.3-.7 2.2-1.5 2.8 14.4-6.5 22.9-13.7 21.8-20-2-11.7-37.2-15.4-78.6-8.2-18 3.1-34.3 7.8-46.7 13.1.7-.2 1.4-.2 2.2-.2 2.2 0 5.2.5 5.2 3.9v1.1h-3.9v-1c0-.8-.5-1.4-1.4-1.4-1 0-1.3.5-1.4 1 0 .2-.1.5 0 .8.4 1.8 6.3 2.8 7 6 .1.3.2 1.2 0 2.5-.4 2.6-2.7 3.5-5.5 3.5-2.9 0-5.6-1-5.6-4.5v-1.2h4.2V30c0 .8.6 1.4 1.6 1.4s1.4-.5 1.5-1c.1-.3.1-.8 0-1.2-.8-2-6.3-2.9-7-6.1-.2-.8-.1-1.4 0-2.1.2-1.1.7-1.9 1.5-2.4C7.8 25.2-1 32.6.1 38.9c2 11.7 37.2 15.4 78.6 8.2 18.5-3.2 35-8 47.5-13.5-.6.2-1.3.2-2.1.2-2.8 0-5.2-1-5.5-3.8 0-.5 0-.7-.1-1v-6.5c0-.3 0-.8.1-1 .3-2.9 2.7-3.8 5.4-3.8 2.8 0 5.2.9 5.4 3.8V23h-3.9v-.9-.6c-.1-.3-.4-1.1-1.5-1.1s-1.5.7-1.5 1.1c0 .2-.1.5-.1.7V29.9c.1.4.5 1.1 1.6 1.1s1.5-.7 1.6-1.1V27H124v-2.3h5.5V29c.2.3.2.5.1 1.1zm-86.3 3.5l-2.1-14.1h-.1L39 33.6h-4.2l2.9-15.5h6.9l2.9 15.5h-4.2zm20.7 0l-.1-13.9h-.1l-2.6 13.9h-3.9l-2.6-13.9h-.1l-.1 13.9h-3.9l.3-15.5h6.3L59.1 30h.1l1.9-11.9h6.3l.3 15.5H64zm18.6-3c-.4 2.6-2.7 3.5-5.4 3.5-2.9 0-5.6-1-5.6-4.5v-1.2h4.1v1.5c0 .8.6 1.4 1.5 1.4 1 0 1.4-.5 1.5-1 .1-.3.1-.8 0-1.1-.8-2-6.2-2.9-6.9-6-.2-.8-.1-1.4 0-2.1.4-2.5 2.6-3.4 5.4-3.4 2.2 0 5.2.5 5.2 3.9v1.1h-3.8v-.9c0-.8-.5-1.4-1.4-1.4-1 0-1.3.5-1.4 1 0 .2-.1.5 0 .8.4 1.8 6.3 2.8 6.9 6 0 .2.1 1.1-.1 2.4zm14.6-.4c-.3 2.9-2.6 3.8-5.4 3.8-2.9 0-5.1-.9-5.4-3.8V18.1h3.9v12.1c.1.4.4 1.1 1.5 1.1s1.4-.7 1.5-1.1V18.1h3.9v12.1zm17.4 3.2h-5.5l-3.8-12.6h-.1l.2 12.6h-3.8V18.1h5.8l3.6 12.2h.1l-.2-12.2h3.8l-.1 15.3z"/></svg>
