<svg xmlns="http://www.w3.org/2000/svg" width="144" height="30" viewBox="0 0 144 30"><path d="M134.616 24.629c0-2.174 1.63-3.804 3.805-3.804 2.174 0 3.804 1.63 3.804 3.804s-1.63 3.804-3.804 3.804-3.805-1.63-3.805-3.804M16.138 14.846c0-2.174-.544-4.347-1.63-5.434-1.088-1.087-2.175-1.63-4.349-1.63H7.985v14.13h1.63c2.175 0 3.262-.544 4.349-1.63 1.63-1.088 2.174-3.262 2.174-5.436m7.065-.543c0 4.348-1.087 7.609-3.261 9.783-2.174 2.173-5.435 3.26-9.783 3.26H2.007V1.803h8.696c3.804 0 7.065 1.087 9.239 3.26 2.174 2.175 3.26 5.436 3.26 9.24M45.485 27.89h6.522V2.346h-6.522V27.89zM61.246 18.107c0 1.63 0 2.718.544 3.805s1.087 1.087 2.174 1.087 1.63-.544 2.174-1.087.543-2.174.543-3.805c0-1.63 0-2.717-.543-3.804s-1.087-1.087-2.174-1.087-1.63.543-2.174 1.087c-.544 1.087-.544 2.174-.544 3.804m11.957 0c0 3.261-1.087 5.435-2.717 7.066-1.63 1.63-3.805 2.717-7.066 2.717-2.717 0-4.891-1.087-6.521-2.717-1.63-1.63-2.718-4.348-2.718-7.066s1.087-5.435 2.718-7.065c1.63-1.63 3.804-2.717 7.065-2.717 1.63 0 3.26.543 4.891 1.087 1.63.543 2.718 2.174 3.261 3.26 1.087 1.63 1.087 3.261 1.087 5.435M75.92 27.89h6.522V8.868H75.92V27.89zM75.92 6.15h6.522V1.804H75.92V6.15zM95.486 22.999c1.087 0 1.63 0 3.26-.544v4.891c-1.086.544-1.63.544-2.717 1.087s-1.63 0-2.717 0c-2.174 0-3.805-.543-4.892-1.63-1.087-1.087-1.63-2.717-1.63-4.891v-8.153h-2.174V8.87h2.174V3.976l6.522-1.087v5.978h4.348v4.891h-4.348v7.61c.543 1.086 1.087 1.63 2.174 1.63M110.16 22.999c1.087 0 1.63 0 3.26-.544v4.891c-1.086.544-1.63.544-2.717 1.087s-1.63 0-2.717 0c-2.174 0-3.805-.543-4.892-1.63-1.087-1.087-1.63-2.717-1.63-4.891v-8.153H99.29V8.87h2.174V3.976l6.522-1.087v5.978h4.348v4.891h-4.348v7.61c.543 1.086 1.087 1.63 2.174 1.63M121.573 15.933c0-1.087.543-1.63 1.087-2.174.543-.543 1.087-.543 1.63-.543 1.087 0 1.63 0 2.174 1.087.544.543.544 1.087.544 2.174h-5.435v-.544zm9.239-5.434c-1.63-1.63-3.804-2.174-6.522-2.174-2.717 0-5.435 1.087-7.065 2.717-1.63 1.63-2.174 4.348-2.174 7.609 0 3.26 1.087 5.435 2.717 7.065 1.63 1.63 4.348 2.717 7.066 2.717 1.63 0 2.717 0 3.804-.543 1.087 0 2.174-.544 3.26-1.087l-1.086-4.348c-.544 0-1.63.544-2.174.544-1.087 0-2.174.543-3.26.543-1.088 0-2.175-.543-2.718-1.087-.544-.543-1.087-1.63-1.087-2.717h11.413V17.02c0-2.717-.544-4.891-2.174-6.521M31.898 15.933c0-1.087.544-1.63 1.087-2.174.544-.543 1.087-.543 1.63-.543 1.088 0 1.631 0 2.175 1.087.543.543.543 1.087.543 2.174h-5.435v-.544zm9.24-5.434c-1.63-1.63-3.805-2.174-6.522-2.174-2.718 0-5.435 1.087-7.065 2.717-1.63 1.63-2.174 4.348-2.174 7.609 0 3.26 1.087 5.435 2.717 7.065 1.63 1.63 4.348 2.717 7.065 2.717 1.63 0 2.718 0 3.805-.543 1.087 0 2.174-.544 3.26-1.087l-1.086-4.348c-.544 0-1.63.544-2.174.544-1.087 0-2.174.543-3.261.543-1.087 0-2.174-.543-2.718-1.087-.543-.543-1.087-1.63-1.087-2.717h11.414V17.02c0-2.717-1.087-4.891-2.174-6.521"/></svg>
