<svg xmlns="http://www.w3.org/2000/svg" width="72" height="79" viewBox="0 0 72 79"><path d="M15.8 72.3v4c-.8.5-4.8 2.3-9.2.9-2.5-.8-3.7-3.3-4-4.3-.2-1.1-1.8-10 6.4-10.8 2.1-.2 5.7.2 6.7 1.1v4c-.6-.3-3.5-1.9-6.6-1.2s-3.3 6.4-.6 7.6 7-.6 7.3-1.3M18 77.4h4.3V62.2H18v15.2zM23.5 62.2v3.7h4.1v11.6H32V65.9h4v-3.7H23.5M49.6 63c-.5-.4-4.1-1.5-8.4-.6-3.9.8-4.4 5.1-4.5 5.5-.2 1-1.2 8.6 4.2 9.6 6 1 10-.2 10-5.1v-3.8H44v3.3h3.1c0 1.3-.2 2.4-1.5 2.5-1.3.1-5.2.6-5.1-3.7.1-3.5.4-5.5 5.5-4.9 1.9.2 3.4.7 3.4.7l.2-3.5M60.6 62c-5.7 0-8.1 2.4-8.1 8.3.1 5.6 2.7 7.8 8.2 7.8 5.5-.1 8.1-2.5 8.1-8.1.1-5.6-2.5-8-8.2-8zm-.1 3.7c2.8 0 4.2 1.3 4.2 4.2s-1.5 4.3-4.2 4.3-4.2-1.2-4.3-4.1c.2-3.2 1.6-4.4 4.3-4.4zM5.8 55l-4.4 2.3h68.8l-14.7-8L36 38.6zM39.1 39l31.7 17.4L36.6 1v36.6zM35.4 1L.8 56.4l32.6-17.7 2-1.1z"/></svg>
