<svg xmlns="http://www.w3.org/2000/svg" width="182" height="40" viewBox="0 0 182 40"><path d="M180.5 38.2h-5.7L154.6 18h23.1v4h-13.4l16.2 16.2zm-2.9-36.4h-36.4v36.4h4V5.8h32.4v-4zM10.3 29h3.5L10 20.9h.1c2.1-.6 3.3-2.3 3.3-4.6 0-3.4-2.1-5.3-5.7-5.3H.5v18h3.3v-7.4H7l3.3 7.4zM3.8 19v-5.4h3.3c2 0 3.1.9 3.1 2.7 0 1.9-1.1 2.7-3.6 2.7H3.8zm23.4 2v-2.7h-6.3v-4.6h8.6V11H17.6v17.9h12.1v-2.7h-8.8v-5.3l6.3.1zm16.3-2.7h-6.1v-4.6h8.1V11H34.2v17.9h3.3v-8h6v-2.6zm6-7.3v17.9h3.3V11h-3.3zm28 0v17.9h3.3V11h-3.3zm20 0H84.8v2.7h4.7V29h3.3V13.7h4.7V11zm3.9 0v17.9h3.3V11h-3.3zM69 11v12.7h-.1L61.6 11h-3.5v17.9h3V15.7h.1l4 7 3.6 6.3H72V11h-3zm51 0l-4.2 14.6-4.2-14.6h-3.2l5.6 17.9h3.7l5.6-17.9H120z"/></svg>
