<svg xmlns="http://www.w3.org/2000/svg" width="64" height="74" viewBox="0 0 64 74"><path d="M60.7 56.5c-1.1 2.5-2.4 4.8-3.8 6.9-2 2.9-3.7 4.9-4.9 6-2 1.8-4.1 2.7-6.3 2.8-1.6 0-3.6-.5-5.9-1.4-2.3-.9-4.4-1.4-6.3-1.4-2 0-4.2.5-6.5 1.4s-4.2 1.4-5.6 1.5c-2.2.1-4.3-.9-6.5-2.9-1.4-1.2-3.1-3.3-5.2-6.2-2.2-3.1-4-6.7-5.5-10.8-1.4-4.5-2.2-8.8-2.2-13 0-4.8 1-8.9 3.1-12.3 1.6-2.8 3.8-5 6.5-6.6s5.6-2.4 8.8-2.5c1.7 0 4 .5 6.8 1.6 2.8 1 4.6 1.6 5.4 1.6.6 0 2.6-.6 6-1.9 3.2-1.2 5.9-1.6 8.1-1.4 6 .5 10.5 2.8 13.5 7.1-5.4 3.2-8 7.8-8 13.6 0 4.5 1.7 8.3 4.9 11.3 1.5 1.4 3.1 2.5 4.9 3.2-.4 1.3-.8 2.4-1.3 3.4zM47 2.4c0 3.6-1.3 6.9-3.9 10-3.1 3.7-6.9 5.8-11 5.4-.1-.4-.1-.8-.1-1.3 0-3.4 1.5-7.1 4.1-10.1 1.3-1.5 3-2.8 5-3.8s4-1.5 5.8-1.6c.1.5.1 1 .1 1.4z"/></svg>
