<svg xmlns="http://www.w3.org/2000/svg" width="155" height="30" viewBox="0 0 155 30"><path d="M12 4.6c-1.8 0-2.3.9-2.3 2.5v3h4.8l-.4 4.9H9.7v14.5H3.9V15H0v-4.8h3.9V7.4C3.9 2.5 5.8 0 11.3 0c1.2 0 2.5 0 3.2.2v4.4M15 19.2c0-5.3 2.5-9.5 7.8-9.5 3 0 4.6 1.4 5.5 3.5v-3h5.5v19.2h-5.5v-3c-.9 1.8-2.5 3.2-5.5 3.2-5.3 0-7.8-3.9-7.8-9.5m5.8.4c0 2.8 1.2 4.8 3.7 4.8 2.3 0 3.7-1.8 3.7-4.4v-2.1c0-2.8-1.2-4.4-3.7-4.4-2.5-.2-3.7 1.8-3.7 4.6v1.5zM46.2 9.9c2.3 0 4.4.5 5.5 1.4l-1.4 4.2c-.9-.5-2.3-.9-3.9-.9-3.2 0-4.6 1.8-4.6 4.8v1.2c0 3 1.4 4.8 4.6 4.8 1.6 0 3-.5 3.9-.9l1.4 4.2c-1.2.9-3.2 1.4-5.5 1.4-6.9 0-9.9-3.7-9.9-9.5v-1.2c-.1-6 2.9-9.5 9.9-9.5M52.4 20.5v-1.6c0-5.5 3-9 9.5-9 6 0 8.5 3.7 8.5 9v3H58.2c.2 2.5 1.4 3.7 4.6 3.7 2.1 0 4.4-.5 6.2-1.2l1.2 3.9c-1.6.7-4.6 1.4-7.4 1.4-7.6.1-10.4-3.4-10.4-9.2m5.8-2.5h6.9v-.5c0-2.1-.9-3.7-3.5-3.7-2.3 0-3.4 1.7-3.4 4.2M92.1 20.5c0 5.3-2.5 9.5-7.8 9.5-3 0-4.8-1.4-5.8-3.2v3H73V.5l5.7-.5v12.9c.9-1.6 2.8-3 5.3-3 5.3 0 7.8 3.9 7.8 9.5m-5.5-.2c0-2.8-1.2-4.6-3.9-4.6-2.3 0-3.7 1.6-3.7 4.4v1.8c0 2.8 1.4 4.4 3.7 4.4 2.8 0 3.9-2.1 3.9-4.6v-1.4zM93.9 20.3v-.9c0-5.5 3.2-9.5 9.5-9.5 6.5 0 9.7 3.9 9.7 9.5v.9c0 5.5-3.2 9.5-9.5 9.5-6.4 0-9.7-4-9.7-9.5m13.4-1.4c0-2.5-1.2-4.6-3.7-4.6-2.8 0-3.7 2.1-3.7 4.6v1.8c0 2.5 1.2 4.6 3.7 4.6 2.8 0 3.7-2.1 3.7-4.6v-1.8zM114.9 20.3v-.9c0-5.5 3.2-9.5 9.5-9.5 6.5 0 9.5 3.9 9.5 9.5v.9c0 5.5-3.2 9.5-9.5 9.5-6.2 0-9.5-4-9.5-9.5m13.4-1.4c0-2.5-1.2-4.6-3.7-4.6-2.8 0-3.7 2.1-3.7 4.6v1.8c0 2.5 1.2 4.6 3.7 4.6 2.8 0 3.7-2.1 3.7-4.6v-1.8zM142.2 19.4l5.7-9.2h6.3l-6.3 9.4 6.5 9.9h-6.2l-6-9.4v9.4h-5.8V.5l5.8-.5"/></svg>
