<svg xmlns="http://www.w3.org/2000/svg" width="82" height="91" viewBox="0 0 82 91"><path d="M10.8 79.5c-.2-.5-.5-1.4-.6-2.1-.2-1.6.6-2.6 1.4-2.8.8-.2 1.1.2 1.5 1.1.5 1.5.5 3.5.3 6.3-.2 3.9-2.1 8.5-6.9 8.3-4.1-.1-5.9-2.7-6.1-6.8-.1-1.9.1-3.9.8-6.5.5-1.4.8-2 2.1-2.3 1.1-.2.9.9.7 2.1-.5 2.8-.8 4.2-.5 7.3.2 3.3 1.7 4.7 3.4 4.7 2.5.1 3.6-2 4.1-5.1.3-2.3.1-3.5-.2-4.2zm53.7 3.3c1 0 1.3 1.1 1.1 1.9-.2.7-1.1 1.5-2.3 1.7-.4-.7-.5-3.6 1.2-3.6zm-18.2 1.6c0-.8-.5-1.4-.9-1.4s-1.4.5-1.4 2c0 1.1.4 1.7.6 2 1.3-.6 1.7-1.7 1.7-2.6zm-14.5-9.6c-.1-.8-.7-1.3-1.4-1.3-.9 0-1.7.9-1.7 2.1.1.8.5 1.4 1.4 1.4 1 .1 1.8-1.1 1.7-2.2zm7.5 2.8c-.1-1.3-.4-1.9-1.1-1.8-.9.1-1.4 2.9-1.1 6.1.2 2 .5 2.3.7 2.3.5-.1 1.8-3.7 1.5-6.6zm31.1 4.9c-.6 2.4-2.3 5.9-4.9 5.9-.6 0-1.7-.2-1.7-.8 0-.7 4.1-.8 4.1-3.9 0-1.1-1.1-2.8-2.6-2.8-2.1 0-4.2 2.3-4.2 5.4 0 2.9 1.7 3.8 3.6 3.8 3.1 0 4.9-2.5 5.9-4.6.5 1.4.8 4.6 1.9 4.6.5 0 .8-.2 1.4-1.5 1.4-3.1 2.7-6.7 4.6-6.7.7 0 .3 1.3 2 1.3.8 0 1.4-.7 1.4-1.4 0-1.1-1-1.9-2.5-1.9-4.4 0-5.3 6.6-6.1 6.6-1.1 0-.8-5.3-1.7-5.3-.8 0-1.2.9-1.2 1.3zM33 88.1c.7 0 1.9-.2 2.9-1.7-.5-1.2-.9-3.6-1-4.5-.3-4.5 1.4-8.8 3.4-8.9 1.4-.1 2.5 1.2 2.6 3.4.4 5.7-1.5 8-2.5 10.1.2.8 1.5 2.1 2.7 2.1.5 0 1.1-.2 1.1-.5-.1-.3-.2-.8-.2-1.4 0-3.3 2.1-6.1 3.9-6.1 1.4 0 2.3 1.9 2.3 3.2 0 1.5-1.3 2.7-3.1 3.9.3.3.9.5 1.4.5 2.6 0 4.1-3.3 5.1-6.2.2-.5.5-1.4 1.1-1.4 1.1 0 1.6 7.4 3.5 7.4.8 0 1.4-1.7 1.4-2.9 0-.9-.3-1.1-.3-2.4 0-1.5.8-2.7 1.9-2.7.7 0 .9.7.9 1.4 0 3-2.1 8.5-5.3 8.5-2.4 0-2.2-4.1-3-4.1-.9 0-2.3 4.2-6.9 4.2-.8 0-1.5-.4-2.2-1.1-1.1.8-2 1.1-3.1 1.1-1.7 0-2.5-1.7-3.2-1.7-.8 0-1.7 1.8-4.6 1.8-2.3 0-2.6-2.9-3.4-2.9-.7 0-1.7 2.9-2.9 2.9-2 0-2.3-5.1-4.1-5.1-1.4 0-5.6 5.3-6.8 5.1-.5-.1-.7-.4-.6-.8.1-.7.6-2.3.8-3.2.4-1.4.8-2.9.9-3.5.2-.5.7-.8 1.1-.8.2 0 .3.4.3.8.2 1.1.5 2.3.9 2.3.7 0 2.8-4.2 4.1-4.2 1.5 0 1.7 6.5 3.9 6.5.7 0 1.2-.8 1.7-1.9.1-1.7.5-4.2 1.9-4.2 1 0 1.4 2.2.8 4.1.1 2.3 1.6 2.9 2.6 2.9M65.5 14.9c-.4 0-.8 0-1.1-.5-.2-.5-.2-1.1-.6-1.5.5.2.8.2 1.2.2 1.1 0 2.2-.8 3-.8.5 0 .7.4.7.7.1 1-2.1 1.9-3.2 1.9zm.5 2.8c2.6 0 4.9-2 4.9-3.9 0-.8-.4-1.5-1.4-1.7.2.2.2.4.2.8 0 1.4-2 2.9-4.3 2.9-.8 0-1.1.6-1.1.8.1.8.8 1.1 1.7 1.1zm-.2 1c.3 2.3 3.9 5.5 4.8 5.4.7-.1.9-3.1.9-5.4 0-1.4.1-2.4-.7-2.6-1 2.2-4 2.8-5 2.6M10.1 34.3c.8 0 .7-5.1 2-5.1.3 0 .5.3.5.8 0 1.1-.6 2.9-.6 3.8 0 .5.2.6.4.6.6 0 1.7-5.7 2.6-5.7.3 0 .5.3.5.7 0 1.2-1.5 4.6-1.5 5.6 0 .2.1.3.2.3.6 0 1.9-2.6 2.3-4 .2-.7.5-1.1.8-1.1s.5.3.5.8c0 1.4-1.2 4.5-2.3 6.6-.8 1.7-2.1 4-2.1 5.3 0 .7.2 1.4 1.1 2.2-1.6-.1-2.2-.2-2.8-1.5-2.6 5.3 4.9 4.8 2.3 9.5-.5-.8-4.2-1.7-4.2-6.6 0-4.2 3.7-6.7 3.7-8.5 0-.4-.2-.7-.5-.9-.8-.7-.8-1.3-1.5-1.3-.5 0-1.1 1.1-.5 2 .2.3.4.5.4.8 0 .7-1.1 2.6-1.9 2.6-.8 0-1.4-1.9-1.4-5 0-2.7.6-5.4 1.4-5.4.2 0 .3.2.3.4 0 .3-.1 1-.1 2-.1 1 .2 1.1.4 1.1"/><path d="M16.4 41.6c1.1 0 1.9-.8 1.9-2.5v-2.5c0-1 .1-2 .8-2.8-.1.3-.1.7-.1 1 0 2.1 1.2 3.6 1.2 5.7 0 .8-.2 1.2-.8 1.2-.6 0-.5-.5-.7-.5-.1 0-.2.3-.2.7 0 .5.4 1.4 1.4 1.4.9 0 1.6-.8 1.6-1.7 0-2.2-1.7-4.7-1.7-7.1 0-1.1.3-1.7.5-2.3 0 4.9 4.2 8.5 4.2 10.6 0 .5-.4.8-.8.8-.6 0-.8-.5-.8-.8 0-.2 0-.2-.1-.2-.2 0-.6.5-.6 1.1 0 .8.7 1.8 1.9 1.8 1.4 0 2.2-1.2 2.2-2.3 0-2.6-5.1-6.5-5.1-10.7 0-.8.2-1.9.7-2.8-3.3 2.1-4.3 4.9-4.3 7.3 0 2.1-.1 3.2-1.1 3.2-.6 0-.8-.5-.9-.5-.2 0-.2.5-.2.6-.3.7.3 1.3 1 1.3M53.9 13.7c.3-.2 1.7.2 3.5-.8.2-.2.5-.2.7-.2.8 0 .7 1 1.4 1 .6 0 1.4-.5 1.9-.5.8 0 1.8 2.3 1.8 3.4 0 1.3-1.9 2-4.2 2-3.3 0-5.3-2.9-5.3-4.8.1 0 .2-.1.2-.1zm5.4 3.1c1.1 0 1.9-.5 1.9-.8 0-.1-.2-.2-.5-.2s-1 0-2.2-.2c-1.1-.2-1.8-.6-2.1-.6-.1 0-.2.1-.2.2.1.7 1.3 1.6 3.1 1.6M17 50.9c-.8.2-2.1 1.5-2.1 3.6 0 2.4 2.6 6.2 6.9 6.2 3.6 0 4.5-2.5 4.5-4.2 0-3.7-2.3-6.4-5.3-6.4-1.7 0-3.1 1.2-3.1 2.9s1.2 4.1 4.2 4.1c1.4 0 2.2-1 2.2-2.1s-1-2.6-2.5-2.6c-.5 0-.8.3-.8.8 0 .6.8 1.2 1.8 1.2.2 0 .5-.1.5-.1.1.1.1.2.1.3 0 .6-.5.9-1.4.9-1.3 0-2.5-.9-2.5-2.4 0-.9.8-1.5 1.9-1.5 2.2 0 3.5 2 3.5 3.9 0 1.7-1 2.8-2.9 2.8-4-.2-5.9-3.7-5-7.4M45.2 65.5c1.2 0 1.1-.1 1.5-.1s.4.2.4.4c0 .5-1.2 1.2-3.4 1.2-1.3 0-2-.7-2.3-1.4-1.2.8-3.1 1.5-5 1.5-5.1 0-6.4-2.2-7.9-2.9-1.2-.5-3.1.5-5.7-2.3.4.1.8.1 1.2.1 2.3 0 3.5-1.1 3.5-2.9 0-.2 0-.5-.1-.7.7.3 2.3 1.4 2.6 3.6.1.2 1.1.5 1.7.5.9 0 2-.4 2.2-1.8 2.9-.2 5-2 5.4-4.2 1.1.4 2.3 1.3 2.6 1.8.5-.2.9-.2 1.5-.2.8 0 1.7.2 2.7.5.1-.3.1-.7.6-.7.8 0 .5.8.8 1.3.2.2.8.4.8.9s-.4.7-.7.7c-.1 0-.2 0-.3-.1-.5.2-.5 3.7-2.6 3.7-1.5 0-2.9-1.3-3.6-2.9-.2-.5-.5-.8-.9-.8s-.6.1-1.1.6c-1.4 1.4-3.6 2.7-6.4 2.7-.8 0-1.5-.1-1.7-.1-.1 0-.1 0-.1.1 0 .2.8.8 2.6.8 4.4 0 5.4-2.4 6.1-2.4.1 0 .4 0 .6.4 1.4 2.1 3.6 2.7 5 2.7zm-1.9-5c0 .5.5 1 1 1s1-.5 1-1-.5-1-1-1c-.6 0-1 .4-1 1M62.9 48.1c-.4 0-.7.3-.7.9 0 .8.6 1.2.9 1.4.2.1.5.2.7.2.8 0 1.3-.2 1.3-.8 0-.7-1.1-1.7-2.2-1.7zm-2.7 1.6c-.5 0-3.4 3.9-5.2 3.9-.5 0-.8-.8-.8-1.5 0-.4.2-.6 1-.8 4.2-1 3.3-4.2 7-4.2 2 0 4.2 1.4 4.2 4.5 0 3.3-4.7 7.3-5.4 7.3-.6 0-1.2-.8-1.2-1.4 0-.2.1-.4.6-.6 2.3-.9 3.7-3.1 3.7-4.2 0-.2-.2-.5-.5-.5-.5 0-2.2 4.1-4.2 4.1-1.4 0-2.8-1.3-2.8-1.9 0-1 4-2.8 4-4.2.1-.5-.2-.5-.4-.5M11.2 17.2s-.7.5-1.6.5c-1.1 0-1.9-.8-1.9-1.9 0-.8.4-1.6 1.3-2v.5c0 1.4.8 2.5 2.2 2.9zm5.3 4.8c-.5.7-1.1 1.7-1.1 2.9 0 1.4.8 2.4 2.1 2.4 1.2 0 1.8-1.1 1.8-2.1-.1-1.7-1.5-2.9-2.8-3.2zm-8.2 1c-.1.1-.1.2-.1.3 0 .2.2.5.5.5.2 0 .3-.1.5-.1.6 0 1.3.5 2.2.5.6 0 1.2-.2 2.1-.6 1.8-.9 2.5-3.1 2.5-3.5 0-.5-.4-.4-.7-.8-.3-.5-.2-.8-.4-1-.2-.3-.5-.3-1-.3h-.5c-.8 0-1.8.1-2.9.8-2.2 1.3-1.9 3.6-2.2 4.2zm5.8-3.1c.2.2.7.5.7.7 0 .4-.2.8-.6.8-.8 0-1.6-1.3-1.6-2 0-.5.3-.5.7-.5.2 0 .2 0 .4.1.2 0 .2.5.4.9zm-2.3 3c-.8 0-1.7-1-1.7-2 0-.5.4-1.1.7-1.1.1 0 .2.1.2.2.2 1.2.9 1.9 1.7 2.3.1.1.2.1.2.2-.2.2-.6.4-1.1.4zm2.1-6.3c.2-.4.2-.9.2-1.4 0-1.2-.5-3-2.2-3-1 0-1.7.8-1.7 1.7.1 2 2 2.7 3.7 2.7zm-6.4 9.9c0 1.9.6 2.8 1.6 2.8.8 0 1.9-.6 3.1-1.7-1 .2-1.7.4-2.3.4-1 0-1.6-.3-2.4-1.5zm.9-2.2v.4c0 1.1.6 1.8 1.4 1.8.6 0 1.4-.4 2-1.2-.3.1-.6.1-.9.1-.9 0-1.9-.2-2.5-1.1zm6.1-.3c-.6.2-1.7.8-1.7 2.1 0 .9.7 1.4 1.6 1.4.5 0 .8-.1 1-.2-.7-.7-.9-1.4-.9-2.1-.2-.6-.1-.9 0-1.2zm.9-6.8c0 .5.5 1 1 1s1-.5 1-1-.5-1-1-1c-.6 0-1 .5-1 1zm1.3 2.2c0 .5.5 1 1 1s1-.5 1-1-.5-1-1-1c-.6 0-1 .5-1 1M55.3 31.6c0-.5.5-.9.9-.9.5 0 1 .5 1 .9 0 .6-.5 1-1 1-.4 0-.9-.4-.9-1zm-8.7-7.7c0 .5.5 1 1 1s1-.5 1-1-.5-1-1-1c-.5.1-1 .5-1 1zm-.8 3.6c0 .8.6 1.4 1.4 1.4.8 0 1.4-.6 1.4-1.4s-.7-1.4-1.4-1.4c-.8 0-1.4.6-1.4 1.4zm3.1-1.6c0 .8.7 1.5 1.5 1.5s1.5-.7 1.5-1.5-.7-1.5-1.5-1.5-1.5.6-1.5 1.5zm.1-3.2c0 .5.5.9.9.9.5 0 .9-.5.9-.9 0-.5-.5-.9-.9-.9s-.9.3-.9.9zm4.5-2.4c0 .5.5.9.9.9.5 0 .9-.5.9-.9 0-.5-.5-.9-.9-.9-.5-.1-.9.4-.9.9zm-1.9 3c0 .8.7 1.6 1.6 1.6.8 0 1.6-.7 1.6-1.6 0-.8-.7-1.6-1.6-1.6-.8.1-1.6.7-1.6 1.6zM49 29.2c0 .5.5 1 1 1s1-.5 1-1-.5-1-1-1c-.5-.1-1 .4-1 1zm3.3-2.1c0 .5.5 1 1 1s1-.5 1-1-.5-1-1-1c-.6 0-1 .5-1 1zm-.9 3.5c0 .9.8 1.7 1.7 1.7s1.7-.8 1.7-1.7c0-1-.8-1.7-1.7-1.7-1 0-1.7.8-1.7 1.7zm3.5-2c0 .7.5 1.1 1.1 1.1.7 0 1.1-.5 1.1-1.1s-.5-1.1-1.1-1.1c-.5-.2-1.1.4-1.1 1.1zm-.1-3.2c0 .6.5 1.1 1.1 1.1S57 26 57 25.4s-.5-1.1-1.1-1.1c-.5.1-1.1.6-1.1 1.1M57.4 57.9c-.7.5-2.1 1.6-4.7 1.6-1.4 0-2-.5-2.1-.5-.2 0-.5.2-.8.6-.6.7-1.4 2-1.4 3.4 0 1 .8 2 2.2 2 4.6 0 8.1-2.9 8.1-5.2.1-1.4-.8-1.9-1.3-1.9zm-1.3-.3c.2-.2.2-.5.2-.8v-.5c0-.8-1.1-1.1-2.6-1.1-1.7 0-2.7.8-2.7 1.1v1.1c0 .5 1.1.9 2.4.9 1.1.1 2.1-.1 2.7-.7zm-.2 2.5c.2 0 .3.1.3.5 0 .5-.2 1.3-1.1 1.8-.6.5-1.4.8-2.7.8.2-.6.4-1.2.4-1.8 0-.2 0-.4-.1-.6h.3c1.9.1 2.8-.7 2.9-.7M46.5 29.8c.3 2.1 3.1 1.1 3.1 3.6 0 .4-.1.9-.1 1.4s.1 1 .5 1c.5 0 .5-.3.5-.7s-.1-.9-.1-1.1c0-.8.6-1.1 1-1.1.9 0 1.7 1 3.1 1-.3 1.6-3.6 1.1-3.6 2.9 0 .8.8 1.1 1.4 1.1.5 0 .7-.1.7-.5 0-.2-.1-.5-.1-.7 0-.1.1-.2.2-.2.5 0 3.3 2 3.3 2.6s-2.8 1.1-3.6 1.1c-.2 0-.3-.2-.3-.3 0-.2.5-.7.5-1 0-.2-.4-.4-1.4-.4-.5 0-.8.1-.8.5 0 .7 1.1 1.5 1.1 2.1 0 .5-.3.8-1.1.8-.7 0-1.7-.5-1.7-1.4 0-.7.7-1.4.7-1.8 0-.2-.1-.3-.4-.3-.9 0-1.1 2.4-4.4 2.7.5-.5 1-1 1-2 0-.5-.2-.9-.2-1.5 0-.8.4-1.1.8-1.1.9 0 1.4 1.3 2 1.3.3 0 .7-.3.7-.8 0-1.9-3.6-1.6-3.6-4.2-.2-.8.1-1.7.8-3zm11.8 7.3c0 .6.2 1.4.8 1.4.5 0 1-.8 1-1.7 0-1-.2-1.7-.2-2.2 0-.2.1-.2.2-.2.4 0 .7 1.1 1.1 1.1s1.1-.8 1.4-.8c.1 0 .1.1.1.2 0 .4-.6 1.2-.6 1.5s1.4.3 1.4.6c0 .4-1.5.4-2.2.7s-1.1.7-1.1 1.1c0 .5.5.6 1.2.6 1.7 0 2.8-.9 3.2-.9.1 0 .2.1.2.2 0 .2-.8 1.1-.8 1.4 0 .5 1.5.9 1.5 1.1 0 .1-.2.1-.3.1-.3 0-.7-.1-1-.1-.2 0-.4 0-.5.2-.2.2.1 1.5-.3 1.5-.3 0-1.1-2.9-3.1-2.9-.3 0-.5.2-.5.6 0 1 1 2.1 1.9 2.6.4.3 1.1.5 1.1.7 0 .3-1.6 0-1.6.5s.2 1.1.2 1.5c0 .2 0 .3-.2.3-.3 0-1-1.4-1.4-1.4-.3 0-.9.8-1.2.8-.1 0-.2-.1-.2-.2 0-.6.9-1.9.9-3.1 0-.6-.1-1.9-.8-1.9-.6 0-1.3.9-1.6 1.9 0 .6.1 2.7-.3 2.7s-.3-1.4-.8-1.4c-.4 0-1.1.7-1.4.7-.1 0-.1 0-.1-.1 0-.3.8-1.3.8-1.4 0-.4-1.7-.5-1.7-.7s.7-.3 1.2-.4c1.3-.2 3.1-1.1 3.1-2.4 0-1.4-1.4-2-2.3-2.6-.5-.3-1-.5-1-.8 0-.2.6-.2.8-.2.4 0 .8 0 .8-.3 0-.2-.1-.7-.1-1 0-.2 0-.5.2-.5.4 0 .9 1.2 1.1 1.2.4 0 .9-1 1.3-1 .2 0 .2.1.2.3 0 .7-.4 1.8-.4 2.7M47.2 43.9c1.1.2 1.4.5 1.4.8 0 .5-.5.7-1 .7-.4 0-.8-.1-1.1-.1-.5 0-1.1.2-1.5.7.3.1.8.3.8.8 0 1.4-4 .2-4 3.9 0 2 2 4.1 5.1 4.1 1.6 0 2.6-.5 2.6-1.1 0-.5-.8-.2-.8-.5 0-.2.3-.5.3-.8 0-.2-.1-.4-.3-.4-.5 0-1.3.7-3 .7-1.4 0-2.6-.8-2.6-1.8 0-.2.1-.4.2-.4.2 0 .4.1.5.1.2 0 .2-.1.2-.4s0-1.1.5-1.1 1.4 1.7 4.8 1.7c1.1 0 3.3-.2 4.2-1 0 2.7-2.2 6.4-6.6 6.4-4.6 0-7.1-3.7-7.1-7.1 0-3.8 3.1-7.3 7.3-7.3 1.1 0 2 .4 2 .8-.2.9-1.8.6-1.9 1.3zm7.6 1.4c.2.3.2.5.2.8 0 .7-.5 1.4-.5 2 0 .8.6 1.5 1.6 1.5s1.7-.8 1.7-1.8c0-1.3-1.1-2.5-3-2.5zm-8.2 1.6c.2.2.3.5.3.8 0 .4-.2.8-.2 1.2 0 .6.5 1.1 1.1 1.1.7 0 1.1-.5 1.1-1.2.1-1-.9-1.9-2.3-1.9zm3.3-4.3c2.6.5 4 2.4 4 4.3 0 1.3-.8 2.4-2.2 2.4-1.3 0-2.2-.8-2.2-2.3 0-1.1.8-2.1.8-3.2 0-.3-.1-.7-.4-1.2zm1.2 3.4c0 .4.2.6.6.6s.7-.4.7-.8c0-.5-.5-1.2-.9-1.2-.2 0-.2.3-.2.6 0 .2-.2.5-.2.8M23.8 20.5c.8 0 1.8-4.5 1.8-5.3 0-.2-.1-.4-.2-.4-.8 0-1.8 4.3-1.8 5.3-.1.1 0 .4.2.4zm6.1 1.3c.6 0 1.3-2.3 1.3-3.9 0-.3-.1-.7-.2-.7-.5 0-1.4 2.4-1.4 3.8 0 .6.1.8.3.8zm-4-2.2c.3 0 .6-.3 1.3-1 .1-.3.1-.6.1-1 0-.5-.2-1.1-.5-1.1-.8 0-1.1 2-1.1 2.5-.1.3 0 .6.2.6zm3.3-1c0-.5-.1-.5-.2-.5-.2 0-.5.3-.9 1 .1.9.2 1.3.5 1.3.2-.1.6-1 .6-1.8zm2-3c1.7 0 2.3 1.4 2.3 3 0 .7-.2 1.7-.5 1.7s-.3-.6-.3-1.1c-.1-.7-.2-.8-.4-.8-.5 0-.7 1-.7 1.9 0 .6.1 1.2.5 1.2.2 0 .5-.2.6-.3-.1 1.1-.9 2.1-2.1 2.1-2.2 0-3-2.6-3.3-4-1.3 1.4-2.5 2.4-4.7 2.4-2 0-2.9-1.5-2.9-2.9 0-.5.2-1.5.7-1.5.6 0 .1 2 1.3 2 .3 0 .8-.2 1.1-1.1.2-.5.3-1 .3-1.4 0-.7-.2-1.1-.7-1.1s-.9.3-1.1.5c.6-1.8 2-2.7 3.6-2.7 2 0 3 1.7 3 3.6 0 .3 0 .6-.1.8 1-1.2 2.1-2.3 3.4-2.3"/><path d="M26.5 22.3c-1.1 0-1.1 1.3-1.1 3.9-.8-1.7-2.1-3.6-3.6-3.6-1.1 0-1.4.7-1.4 1.9 0 .2 0 .6.1.8.2-.5.5-.6 1-.6 1.1 0 2.3.8 3.2 2-1-.2-1.9-.4-2.7-.4-.5 0-.9.1-1.3.2-.8.3-1.7 1.4-1.7 3 0 .2 0 .5.1.8.8-2 3.2-2.8 4.7-2.8.3 0 .5 0 .7.1-.8.7-.9 1.9-1 2.7 0 .4-.2.5-.5.5 0 .8.7 2 .7 2.6 0 .2-.2.5-.2.5 0 1.1 1.1 1.9 1.1 2.6 0 .2-.1.3-.2.4.1.5 1.3 1.2 1.4 1.6.2.5.4.5.5.5.5 0 1.1-.5 1.1-.9 0-.2-.2-.3-.2-.4-.5-.4-.8-1.1-.9-1.6-.2 0-.4-.1-.5-.4-.2-.5-.2-1.4-.4-2-.3-.1-.5-.2-.5-.8 0-.3.2-1.6.2-2-.2 0-.4-.1-.4-.4 0-.8.8-1.4 1-2.4 1.4 1.1 1.7 2.1 1.7 3 0 .5-.1 1-.2 1.4 1.1-.5 2.6-1.3 2.6-2.9 0-.9-.5-2-3.3-2.3.8-.3 2-.5 2.9-.5 1.6 0 2.5.5 2.7 1.6.3-.5.6-1.1.6-1.6 0-1.2-1-2-2.3-2-1.5 0-2.9.8-4.3 1.7.7-1.4 1.1-2.1 1.9-2.1.2 0 .2 0 .4.1-.2-1.1-1.3-2.2-1.9-2.2M68.2 40.2c1.2 0 2.2 1.6 2.2 3.5 0 2-.9 4.2-2.6 5.7 0-3.3-4.1-2.3-4.1-4.7 0-1.1.8-1.7 1.7-1.7.8 0 1.4.2 1.9.7-.5-.5-.7-1-.7-1.6 0-1.1.6-1.9 1.6-1.9M46.2 16.6c.7.6 1.2.9 1.9.9.3 0 .6-.1.8-.1s.4.1.4.3c0 .3-.2.8-.5 1 .3.2.6.2 1 .2 1.4 0 3-.9 3-3.1.3.4.5 1.2.5 1.6 0 2.7-2 3.7-3.8 3.7-1.2 0-1.8-.4-2-.4-.5 0-.5.9-.8.9-.6-.1-1.1-1.4-1.1-2.7-.1-.8.1-1.6.6-2.3zm3.7-1.7c-.2-.3-.9-.5-1.3-.5-1.1 0-1.8.8-2 1.4-.1-.2-.2-.5-.2-.8 0-1.1.8-2.4 2.6-2.4 1.6 0 2.2.8 2.4.8s.5-.2.7-.2c.3 0 .3.5.3.8 0 1-.5 2.7-1.6 3.3-.2-.5-.6-.9-1.2-1.2-.2-.1-.2-.2-.2-.4-.1-.4.2-.7.5-.8M28.9 9.4c0 .8 3.1 5.1 3.7 5.1.5 0 .8-.8.8-1.6 0-.2-.1-.4-.2-.5-.5-.6-3.6-3.1-4.3-3.1.1 0 0 0 0 .1zM10.8 6.9c0 .5-1.9 2.1-2.6 2.1-.2 0-.3-.3-.3-.6 0-.5.2-1.2.5-1.4.2-.2 1-.3 1.6-.3.3-.1.8 0 .8.2zm22.6 1.4c0-1.5-4-4.2-4.1-5.4 0-.1.1-.2.2-.3.6-.7 3.5-1.3 3.5-1.9 0-.3-.6-.3-.9-.3-2.3 0-5.7.8-5.7 1.7s3 2.9 3 3.9c0 .3-.2.4-.5.4-.8 0-2.6-1-3.6-1-.4 0-.5.3-.5.7 0 1.2 1.4 3.5 1.4 4.1 0 .1 0 .2-.2.2-.5 0-2.6-2.5-3.3-2.5-.3 0-.3.4-.3.9v.8c0 .6 0 .9-.3.9-.7 0-.9-1.8-1.6-1.8s-.8 3.3-1.4 3.3c-.8 0-.1-3.6-.8-3.6-.8 0-1.7 2.3-2.2 2.3-.2 0-.2-.2-.2-.4 0-.7.5-1.9.5-2.6 0-.4-.1-.5-.4-.5-.8 0-2.4 1.2-3.1 1.2-.1 0-.2-.1-.2-.2 0-.6 2.7-2.5 2.7-3.3s-3.7-.3-3.7-1.2c0-.8 2.6-1.6 2.6-2.4C14.3.6 11.1.2 9.9.2 8.5.2 7.6.4 7.6.8c0 .7 3.3.8 3.3 1.4 0 .5-3.5 2-3.5 2.9 0 .8 4.8.1 4.8.8 0 .8-4.2 4.5-4.2 5.7 0 .3.2.4.5.4 1.3 0 4.6-2.4 5.5-2.4.3 0 .4.4.4.8 0 .7-.2 1.7-.2 2.3s.2 1 .7 1c.9 0 1.7-1.6 2.3-1.6.8 0 .3 4.6 1.5 4.6 1 0 1.4-4.9 2.1-4.9s1.1 1.4 1.7 1.4c.8 0 .4-2.5 1.2-2.5s3.3 2.9 4.5 2.9c.4 0 .5-.3.5-.6 0-1.3-1.8-4.3-1.8-5.2 0-.2.1-.3.4-.3 1 0 3.8 1.4 5.1 1.4.7 0 1-.2 1-.6zm-2.7-4.8c0 .5 1.6 1.4 2.3 1.4.5 0 .5-.6.5-1.1 0-.8-.3-.8-1-.8-.7-.1-1.8.1-1.8.5zM24.9.9c0-.2-.8-.3-1.7-.3C21.6.6 21.8 2 20.6 2 19.3 2 19.6.6 18 .6c-1 0-1.9.2-1.9.4 0 .3 1.1.2 1.1 1s-2.5 1.1-2.5 1.7c0 .2.2.2.5.2.5 0 1.4-.2 2-.2.4 0 .7.1.7.4 0 .6-1.4 1.7-1.4 2.2 0 .2.2.2.2.2.5 0 1.4-1.3 2.1-1.3 1.3 0 .5 2.8 1.1 2.8.8 0 .5-2.7 1.5-2.7.8 0 1.5 1.9 2.1 1.9.2 0 .3-.2.3-.3 0-.5-.8-1.6-.8-2.3 0-.5.3-.6.7-.6.6 0 1.4.4 1.7.4.2 0 .3-.1.3-.2 0-.6-2.2-1.2-2.2-2 .2-.9 1.4-.9 1.4-1.3M68.8 4.9c0 2.2-1.6 3.9-4.5 4.4h.9c3.4 0 4.6-1.5 4.6-2.8.1-.8-.3-1.4-1-1.6zm-4.1 2.5c0-1.7-4.2-2.2-4.2-2.6 0-.3 2.3-.8 3.6-.9-1.9-2.3-4.5-2.1-4.5-2.6 0-.2 2-.8 3.8-.8 1.5 0 2.9.4 2.9 1.5 0 .7-.5 1.3-.5 2.3 0 .5.3 1 1 1 .8 0 .9-.8.9-1.7 0-.7-.2-1.3-.2-1.6 0-1.1.7-1.7 1.7-1.7.8 0 1.1.4 2.3.4-.5.5-.8 1.2-.8 1.5 0 1.1.7 1.7.7 3.9 0 3.9-3.6 5.3-8.2 5.3-1.2 0-2.6-.1-3.9-.3-.2 0-.2-.1-.2-.2 0-.3 1.7-.5 1.7-2.1 0-.6-.2-1.2-.2-1.4 0-.2.1-.2.2-.2.4 0 1.1 1.4 2.5 1.4.5.1 1.4-.1 1.4-1.2zm4-5.5c0 .4.3.6.6.6s.6-.2.6-.6-.3-.6-.6-.6-.6.3-.6.6M66.5 24.9c0-.5-1.3-.6-1.4-2 0-.2-.1-.6-.4-.6-.5 0-.1 1.4-.6 1.4-1.1 0-1.5-2.2-2-2.2-.1 0-.2.1-.2.4s.1.5.1.8-.1.5-.4.5c-.7 0-1.3-1.6-1.8-1.6-.2 0-.2.1-.2.2 0 .3.5.8.5 1.1 0 .6-1.6.3-1.6.8 0 .2.2.3.5.3.5 0 1.4-.2 1.7-.2.2 0 .6.1.6.4 0 .4-.9.8-.9 1.1 0 .2.2.2.3.2.7 0 1.9-1.1 2.7-1.1.2 0 .5.1.5.3 0 .3-.8.9-.8 1.4 0 .2.1.3.2.3.5 0 1.1-1.1 1.9-1.1.3 0 .8.2 1.1.2.1-.5.2-.6.2-.6zm.7 11.9c.4-1.2.9-2.1 1.7-3.5-.8-.4-2.9-1.3-2.9-2.8 0-1.7 2.1-3 2.6-3 .2 0 .2.2.2.5 0 .9-.5 2.3-.5 3.1 0 .7.5 1.4.8 1.4.5 0 1.6-1.5 1.6-2.9 0-2.6-2.3-3.4-3-3.4s-1.9 1.1-4.8 1.1c-5.3 0-6.5-5.3-6.5-7.6 0-.1 0-.2.1-.2.2 0 .7.7 2.3.7.8 0 1.7-.2 2.9-.2 2.9 0 4.3 2 6.1 4.7 1.1.7 3.8 1.8 3.8 4.9 0 2.8-2.9 4.3-3.6 7.3 1.1-.2 1.8-2.1 2.9-2.1.6 0 .8.5.8 1.2 0 1.1-.6 2.7-1.8 3.7v-.4c0-.7-.3-1.7-1.1-1.7-1.2 0-1.7 1.4-2.3 2.4-.8-2.5-1.7-4.8-3.4-6.2-1.7-1.4-4.8-.7-4.8-3.3 0-.7.5-1.7.5-2.5 0-.3-.1-.5-.2-.8 2.3.9 1.5 2.5 3 4.1.9 1.1 3.4 2 4.9 6.4 0-.2.1-.5.1-.7 0-3.6-4.8-7.3-5.3-8.8 2.8.3 3.3 1 4.7 4.8.3 1 1.2 2.9 1.2 3.8"/><path d="M53.6 10.6c-1.7 0-2.9-.8-2.9-1.3 0-.2.2-.4.4-.4.5 0 1.7.8 2.1.8.1 0 .2-.1.2-.2 0-.5-.5-1.2-.5-1.6 0-.1.1-.2.2-.2.7 0 1.7.3 2.2.3.2 0 .2-.1.2-.2 0-.5-1.6-1.6-1.6-2 0-.3 2-.8 2-1.2.1-.5-2.6-.1-2.6-.6 0-.4.5-.9.5-1.2 0-.2-.1-.2-.3-.2s-1.4.5-1.9.5c-.2 0-.5-.1-.5-.4 0-.6 1-1.2 2.5-1.2 2.4 0 3.9 1.7 3.9 4.5-.1 3.7-2.6 4.6-3.9 4.6zm-4.8-4.7c0-.3-1-.8-1-1.1 0-.1.1-.1.2-.1.3 0 .8.1 1.1.1s.4-1.4.6-1.4c.2 0 .5 1.3.8 1.3s.9-.4 1.1-.4c.1 0 .1 0 .1.1 0 .2-.6.8-.6 1.1 0 .2 1.4.5 1.4.7s-1.4.2-1.4.5c0 .2.5.8.5 1.1 0 .1 0 .1-.1.1-.2 0-1-.4-1.2-.4-.3 0-.7 1-.9 1-.1 0-.2-.1-.2-.2l-.1-1c0-.1-.1-.3-.1-.3h-1.1c-.2 0-.2 0-.2-.1s1.1-.8 1.1-1zM48 10c.4 0 .5 1 .5 1.5.1.3.1.3.2.3.3 0 .8-1.1 1.1-1.1.5 0 1.7 1.3 3.9 1.3 3 0 5.8-2.1 5.8-5.8 0-3.6-2.5-5.7-6.1-5.7-1.7 0-2.9.8-3.6.8-.3.1-.9-.9-1.2-.9-.2 0-.2.2-.2.7 0 .3 0 1.1-.3 1.1-.6 0-2.9-1.7-2.9-1.1s1.5 2.3 1.5 2.7-1.4.9-1.4 1.2c0 .5 1.6.7 1.6 1.4s-1.7 1.2-1.7 1.7 1.7.2 1.7.7-1.2 2.2-1.2 2.7c0 .2 0 .2.2.2.4-.1 1.8-1.7 2.1-1.7M36.8 53.4c0 .2-.1.5-.3.7-.3-.5-1.1-.8-1.4-.8-2.6 0-1.6 3.7-4.3 3.7-1.1 0-1.2-.2-1.7-.2-.2 0-.3.1-.3.2 0 .7.9 2.2 3.5 2.2s5-1.6 5-3.5c0-.3-.1-.7-.2-1 .1-.2.4-.2.6-.2.4 0 .6.5 1 .5s.7-.3.7-.7c0-.3-.2-.5-.5-.7.2-.2.4-.4.4-.7 0-.5-.3-.8-.8-.8-.2 0-.4.1-.5.2-.1-.5-.3-.8-.8-.8-.4 0-.7.3-.7.7 0 .6.3.9.3 1.2"/><path d="M23.2 48.9c2 .5 2.9 1.6 3.2 2.8.2 1.2.5 2.2.9 2.7.6.7 1.8 1.3 2.9 1.3.9 0 1.6-.3 1.6-1.1 0-.9-1.2-2.9-3-2.9h-.7c-.2 0-.5-.1-.8-.2-.4-.4-.5-2.2-1.3-3.3-.8-1.2-1.7-1.6-2.9-1.6-.8 0-1.8.5-1.8 1.1.1.4.3.7 1.9 1.2zm7 5.5c-.8 0-1.9-.8-1.9-1.2s.4-.6.6-.6c.6 0 1.7.8 1.7 1.4 0 .2-.1.4-.4.4"/><path d="M27.9 35.1c0-1.6 3.8-2.4 3.8-4.4 0-.3-.2-.9-.4-1.3 1.3.7 2.3 2 2.3 2.9 0 1.7-1.8 2.5-1.8 3.6 0 1.2 1.9 1.4 1.9 2.9 0 1.3-1.8 2.7-1.8 4.4 0 1.3.9 2.3 2.3 2.5-.5.1-.8.2-1.3.2-2.5 0-5.1-2-5.1-4.5 0-1.2.5-2.3 1.3-3 .7.6 1.4 1 1.8 1s.6-.2.6-.5c.1-1-3.6-1.8-3.6-3.8zm7.9 12.5c-.8.4-1.2.3-1.2 1.2 0 .3-.1.8-.1 1 0 .3.1.5.4.5.9 0 2.3-1.5 2.3-2.8 0-.4-.2-.5-.5-.5-.1-.1-.3.4-.9.6zm-.1-1.7c0-1.1-2.3-1.1-2.3-2.8 0-.5.3-1.1.8-1.9.2 1.3.8 2 1.9 2.3 2.2.8 2.5 2 2.5 3.4 0 2.2-1.6 5-5.6 5-3.3 0-5.5-2.9-5.5-5.3 0-.7.2-1.4.6-1.4s.5.3.8.6c1.1 1.1 2.3 1.4 4.1 1.4 1.5 0 2.7-.7 2.7-1.3M18.2 46.4c.1.5-.3 1-.8 1.1s-1-.3-1.1-.8.3-1 .8-1.1c.5-.1 1 .3 1.1.8zm-4.6 1c.1.8.9 1.5 1.8 1.4.3 0 .6-.2.8-.2.2.8.8 1.3 1.7 1.2.9-.2 1.5-.8 1.4-1.7 0-.2-.1-.4-.2-.6h.2c.9-.2 1.5-.9 1.4-1.7-.1-.9-.9-1.6-1.7-1.4-.3.1-.6.2-.8.3-.2-.8-.9-1.4-1.9-1.2-.8.2-1.4.9-1.4 1.8 0 .2.1.3.2.5h-.2c-.7-.2-1.5.6-1.3 1.6"/></svg>
