<svg xmlns="http://www.w3.org/2000/svg" width="132" height="64" viewBox="0 0 132 64"><path d="M114.5 39.3h5.8c1.4 0 2.5.4 3.3 1.1.8.7 1.2 1.7 1.2 3s-.4 2.4-1.3 3.1c-.8.7-1.9 1.1-3.3 1.1h-5.7v-8.3zm0 23v-10h6.3c3 0 5.4-.8 7.3-2.3 1.9-1.6 2.9-3.8 2.9-6.6 0-2.7-.8-4.8-2.5-6.4-1.7-1.6-4-2.3-6.9-2.3h-13v27.6h5.9zM82.4 51.5c0 3.5.9 6.2 2.8 8.2 2 2.1 4.9 3.2 8.9 3.2 3.8 0 6.7-1 8.7-3s3-4.8 3-8.5V34.6h-6v17.3c0 4.1-1.9 6.1-5.6 6.1-3.8 0-5.7-2-5.7-6.1V34.6h-6v16.9h-.1zm-10.2-10c1.3 1.7 1.9 4 1.9 6.9 0 3.2-.8 5.6-2.3 7.4-1.3 1.4-3 2.1-5.1 2.1-2.3 0-4.2-.9-5.5-2.6-1.3-1.7-1.9-4-1.9-6.9s.6-5.2 1.9-6.9c1.3-1.8 3.1-2.6 5.4-2.6 2.4 0 4.2.9 5.6 2.6m-15.4-3.7c-2.4 2.5-3.5 6.1-3.5 10.6 0 5 1.4 8.7 4.2 11.3 2.4 2.1 5.4 3.2 9.2 3.2 4.2 0 7.5-1.3 9.9-3.9 2.4-2.6 3.6-6.1 3.6-10.6s-1.2-8.1-3.6-10.6C74.2 35.3 71 34 66.8 34c-4.3 0-7.6 1.3-10 3.8m-21.6 1.5H41c1.6 0 2.8.3 3.5.8.8.6 1.2 1.5 1.2 2.8 0 2.6-1.6 3.8-4.7 3.8h-5.8v-7.4zm0 23V51.5h5.9l5 10.8h6.7l-5.9-11.8c3.2-1.5 4.9-4 4.9-7.4 0-2.4-.6-4.3-1.9-5.7-1.6-1.8-4.1-2.7-7.5-2.7H29.2v27.6h6zM23.6 37.4c-2-2.3-5-3.4-9.2-3.4s-7.5 1.3-9.9 4C2.2 40.6 1 44.1 1 48.7c0 5.1 1.4 8.9 4.2 11.4 2.1 1.9 4.9 2.8 8.3 2.8 3.7 0 6.5-1.2 8.3-3.5l.6 2.8h3.8V47.7H16V52h4.4v1.3c0 1.4-.6 2.6-1.8 3.5-1.1.8-2.6 1.3-4.4 1.3-2.3 0-4.1-.8-5.3-2.4C7.6 54.1 7 51.8 7 48.8c0-3.1.6-5.5 1.8-7.2 1.3-1.8 3-2.6 5.3-2.6 3.2 0 5.3 1.7 6.4 5l5.6-1.4c-.5-2.1-1.3-3.9-2.5-5.2M73.3 28.6l5.1-19.5 4.9 19.5h6.5L96.5 1h-6.1l-4.2 19.9L81.6 1h-5.9l-4.9 19.9L66.7 1h-6.2l6.3 27.6h6.5zm-39.4.1V9l6.6 19.7h4.9L51.9 9v19.7h5.7V1h-7.8l-6.7 20.5L36.3 1h-8v27.6h5.6v.1zm-26-23h6.3c1.2 0 2.2.1 2.8.4 1.1.5 1.6 1.3 1.6 2.6 0 1.1-.3 1.9-1 2.4s-1.8.7-3.4.7H7.9V5.7zm0 10.9h6.2c1.6 0 2.9.2 3.7.6 1.1.5 1.6 1.6 1.6 3.1 0 1.2-.3 2.1-1 2.7-.8.7-2.2 1-4.3 1H7.9v-7.4zM14 28.7c7.6 0 11.4-2.8 11.4-8.3 0-3.1-1.5-5.2-4.4-6.4 2.4-1.1 3.6-3.1 3.6-5.9 0-2.5-1-4.3-2.9-5.5C20 1.5 17.9 1 15.3 1H2v27.6h12v.1z"/></svg>
