<svg xmlns="http://www.w3.org/2000/svg" width="162" height="30" viewBox="0 0 162 30"><path d="M23.1 13.8c-.1-1-.3-2-.9-2.9l-4.6-8c-.3-.6-.6-1.3-.7-1.9l-.2.3c-1.1 1.9-1.1 4.4 0 6.4l3.7 6.4c1.1 1.9 1.1 4.4 0 6.4l-.2.3c-.1-.7-.4-1.3-.7-1.9L16.1 13 14 9.3c-.3-.6-.6-1.3-.7-1.9l-.3.2c-1.1 1.9-1.1 4.4 0 6.4l3.7 6.4c1.1 1.9 1.1 4.4 0 6.4l-.2.3c-.1-.7-.4-1.3-.7-1.9l-4.6-8c-.6-1.1-.9-2.3-.9-3.5C5.4 15 2 17.7 2 20.9c0 4.4 6.6 8 14.7 8s14.7-3.6 14.7-8c0-3-3.3-5.8-8.3-7.1zM37 27.5c.1-1.1.2-1.9.5-2.8 1.5.7 3.6 1.1 5 1.1 2.6 0 4-.8 4-2.5 0-1.6-1.1-2.4-3.6-3.5l-1.4-.5c-2.6-1.1-4.4-2.6-4.4-5.5 0-3.2 2.2-5.2 6.6-5.2 1.8 0 3.5.3 5 .8-.1 1.1-.3 1.9-.5 2.8-1.5-.5-3.3-.8-4.6-.8-2.4 0-3.5.9-3.5 2.4 0 1.4 1.1 2.3 3 3.1l1.5.6c3.5 1.5 5 3.1 5 5.8 0 3.2-2.4 5.4-7.1 5.4-2.1-.2-3.9-.5-5.5-1.2zm27.6-13.3V28h-2.8l-.1-1.7c-.8 1.2-1.9 2-3.9 2-3.6 0-6.1-2.7-6.1-7.3 0-4.8 2.6-7.7 7.7-7.7 2 .2 3.7.4 5.2.9zm-3 10.7v-8.7c-.6-.1-1.3-.1-2.2-.1-3.2 0-4.6 1.9-4.6 5 0 2.8 1.1 4.8 3.8 4.8 1.2 0 2.2-.4 3-1zm18.6-6.1v9.3h-3v-8.7c0-2.2-.7-3.2-3.8-3.2-.7 0-1.5.1-2.4.2v11.8h-3v-14c1.9-.5 4.1-.8 5.5-.8 5.1.1 6.7 2 6.7 5.4zm8.5 7.1c.9 0 1.7-.1 2.4-.4-.1.8-.2 1.7-.3 2.6-.8.3-1.7.5-2.6.5-3 0-4.8-1.3-4.8-4.7V9.2c.9-.3 2.1-.5 3-.5V14h4.8c-.1.9-.1 1.8-.3 2.6h-4.6v6.8c0 1.7.9 2.5 2.4 2.5zM105 14.2V28h-2.8l-.1-1.7c-.8 1.2-1.9 2-3.9 2-3.6 0-6.1-2.7-6.1-7.3 0-4.8 2.6-7.7 7.7-7.7 2 .2 3.6.4 5.2.9zm-3.1 10.7v-8.7c-.6-.1-1.3-.1-2.2-.1-3.2 0-4.6 1.9-4.6 5 0 2.8 1.1 4.8 3.8 4.8 1.2 0 2.3-.4 3-1zm18.7-6.1v9.3h-3.1v-8.7c0-2.2-.7-3.2-3.8-3.2-.7 0-1.5.1-2.4.2v11.8h-3v-14c1.9-.5 4.1-.8 5.5-.8 5.1.1 6.8 2 6.8 5.4zm15.3-10.1V28h-2.8l-.1-1.7c-.8 1.3-1.9 2.1-4 2.1-3.6 0-6.1-2.7-6.1-7.3 0-4.8 2.6-7.7 7.7-7.7.8 0 1.5.1 2.3.2V9.1c1-.3 2-.4 3-.4zm-3 16.2v-8.5c-.8-.1-1.6-.3-2.4-.3-3 0-4.4 1.9-4.4 5 0 2.8 1.1 4.8 3.8 4.8 1.2 0 2.2-.4 3-1zm18.4-2.7h-9.7c.4 2.5 1.8 3.6 4.6 3.6 1.7 0 3.4-.3 4.8-1.1-.1.8-.3 1.9-.5 2.8-1.4.6-2.8.9-4.5.9-5.1 0-7.5-2.8-7.5-7.5 0-4.1 1.9-7.4 6.7-7.4 4.4 0 6.2 2.8 6.2 6.3 0 .9 0 1.6-.1 2.4zm-9.8-2.6h6.9c0-2.3-1.2-3.6-3.3-3.6-2.2 0-3.4 1.3-3.6 3.6zm20.4-6c0 .9-.1 2-.3 2.6-.7-.1-1.4-.1-2.3-.1-.7 0-1.5.1-2.2.1V28h-3V14.2c1.3-.5 3.5-.8 5.2-.8.9.1 2 .1 2.6.2z"/></svg>
