<svg xmlns="http://www.w3.org/2000/svg" width="116" height="32" viewBox="0 0 116 32"><path d="M65 25.3l.3 5.2c-1.6.4-3.3.6-5 .5-5.2 0-7.9-2.2-7.9-7.5 0-4.2.1-8.7.1-11.2h-2.7V8.4c4-.7 5.3-2.9 5.9-7.3h4.4c-.2 1.8-.3 4.4-.3 6.2h4.7v5h-4.8v9.1c0 3.5.7 4.5 3.1 4.5.9-.1 1.6-.3 2.2-.6zm24.7-5.7V15c0-5.9-2.6-8.5-9.9-8.5-4.1 0-7 .7-11.6.7.3 4.1.3 9.2.2 12.4 0 3.2-.1 9-.2 10.8H76c-.2-1.9-.3-7.2-.3-10.8 0-2.1 0-4.5.1-7.9.9-.3 1.9-.5 2.9-.5 2.7 0 3.6 1.3 3.6 4.8v3.5c0 3.2-.1 9-.2 10.8h7.8c-.1-1.7-.2-7.1-.2-10.7zm-52.5 1.1c-.8 0-2.3 0-3-.1v.2c0 3.3 2.2 5.4 6.2 5.4 2.2 0 4.4-.6 6.3-1.7l.3 5.2c-2.5.9-5.1 1.3-7.7 1.3-8.2 0-12.2-2.8-12.9-10.4-1 0-2.4-.1-4.3-.1 0 1.3-.1 2.5-.1 3.5 0 2.2.1 4.4.3 6.5-4.5 0-8 .5-11.5.5-6.7 0-9.1-2.8-9.1-7.5s3.8-7.1 12-7.1h1.1v-.5c0-3.3-1-4.6-4.3-4.6-2.2.1-4.5.7-6.4 1.7l-.2-5.2c2.7-.9 5.6-1.4 8.5-1.3 7.2 0 9.9 2.4 9.9 8.9v1.1c1.8 0 3 0 4.2.1.7-6.4 3.9-10 12-10 6.6 0 9.7 2.8 9.7 7 0 4.8-3.7 7.1-11 7.1zm-22.4 5.5c-.1-1.6-.1-3.9 0-5.8h-1c-3.4 0-4.8 1.1-4.8 3.2 0 2 1.1 2.9 3.6 2.9.7 0 1.5-.1 2.2-.3zm21.6-9.5c3.2 0 4.7-1.1 4.7-3.3 0-1.6-1.1-2.5-2.8-2.5-3 0-4 2.4-4 5.7v.1h2.1zm77 13.7c-4.5 0-8 .5-11.5.5-6.7 0-9.1-2.8-9.1-7.5s3.8-7.1 12-7.1h1.1v-.5c0-3.3-1-4.6-4.3-4.6-2.3.1-4.5.7-6.4 1.7l-.3-5.2c2.7-.9 5.6-1.4 8.5-1.3 7.2 0 9.9 2.4 9.9 8.9 0 3.5-.2 6.5-.2 8.6-.1 2.2 0 4.4.3 6.5zm-7.6-4.3c-.1-1.6-.1-3.9 0-5.8h-1c-3.4 0-4.8 1.1-4.8 3.2 0 2 1.1 2.9 3.6 2.9.7 0 1.5-.1 2.2-.3z"/></svg>
