<svg width="36" height="36" xmlns="http://www.w3.org/2000/svg">
  <path d="M18 0c9.9411255 0 18 8.0588745 18 18s-8.0588745 18-18 18S0 27.9411255 0 18 8.0588745 0 18 0zm1.1433608 12.0008119l-1.2836001-.000001c-2.0530585.0051656-4.2367875.035293-5.1567607.0984618-1.0168125.06-1.5183125.2138182-1.9836875 1.0570909C10.244375 13.9974545 10 15.4461818 10 18.0054545l.0015134.3396624c.0211789 2.3313722.2644497 3.6974451.7177991 4.491974.465375.8421818.9658125.9949091 1.982625 1.0658182.9209345.0552727 3.1047551.0900062 5.1578223.0961207l1.2836019.000001c2.0497626-.0061056 4.232805-.0407451 5.1547008-.0950308 1.0189375-.0709091 1.519375-.2236364 1.9805-1.0658182C26.75775 22.0058182 27 20.5461818 27 17.9978182l-.0015012-.3411607c-.0210133-2.3409227-.2625783-3.6974344-.7209988-4.5002939-.4323047-.7895454-.8991614-.9750426-1.7954084-1.0436852l-.3407866-.0221639c-.9946549-.0574185-3.0560721-.0848004-4.9979442-.0897026zM16 15l6 3-6 3v-6z" fill="#FFF" fill-rule="evenodd"/>
</svg>