<svg width="36" height="36" xmlns="http://www.w3.org/2000/svg">
  <path d="M18 0c9.9411255 0 18 8.0588745 18 18s-8.0588745 18-18 18S0 27.9411255 0 18 8.0588745 0 18 0zm3.3846875 13c-1.7025 0-3.073125 1.3606154-3.073125 3.0286154 0 .24.020625.4707692.07125.6904615-2.5565625-.1227692-4.81875-1.3292307-6.3384375-3.1670769-.2653125.4532308-.4209375.972-.4209375 1.5304615 0 1.0486154.5484375 1.9781539 1.3659375 2.5163077-.4940625-.0092307-.97875-.1504615-1.389375-.372923v.0332307c0 1.4713846 1.0659375 2.6935385 2.46375 2.9750769-.2503125.0673847-.523125.0996924-.80625.0996924-.196875 0-.395625-.011077-.5821875-.0516924.3984375 1.199077 1.5290625 2.0806154 2.8734375 2.1092308-1.04625.8058462-2.3746875 1.2913846-3.8128125 1.2913846-.2521875 0-.4940625-.0110769-.7359375-.0415384C12.3621875 24.5061538 13.9765625 25 15.7175 25c5.65875 0 8.7525-4.6153846 8.7525-8.616 0-.1338462-.0046875-.2630769-.01125-.3913846.6103125-.4264616 1.123125-.9590769 1.54125-1.572-.5578125.2409231-1.1521875.4006154-1.771875.4781538.6375-.3747692 1.1240625-.9636923 1.3528125-1.6735384-.594375.348923-1.250625.5953846-1.95.732923C23.0665625 13.3664615 22.2621875 13 21.3846875 13z" fill="#FFF" fill-rule="evenodd"/>
</svg>