<svg width="36" height="36" xmlns="http://www.w3.org/2000/svg">
  <path d="M18 0c9.9411255 0 18 8.0588745 18 18s-8.0588745 18-18 18S0 27.9411255 0 18 8.0588745 0 18 0zm-4 14h-3v11h3V14zm5.3590909 0H16v11h3.2527273v-6c.1018075-.1540816 2.4797916-3.708375 3.4954545-1v7H26v-7.423l-.0053443-.2062561c-.0815717-1.5694522-1.0883299-2.8574522-2.427383-3.2417439-.0345454-.012-.0672727-.025-.1036363-.036h-.0254546l-.1328693-.0261875c-.1364489-.023625-.2844034-.0388125-.450767-.0388125-1.8963637 0-3.099091 1.517-3.4954546 2.103V14zM12.5 10c-.8284271 0-1.5.6715729-1.5 1.5s.6715729 1.5 1.5 1.5 1.5-.6715729 1.5-1.5-.6715729-1.5-1.5-1.5z" fill="#FFF" fill-rule="evenodd"/>
</svg>
