<svg width="800" height="548" viewBox="0 0 800 548" fill="none" xmlns="http://www.w3.org/2000/svg">
  <path d="M800 0H0V548H800V0Z" fill="#BA0160"/>
  <path fill-rule="evenodd" clip-rule="evenodd" d="M489.734 171.73C489.74 174.241 487.761 176.28 485.315 176.285C482.867 176.29 480.881 174.26 480.875 171.75V171.73C480.87 169.221 482.849 167.181 485.295 167.176C487.742 167.171 489.729 169.201 489.734 171.711V171.73Z" fill="white"/>
  <path fill-rule="evenodd" clip-rule="evenodd" d="M557.23 203.199H568.505V191.693H557.23V203.199Z" fill="white"/>
  <path fill-rule="evenodd" clip-rule="evenodd" d="M333.615 203.199H344.89V191.693H333.615V203.199Z" fill="white"/>
  <path fill-rule="evenodd" clip-rule="evenodd" d="M299.797 203.199H311.072V191.693H299.797V203.199Z" fill="white"/>
  <path fill-rule="evenodd" clip-rule="evenodd" d="M266.492 203.199H277.767V191.693H266.492V203.199Z" fill="white"/>
  <path fill-rule="evenodd" clip-rule="evenodd" d="M232 203.199H243.275V191.693H232V203.199Z" fill="white"/>
  <path fill-rule="evenodd" clip-rule="evenodd" d="M259.078 168.726H260.416C269.056 168.726 273.083 173.349 274.766 185.675L277.441 185.557L277.084 166H233.119L232.685 185.557L235.26 185.675C235.706 181.053 236.241 178.564 237.401 176.074C239.453 171.452 243.735 168.726 248.998 168.726H250.871V211.275C250.871 215.779 250.603 217.201 249.534 218.268C248.641 219.098 246.857 219.453 244.805 219.453H242.753V222.297H267.196V219.453H265.132C263.093 219.453 261.296 219.097 260.417 218.268C259.346 217.201 259.079 215.778 259.079 211.275V168.726" fill="white"/>
  <path fill-rule="evenodd" clip-rule="evenodd" d="M375.379 222.298L389.624 172.594V211.599C389.624 215.856 389.382 217.352 388.416 218.386C387.691 219.192 386.01 219.538 384.147 219.538H383.422V222.298H403.558V219.538H402.51C400.658 219.538 398.966 219.192 398.242 218.386C397.274 217.352 397.033 215.856 397.033 211.599V178.347C397.033 174.09 397.274 172.48 398.242 171.444C399.047 170.753 400.658 170.294 402.51 170.294H403.558V167.646H387.933L376.174 207.801L364.668 167.646H349.124V170.294H350.573C354.842 170.294 355.647 171.213 355.647 176.736V208.376C355.647 213.439 355.405 215.511 354.68 217.006C353.875 218.502 352.172 219.538 350.411 219.538H349.123V222.298H365.714V219.538H364.667C362.573 219.538 360.881 218.731 359.904 217.121C358.949 215.511 358.707 214.014 358.707 208.376V172.594L372.87 222.299H375.379" fill="white"/>
  <path fill-rule="evenodd" clip-rule="evenodd" d="M420.551 186.055C423.439 186.055 425.935 187.896 427.304 191.002C428.593 193.879 429.156 197.791 429.156 203.429C429.156 215.049 426.338 220.801 420.62 220.801C414.913 220.801 412.163 215.048 412.163 203.313C412.163 197.79 412.737 193.879 414.026 191.002C415.304 188.011 417.893 186.055 420.551 186.055ZM420.873 183.409C410.886 183.409 404.362 191.233 404.362 203.544C404.362 215.396 410.886 223.45 420.621 223.45C430.445 223.45 436.969 215.396 436.969 203.43C436.969 191.578 430.445 183.409 420.873 183.409Z" fill="white"/>
  <path fill-rule="evenodd" clip-rule="evenodd" d="M458.703 186.63C463.87 186.63 466.527 192.153 466.527 202.968C466.527 214.359 463.79 220.227 458.554 220.227C452.755 220.227 449.706 214.243 449.706 203.313C449.706 197.79 450.431 193.994 452.123 191.117C453.641 188.357 456.23 186.63 458.703 186.63ZM450.35 167.071L438.914 167.646V170.178H439.466C442.849 170.178 443.585 171.328 443.585 176.736V214.129C443.585 218.961 443.424 220.228 442.78 222.298H445.438C447.439 218.961 447.934 218.387 448.74 218.387C449.131 218.387 449.521 218.501 450.098 219.077C454.055 222.298 455.746 222.988 459.37 222.988C468.057 222.988 474.339 214.589 474.339 202.623C474.339 191.348 468.529 183.754 459.842 183.754C455.333 183.754 452.041 185.94 450.35 189.852V167.071Z" fill="white"/>
  <path fill-rule="evenodd" clip-rule="evenodd" d="M489.239 183.985L477.492 184.675V187.206H478.378C481.749 187.206 482.475 188.357 482.475 193.649V213.094C482.475 218.387 481.749 219.653 478.378 219.653H477.101V222.298H494.636V219.653H493.37C489.976 219.653 489.24 218.502 489.24 213.094V183.985" fill="white"/>
  <path fill-rule="evenodd" clip-rule="evenodd" d="M509.615 167.071L497.868 167.646V170.178H498.744C502.126 170.178 502.85 171.328 502.85 176.736V213.093C502.85 218.501 502.126 219.652 498.744 219.652H497.466V222.298H515.012V219.652H513.722C510.329 219.652 509.615 218.501 509.615 213.093V167.071Z" fill="white"/>
  <path fill-rule="evenodd" clip-rule="evenodd" d="M525.091 200.322C525.161 191.693 527.967 186.285 532.489 186.285C537 186.285 539.657 191.578 539.576 200.322H525.091ZM547.056 203.199C546.664 191.003 540.865 183.409 532.098 183.409C523.63 183.409 517.521 191.693 517.521 203.199C517.521 215.51 523.549 223.449 532.893 223.449C538.932 223.449 543.12 220.227 546.584 213.093L544.168 211.828C541.35 217.81 538.531 220.227 534.181 220.227C527.818 220.227 525.092 215.165 525.01 203.198H547.056" fill="white"/>
</svg>
