<svg xmlns="http://www.w3.org/2000/svg" viewBox="0 0 800 548" width="800" height="548"><path fill-rule="evenodd" clip-rule="evenodd" fill="#5a4840" d="M0 0h800v548H0z"/><path d="M353.8 171.6v-8.8l7.5 8.8h5.7l-8.9-10 8.2-8.7H361l-7.2 7.7V153h-4.1v18.6h4.1zm21.5 0l1.5-3.9h7.2l1.6 3.9h4.6l-8-18.6h-3.4l-8 18.6h4.5zm7.4-7.4h-4.5l2.2-5.8 2.3 5.8zm21.5 7.9c5.1 0 7.8-3.3 7.8-7.7V153h-4.1v11.3c0 2.3-1.6 4-3.7 4-2.2 0-3.7-1.7-3.7-4V153h-4.1v11.5c0 4.4 2.7 7.6 7.8 7.6zm18.4-.5l1.5-3.9h7.2l1.6 3.9h4.6l-8-18.6h-3.4l-8 18.6h4.5zm7.4-7.4h-4.5l2.2-5.8 2.3 5.8zm17.7 7.4V153h-4.1v18.6h4.1zm-166.6 43.9v-13.3h.1l8.1 13.3h5.3v-18.6h-4.1v13h-.1l-7.8-13H277v18.6h4.1zm29.3.5c5.1 0 7.8-3.3 7.8-7.7v-11.5h-4.1v11.3c0 2.3-1.6 4-3.7 4-2.2 0-3.7-1.7-3.7-4v-11.3h-4.1v11.5c0 4.4 2.6 7.7 7.8 7.7zm23.5-.5v-15h5.3v-3.6h-14.6v3.6h5.3v15h4zm27.7 0V208h2l3.9 7.5h4.9l-4.7-7.9c2.6-.5 4-2.5 4-5.1 0-4.3-3.2-5.7-7-5.7h-7.1v18.6h4zm2.6-10.9h-2.6v-4.2h2.7c1.5 0 3.2.3 3.2 2.2 0 1.9-1.8 2-3.3 2zm23.6 11.4c5.8 0 10-3.8 10-9.8s-4.2-9.8-10-9.8-10 3.8-10 9.8 4.2 9.8 10 9.8zm0-3.8c-3.5 0-5.7-2.5-5.7-6s2.3-6 5.7-6 5.7 2.5 5.7 6-2.3 6-5.7 6zm19.6 3.3l1.5-3.9h7.2l1.6 3.9h4.6l-8-18.6h-3.4l-8 18.6h4.5zm7.3-7.4h-4.5l2.2-5.8 2.3 5.8zm18.6 7.9c3.8 0 7.1-2 7.1-6.1 0-6.5-8.5-4.3-8.5-7.7 0-1.4 1.6-1.9 2.7-1.9 1 0 2.3.4 2.9 1.2l2.8-3.1c-1.6-1.4-3.6-1.9-5.7-1.9-3.6 0-7 2.1-7 6.1 0 6.2 8.7 4.4 8.7 7.8 0 1.3-1.5 1.9-2.8 1.9-1.4 0-2.7-.7-3.5-1.8l-2.9 3.2c1.7 1.6 3.8 2.3 6.2 2.3zm22.1-.5v-15h5.3v-3.6h-14.6v3.6h5.3v15h4zm24.8 0v-3.8h-8.9v-3.8h8v-3.8h-8v-3.5h8.5v-3.8h-12.5v18.6h12.9zm11.7 0V208h2l3.9 7.5h4.9l-4.7-7.9c2.6-.5 4-2.5 4-5.1 0-4.3-3.2-5.7-7-5.7h-7.1v18.6h4zm2.6-10.9h-2.6v-4.2h2.7c1.5 0 3.2.3 3.2 2.2-.1 1.9-1.9 2-3.3 2zm19.4 11.4c3.8 0 7.1-2 7.1-6.1 0-6.5-8.5-4.3-8.5-7.7 0-1.4 1.6-1.9 2.7-1.9 1 0 2.3.4 2.9 1.2l2.8-3.1c-1.6-1.4-3.6-1.9-5.7-1.9-3.6 0-7 2.1-7 6.1 0 6.2 8.7 4.4 8.7 7.8 0 1.3-1.5 1.9-2.8 1.9-1.4 0-2.7-.7-3.5-1.8l-2.9 3.2c1.7 1.6 3.8 2.3 6.2 2.3z" fill="#fff"/></svg>
