<svg width="800" height="548" fill="none" xmlns="http://www.w3.org/2000/svg"><path d="M800 0H0v548h800V0z" fill="#215CA0"/><path d="M386.01 150.515c5.285-5.471 12.646-8.93 20.762-8.93 10.821 0 20.195 6.037 25.228 14.967 4.341-1.949 9.186-3.018 14.282-3.018 19.503 0 35.231 15.911 35.231 35.532 0 19.622-15.791 35.533-35.231 35.533-2.391 0-4.719-.251-6.921-.692-4.404 7.862-12.834 13.207-22.523 13.207-4.027 0-7.864-.943-11.262-2.578-4.467 10.502-14.91 17.923-27.053 17.923-12.645 0-23.467-7.987-27.619-19.244a27.755 27.755 0 01-5.599.566c-15.1 0-27.305-12.326-27.305-27.609a27.636 27.636 0 0113.652-23.898c-1.698-3.836-2.642-8.112-2.642-12.64-.063-17.421 14.218-31.634 31.709-31.634a31.708 31.708 0 0125.291 12.515z" fill="#fff"/><path d="M343.748 197.136l.682-1.835c.125-.317.311-.19.435-.127.186.127.31.19.558.38 1.923 1.265 3.722 1.265 4.281 1.265 1.426 0 2.357-.759 2.357-1.835v-.063c0-1.139-1.365-1.582-2.978-2.088l-.372-.126c-2.171-.633-4.529-1.582-4.529-4.366v-.064c0-2.657 2.11-4.555 5.149-4.555h.311c1.799 0 3.474.506 4.714 1.328.124.064.248.19.186.38s-.62 1.645-.682 1.835c-.124.316-.434.126-.434.126-1.117-.632-2.792-1.075-4.219-1.075-1.303 0-2.109.696-2.109 1.645v.063c0 1.076 1.427 1.582 3.04 2.088l.31.064c2.171.696 4.467 1.645 4.467 4.366v.063c0 2.91-2.048 4.682-5.336 4.682-1.612 0-3.163-.253-4.838-1.139-.311-.19-.621-.316-.931-.569-.062-.127-.186-.19-.062-.443zm48.389 0l.682-1.835c.124-.317.372-.19.434-.127.186.127.31.19.559.38 1.923 1.265 3.722 1.265 4.28 1.265 1.427 0 2.358-.759 2.358-1.835v-.063c0-1.139-1.365-1.582-2.978-2.088l-.372-.126c-2.172-.633-4.529-1.582-4.529-4.366v-.064c0-2.657 2.109-4.555 5.149-4.555h.31c1.799 0 3.474.506 4.715 1.328.124.064.248.19.186.38s-.62 1.645-.682 1.835c-.124.316-.435.126-.435.126-1.116-.632-2.791-1.075-4.218-1.075-1.303 0-2.109.696-2.109 1.645v.063c0 1.076 1.426 1.582 3.039 2.088l.311.064c2.171.696 4.466 1.645 4.466 4.366v.063c0 2.91-2.047 4.682-5.335 4.682-1.613 0-3.164-.253-4.839-1.139-.31-.19-.62-.316-.93-.569 0-.127-.124-.19-.062-.443zm35.857-8.669c.248.949.434 1.962.434 3.037 0 1.076-.124 2.088-.434 3.038a6.577 6.577 0 01-1.241 2.467 6 6 0 01-2.109 1.645c-.869.38-1.861.57-2.978.57-1.117 0-2.109-.19-2.978-.57-.868-.379-1.551-.949-2.109-1.645a6.577 6.577 0 01-1.241-2.467c-.248-.95-.434-1.962-.434-3.038 0-1.075.124-2.088.434-3.037a6.582 6.582 0 011.241-2.468 6.012 6.012 0 012.109-1.645 7.384 7.384 0 012.978-.632c1.117 0 2.109.189 2.978.632.868.38 1.551.949 2.109 1.645a6.582 6.582 0 011.241 2.468zm-2.792 2.974c0-1.645-.31-2.911-.868-3.796-.559-.886-1.489-1.329-2.668-1.329-1.241 0-2.109.443-2.668 1.329-.558.885-.868 2.151-.868 3.796s.31 2.911.868 3.86c.559.886 1.427 1.329 2.668 1.329s2.109-.443 2.668-1.329c.62-.886.868-2.215.868-3.86zm25.497 4.746l.683 1.898c.062.253-.124.316-.124.316-1.055.443-2.482.696-3.909.696-2.419 0-4.218-.696-5.459-2.088-1.241-1.392-1.861-3.29-1.861-5.631 0-1.076.124-2.088.434-3.037.31-.95.745-1.772 1.365-2.468a6.449 6.449 0 012.233-1.645 7.752 7.752 0 013.102-.633c.807 0 1.489.063 2.047.127.621.126 1.489.316 1.861.506.062 0 .249.126.187.316a32.19 32.19 0 01-.683 1.898c-.124.317-.31.19-.31.19-.931-.316-1.799-.443-2.916-.443-1.365 0-2.419.443-3.04 1.392-.682.886-1.054 2.088-1.054 3.734 0 1.771.434 3.037 1.179 3.859.744.823 1.799 1.203 3.163 1.203.559 0 1.055-.064 1.489-.127.435-.063.869-.19 1.303-.38-.062.127.186.064.31.317zm14.083-8.289c.62 2.151.31 3.986.248 4.113 0 .253-.248.253-.248.253h-9.368c.062 1.455.372 2.467 1.117 3.163.682.696 1.737 1.139 3.226 1.139 2.233 0 3.163-.443 3.846-.696 0 0 .248-.063.372.19l.62 1.772c.124.316 0 .38-.062.443-.558.316-1.985.949-4.714.949-1.303 0-2.482-.19-3.412-.57-.931-.379-1.737-.885-2.358-1.581-.62-.696-1.054-1.519-1.365-2.405-.31-.949-.434-1.961-.434-3.037 0-1.076.124-2.088.434-3.037a6.596 6.596 0 011.241-2.468 5.703 5.703 0 012.171-1.645c.869-.443 1.924-.633 3.102-.633.993 0 1.923.19 2.668.57.558.253 1.179.696 1.799 1.392.31.253.868 1.202 1.117 2.088zm-9.306 2.024h6.638c-.062-.885-.248-1.645-.62-2.277-.559-.886-1.365-1.392-2.606-1.392-1.241 0-2.109.506-2.668 1.392-.372.569-.558 1.328-.744 2.277zm-65.573-2.024c.621 2.151.31 3.986.31 4.113 0 .253-.248.253-.248.253h-9.367c.062 1.455.372 2.467 1.116 3.163.683.696 1.737 1.139 3.226 1.139 2.234 0 3.164-.443 3.847-.696 0 0 .248-.063.372.19l.62 1.772c.124.316 0 .38-.062.443-.558.316-1.985.949-4.715.949-1.302 0-2.481-.19-3.412-.57-.93-.379-1.737-.885-2.357-1.581-.62-.696-1.055-1.519-1.365-2.405-.31-.949-.434-1.961-.434-3.037 0-1.076.124-2.088.434-3.037a6.582 6.582 0 011.241-2.468 5.703 5.703 0 012.171-1.645c.869-.443 1.923-.633 3.102-.633.993 0 1.923.19 2.668.57.558.253 1.178.696 1.799 1.392.248.253.868 1.202 1.054 2.088zm-9.305 2.024h6.7c-.062-.885-.248-1.645-.621-2.277-.558-.886-1.364-1.392-2.605-1.392-1.241 0-2.109.506-2.668 1.392-.434.569-.62 1.328-.806 2.277zm-16.44-.506s.745.064 1.551.19v-.38c0-1.265-.248-1.898-.744-2.277-.497-.38-1.303-.633-2.296-.633 0 0-2.295 0-4.094.949a.19.19 0 01-.124.063s-.248.063-.31-.126l-.683-1.835c-.124-.253.062-.38.062-.38.869-.696 2.854-1.076 2.854-1.076.682-.126 1.799-.253 2.481-.253 1.861 0 3.288.443 4.281 1.329.992.886 1.489 2.278 1.489 4.239v8.732s0 .254-.186.317c0 0-.373.126-.683.19-.31.063-1.427.316-2.357.443-.931.189-1.861.253-2.854.253-.93 0-1.737-.064-2.481-.253-.745-.19-1.365-.443-1.923-.823a4.26 4.26 0 01-1.241-1.519c-.31-.569-.434-1.328-.434-2.151 0-.823.186-1.582.496-2.215.31-.632.806-1.139 1.365-1.581.558-.443 1.24-.697 1.923-.95.744-.189 1.489-.316 2.295-.316.745.063 1.241.063 1.613.063zm-3.722 6.707s.868.696 2.73.57c1.364-.063 2.543-.316 2.543-.316v-4.366s-1.179-.19-2.543-.19c-1.924 0-2.73.696-2.73.696-.558.379-.807 1.012-.807 1.835 0 .506.124.949.311 1.265.062.127.124.253.496.506zm79.097-11.579c-.062.253-.559 1.582-.683 2.025-.062.19-.186.253-.372.253 0 0-.558-.127-1.055-.127-.31 0-.806.064-1.24.19-.435.127-.807.38-1.179.696-.372.317-.62.823-.807 1.392-.186.57-.31 1.519-.31 2.531v7.087c0 .19-.124.317-.31.317h-2.481c-.186 0-.311-.127-.311-.317v-14.237c0-.19.125-.316.249-.316h2.419c.186 0 .248.126.248.316v1.139c.372-.506.993-.949 1.551-1.202.558-.253 1.241-.443 2.42-.38.62.064 1.426.19 1.55.253.249.064.373.127.311.38zm-23.016-6.581c.062 0 .248.127.186.317l-.744 2.025c-.062.126-.124.253-.435.126-.062 0-.186-.063-.496-.126-.186-.064-.496-.064-.744-.064-.373 0-.683.064-.993.127-.31.063-.558.253-.806.506-.249.253-.497.57-.683 1.013a9.64 9.64 0 00-.496 2.151h2.978c.248 0 .31.126.31.316l-.372 1.962c-.062.316-.311.253-.311.253h-3.101l-1.986 12.212c-.248 1.265-.496 2.341-.806 3.227-.31.886-.682 1.519-1.241 2.151-.496.57-1.054 1.013-1.737 1.203-.62.253-1.427.379-2.295.379-.434 0-.869 0-1.365-.126a3.555 3.555 0 01-.868-.253c-.125-.064-.187-.19-.125-.38.063-.19.621-1.708.683-1.962.124-.253.31-.126.31-.126.186.063.31.126.496.19.249.063.497.063.745.063.434 0 .806-.063 1.116-.19.373-.126.621-.38.869-.696.248-.316.434-.759.682-1.329.187-.569.373-1.392.559-2.341l2.109-11.959h-2.047c-.248 0-.31-.126-.31-.316l.372-1.962c.062-.316.31-.253.31-.253h2.109l.124-.633c.31-1.898.931-3.353 1.861-4.302.931-.949 2.296-1.456 3.971-1.456.496 0 .93.064 1.303.127.248-.063.558 0 .868.126zm-41.813 20.565c0 .19-.124.316-.248.316h-2.481c-.186 0-.248-.126-.248-.316v-20.311c0-.127.124-.317.248-.317h2.481c.186 0 .248.127.248.317v20.311z" fill="#215CA0"/></svg>