<svg width="800" height="548" viewBox="0 0 800 548" fill="none" xmlns="http://www.w3.org/2000/svg">
  <path d="M800 0H0V548H800V0Z" fill="#7806BE"/>
  <path fill-rule="evenodd" clip-rule="evenodd" d="M388.519 244.642C389.536 244.642 391.286 244.312 392.663 242.106C391.876 240.356 391.314 236.823 391.236 235.536C390.831 228.955 393.366 222.764 396.142 222.592C398.177 222.469 399.805 224.395 399.992 227.516C400.492 235.716 397.761 239.14 396.393 242.093C396.624 243.238 398.567 245.187 400.4 245.187C401.076 245.187 401.895 244.848 402.1 244.573C401.964 244.101 401.825 243.49 401.825 242.604C401.825 237.853 404.881 233.845 407.53 233.845C409.634 233.845 410.856 236.628 410.856 238.465C410.856 240.633 409.021 242.403 406.308 244.101C406.784 244.573 407.662 244.916 408.413 244.916C412.285 244.916 414.312 240.23 415.812 235.951C416.083 235.133 416.562 233.983 417.509 233.983C419.139 233.983 419.821 244.71 422.529 244.71C423.688 244.71 424.636 242.332 424.636 240.504C424.636 239.144 424.16 239.008 424.16 237.039C424.16 234.868 425.316 233.037 426.881 233.037C427.83 233.037 428.174 233.983 428.174 235.133C428.174 239.481 425.046 247.561 420.436 247.561C416.968 247.561 417.237 241.586 416.017 241.586C414.653 241.586 412.753 247.628 406.038 247.628C404.947 247.628 403.795 247.086 402.846 245.996C401.22 247.086 399.858 247.561 398.296 247.561C395.787 247.561 394.698 244.981 393.683 244.981C392.459 244.981 391.105 247.628 387.027 247.628C383.769 247.628 383.225 243.288 382.074 243.288C381.053 243.288 379.492 247.628 377.796 247.628C374.94 247.628 374.335 240.094 371.818 240.094C369.85 240.094 363.63 247.746 361.941 247.571C361.263 247.501 360.977 246.994 361.048 246.314C361.144 245.374 361.952 242.86 362.28 241.671C362.829 239.606 363.333 237.343 363.615 236.622C363.894 235.894 364.647 235.374 365.252 235.43C365.557 235.459 365.648 236.028 365.743 236.497C366.086 238.176 366.565 239.888 367.105 239.888C368.059 239.888 371.208 233.844 373.04 233.844C375.284 233.844 375.553 243.352 378.606 243.352C379.627 243.352 380.376 242.132 381.053 240.632C381.122 238.118 381.801 234.527 383.837 234.527C385.264 234.527 385.943 237.715 384.922 240.503C384.919 243.827 387.09 244.642 388.519 244.642ZM442.828 236.496C441.985 239.987 439.435 245.121 435.629 245.121C434.747 245.121 433.185 244.779 433.185 243.897C433.185 242.946 439.165 242.815 439.165 238.263C439.165 236.568 437.604 234.189 435.293 234.189C432.239 234.189 429.259 237.517 429.259 242.134C429.259 246.271 431.83 247.631 434.409 247.631C438.892 247.631 441.608 243.962 443.032 240.908C443.714 242.947 444.115 247.631 445.819 247.631C446.495 247.631 446.974 247.291 447.789 245.46C449.82 240.907 451.792 235.681 454.509 235.681C455.524 235.681 454.915 237.517 457.359 237.517C458.51 237.517 459.322 236.568 459.322 235.477C459.322 233.914 457.899 232.696 455.729 232.696C449.345 232.696 447.991 242.269 446.973 242.269C445.274 242.269 445.818 234.597 444.593 234.597C443.506 234.596 442.973 235.89 442.828 236.496ZM397.793 229.35C397.675 227.451 397.215 226.594 396.195 226.665C394.844 226.745 394.219 231 394.495 235.471C394.671 238.387 395.105 238.838 395.51 238.81C396.258 238.765 398.052 233.553 397.793 229.35ZM386.752 225.362C386.656 224.273 385.803 223.532 384.648 223.532C383.36 223.532 382.146 224.884 382.275 226.582C382.357 227.702 383.017 228.623 384.314 228.623C385.803 228.623 386.888 226.926 386.752 225.362ZM407.87 239.209C407.87 238.059 407.255 237.108 406.513 237.108C405.896 237.108 404.476 237.784 404.476 239.958C404.476 241.661 405.081 242.467 405.358 242.815C407.322 242.201 407.87 240.567 407.87 239.209ZM434.408 236.908C435.836 236.908 436.245 238.596 435.904 239.619C435.563 240.636 434.343 241.795 432.444 242.133C432.035 241.112 431.83 236.908 434.408 236.908ZM356.238 232.086C356.044 231.469 355.479 230.082 355.325 229.058C354.985 226.79 356.171 225.296 357.26 224.954C358.482 224.613 358.959 225.227 359.432 226.652C360.044 228.826 360.112 231.673 359.906 235.748C359.639 241.315 356.854 248.039 349.931 247.899C343.954 247.768 341.31 243.897 341.035 237.991C340.905 235.207 341.104 232.424 342.257 228.487C342.869 226.38 343.414 225.631 345.312 225.227C346.803 224.954 346.669 226.514 346.331 228.353C345.588 232.424 345.242 234.39 345.517 239.009C345.784 243.897 348.029 245.799 350.473 245.799C354.139 245.869 355.767 242.815 356.449 238.397C356.987 234.868 356.581 233.171 356.238 232.086Z" fill="white"/>
  <path fill-rule="evenodd" clip-rule="evenodd" d="M436.31 143.764C436.78 147.185 441.964 151.797 443.369 151.689C444.309 151.609 444.668 147.221 444.668 143.764C444.668 141.783 444.776 140.233 443.73 139.872C442.07 143.224 437.716 143.908 436.31 143.764ZM436.598 142.251C440.34 142.251 443.767 139.261 443.767 136.632C443.767 135.405 443.19 134.398 441.711 134.217C441.964 134.542 442.071 134.794 442.071 135.37C442.071 137.352 439.052 139.55 435.77 139.55C434.58 139.55 434.219 140.377 434.219 140.81C434.219 141.819 435.193 142.251 436.598 142.251ZM435.806 138.179C435.302 138.179 434.58 138.179 434.182 137.389C433.857 136.74 433.966 135.693 433.354 135.226C433.966 135.405 434.615 135.405 435.119 135.405C436.743 135.405 438.294 134.289 439.484 134.289C440.268 134.289 440.52 134.794 440.52 135.296C440.521 136.884 437.321 138.179 435.806 138.179Z" fill="white"/>
  <path fill-rule="evenodd" clip-rule="evenodd" d="M355.225 166.423C356.448 166.423 356.196 158.929 358.177 158.929C358.647 158.929 358.791 159.398 358.791 159.974C358.791 161.667 357.962 164.154 357.962 165.521C357.962 166.207 358.142 166.423 358.466 166.423C359.332 166.423 360.845 158.172 362.321 158.172C362.789 158.172 363.005 158.641 363.005 159.109C363.005 160.839 360.809 165.809 360.809 167.214C360.809 167.431 360.88 167.61 361.061 167.61C361.962 167.61 363.763 163.721 364.338 161.776C364.663 160.766 365.095 160.225 365.492 160.225C365.852 160.225 366.177 160.622 366.177 161.451C366.177 163.396 364.375 167.971 362.789 171.034C361.566 173.412 359.657 176.831 359.657 178.741C359.657 179.715 359.834 180.722 361.24 181.948C358.934 181.803 357.998 181.588 357.134 179.787C353.279 187.46 364.23 186.704 360.484 193.51C359.799 192.288 354.396 191.026 354.396 183.892C354.396 177.733 359.799 174.131 359.799 171.575C359.799 171.071 359.62 170.638 359.152 170.242C357.962 169.232 357.925 168.405 356.989 168.405C356.306 168.405 355.474 169.989 356.34 171.394C356.629 171.863 356.881 172.151 356.881 172.583C356.881 173.591 355.295 176.291 354.18 176.291C353.062 176.291 352.2 173.522 352.2 169.052C352.2 165.088 353.098 161.092 354.216 161.092C354.539 161.092 354.647 161.307 354.647 161.596C354.647 162.065 354.504 163 354.504 164.585C354.504 166.278 354.9 166.423 355.225 166.423Z" fill="white"/>
  <path fill-rule="evenodd" clip-rule="evenodd" d="M364.409 176.976C365.923 176.976 367.183 175.858 367.183 173.376V169.7C367.183 168.295 367.292 166.711 368.229 165.593C368.12 166.062 368.12 166.566 368.12 167.035C368.12 170.133 369.848 172.26 369.848 175.248C369.848 176.364 369.524 176.978 368.661 176.978C367.832 176.978 367.905 176.221 367.723 176.221C367.58 176.221 367.363 176.688 367.363 177.193C367.363 177.95 367.903 179.138 369.416 179.138C370.714 179.138 371.757 177.95 371.757 176.617C371.757 173.377 369.236 169.773 369.236 166.315C369.236 164.802 369.632 163.794 369.956 163C369.956 170.17 376.043 175.392 376.043 178.381C376.043 179.066 375.54 179.608 374.783 179.608C373.955 179.608 373.557 178.958 373.557 178.453C373.557 178.201 373.521 178.129 373.413 178.129C373.199 178.129 372.55 178.85 372.55 179.788C372.55 180.975 373.521 182.418 375.323 182.418C377.374 182.418 378.492 180.687 378.492 179.138C378.492 175.357 371.108 169.628 371.108 163.506C371.108 162.46 371.286 160.767 372.045 159.471C367.29 162.531 365.813 166.603 365.813 170.17C365.813 173.268 365.706 174.815 364.121 174.815C363.291 174.815 363.076 174.06 362.786 174.06C362.571 174.06 362.462 174.708 362.462 174.888C362.464 176.22 363.437 176.976 364.409 176.976Z" fill="white"/>
  <path fill-rule="evenodd" clip-rule="evenodd" d="M426.839 140.99C428.424 140.99 429.613 140.269 429.613 139.836C429.613 139.694 429.399 139.585 428.928 139.585C428.461 139.585 427.523 139.55 425.757 139.261C424.241 139.009 423.088 138.432 422.656 138.432C422.511 138.432 422.439 138.504 422.439 138.612C422.439 139.55 424.171 140.99 426.839 140.99ZM418.985 136.415C419.443 136.108 421.473 136.594 424.099 135.296C424.422 135.119 424.747 135.047 425.035 135.047C426.298 135.047 425.973 136.487 427.127 136.487C428.026 136.487 429.182 135.73 429.867 135.73C430.941 135.73 432.491 139.117 432.491 140.702C432.491 142.539 429.722 143.656 426.442 143.656C421.654 143.656 418.768 139.477 418.768 136.775C418.77 136.559 418.878 136.487 418.985 136.415Z" fill="white"/>
  <path fill-rule="evenodd" clip-rule="evenodd" d="M365.167 190.557C363.979 190.847 362.068 192.717 362.068 195.674C362.068 199.201 365.851 204.644 372.082 204.644C377.34 204.644 378.638 201.005 378.638 198.553C378.638 193.115 375.29 189.296 370.932 189.296C368.554 189.296 366.427 191.025 366.427 193.581C366.427 195.962 368.229 199.527 372.515 199.527C374.532 199.527 375.72 198.083 375.72 196.431C375.72 194.809 374.244 192.577 372.081 192.577C371.433 192.577 370.966 193.005 370.966 193.692C370.966 194.555 372.153 195.421 373.631 195.421C373.99 195.421 374.279 195.348 374.424 195.276C374.495 195.387 374.532 195.566 374.532 195.71C374.532 196.538 373.739 197.043 372.515 197.043C370.678 197.043 368.912 195.676 368.912 193.51C368.912 192.216 370.03 191.28 371.65 191.28C374.855 191.28 376.764 194.125 376.764 196.972C376.764 199.528 375.361 201.007 372.478 201.007C366.714 201.006 363.907 195.817 365.167 190.557Z" fill="white"/>
  <path fill-rule="evenodd" clip-rule="evenodd" d="M403.494 204.464C403.494 205.258 404.143 205.907 404.936 205.907C405.728 205.907 406.376 205.258 406.376 204.464C406.376 203.67 405.728 203.021 404.936 203.021C404.143 203.021 403.494 203.67 403.494 204.464ZM406.286 211.663C408.014 211.663 407.924 211.519 408.466 211.519C409.005 211.519 409.043 211.844 409.043 212.061C409.043 212.854 407.276 213.827 404.142 213.827C402.305 213.827 401.186 212.853 400.863 211.773C399.063 212.925 396.325 213.971 393.623 213.971C386.24 213.971 384.366 210.763 382.061 209.72C380.295 208.928 377.594 210.478 373.811 206.262C374.316 206.37 375.001 206.407 375.54 206.407C378.853 206.407 380.619 204.787 380.619 202.192C380.619 201.867 380.581 201.509 380.546 201.187C381.556 201.582 383.861 203.309 384.404 206.37C384.473 206.732 385.95 207.054 386.886 207.054C388.185 207.054 389.841 206.513 390.093 204.391C394.417 204.031 397.335 201.474 397.948 198.228C399.496 198.733 401.261 200.138 401.692 200.861C402.306 200.645 403.024 200.537 403.853 200.537C405.007 200.537 406.305 200.753 407.852 201.222C407.924 200.753 407.996 200.177 408.718 200.177C409.797 200.177 409.51 201.366 409.871 202.047C410.051 202.407 410.952 202.623 410.952 203.344C410.952 204.031 410.374 204.284 410.014 204.284C409.87 204.284 409.689 204.248 409.579 204.212C408.861 204.464 408.824 209.648 405.799 209.648C403.566 209.648 401.512 207.811 400.61 205.508C400.358 204.824 399.819 204.391 399.314 204.391C398.739 204.391 398.413 204.499 397.731 205.257C395.786 207.379 392.543 209.216 388.545 209.216C387.319 209.216 386.347 209.107 386.094 209.107C385.948 209.107 385.948 209.142 385.948 209.177C385.948 209.432 387.173 210.404 389.839 210.404C396.18 210.404 397.73 206.837 398.738 206.837C398.884 206.837 399.313 206.837 399.565 207.415C401.043 210.87 404.269 211.663 406.286 211.663Z" fill="white"/>
  <path fill-rule="evenodd" clip-rule="evenodd" d="M428.137 188.718C427.381 188.718 423.196 194.302 420.501 194.302C419.852 194.302 419.312 193.077 419.312 192.145C419.312 191.639 419.635 191.279 420.79 191.025C426.984 189.619 425.613 184.971 430.906 184.971C433.822 184.971 437.069 186.955 437.069 191.421C437.069 196.175 430.301 202.081 429.291 202.081C428.461 202.081 427.562 200.893 427.562 200.102C427.562 199.85 427.669 199.526 428.39 199.237C431.844 197.866 433.823 194.698 433.823 193.075C433.823 192.714 433.643 192.358 433.175 192.358C432.563 192.358 429.942 198.335 427.019 198.335C424.999 198.335 422.944 196.503 422.944 195.636C422.944 194.193 428.786 191.53 428.786 189.51C428.785 188.751 428.425 188.718 428.137 188.718ZM432.023 186.486C431.518 186.486 430.978 186.883 430.978 187.858C430.978 188.934 431.808 189.62 432.275 189.836C432.528 189.981 432.926 190.125 433.318 190.125C434.364 190.125 435.194 189.836 435.194 188.97C435.193 187.858 433.57 186.486 432.023 186.486Z" fill="white"/>
  <path fill-rule="evenodd" clip-rule="evenodd" d="M364.733 144.772C364.733 145.565 365.383 146.214 366.177 146.214C366.968 146.214 367.617 145.565 367.617 144.772C367.617 143.981 366.968 143.332 366.177 143.332C365.382 143.332 364.733 143.981 364.733 144.772ZM362.861 141.53C362.861 142.322 363.509 142.972 364.301 142.972C365.094 142.972 365.743 142.323 365.743 141.53C365.743 140.738 365.094 140.088 364.301 140.088C363.509 140.088 362.861 140.738 362.861 141.53ZM361.565 151.4C360.735 151.616 359.007 152.625 359.007 154.425C359.007 155.721 360.014 156.552 361.276 156.552C361.925 156.552 362.392 156.407 362.681 156.191C361.673 155.219 361.312 154.137 361.312 153.058C361.312 152.3 361.42 151.833 361.565 151.4ZM352.74 151.904C352.705 152.086 352.705 152.265 352.705 152.444C352.705 154.137 353.603 155.074 354.792 155.074C355.69 155.074 356.737 154.534 357.671 153.344C357.277 153.416 356.808 153.452 356.375 153.452C355.044 153.452 353.603 153.093 352.74 151.904ZM351.478 155.111C351.478 157.848 352.308 159.146 353.784 159.146C354.937 159.146 356.485 158.316 358.321 156.731C356.918 157.056 355.835 157.272 354.864 157.272C353.567 157.272 352.559 156.767 351.478 155.111ZM360.808 140.702C360.988 140.124 361.132 139.406 361.132 138.612C361.132 136.884 360.338 134.254 357.889 134.254C356.485 134.254 355.474 135.37 355.474 136.703C355.474 139.55 358.321 140.702 360.808 140.702ZM357.745 149.78C356.557 149.78 355.26 148.304 355.26 146.97C355.26 146.25 355.8 145.348 356.196 145.348C356.34 145.348 356.413 145.457 356.448 145.71C356.664 147.475 357.817 148.484 358.899 148.987C359.007 149.059 359.079 149.095 359.079 149.166C359.079 149.419 358.394 149.78 357.745 149.78ZM361.06 145.385C361.31 145.724 361.999 146.142 361.999 146.394C361.999 146.897 361.708 147.547 361.133 147.547C359.871 147.547 358.864 145.638 358.864 144.555C358.864 143.872 359.261 143.801 359.8 143.801C360.052 143.801 360.16 143.837 360.34 143.945C360.663 144.125 360.663 144.844 361.06 145.385ZM352.596 149.852C352.528 149.963 352.487 150.105 352.487 150.249C352.487 150.573 352.848 150.933 353.17 150.933C353.458 150.933 353.639 150.861 353.783 150.861C354.646 150.861 355.62 151.473 357.024 151.473C357.852 151.473 358.825 151.22 360.049 150.61C362.643 149.312 363.653 146.106 363.653 145.565C363.653 144.88 363.103 144.97 362.643 144.34C362.183 143.711 362.359 143.156 362.067 142.862C361.901 142.694 361.384 142.683 360.734 142.61C360.517 142.587 360.229 142.574 359.94 142.574C358.754 142.574 357.344 142.72 355.763 143.728C352.639 145.722 353.098 149.023 352.596 149.852ZM364.554 148.412C363.762 149.347 362.932 150.933 362.932 152.553C362.932 154.498 364.123 156.118 365.96 156.118C367.724 156.118 368.553 154.606 368.553 153.058C368.553 150.645 366.356 148.95 364.554 148.412ZM356.845 141.495C356.845 141.495 355.801 142.286 354.504 142.286C352.957 142.286 351.731 141.134 351.731 139.513C351.731 138.395 352.308 137.243 353.64 136.666C353.604 136.883 353.604 137.062 353.604 137.279C353.603 139.333 354.756 140.881 356.845 141.495Z" fill="white"/>
  <path fill-rule="evenodd" clip-rule="evenodd" d="M420.355 153.452C420.355 154.283 421.042 154.967 421.861 154.967C422.692 154.967 423.377 154.283 423.377 153.452C423.377 152.625 422.692 151.941 421.861 151.941C421.042 151.941 420.355 152.625 420.355 153.452ZM420.464 157.991C420.464 158.929 421.221 159.686 422.153 159.686C423.089 159.686 423.847 158.929 423.847 157.991C423.847 157.056 423.089 156.299 422.153 156.299C421.221 156.299 420.464 157.056 420.464 157.991ZM415.274 161.054C415.274 162.423 416.391 163.54 417.761 163.54C419.131 163.54 420.25 162.423 420.25 161.054C420.25 159.686 419.131 158.568 417.761 158.568C416.391 158.568 415.274 159.686 415.274 161.054ZM416.607 155.974C416.607 156.767 417.255 157.416 418.05 157.416C418.842 157.416 419.492 156.767 419.492 155.974C419.492 155.183 418.842 154.534 418.05 154.534C417.255 154.534 416.607 155.183 416.607 155.974ZM411.891 158.857C411.891 159.651 412.54 160.297 413.325 160.297C414.118 160.297 414.769 159.651 414.769 158.857C414.769 158.064 414.118 157.416 413.325 157.416C412.54 157.416 411.891 158.064 411.891 158.857ZM415.598 150.429C415.598 151.689 416.642 152.733 417.903 152.733C419.166 152.733 420.212 151.689 420.212 150.429C420.212 149.166 419.168 148.124 417.903 148.124C416.642 148.124 415.598 149.166 415.598 150.429ZM418.301 145.998C418.301 146.753 418.913 147.366 419.672 147.366C420.428 147.366 421.042 146.753 421.042 145.998C421.042 145.241 420.428 144.628 419.672 144.628C418.913 144.628 418.301 145.241 418.301 145.998ZM411.783 149.455C411.783 150.213 412.397 150.826 413.145 150.826C413.903 150.826 414.514 150.213 414.514 149.455C414.514 148.7 413.901 148.087 413.145 148.087C412.397 148.087 411.783 148.7 411.783 149.455ZM411.601 154.137C411.601 155.364 412.576 156.335 413.793 156.335C415.017 156.335 415.994 155.364 415.994 154.137C415.994 152.913 415.017 151.941 413.793 151.941C412.576 151.941 411.601 152.913 411.601 154.137ZM407.062 156.443C407.062 157.561 407.997 158.496 409.114 158.496C410.231 158.496 411.169 157.561 411.169 156.443C411.169 155.328 410.231 154.389 409.114 154.389C407.997 154.389 407.062 155.328 407.062 156.443ZM408.285 151.364C408.285 152.156 408.935 152.805 409.725 152.805C410.521 152.805 411.169 152.156 411.169 151.364C411.169 150.573 410.52 149.924 409.725 149.924C408.935 149.924 408.285 150.573 408.285 151.364ZM420.933 162.459C420.933 161.739 421.582 161.127 422.294 161.127C423.088 161.127 423.7 161.739 423.7 162.459C423.7 163.287 423.086 163.865 422.294 163.865C421.582 163.865 420.933 163.287 420.933 162.459Z" fill="white"/>
  <path fill-rule="evenodd" clip-rule="evenodd" d="M421.861 203.887C422.043 203.887 422.257 203.994 422.257 204.643C422.257 205.434 421.899 206.478 420.607 207.305C419.706 207.921 418.481 208.426 416.678 208.457C416.966 207.596 417.183 206.693 417.183 205.833C417.183 205.544 417.148 205.327 417.113 205.004H417.58C420.428 205.005 421.656 203.887 421.861 203.887ZM422.153 200.321C422.443 200.071 422.511 199.673 422.511 199.275V198.447C422.511 197.4 420.933 196.791 418.769 196.791C416.137 196.791 414.732 197.977 414.732 198.483V200.139C414.732 200.826 416.318 201.51 418.265 201.51C419.816 201.51 421.221 201.114 422.153 200.321ZM424.025 200.717C423.088 201.437 420.897 203.057 417.256 203.057C415.309 203.057 414.443 202.444 414.155 202.444C413.794 202.444 413.399 202.804 413.001 203.272C412.145 204.282 411.026 206.156 411.026 208.208C411.026 209.647 412.145 211.087 414.227 211.087C420.969 211.087 426.009 206.874 426.009 203.453C426.009 201.51 424.857 200.717 424.025 200.717Z" fill="white"/>
  <path fill-rule="evenodd" clip-rule="evenodd" d="M425.287 170.422C425.287 171.32 425.577 172.365 426.478 172.365C427.235 172.365 427.883 171.215 427.883 169.953C427.883 168.512 427.631 167.394 427.631 166.817C427.631 166.566 427.74 166.458 427.883 166.458C428.424 166.495 428.928 167.971 429.507 167.971C430.156 167.971 431.122 166.781 431.517 166.781C431.626 166.781 431.661 166.926 431.661 166.961C431.661 167.502 430.832 168.692 430.832 169.16C430.832 169.556 432.923 169.627 432.923 169.988C432.923 170.529 430.731 170.529 429.687 170.998C428.678 171.429 428.062 171.969 428.062 172.691C428.062 173.411 428.784 173.554 429.794 173.554C432.2 173.554 433.894 172.259 434.435 172.259C434.542 172.259 434.614 172.329 434.614 172.438C434.614 172.799 433.39 173.987 433.39 174.528C433.39 175.139 435.625 175.858 435.588 176.22C435.553 176.327 435.408 176.363 435.156 176.363C434.758 176.363 434.146 176.255 433.677 176.255C433.388 176.255 433.137 176.29 433.027 176.434C432.777 176.723 433.099 178.633 432.598 178.633C432.128 178.633 430.902 174.383 428.135 174.383C427.738 174.383 427.45 174.707 427.45 175.247C427.45 176.687 428.855 178.344 430.19 179.137C430.794 179.534 431.804 179.93 431.804 180.148C431.804 180.578 429.504 180.183 429.504 180.902C429.504 181.551 429.793 182.526 429.793 183.1C429.793 183.281 429.756 183.495 429.541 183.495C429.108 183.495 428.061 181.515 427.557 181.515C427.125 181.515 426.188 182.703 425.791 182.703C425.683 182.703 425.611 182.595 425.611 182.489C425.611 181.659 426.946 179.787 426.946 177.949C426.946 177.084 426.837 175.211 425.791 175.211C424.926 175.211 423.952 176.579 423.519 177.949C423.268 178.741 423.448 181.803 422.87 181.803C422.33 181.803 422.474 179.751 421.752 179.751C421.22 179.751 420.066 180.722 419.669 180.722C419.597 180.722 419.524 180.686 419.524 180.614C419.524 180.183 420.57 178.777 420.57 178.489C420.57 177.949 418.191 177.877 418.191 177.445C418.191 177.192 419.128 177.013 419.993 176.868C421.825 176.543 424.528 175.211 424.528 173.339C424.528 171.25 422.509 170.348 421.183 169.483C420.498 169.051 419.741 168.692 419.741 168.404C419.741 168.115 420.605 168.115 420.966 168.115C421.506 168.115 422.041 168.079 422.041 167.647C422.041 167.322 421.968 166.675 421.968 166.17C421.968 165.809 422.003 165.521 422.15 165.521C422.69 165.521 423.447 167.285 423.809 167.285C424.384 167.285 425.177 165.844 425.719 165.844C425.897 165.844 425.971 165.953 425.971 166.277C425.973 167.61 425.287 169.122 425.287 170.422ZM408.105 159.867C408.501 162.927 412.612 161.378 412.612 165.088C412.612 165.629 412.468 166.423 412.468 167.106C412.468 167.899 412.538 168.583 413.145 168.583C413.757 168.583 413.902 168.152 413.902 167.575C413.902 166.997 413.757 166.278 413.757 165.882C413.757 164.62 414.659 164.333 415.201 164.333C416.571 164.333 417.616 165.738 419.673 165.738C419.202 168.043 414.443 167.431 414.443 169.953C414.443 171.215 415.705 171.501 416.534 171.501C417.291 171.501 417.544 171.393 417.544 170.746C417.544 170.384 417.473 169.988 417.473 169.736C417.473 169.591 417.58 169.447 417.761 169.447C418.556 169.447 422.439 172.402 422.439 173.304C422.439 174.131 418.337 174.959 417.148 174.959C416.787 174.959 416.715 174.707 416.715 174.563C416.715 174.311 417.327 173.554 417.327 173.123C417.327 172.799 416.787 172.582 415.344 172.582C414.659 172.582 414.154 172.655 414.154 173.196C414.154 174.166 415.74 175.356 415.74 176.255C415.74 176.976 415.308 177.409 414.154 177.409C413.18 177.409 411.709 176.651 411.709 175.391C411.709 174.383 412.748 173.376 412.748 172.762C412.748 172.582 412.611 172.294 412.178 172.294C410.843 172.294 410.483 175.823 405.762 176.22C406.519 175.535 407.166 174.779 407.166 173.232C407.166 172.475 406.987 171.861 406.987 171.034C406.987 169.953 407.49 169.412 408.211 169.412C409.543 169.412 410.192 171.284 411.06 171.284C411.529 171.284 412.033 170.854 412.033 170.205C412.033 167.467 406.772 167.863 406.772 164.009C406.773 162.964 407.131 161.667 408.105 159.867Z" fill="white"/>
  <path fill-rule="evenodd" clip-rule="evenodd" d="M414.947 183.28C414.947 183.784 415.308 184.181 415.813 184.181C416.39 184.181 416.751 183.676 416.751 183.1C416.751 182.344 416.066 181.299 415.417 181.299C415.127 181.299 415.237 181.732 415.164 182.2C415.127 182.559 414.947 182.991 414.947 183.28ZM413.074 178.489C416.858 179.209 418.913 182.056 418.913 184.724C418.913 186.561 417.761 188.251 415.742 188.251C413.902 188.251 412.576 186.991 412.576 184.973C412.576 183.461 413.756 181.876 413.756 180.326C413.756 179.714 413.578 179.101 413.074 178.489ZM408.285 184.614C408.644 184.972 408.753 185.333 408.753 185.694C408.753 186.235 408.503 186.811 408.503 187.425C408.503 188.285 409.15 189.043 410.085 189.043C411.096 189.043 411.783 188.25 411.783 187.316C411.783 185.947 410.374 184.614 408.285 184.614ZM420.211 182.309C420.464 182.703 420.572 183.1 420.572 183.46C420.572 184.469 419.886 185.406 419.886 186.452C419.886 187.64 420.79 188.611 422.152 188.611C423.63 188.611 424.64 187.426 424.64 186.018C424.64 184.109 422.908 182.488 420.211 182.309ZM409.15 180.397C410.809 180.614 411.207 181.189 411.207 181.659C411.207 182.452 410.485 182.703 409.798 182.703C409.296 182.703 408.719 182.595 408.105 182.595C407.312 182.595 406.521 182.775 405.872 183.532C406.341 183.604 407.026 183.929 407.026 184.651C407.026 186.741 401.226 185.008 401.226 190.379C401.226 193.223 404.182 196.323 408.646 196.323C410.954 196.323 412.433 195.566 412.433 194.699C412.433 194.016 411.209 194.484 411.209 193.906C411.209 193.654 411.64 193.185 411.64 192.788C411.64 192.613 411.496 192.287 411.209 192.287C410.557 192.287 409.332 193.328 406.846 193.328C404.899 193.328 402.99 192.215 402.99 190.7C402.99 190.376 403.136 190.195 403.35 190.195C403.567 190.195 403.854 190.34 404.108 190.34C404.325 190.34 404.359 190.195 404.359 189.8C404.359 189.403 404.359 188.285 405.042 188.285C405.728 188.285 407.026 190.808 411.999 190.808C413.651 190.808 416.859 190.485 418.049 189.403C418.013 193.366 414.912 198.589 408.43 198.589C401.694 198.589 398.091 193.185 398.091 188.213C398.091 182.703 402.593 177.697 408.754 177.697C410.338 177.697 411.674 178.236 411.674 178.921C411.673 179.859 409.331 179.282 409.15 180.397Z" fill="white"/>
  <path fill-rule="evenodd" clip-rule="evenodd" d="M385.843 139.261C388.221 139.261 389.3 141.314 389.3 143.62C389.3 144.627 389.014 146.106 388.546 146.106C388.077 146.106 388.15 145.276 388.077 144.52C388.006 143.547 387.824 143.332 387.5 143.332C386.887 143.332 386.492 144.772 386.492 146.106C386.492 146.933 386.636 147.87 387.283 147.87C387.644 147.87 387.968 147.69 388.185 147.474C388.041 149.13 386.814 150.573 385.086 150.573C381.916 150.573 380.727 146.862 380.368 144.7C378.459 146.717 376.694 148.195 373.523 148.195C370.571 148.195 369.238 146.033 369.238 143.981C369.238 143.367 369.453 141.783 370.211 141.783C371.111 141.783 370.319 144.735 372.083 144.735C372.517 144.735 373.306 144.374 373.741 143.188C373.993 142.466 374.137 141.711 374.137 141.061C374.137 140.088 373.921 139.477 373.201 139.477C372.587 139.477 371.83 139.944 371.578 140.197C372.444 137.603 374.533 136.271 376.835 136.271C379.684 136.271 381.196 138.792 381.196 141.602C381.196 141.997 381.159 142.43 381.087 142.827C382.312 140.809 384.007 139.261 385.843 139.261ZM383.069 143.512C383.069 142.898 382.924 142.754 382.781 142.754C382.42 142.754 382.025 143.188 381.449 144.16C381.52 145.457 381.737 146.033 382.097 146.033C382.493 146.033 383.069 144.772 383.069 143.512ZM378.132 144.988C378.528 144.988 379.033 144.554 379.972 143.512C380.043 143.043 380.043 142.61 380.043 142.07C380.043 141.351 379.755 140.557 379.323 140.557C378.241 140.557 377.702 143.439 377.702 144.197C377.703 144.627 377.918 144.988 378.132 144.988ZM384.007 148.195C384.906 148.195 385.915 144.735 385.915 142.574C385.915 142.105 385.843 141.602 385.625 141.602C384.869 141.602 383.608 145.169 383.608 147.113C383.609 147.87 383.791 148.195 384.007 148.195ZM375.182 146.214C376.406 146.214 377.81 139.585 377.81 138.467C377.81 138.179 377.703 137.963 377.451 137.963C376.334 137.963 374.786 144.268 374.786 145.674C374.785 145.925 374.856 146.214 375.182 146.214Z" fill="white"/>
  <path fill-rule="evenodd" clip-rule="evenodd" d="M379.107 148.949C377.558 148.949 377.486 150.826 377.486 154.606C376.333 152.121 374.425 149.454 372.191 149.454C370.679 149.454 370.103 150.464 370.103 152.227C370.103 152.588 370.138 153.129 370.211 153.452C370.391 152.841 370.968 152.588 371.687 152.588C373.238 152.588 375.11 153.776 376.335 155.399C374.931 155.147 373.562 154.894 372.41 154.894C371.688 154.894 371.04 154.966 370.5 155.218C369.455 155.686 368.051 157.236 368.051 159.578C368.051 159.938 368.087 160.333 368.16 160.766C369.42 157.955 372.77 156.695 374.931 156.695C375.365 156.695 375.687 156.731 375.94 156.767C374.822 157.775 374.571 159.54 374.498 160.729C374.464 161.306 374.246 161.343 373.849 161.343C373.849 162.53 374.787 164.297 374.787 165.196C374.787 165.521 374.607 165.809 374.427 165.882C374.427 167.467 376.01 168.62 376.01 169.627C376.01 169.879 375.94 170.096 375.83 170.205C375.94 170.854 377.682 171.944 377.908 172.491C378.185 173.155 378.496 173.267 378.677 173.267C379.289 173.267 380.26 172.546 380.26 171.897C380.26 171.681 380.079 171.429 379.937 171.32C379.252 170.817 378.891 169.736 378.603 169.017C378.35 169.017 378.024 168.91 377.91 168.485C377.713 167.74 377.703 166.35 377.415 165.521C376.946 165.413 376.73 165.233 376.73 164.26C376.73 163.792 377.019 161.954 377.019 161.305C376.803 161.305 376.515 161.161 376.515 160.728C376.515 159.577 377.669 158.676 377.991 157.199C380.045 158.711 380.548 160.26 380.548 161.63C380.548 162.349 380.44 163.034 380.296 163.684C381.809 162.926 384.079 161.81 384.079 159.54C384.079 158.206 383.466 156.73 379.395 156.153C380.656 155.685 382.242 155.434 383.574 155.434C385.881 155.434 387.213 156.153 387.5 157.774C387.968 157.054 388.329 156.225 388.329 155.469C388.329 153.703 386.851 152.552 384.979 152.552C382.781 152.552 380.836 153.703 378.746 155.109C379.685 153.165 380.33 152.012 381.485 152.012C381.664 152.012 381.845 152.048 382.025 152.084C381.593 150.5 379.972 148.949 379.107 148.949Z" fill="white"/>
  <path fill-rule="evenodd" clip-rule="evenodd" d="M439.801 174.923C441.605 174.923 443.045 177.264 443.045 180.003C443.045 182.92 441.675 186.09 439.231 188.251C439.195 183.388 433.245 184.937 433.245 181.409C433.245 179.896 434.327 178.886 435.626 178.886C436.78 178.886 437.68 179.211 438.33 179.861C437.68 179.247 437.355 178.381 437.355 177.554C437.355 176.183 438.221 174.923 439.801 174.923Z" fill="white"/>
  <path fill-rule="evenodd" clip-rule="evenodd" d="M413.074 138.071C412.785 137.603 411.71 137.352 411.207 137.352C409.618 137.352 408.538 138.467 408.322 139.477C408.178 139.116 408.069 138.684 408.069 138.252C408.069 136.667 409.151 134.722 411.784 134.722C414.084 134.722 414.984 135.946 415.309 135.946C415.669 135.946 416.031 135.585 416.319 135.585C416.716 135.585 416.716 136.198 416.716 136.631C416.716 138.071 416.066 140.557 414.444 141.458C414.154 140.846 413.579 140.16 412.647 139.729C412.396 139.621 412.288 139.406 412.288 139.189C412.286 138.792 412.646 138.287 413.074 138.071ZM407.637 140.701C408.574 141.602 409.4 141.997 410.41 141.997C410.808 141.997 411.278 141.891 411.532 141.891C411.856 141.891 412.071 142.034 412.071 142.285C412.071 142.683 411.71 143.332 411.278 143.692C411.71 143.872 412.18 143.944 412.685 143.944C414.731 143.944 417.074 142.646 417.074 139.406C417.507 139.98 417.76 141.17 417.76 141.711C417.76 145.637 414.875 147.15 412.215 147.15C410.485 147.15 409.617 146.572 409.399 146.572C408.716 146.572 408.752 147.943 408.285 147.906C407.455 147.762 406.7 145.925 406.7 143.981C406.702 142.827 406.99 141.602 407.637 140.701Z" fill="white"/>
  <path fill-rule="evenodd" clip-rule="evenodd" d="M376.801 117.791C376.801 117.575 375.721 117.358 374.244 117.358C371.903 117.358 372.227 119.306 370.426 119.306C368.553 119.306 369.019 117.286 366.642 117.286C365.201 117.286 363.87 117.539 363.87 117.863C363.87 118.296 365.562 118.116 365.562 119.306C365.562 120.565 361.923 120.926 361.923 121.683C361.923 121.935 362.21 122.043 362.571 122.043C363.365 122.043 364.624 121.683 365.526 121.683C366.031 121.683 366.499 121.79 366.499 122.258C366.499 123.159 364.552 124.781 364.552 125.501C364.552 125.718 364.732 125.79 364.912 125.79C365.634 125.79 366.859 123.952 368.011 123.952C369.92 123.952 368.661 128.022 369.704 128.022C370.784 128.022 370.316 124.023 371.865 124.023C373.128 124.023 374.063 126.797 374.928 126.797C375.144 126.797 375.324 126.618 375.324 126.365C375.324 125.61 374.243 124.059 374.243 123.051C374.243 122.439 374.676 122.149 375.252 122.149C376.079 122.149 377.197 122.654 377.807 122.654C378.023 122.654 378.24 122.583 378.24 122.331C378.24 121.466 375.036 120.53 375.036 119.414C375.038 118.296 376.801 118.296 376.801 117.791ZM385.266 121.466C385.266 122.114 387.536 123.52 388.582 123.52C389.193 123.52 389.374 122.691 389.374 121.826C389.374 120.746 388.907 120.71 387.969 120.71C386.78 120.71 385.266 121.034 385.266 121.466ZM389.014 128.599C389.014 126.436 383.17 122.51 383.105 120.818C383.098 120.663 383.183 120.509 383.314 120.372C384.315 119.316 388.472 118.546 388.472 117.646C388.472 117.18 387.606 117.18 387.174 117.18C383.824 117.18 378.925 118.404 378.925 119.592C378.925 120.818 383.319 123.808 383.319 125.286C383.319 125.682 383.068 125.826 382.67 125.826C381.447 125.826 378.781 124.347 377.52 124.347C376.944 124.347 376.726 124.743 376.726 125.322C376.726 127.05 378.78 130.328 378.78 131.298C378.78 131.407 378.743 131.551 378.599 131.551C377.95 131.551 374.891 127.951 373.809 127.951C373.414 127.951 373.377 128.49 373.377 129.283V130.507C373.377 131.336 373.34 131.84 372.946 131.84C372.007 131.84 371.576 129.211 370.676 129.211C369.739 129.211 369.558 133.893 368.66 133.893C367.614 133.893 368.515 128.742 367.506 128.742C366.389 128.742 365.128 132.165 364.335 132.165C364.047 132.165 363.976 131.876 363.976 131.624C363.976 130.58 364.586 128.887 364.586 127.879C364.586 127.373 364.442 127.086 364.012 127.086C362.894 127.086 360.445 128.887 359.509 128.887C359.365 128.887 359.184 128.815 359.184 128.67C359.184 127.808 363.11 125.069 363.11 123.845C363.11 122.654 357.705 123.449 357.705 122.078C357.705 120.926 361.563 119.737 361.563 118.548C361.563 117.503 356.987 117.037 355.222 117.037C353.096 117.037 351.944 117.286 351.944 117.899C351.944 118.836 356.772 119.126 356.772 119.953C356.772 120.746 351.764 122.871 351.764 124.095C351.764 125.177 358.824 124.167 358.824 125.286C358.824 126.509 352.666 131.803 352.666 133.569C352.666 133.966 352.954 134.146 353.349 134.146C355.222 134.146 360.083 130.58 361.417 130.58C361.886 130.58 361.922 131.155 361.922 131.66C361.922 132.597 361.599 134.037 361.599 135.083C361.599 135.91 361.814 136.487 362.534 136.487C363.869 136.487 365.091 134.218 365.994 134.218C367.146 134.218 366.462 140.881 368.191 140.881C369.667 140.881 370.279 133.677 371.216 133.677C372.153 133.677 372.911 135.766 373.775 135.766C374.854 135.766 374.35 132.129 375.504 132.129C376.763 132.129 380.366 136.452 381.987 136.452C382.491 136.452 382.67 136.055 382.67 135.55C382.67 133.64 380.006 129.319 380.006 127.951C380.006 127.591 380.113 127.482 380.509 127.482C381.914 127.482 386.022 129.427 387.966 129.427C388.619 129.427 389.014 129.067 389.014 128.599ZM356.123 126.509C356.123 127.23 353.386 129.643 352.415 129.643C352.055 129.643 351.945 129.211 351.945 128.815C351.945 128.096 352.27 127.086 352.667 126.761C353.133 126.328 354.215 126.115 355.043 126.115C355.547 126.115 356.123 126.221 356.123 126.509ZM382.6 130.219C382.6 131.48 387.102 137.64 387.968 137.64C388.69 137.64 389.229 136.379 389.229 135.297C389.229 135.011 389.156 134.724 389.014 134.506C388.365 133.605 383.79 130.002 382.78 130.002C382.672 130.002 382.6 130.111 382.6 130.219Z" fill="white"/>
  <path fill-rule="evenodd" clip-rule="evenodd" d="M440.449 119.306C440.449 119.809 440.844 120.205 441.349 120.205C441.855 120.205 442.252 119.809 442.252 119.306C442.252 118.801 441.855 118.404 441.349 118.404C440.844 118.404 440.449 118.801 440.449 119.306ZM434.58 127.265C434.58 124.708 428.461 124.059 428.461 123.484C428.461 123.016 431.877 122.222 433.643 122.186C430.94 118.728 427.09 119.089 427.09 118.476C427.09 118.116 429.974 117.394 432.635 117.394C434.869 117.394 436.959 117.899 436.959 119.592C436.959 120.53 436.202 121.504 436.202 122.942C436.202 123.736 436.596 124.42 437.644 124.42C438.764 124.42 439.014 123.232 439.014 121.969C439.014 120.926 438.835 120.133 438.835 119.628C438.835 118.116 439.872 117.108 441.349 117.108C442.576 117.108 442.865 117.646 444.668 117.646C443.693 118.225 443.334 119.27 443.334 119.772C443.334 121.287 444.309 122.331 444.309 125.43C444.309 131.119 438.979 133.136 432.455 133.136C430.663 133.136 428.75 132.992 426.874 132.705C426.586 132.669 426.515 132.597 426.515 132.417C426.515 131.948 429.075 131.695 429.075 129.392C429.075 128.49 428.785 127.626 428.785 127.303C428.785 127.122 428.929 127.014 429.075 127.014C429.614 127.014 430.699 129.102 432.71 129.102C433.244 129.102 434.58 128.922 434.58 127.265ZM440.665 123.629C440.665 126.833 438.33 129.283 434.11 129.967C434.58 130.002 435.012 130.002 435.446 130.002C440.377 130.002 442.181 127.77 442.181 125.898C442.181 124.852 441.603 123.917 440.665 123.629Z" fill="white"/>
  <path fill-rule="evenodd" clip-rule="evenodd" d="M438.185 170.059C438.763 168.26 439.485 166.997 440.666 165.052C439.485 164.442 436.346 163.143 436.346 161.017C436.346 158.531 439.446 156.587 440.087 156.587C440.376 156.587 440.449 156.84 440.449 157.308C440.449 158.604 439.835 160.693 439.835 161.811C439.835 162.818 440.485 163.793 441.06 163.793C441.674 163.793 443.368 161.631 443.368 159.505C443.368 155.686 440.014 154.534 438.978 154.534C438.004 154.534 436.237 156.118 432.093 156.118C424.35 156.118 422.583 148.448 422.583 145.096C422.583 144.952 422.618 144.916 422.654 144.916C422.835 144.916 423.592 145.854 426.043 145.854C427.304 145.854 428.458 145.528 430.297 145.528C434.612 145.528 436.524 148.52 439.193 152.336C440.807 153.344 444.666 154.966 444.666 159.541C444.666 163.576 440.375 165.809 439.338 170.132C440.988 169.953 441.962 166.997 443.656 166.997C444.522 166.997 444.917 167.682 444.917 168.765C444.917 170.348 444.016 172.727 442.286 174.203C442.321 174.059 442.321 173.878 442.321 173.662C442.321 172.654 441.925 171.214 440.77 171.214C438.976 171.214 438.398 173.159 437.39 174.778C436.344 171.106 434.939 167.79 432.418 165.773C429.867 163.72 425.466 164.836 425.466 161.09C425.466 160.08 426.116 158.64 426.116 157.488C426.116 157.092 426.044 156.731 425.827 156.443C429.287 157.741 428.062 160.044 430.19 162.422C431.517 163.937 435.192 165.377 437.319 171.608C437.353 171.429 437.39 170.961 437.39 170.637C437.39 165.305 430.332 160.08 429.721 157.919C433.819 158.387 434.541 159.397 436.487 164.8C436.886 165.918 438.185 168.692 438.185 170.059ZM437.248 152.588C437.248 151.832 435.336 151.761 435.157 149.635C435.12 149.311 435.012 148.736 434.616 148.736C433.967 148.736 434.47 150.717 433.751 150.717C432.094 150.717 431.554 147.474 430.94 147.474C430.795 147.474 430.624 147.582 430.624 148.014C430.624 148.411 430.696 148.663 430.696 149.13C430.696 149.599 430.587 149.924 430.155 149.924C429.182 149.924 428.316 147.654 427.486 147.654C427.306 147.654 427.127 147.762 427.127 147.943C427.127 148.375 427.847 149.166 427.847 149.563C427.847 150.429 425.504 149.959 425.504 150.681C425.504 151.005 425.828 151.112 426.26 151.112C427.019 151.112 428.209 150.79 428.821 150.79C429.182 150.79 429.723 150.861 429.723 151.328C429.723 151.832 428.424 152.48 428.424 152.949C428.424 153.166 428.639 153.272 428.82 153.272C429.793 153.272 431.517 151.581 432.742 151.581C432.957 151.581 433.497 151.688 433.497 152.013C433.497 152.48 432.273 153.308 432.273 153.993C432.273 154.173 432.384 154.389 432.599 154.389C433.244 154.389 434.11 152.697 435.335 152.697C435.804 152.697 436.489 152.877 436.851 152.877C437.141 152.877 437.248 152.697 437.248 152.588Z" fill="white"/>
  <path fill-rule="evenodd" clip-rule="evenodd" d="M410.41 131.009C410.989 131.009 411.096 132.416 411.207 133.244C411.278 133.677 411.35 133.712 411.532 133.712C411.964 133.712 412.647 132.056 413.11 132.056C413.794 132.056 415.634 133.965 418.697 133.965C423.053 133.965 427.163 130.902 427.163 125.501C427.163 120.277 423.485 117.214 418.408 117.214C415.995 117.214 414.227 118.403 413.289 118.403C412.721 118.44 411.855 117 411.422 117C411.243 117 411.062 117.357 411.062 117.971C411.062 118.368 411.062 119.628 410.628 119.628C409.761 119.628 406.413 117.144 406.413 118.043C406.413 118.872 408.644 121.394 408.644 122.042C408.644 122.69 406.448 123.304 406.448 123.735C406.448 124.527 408.789 124.671 408.789 125.681C408.789 126.689 406.339 127.482 406.339 128.239C406.339 128.85 408.789 128.419 408.789 129.175C408.789 129.93 406.989 132.453 406.989 133.171C406.989 133.352 407.024 133.352 407.167 133.352C407.852 133.352 409.905 131.009 410.41 131.009ZM411.458 125.105C411.458 124.708 410.051 123.952 410.051 123.52C410.051 123.448 410.121 123.412 410.231 123.412C410.628 123.412 411.313 123.556 411.855 123.556C412.324 123.556 412.397 121.538 412.75 121.538C413.002 121.538 413.433 123.448 413.832 123.448C414.3 123.448 415.164 122.907 415.525 122.907C415.598 122.907 415.669 122.942 415.669 123.016C415.669 123.268 414.769 124.239 414.769 124.527C414.769 124.852 416.789 125.249 416.789 125.537C416.789 125.898 414.733 125.861 414.733 126.186C414.733 126.436 415.49 127.445 415.49 127.77C415.49 127.843 415.452 127.879 415.382 127.879C415.093 127.879 413.975 127.373 413.651 127.373C413.253 127.373 412.612 128.85 412.288 128.85C412.18 128.85 412.109 128.706 412.109 128.526L412.037 127.086C412.037 126.942 411.965 126.796 411.784 126.796C411.35 126.796 410.522 126.76 410.267 126.76C410.087 126.76 410.016 126.725 410.016 126.652C410.015 126.364 411.458 125.357 411.458 125.105ZM418.482 131.948C415.956 131.948 414.298 130.688 414.298 130.038C414.298 129.714 414.514 129.499 414.804 129.499C415.598 129.499 417.327 130.722 417.903 130.722C418.048 130.722 418.155 130.652 418.155 130.435C418.155 129.786 417.542 128.706 417.542 128.167C417.542 128.022 417.651 127.915 417.867 127.915C418.839 127.915 420.282 128.311 421.04 128.311C421.293 128.311 421.364 128.167 421.364 128.022C421.364 127.23 419.02 125.681 419.02 125.212C419.02 124.78 421.934 124.13 421.934 123.448C421.934 122.726 417.972 123.231 417.972 122.546C417.972 122.042 418.73 121.178 418.73 120.782C418.73 120.601 418.586 120.53 418.334 120.53C418.01 120.53 416.281 121.214 415.559 121.214C415.199 121.214 414.765 121.142 414.765 120.636C414.765 119.808 416.171 118.908 418.371 118.908C421.932 118.908 424.06 121.358 424.06 125.464C424.062 130.652 420.428 131.948 418.482 131.948Z" fill="white"/>
  <path fill-rule="evenodd" clip-rule="evenodd" d="M394.093 194.268C394.093 194.592 393.984 194.953 393.696 195.311C393.302 194.592 392.184 194.231 391.679 194.232C387.968 194.232 389.373 199.6 385.411 199.6C383.754 199.6 383.609 199.383 382.999 199.383C382.746 199.383 382.601 199.493 382.601 199.708C382.601 200.646 383.935 202.95 387.645 202.95C391.355 202.95 394.923 200.682 394.923 197.868C394.923 197.4 394.815 196.9 394.598 196.395C394.742 196.178 395.104 196.033 395.427 196.033C396.003 196.033 396.327 196.685 396.867 196.685C397.445 196.685 397.877 196.251 397.877 195.676C397.877 195.205 397.625 194.882 397.194 194.662C397.482 194.449 397.698 194.088 397.698 193.692C397.698 193.077 397.264 192.503 396.543 192.503C396.218 192.503 396.004 192.614 395.752 192.861C395.682 192.216 395.32 191.603 394.634 191.603C394.094 191.603 393.696 191.998 393.696 192.613C393.696 193.185 394.093 193.655 394.093 194.268Z" fill="white"/>
  <path fill-rule="evenodd" clip-rule="evenodd" d="M384.403 195.637C383.321 195.637 381.701 194.482 381.701 193.832C381.701 193.292 382.205 193.003 382.599 193.003C383.501 193.003 385.12 194.124 385.12 195.06C385.122 195.312 384.941 195.637 384.403 195.637ZM374.353 187.57C377.235 188.285 378.676 189.836 378.963 191.673C379.251 193.438 379.611 194.881 380.295 195.6C381.196 196.611 382.961 197.505 384.511 197.505C385.808 197.505 386.851 197.078 386.851 195.888C386.851 194.59 385.086 191.673 382.493 191.673C382.241 191.673 381.916 191.71 381.555 191.71C381.231 191.71 380.762 191.638 380.475 191.386C379.9 190.88 379.718 188.178 378.638 186.558C377.45 184.755 376.153 184.25 374.389 184.25C373.129 184.25 371.722 184.934 371.722 185.943C371.722 186.56 372.047 186.991 374.353 187.57Z" fill="white"/>
  <path fill-rule="evenodd" clip-rule="evenodd" d="M392.436 183.172C392.436 181.552 389.085 181.515 389.085 179.066C389.085 178.452 389.48 177.409 390.274 176.29C390.6 178.164 391.353 179.137 392.977 179.751C396.181 180.938 396.615 182.738 396.615 184.65C396.615 187.893 394.345 191.927 388.51 191.927C383.826 191.927 380.475 187.747 380.475 184.217C380.475 183.242 380.727 182.164 381.34 182.164C381.881 182.164 382.06 182.595 382.493 183.027C384.115 184.65 385.88 185.079 388.437 185.079C390.743 185.08 392.436 184.145 392.436 183.172ZM392.58 185.766C391.344 186.332 390.852 186.235 390.852 187.497C390.852 187.963 390.743 188.574 390.743 188.9C390.743 189.332 390.814 189.585 391.318 189.585C392.616 189.585 394.67 187.388 394.67 185.514C394.67 185.008 394.38 184.795 394.056 184.795C393.768 184.795 393.445 185.37 392.58 185.766ZM381.088 167.575C381.088 165.269 386.565 164.045 386.565 161.198C386.565 160.73 386.385 159.902 386.06 159.29C387.967 160.334 389.373 162.1 389.373 163.54C389.373 166.026 386.781 167.179 386.781 168.729C386.781 170.53 389.554 170.818 389.554 173.051C389.554 174.887 386.924 177.013 386.924 179.39C386.924 181.227 388.222 182.738 390.2 182.991C389.553 183.136 388.977 183.242 388.365 183.242C384.725 183.242 380.979 180.255 380.979 176.687C380.979 174.923 381.736 173.376 382.887 172.259C383.897 173.123 384.905 173.699 385.554 173.699C386.129 173.699 386.383 173.412 386.383 172.979C386.385 171.645 381.088 170.422 381.088 167.575Z" fill="white"/>
  <path fill-rule="evenodd" clip-rule="evenodd" d="M360.194 185.37C360.346 186.6 361.494 187.532 362.788 187.388C363.256 187.337 363.689 187.209 363.979 187.029C364.267 188.18 365.234 188.922 366.541 188.749C367.867 188.577 368.769 187.532 368.626 186.199C368.589 185.841 368.517 185.622 368.411 185.37C368.411 185.37 368.585 185.35 368.717 185.327C370.019 185.079 370.895 184.037 370.787 182.776C370.644 181.479 369.48 180.517 368.269 180.666C367.799 180.723 367.366 180.902 367.076 181.154C366.751 180.076 365.735 179.136 364.349 179.366C363.096 179.573 362.268 180.637 362.394 181.984C362.414 182.203 362.465 182.453 362.574 182.703C362.574 182.703 362.362 182.734 362.215 182.756C361.164 182.912 360.023 183.971 360.194 185.37ZM366.926 183.953C367.014 184.705 366.476 185.384 365.724 185.472C364.972 185.56 364.29 185.021 364.204 184.27C364.116 183.515 364.654 182.835 365.406 182.747C366.159 182.659 366.839 183.198 366.926 183.953Z" fill="white"/>
</svg>
